<svg width="15" height="12" viewBox="0 0 15 12" fill="none" xmlns="http://www.w3.org/2000/svg">
<path d="M7.08843 11.8745L0.16202 6.7315C-0.0594359 6.56124 -0.0530777 6.28993 0.176224 6.12549C0.399912 5.96508 0.754519 5.96508 0.978173 6.12549L7.4965 10.9655L14.0148 6.12549C14.2402 5.95817 14.6056 5.95817 14.831 6.12549C15.0563 6.29287 15.0563 6.56415 14.831 6.7315L7.90458 11.8745C7.67917 12.0418 7.31381 12.0418 7.08843 11.8745Z" fill="#1C65C3"/>
<path d="M7.08843 5.87451L0.16202 0.731503C-0.0594359 0.561241 -0.0530777 0.289928 0.176224 0.125493C0.399912 -0.0349249 0.754519 -0.0349249 0.978173 0.125493L7.4965 4.96549L14.0148 0.125493C14.2402 -0.0418304 14.6056 -0.0418304 14.831 0.125493C15.0563 0.292867 15.0563 0.564155 14.831 0.731503L7.90458 5.87451C7.67917 6.04183 7.31381 6.04183 7.08843 5.87451Z" fill="#1C65C3"/>
</svg>
