<svg width="32" height="33" viewBox="0 0 32 33" fill="none" xmlns="http://www.w3.org/2000/svg">
<path d="M7.0763 19.6474L5.96487 23.8724L1.90263 23.9599C0.68861 21.667 0 19.0436 0 16.2558C0 13.5599 0.643833 11.0178 1.78507 8.7793H1.78594L5.40249 9.45447L6.98675 13.1151C6.65517 14.0995 6.47444 15.1562 6.47444 16.2558C6.47457 17.4491 6.68685 18.5925 7.0763 19.6474Z" fill="#FBBB00"/>
<path d="M31.6504 13.2197C31.8337 14.2032 31.9293 15.2188 31.9293 16.2567C31.9293 17.4206 31.8091 18.556 31.5802 19.6511C30.8031 23.3777 28.7723 26.6318 25.9592 28.9346L25.9583 28.9337L21.4031 28.697L20.7584 24.5988C22.625 23.484 24.0838 21.7395 24.8523 19.6511H16.3154V13.2197H24.9768H31.6504Z" fill="#518EF8"/>
<path d="M25.9582 28.9337L25.959 28.9346C23.2231 31.1739 19.7476 32.5138 15.9643 32.5138C9.88453 32.5138 4.5986 29.0534 1.9021 23.961L7.07578 19.6484C8.424 23.3125 11.895 25.9208 15.9643 25.9208C17.7134 25.9208 19.3521 25.4393 20.7582 24.5988L25.9582 28.9337Z" fill="#28B446"/>
<path d="M26.1558 3.74268L20.9838 8.05435C19.5286 7.12808 17.8084 6.59299 15.9654 6.59299C11.804 6.59299 8.26807 9.32094 6.98739 13.1164L1.78652 8.78058H1.78564C4.44267 3.56404 9.79527 0 15.9654 0C19.8391 0 23.3909 1.40509 26.1558 3.74268Z" fill="#F14336"/>
</svg>
