<svg width="15" height="21" viewBox="0 0 15 21" fill="none" xmlns="http://www.w3.org/2000/svg">
<path d="M7.5 0C3.36438 0 0 3.55342 0 7.92087C0 14.2093 6.69527 20.5264 6.98043 20.7928C7.12955 20.9309 7.31478 21 7.5 21C7.69255 21 7.8851 20.9254 8.03527 20.7767C8.31938 20.496 15 13.8313 15 7.92142C15 3.55397 11.6346 0 7.5 0ZM7.5 11.6981C5.5248 11.6981 3.92424 10.0065 3.92424 7.92197C3.92424 5.83745 5.5248 4.14584 7.5 4.14584C9.47415 4.14584 11.0747 5.83689 11.0747 7.92197C11.0747 10.0071 9.47415 11.6981 7.5 11.6981Z" fill="#00295D"/>
</svg>
