<svg width="23" height="31" viewBox="0 0 23 31" fill="none" xmlns="http://www.w3.org/2000/svg">
<path d="M11.5 0C5.15871 0 0 5.24553 0 11.6927C0 20.9756 10.2661 30.3009 10.7033 30.6941C10.932 30.898 11.216 31 11.5 31C11.7952 31 12.0905 30.8899 12.3207 30.6704C12.7564 30.256 23 20.4176 23 11.6935C23 5.24634 17.8397 0 11.5 0ZM11.5 17.2686C8.47136 17.2686 6.01716 14.7715 6.01716 11.6943C6.01716 8.61718 8.47136 6.12005 11.5 6.12005C14.527 6.12005 16.9812 8.61637 16.9812 11.6943C16.9812 14.7723 14.527 17.2686 11.5 17.2686Z" fill="white"/>
</svg>
