<svg width="100" height="68" viewBox="0 0 100 68" fill="none" xmlns="http://www.w3.org/2000/svg">
<path d="M99.186 60.7141L85.9908 30.3653C85.2005 28.548 85.1372 26.4968 85.814 24.6343C86.4908 22.7717 87.856 21.2396 89.6286 20.3536L93.5672 18.3843C93.8475 18.2441 94.0832 18.0287 94.248 17.7621C94.4127 17.4955 94.5 17.1884 94.5 16.875V5.0625C94.5 4.61495 94.3222 4.18573 94.0058 3.86926C93.6893 3.55279 93.2601 3.375 92.8125 3.375H86.0625V0H82.6875V3.375H8.4375V0H5.0625V3.375H1.6875C1.23995 3.375 0.810725 3.55279 0.494257 3.86926C0.17779 4.18573 0 4.61495 0 5.0625V18.5625C0.0020099 20.3521 0.713814 22.0678 1.97925 23.3333C3.24468 24.5987 4.96041 25.3105 6.75 25.3125H35.2135L34.5516 30.607C34.4229 31.6341 34.5142 32.6768 34.8194 33.6659C35.1246 34.655 35.6367 35.5678 36.3216 36.3439C37.0066 37.1199 37.8488 37.7413 38.7924 38.167C39.7359 38.5926 40.7592 38.8126 41.7943 38.8125H61.6326L72.6832 66.4392C72.8084 66.7523 73.0246 67.0208 73.3039 67.2099C73.5832 67.3989 73.9127 67.5 74.25 67.5H94.7367C95.5417 67.5 96.334 67.2997 97.0423 66.9172C97.7506 66.5346 98.3525 65.9818 98.7939 65.3086C99.2353 64.6355 99.5022 63.863 99.5707 63.0609C99.6391 62.2589 99.5069 61.4524 99.186 60.7141ZM69.1875 6.75V11.8125H72.5625V6.75H75.9375V11.8125H79.3125V6.75H82.6875V11.8125H86.0625V6.75H91.125V15.1875H3.375V6.75H69.1875ZM3.375 18.5625H23.625V21.9375H6.75C5.85522 21.9364 4.99739 21.5805 4.36469 20.9478C3.73198 20.3151 3.37606 19.4573 3.375 18.5625ZM41.7943 35.4375C41.2379 35.4376 40.6878 35.3193 40.1805 35.0905C39.6733 34.8618 39.2205 34.5277 38.8523 34.1105C38.484 33.6934 38.2087 33.2027 38.0447 32.6709C37.8806 32.1392 37.8315 31.5787 37.9006 31.0266L38.6146 25.3125H51.0085C51.0758 25.3125 51.1418 25.3182 51.2089 25.3201C50.0205 28.1386 48.0182 29.85 45.2313 30.4077L45.8937 33.7173C49.9163 32.9122 52.9246 30.251 54.5117 26.1506C56.1798 26.9976 57.4815 28.4243 58.1726 30.1628L60.2819 35.4375H41.7943ZM95.9717 63.458C95.8384 63.664 95.6554 63.833 95.4396 63.9496C95.2237 64.0661 94.982 64.1265 94.7367 64.125H75.3924L61.3062 28.9096C60.4891 26.8473 59.0696 25.079 57.2327 23.8353C55.3958 22.5917 53.2268 21.9303 51.0085 21.9375H27V18.5625H62.4375V21.9375H65.8125V18.5625H86.196C84.2713 20.0822 82.9038 22.1962 82.3067 24.5748C81.7097 26.9533 81.9168 29.4626 82.8957 31.7111L96.0909 62.0599C96.19 62.2842 96.231 62.5299 96.2102 62.7742C96.1894 63.0186 96.1074 63.2537 95.9717 63.458Z" fill="#0062C8"/>
<path d="M34.5566 30.7945L35.2185 25.5H38.6197L38.9056 30.2141C38.8365 30.7662 38.8856 31.3267 39.0497 31.8584C39.2137 32.3902 39.489 32.8809 39.8573 33.298C40.2255 33.7152 40.6783 34.0493 41.1855 34.278C41.6928 34.5068 42.2429 34.6251 42.7993 34.625L60.2444 35.278L61.7632 39H41.7993C40.7642 39.0001 39.7409 38.7801 38.7974 38.3545C37.8539 37.9288 37.0116 37.3074 36.3267 36.5314C35.6417 35.7553 35.1296 34.8425 34.8244 33.8534C34.5192 32.8643 34.4279 31.8216 34.5566 30.7945Z" fill="#57A9FF"/>
<path d="M45 30.5C47.7869 29.9423 50.0255 28.3261 51.2139 25.5076C52.1521 25.5013 54.1261 25.6585 54.5168 26.3381C52.9297 30.4385 49.6849 33.0045 45.6623 33.8096L45 30.5Z" fill="#57A9FF"/>
<path d="M86.0625 57.375H89.4375V60.75H86.0625V57.375Z" fill="#0062C8"/>
</svg>
