<svg width="94" height="94" viewBox="0 0 94 94" fill="none" xmlns="http://www.w3.org/2000/svg">
<path d="M36.375 93.75C34.2 93.75 32.175 92.6063 30.9938 90.75H21.375C17.0625 90.75 13.0312 88.4625 10.7812 84.75H0V81H9.3C9.1125 80.1188 9 79.2375 9 78.375V78H12.75V78.375C12.75 83.1375 16.6125 87 21.375 87H30V60.75H27.75C27.6187 63.8625 25.95 66.7125 23.3063 68.3438C24.2438 69.4875 24.75 70.8937 24.75 72.375V78.75H21V72.375C21 70.9312 19.8188 69.75 18.375 69.75H18V66H18.375C21.4688 66 24 63.4688 24 60.375V54H27.75V57H37.875C38.9062 57 39.75 57.8438 39.75 58.875V63.375C39.75 64.8188 40.9313 66 42.375 66C43.8187 66 45 64.8188 45 63.375V54.375C45 52.9313 43.8187 51.75 42.375 51.75H21.375C16.6125 51.75 12.75 55.6125 12.75 60.375V63.75H9V60.75H0V57H9.4875C10.9875 51.6938 15.8438 48 21.375 48H42.375C45.7687 48 48.5437 50.6625 48.7312 54H51.375C54.8812 54 57.75 56.8687 57.75 60.375C57.75 61.5 57.45 62.5875 56.9062 63.5437C59.2313 64.5562 60.75 66.8438 60.75 69.375C60.75 71.9062 59.2125 74.1938 56.9062 75.2063C57.4688 76.1625 57.75 77.25 57.75 78.375C57.75 80.9062 56.2125 83.1938 53.9062 84.2063C54.4688 85.1625 54.75 86.25 54.75 87.375C54.75 90.8812 51.8812 93.75 48.375 93.75H36.375ZM33.75 87.375C33.75 88.8187 34.9313 90 36.375 90H48.375C49.8187 90 51 88.8187 51 87.375C51 85.9313 49.8187 84.75 48.375 84.75H33.75V87.375ZM51.375 81C52.8187 81 54 79.8188 54 78.375C54 76.9312 52.8187 75.75 51.375 75.75H33.75V81H51.375ZM54.375 72C55.8187 72 57 70.8188 57 69.375C57 67.9312 55.8187 66.75 54.375 66.75H47.7563C46.5938 68.6063 44.55 69.75 42.375 69.75C40.2 69.75 38.175 68.6063 36.9938 66.75H33.75V72H54.375ZM51.375 63C52.8187 63 54 61.8188 54 60.375C54 58.9312 52.8187 57.75 51.375 57.75H48.75V63H51.375ZM36 63V60.75H33.75V63H36Z" fill="#0060C7"/>
<path d="M56.3438 63.7312C57 62.775 57.375 61.6125 57.375 60.375C57.375 57.075 54.675 54.375 51.375 54.375H48.375C48.375 51.075 45.675 48.375 42.375 48.375H21.375C15.7875 48.375 11.1 52.2 9.76875 57.375H0.375V60.375H9.375V63.375H12.375V60.375C12.375 55.4062 16.4062 51.375 21.375 51.375H42.375C44.025 51.375 45.375 52.725 45.375 54.375V63.375C45.375 65.025 44.025 66.375 42.375 66.375C40.725 66.375 39.375 65.025 39.375 63.375V58.875C39.375 58.05 38.7 57.375 37.875 57.375H27.375V54.375H24.375V60.375C24.375 63.675 21.675 66.375 18.375 66.375V69.375C20.025 69.375 21.375 70.725 21.375 72.375V78.375H24.375V72.375C24.375 70.7812 23.7375 69.3375 22.7062 68.25C25.4812 66.7125 27.375 63.7688 27.375 60.375H30.375V64.875V73.875V82.875V87.375H21.375C16.4062 87.375 12.375 83.3438 12.375 78.375H9.375C9.375 79.4062 9.525 80.4188 9.76875 81.375H0.375V84.375H11.0062C13.0875 87.9562 16.95 90.375 21.375 90.375H31.2C32.25 92.1562 34.1625 93.375 36.375 93.375H48.375C51.675 93.375 54.375 90.675 54.375 87.375C54.375 86.1375 54 84.975 53.3438 84.0188C55.6875 83.1938 57.375 81 57.375 78.375C57.375 77.1375 57 75.975 56.3438 75.0188C58.6875 74.1938 60.375 72 60.375 69.375C60.375 66.75 58.6875 64.5562 56.3438 63.7312ZM51.375 57.375C53.025 57.375 54.375 58.725 54.375 60.375C54.375 62.025 53.025 63.375 51.375 63.375H48.375V57.375H51.375ZM36.375 60.375V63.375H33.375V60.375H36.375ZM48.375 90.375H36.375C34.725 90.375 33.375 89.025 33.375 87.375V84.375H48.375C50.025 84.375 51.375 85.725 51.375 87.375C51.375 89.025 50.025 90.375 48.375 90.375ZM51.375 81.375H48.375H33.375V75.375H51.375C53.025 75.375 54.375 76.725 54.375 78.375C54.375 80.025 53.025 81.375 51.375 81.375ZM54.375 72.375H51.375H33.375V66.375H37.2C38.25 68.1562 40.1625 69.375 42.375 69.375C44.5875 69.375 46.5 68.1562 47.55 66.375H51.375H54.375C56.025 66.375 57.375 67.725 57.375 69.375C57.375 71.025 56.025 72.375 54.375 72.375Z" fill="#0060C7"/>
<path d="M45.375 45.75C41.8687 45.75 39 42.8812 39 39.375C39 38.25 39.3 37.1625 39.8438 36.2063C37.5188 35.1938 36 32.9062 36 30.375C36 29.25 36.3 28.1625 36.8438 27.2063C34.5188 26.1938 33 23.9062 33 21.375C33 18.8438 34.5375 16.5562 36.8438 15.5438C36.2812 14.5875 36 13.5 36 12.375C36 8.86875 38.8687 6 42.375 6H45.0188C45.2063 2.6625 48 0 51.375 0H72.375C77.9062 0 82.7625 3.69375 84.2625 9H93.75V12.75H84.75V15.75H81V12.375C81 7.6125 77.1375 3.75 72.375 3.75H51.375C49.9312 3.75 48.75 4.93125 48.75 6.375V15.375C48.75 16.8188 49.9312 18 51.375 18C52.8188 18 54 16.8188 54 15.375V10.875C54 9.84375 54.8438 9 55.875 9H66V6H69.75V12.375C69.75 15.4688 72.2812 18 75.375 18H75.75V21.75H75.375C73.9313 21.75 72.75 22.9312 72.75 24.375V30.75H69V24.375C69 22.9125 69.5063 21.4875 70.4438 20.3438C67.8 18.6938 66.1312 15.8625 66 12.75H63.75V39H72.375C77.1375 39 81 35.1375 81 30.375V30H84.75V30.375C84.75 31.2375 84.6562 32.1188 84.45 33H93.75V36.75H82.9688C80.7375 40.4625 76.6875 42.75 72.375 42.75H62.7563C61.5938 44.6063 59.55 45.75 57.375 45.75H45.375ZM45.375 36.75C43.9312 36.75 42.75 37.9313 42.75 39.375C42.75 40.8187 43.9312 42 45.375 42H57.375C58.8188 42 60 40.8187 60 39.375V36.75H45.375ZM42.375 27.75C40.9313 27.75 39.75 28.9312 39.75 30.375C39.75 31.8188 40.9313 33 42.375 33H60V27.75H42.375ZM39.375 18.75C37.9313 18.75 36.75 19.9312 36.75 21.375C36.75 22.8188 37.9313 24 39.375 24H60V18.75H56.7563C55.5938 20.6063 53.55 21.75 51.375 21.75C49.2 21.75 47.175 20.6063 45.9938 18.75H39.375ZM60 15V12.75H57.75V15H60ZM42.375 9.75C40.9313 9.75 39.75 10.9312 39.75 12.375C39.75 13.8188 40.9313 15 42.375 15H45V9.75H42.375Z" fill="#0060C7"/>
<path d="M84.375 15.375V12.375H93.375V9.375H83.9812C82.65 4.2 77.9625 0.375 72.375 0.375H51.375C48.075 0.375 45.375 3.075 45.375 6.375H42.375C39.075 6.375 36.375 9.075 36.375 12.375C36.375 13.6125 36.75 14.775 37.4062 15.7313C35.0625 16.5562 33.375 18.75 33.375 21.375C33.375 24 35.0625 26.1938 37.4062 27.0188C36.75 27.975 36.375 29.1375 36.375 30.375C36.375 33 38.0625 35.1938 40.4062 36.0188C39.75 36.975 39.375 38.1375 39.375 39.375C39.375 42.675 42.075 45.375 45.375 45.375H57.375C59.5875 45.375 61.5 44.1562 62.55 42.375H72.375C76.8 42.375 80.6812 39.9562 82.7437 36.375H93.375V33.375H83.9812C84.225 32.4188 84.375 31.4062 84.375 30.375H81.375C81.375 35.3438 77.3438 39.375 72.375 39.375H63.375V34.875V25.875V16.875V12.375H66.375C66.375 15.7688 68.2687 18.7125 71.0437 20.25C70.0125 21.3188 69.375 22.7812 69.375 24.375V30.375H72.375V24.375C72.375 22.725 73.725 21.375 75.375 21.375V18.375C72.075 18.375 69.375 15.675 69.375 12.375V6.375H66.375V9.375H55.875C55.05 9.375 54.375 10.05 54.375 10.875V15.375C54.375 17.025 53.025 18.375 51.375 18.375C49.725 18.375 48.375 17.025 48.375 15.375V6.375C48.375 4.725 49.725 3.375 51.375 3.375H72.375C77.3438 3.375 81.375 7.40625 81.375 12.375V15.375H84.375ZM42.375 9.375H45.375V15.375H42.375C40.725 15.375 39.375 14.025 39.375 12.375C39.375 10.725 40.725 9.375 42.375 9.375ZM39.375 30.375C39.375 28.725 40.725 27.375 42.375 27.375H60.375V33.375H45.375H42.375C40.725 33.375 39.375 32.025 39.375 30.375ZM60.375 39.375C60.375 41.025 59.025 42.375 57.375 42.375H45.375C43.725 42.375 42.375 41.025 42.375 39.375C42.375 37.725 43.725 36.375 45.375 36.375H60.375V39.375ZM57.375 12.375H60.375V15.375H57.375V12.375ZM51.375 21.375C53.5875 21.375 55.5 20.1562 56.55 18.375H60.375V24.375H42.375H39.375C37.725 24.375 36.375 23.025 36.375 21.375C36.375 19.725 37.725 18.375 39.375 18.375H42.375H46.2C47.25 20.1562 49.1625 21.375 51.375 21.375Z" fill="#0060C7"/>
<path d="M9.37497 47.25C8.64372 47.25 7.98747 46.8187 7.66872 46.1625C7.33122 45.45 7.48122 44.6062 8.04372 44.0437L15.7312 36.375L8.06247 28.7063C7.51872 28.1625 7.36872 27.3562 7.64997 26.6625C7.94997 25.9687 8.62497 25.5 9.37497 25.5H19.5V15.375C19.5 14.5687 20.0062 13.8562 20.7562 13.5938C20.9625 13.5187 21.15 13.5 21.3562 13.5C21.9375 13.5 22.4812 13.7625 22.8375 14.2313L33.5625 28.0312L30.6 30.3375L23.25 20.8312V27.375C23.25 28.4062 22.4062 29.25 21.375 29.25H13.8937L19.6875 35.0437C20.0437 35.4 20.2312 35.8687 20.2312 36.375C20.2312 36.8813 20.0437 37.35 19.6875 37.7063L14.3437 43.05L26.0625 41.9812L26.4 45.7125L9.52497 47.25C9.48747 47.25 9.43122 47.25 9.37497 47.25Z" fill="#0060C7"/>
<path d="M16.2562 36.3753L8.32497 44.3065C7.87497 44.7565 7.76247 45.4315 8.02497 45.994C8.26872 46.519 8.81247 46.8565 9.37497 46.8565C9.41247 46.8565 9.46872 46.8565 9.50622 46.8565L26.0062 45.3565L25.7437 42.3753L13.3687 43.5003L19.4437 37.4253C20.025 36.844 20.025 35.8878 19.4437 35.3065L12.9937 28.8753H21.375C22.2 28.8753 22.875 28.2003 22.875 27.3753V19.744L30.6937 29.794L33.0562 27.9565L22.5562 14.4565C22.1625 13.9503 21.4875 13.744 20.8875 13.9503C20.2875 14.1565 19.875 14.7378 19.875 15.3753V25.8753H9.37497C8.77497 25.8753 8.21247 26.2503 7.98747 26.794C7.76247 27.3565 7.87497 27.994 8.30622 28.4253L16.2562 36.3753Z" fill="#57A9FF"/>
<path d="M72.3752 80.25C71.7939 80.25 71.2502 79.9875 70.894 79.5188L60.1689 65.7188L63.1314 63.4125L70.5002 72.9V66.375C70.5002 65.3438 71.3439 64.5 72.3752 64.5H79.8564L74.0627 58.7063C73.7064 58.35 73.519 57.8813 73.519 57.375C73.519 56.8687 73.7064 56.4 74.0627 56.0437L79.4065 50.7L67.6877 51.7688L67.3502 48.0375L84.2252 46.5C84.2815 46.5 84.319 46.5 84.3752 46.5C85.1065 46.5 85.7815 46.9313 86.1002 47.5688C86.4377 48.2813 86.2877 49.125 85.7252 49.6875L78.019 57.375L85.6877 65.0437C86.2315 65.5875 86.3815 66.3937 86.1002 67.0875C85.8002 67.7812 85.1252 68.25 84.3752 68.25H74.2502V78.375C74.2502 79.1813 73.744 79.8937 72.9752 80.1562C72.7877 80.2125 72.5814 80.25 72.3752 80.25Z" fill="#0060C7"/>
<path d="M77.4938 57.3747L85.4251 49.4435C85.8751 48.9935 85.9876 48.3185 85.7251 47.756C85.4626 47.1935 84.8626 46.856 84.2251 46.8935L67.7251 48.3935L67.9876 51.3747L80.3626 50.2497L74.2876 56.3247C73.7063 56.906 73.7063 57.8622 74.2876 58.4435L80.7188 64.8747H72.3751C71.5501 64.8747 70.8751 65.5497 70.8751 66.3747V74.006L63.0563 63.956L60.6938 65.7935L71.1938 79.2935C71.4751 79.6685 71.9251 79.8747 72.3751 79.8747C72.5438 79.8747 72.6938 79.856 72.8626 79.7997C73.4626 79.5935 73.8751 79.0122 73.8751 78.3747V67.8747H84.3751C84.9751 67.8747 85.5376 67.4997 85.7626 66.956C85.9876 66.3935 85.8751 65.756 85.4438 65.3247L77.4938 57.3747Z" fill="#57A9FF"/>
</svg>
