<svg width="99" height="99" viewBox="0 0 99 99" fill="none" xmlns="http://www.w3.org/2000/svg">
<path d="M98.9438 65.1979C98.758 64.4395 98.1334 63.8677 97.3622 63.7484L86.2659 62.0331C81.6615 61.3208 77.0639 61.3707 72.5615 62.1721C73.6635 61.129 74.721 60.0383 75.727 58.9001C79.9893 54.0812 83.29 48.5644 85.537 42.5045L90.1082 30.174C90.3862 29.4255 90.1747 28.5833 89.5765 28.0538C88.9782 27.5251 88.1164 27.4179 87.4064 27.7849L75.7286 33.8297C70.1249 36.7294 65.1602 40.5656 60.9622 45.2296C61.6563 41.907 62.0098 38.5194 62.0098 35.0971C62.0098 27.8552 60.3813 20.5634 57.3004 14.0088L51.2368 1.11107C50.918 0.432794 50.2367 0 49.4875 0C48.7382 0 48.0561 0.432794 47.7374 1.11107L41.6745 14.0088C41.3852 14.6229 41.1058 15.2513 40.8429 15.8767C40.429 16.8608 40.8913 17.9946 41.8754 18.4085C42.8596 18.8224 43.9933 18.3601 44.4072 17.376C44.6497 16.7997 44.908 16.2203 45.1739 15.6539L49.4875 6.47832L53.8003 15.6539C56.641 21.6964 58.1426 28.4202 58.1426 35.0971C58.1426 40.475 57.2045 45.7621 55.3555 50.8129L53.3539 56.2776C51.7474 59.4099 50.4543 62.7083 49.5003 66.1186C48.529 62.6472 47.2049 59.2906 45.5583 56.1077L43.6194 50.8129C41.7697 45.7629 40.8323 40.475 40.8323 35.0971C40.8323 33.5397 40.9132 31.9641 41.0725 30.4149C41.182 29.3522 40.4094 28.4028 39.3474 28.2933C38.2854 28.183 37.3352 28.9564 37.2257 30.0184C37.0527 31.699 36.9651 33.4075 36.9651 35.0971C36.9651 38.5066 37.3148 41.8813 38.0044 45.1919C33.8132 40.5452 28.8606 36.7218 23.2721 33.829L11.5934 27.7849C10.8834 27.4171 10.0216 27.5244 9.4234 28.0538C8.8252 28.5826 8.61371 29.4255 8.89166 30.174L13.4636 42.5037C15.7106 48.5644 19.0113 54.0812 23.2736 58.9001C24.2797 60.0376 25.3371 61.1282 26.4383 62.1721C21.9367 61.3707 17.3391 61.3208 12.7339 62.0331L1.63839 63.7484C0.866465 63.8677 0.242576 64.4395 0.0560142 65.1979C-0.130548 65.9562 0.157981 66.7523 0.786402 67.216L9.82372 73.8779C14.308 77.1832 19.2855 79.5239 24.618 80.8343C26.3877 81.2686 28.1839 81.5791 29.9951 81.7747C28.7504 83.1607 27.6589 84.7038 26.7344 86.3972L23.3431 92.6119C22.9858 93.266 23.0372 94.0674 23.4737 94.6709C23.8408 95.1792 24.4269 95.4715 25.0403 95.4715C25.1558 95.4715 25.2721 95.461 25.3885 95.4398L32.3524 94.1656C35.9341 93.51 39.1956 92.1331 42.0454 90.0718C44.1761 88.531 46.0281 86.6268 47.5539 84.4311V96.8062C47.5539 97.8742 48.4195 98.7398 49.4875 98.7398C50.5555 98.7398 51.4211 97.8742 51.4211 96.8062V84.3949C52.9513 86.6057 54.8132 88.5227 56.9552 90.0718C59.805 92.1331 63.0665 93.51 66.6482 94.1656L73.6122 95.4398C73.7277 95.461 73.8448 95.4715 73.9604 95.4715C74.5729 95.4715 75.159 95.1792 75.5269 94.6709C75.9635 94.0667 76.0141 93.266 75.6576 92.6119L72.2654 86.3972C71.3409 84.7038 70.2503 83.16 69.0055 81.7747C70.8167 81.5791 72.6129 81.2686 74.3826 80.8336C79.7151 79.5239 84.6926 77.1832 89.1769 73.8779L98.2142 67.216C98.8426 66.7523 99.1304 65.9562 98.9438 65.1979ZM52.5676 69.7796C53.4393 65.8293 54.8003 62.0142 56.5987 58.4295C56.7075 58.2837 56.7974 58.1206 56.8631 57.9408L56.9024 57.8351C58.7144 54.3433 60.9448 51.078 63.5506 48.1316C67.4956 43.6714 72.1907 40.015 77.5058 37.2634L84.7447 33.517L81.9108 41.16C79.8299 46.7705 76.7747 51.8779 72.8297 56.338C69.2963 60.3336 65.099 63.7167 60.4478 66.349C60.0822 66.5431 59.7189 66.7417 59.3587 66.9464C57.2181 68.0869 54.9884 69.0711 52.687 69.8846L52.5321 69.9397L52.5676 69.7796ZM17.0891 41.16L14.2551 33.517L21.4941 37.2641C26.8092 40.015 31.5042 43.6714 35.4492 48.1316C40.8588 54.2481 44.6565 61.734 46.4322 69.7796L46.4677 69.9397L46.3129 69.8853C44.0122 69.0719 41.7825 68.0869 39.6427 66.9472C39.2817 66.7425 38.9176 66.5431 38.5513 66.349C33.9001 63.7167 29.7036 60.3336 26.1702 56.3388C22.2252 51.8779 19.17 46.7705 17.0891 41.16ZM12.1184 70.7653L6.82135 66.8603L13.3246 65.855C18.3225 65.0823 23.3091 65.293 28.1446 66.4811C31.1553 67.2206 34.0647 68.3445 36.8133 69.8075C37.1162 69.9782 37.4213 70.1444 37.728 70.3083C40.6586 71.973 43.3928 74.0335 45.8499 76.4498C39.1616 78.4831 32.1417 78.7006 25.541 77.0782C20.7055 75.8901 16.1895 73.7661 12.1184 70.7653ZM39.7794 86.938C37.3994 88.6586 34.6667 89.8112 31.656 90.3619L28.6794 90.9064L30.1288 88.25C31.4831 85.7688 33.2528 83.6721 35.3933 82.0089C38.7439 81.9363 42.1058 81.4635 45.4042 80.5942C43.9624 83.1328 42.0582 85.2899 39.7794 86.938ZM67.3438 90.3619C64.3331 89.8112 61.6004 88.6586 59.2212 86.938C56.9417 85.2899 55.0375 83.1328 53.5956 80.5942C56.8948 81.4643 60.256 81.9363 63.6073 82.0089C65.7471 83.6721 67.5168 85.7688 68.8711 88.25L70.3205 90.9064L67.3438 90.3619ZM86.8815 70.7653C82.8104 73.7661 78.2943 75.8901 73.4588 77.0782C66.8582 78.6998 59.8383 78.4823 53.15 76.4498C55.607 74.0335 58.342 71.973 61.2726 70.3075C61.5778 70.1444 61.8814 69.979 62.1835 69.8098C64.9329 68.3445 67.8431 67.2206 70.8553 66.4804C75.6908 65.2923 80.6766 65.0823 85.6753 65.855L92.1785 66.8603L86.8815 70.7653Z" fill="#0061C7"/>
<path d="M40.5 26C41.1572 26 41.8027 25.7354 42.2676 25.2676C42.7324 24.8027 43 24.1602 43 23.5C43 22.8428 42.7324 22.1982 42.2676 21.7324C41.8027 21.2676 41.1572 21 40.5 21C39.8428 21 39.1973 21.2676 38.7324 21.7324C38.2676 22.1982 38 22.8428 38 23.5C38 24.1602 38.2676 24.8027 38.7324 25.2676C39.1973 25.7354 39.8428 26 40.5 26Z" fill="#57A9FF"/>
</svg>
