<svg width="93" height="93" viewBox="0 0 93 93" fill="none" xmlns="http://www.w3.org/2000/svg">
<path d="M28.4754 92.8984C26.4191 92.8984 24.473 92.0906 23.0227 90.6402L2.2582 69.8758C0.807813 68.4254 0 66.4793 0 64.423C0 62.3668 0.807813 60.4207 2.2582 58.9703L35.966 25.2625C38.7566 22.4719 42.6121 20.893 46.5594 20.893C47.8813 20.893 49.2031 21.0766 50.4699 21.4254C51.3695 21.6641 52.3059 21.7926 53.2422 21.7926C56.0328 21.7926 58.75 20.6727 60.7145 18.7082L69.3984 9.9875L68.352 8.94102C67.9297 8.51875 67.7094 7.96797 67.7094 7.38047C67.7094 6.79297 67.9297 6.24219 68.352 5.81992C68.7742 5.39766 69.325 5.17734 69.9125 5.17734C70.5 5.17734 71.0508 5.39766 71.473 5.81992L72.5195 6.86641L78.7434 0.642578C79.1656 0.220313 79.7164 0 80.3039 0C80.8914 0 81.4422 0.220313 81.8644 0.642578L92.2559 11.034C92.6781 11.4563 92.8984 12.007 92.8984 12.5945C92.8984 13.182 92.6781 13.7328 92.2559 14.1551L86.0137 20.3789L87.0602 21.4254C87.4824 21.8477 87.7027 22.3984 87.7027 22.9859C87.7027 23.5734 87.4824 24.1242 87.0602 24.5465C86.6379 24.9688 86.0871 25.1891 85.4996 25.1891C84.9121 25.1891 84.3613 24.9688 83.9391 24.5465L82.8926 23.5L74.2086 32.184C71.5465 34.8461 70.5 38.775 71.4914 42.4285C72.9051 47.5875 71.418 53.1504 67.6359 56.9324L33.9281 90.6402C32.4777 92.0906 30.55 92.8984 28.4754 92.8984ZM5.3793 62.073C4.75508 62.6973 4.40625 63.5234 4.40625 64.4047C4.40625 65.2859 4.75508 66.1121 5.3793 66.7363L26.1437 87.5008C26.768 88.125 27.5941 88.4738 28.4754 88.4738C29.3566 88.4738 30.1828 88.125 30.807 87.5008L36.3883 81.9195L10.9605 56.4918L5.3793 62.073ZM14.0633 53.3891L39.5094 78.8352L55.8676 62.477L48.7258 55.3352C48.2301 54.8395 47.9914 54.1418 48.1016 53.4441C48.2117 52.7465 48.634 52.1406 49.2582 51.8285C49.7906 51.5531 50.2863 51.1859 50.727 50.7453C53.0953 48.377 53.0953 44.5398 50.727 42.1715C49.5887 41.0332 48.0648 40.3906 46.4492 40.3906C44.8336 40.3906 43.3098 41.0148 42.1715 42.1715C41.7309 42.6121 41.3637 43.1078 41.0883 43.6402C40.7578 44.2645 40.152 44.6867 39.4727 44.7969C39.3625 44.8152 39.2523 44.8152 39.1422 44.8152C38.5547 44.8152 37.9855 44.5766 37.5816 44.1727L30.4398 37.0309L14.0633 53.3891ZM46.4492 35.9844C49.2398 35.9844 51.8836 37.0676 53.848 39.0504C55.7941 40.9965 56.8773 43.5668 56.9141 46.3207C56.9508 49.0563 55.9227 51.6633 54.05 53.6461L53.6828 54.0316L59.007 59.3559L64.5516 53.8113C67.2137 51.1492 68.2602 47.2203 67.2687 43.5668C65.8551 38.4078 67.3422 32.8449 71.1242 29.0629L79.8082 20.3789L72.5195 13.1086L63.8355 21.7926C61.0449 24.5832 57.1895 26.1621 53.2422 26.1621C51.9203 26.1621 50.5984 25.9785 49.3316 25.6297C48.432 25.391 47.4957 25.2625 46.5594 25.2625C43.7687 25.2625 41.0516 26.3824 39.0871 28.3469L33.5426 33.8914L38.8668 39.2156L39.2523 38.8484C41.1984 37.0125 43.7504 35.9844 46.4492 35.9844ZM75.6406 9.9875L82.9109 17.2578L87.5742 12.5945L80.3039 5.32422L75.6406 9.9875Z" fill="#0060C6"/>
<path d="M11 56.6004L36.4277 82.0281L39.5488 78.9437L14.1027 53.4977L11 56.6004Z" fill="#57A9FF"/>
<path d="M48.7652 55.4437L55.907 62.5855L59.0465 59.4645L53.7223 54.1402L54.0895 53.7547C55.9621 51.7719 56.9902 49.1648 56.9535 46.4293C56.9168 43.6754 55.8336 41.1051 53.8875 39.159C51.923 37.1762 49.2793 36.093 46.4887 36.093C43.7898 36.093 41.2379 37.1211 39.2918 38.957L38.9062 39.3242L33.582 34L30.4793 37.1395L37.6211 44.2812C38.025 44.6852 38.5941 44.9238 39.1816 44.9238C39.2918 44.9238 39.402 44.9238 39.5121 44.9055C40.1914 44.7953 40.7973 44.373 41.1277 43.7488C41.4031 43.2164 41.7703 42.7207 42.2109 42.2801C43.3492 41.1234 44.873 40.4992 46.4887 40.4992C48.1043 40.4992 49.6281 41.1418 50.7664 42.2801C53.1348 44.6484 53.1348 48.4855 50.7664 50.8539C50.3258 51.2945 49.8301 51.6617 49.2977 51.9371C48.6734 52.2492 48.2512 52.8551 48.141 53.5527C48.0309 54.2504 48.2695 54.948 48.7652 55.4437Z" fill="#57A9FF"/>
</svg>
