<svg width="83" height="100" viewBox="0 0 83 100" fill="none" xmlns="http://www.w3.org/2000/svg">
<path d="M82.0337 20.2949C82.0337 16.1734 79.0189 12.7429 75.0789 12.0931C74.0134 8.12967 70.4269 5.19198 66.2287 5.0412C63.8843 1.86445 60.2201 0 56.2164 0C51.0309 0 46.4711 3.17285 44.6219 7.88983C40.557 8.01737 37.1289 10.7082 35.8996 14.3957C28.1844 15.482 21.0743 19.2152 15.7661 24.9974C10.1278 31.1392 7.02273 39.0654 7.02273 47.3157C7.02273 49.3437 5.21707 53.07 2.19286 57.2837C-0.62042 61.2036 -0.217296 63.9628 0.616296 65.5874C1.4952 67.2999 3.67 69.3075 9.00007 69.7012V78.2469C9.00007 84.027 13.7448 88.7293 19.5768 88.7293C24.6748 88.7293 27.4821 88.9184 28.678 89.952C29.8491 90.9639 30.2184 93.515 30.5239 98.1752C30.5912 99.2021 31.4436 100.001 32.4729 100.001H60.4797C61.0199 100.001 61.5359 99.7768 61.9052 99.3826C62.2746 98.9885 62.4638 98.4588 62.4287 97.9197C62.181 94.1443 62.0781 91.3615 62.0947 88.8969C62.1019 87.8182 61.2334 86.9379 60.1547 86.9307C60.1502 86.9307 60.1457 86.9307 60.1414 86.9307C59.0687 86.9307 58.1957 87.7967 58.1885 88.8707C58.1746 90.9516 58.2414 93.2356 58.4033 96.0945H34.291C33.9508 91.8447 33.3768 88.85 31.2321 86.9967C28.8866 84.9698 25.2641 84.8235 19.5768 84.8235C15.8987 84.8235 12.9063 81.8735 12.9063 78.2473V75.6303C14.111 75.6303 15.9821 76.2784 17.7891 77.3217C18.0967 77.4993 18.4325 77.5838 18.7639 77.5838C19.4389 77.5838 20.0954 77.2334 20.4571 76.6069C20.9965 75.6727 20.6764 74.4782 19.7422 73.9389C18.3096 73.1118 15.5163 71.7241 12.9063 71.7241V67.8174C12.9063 66.7389 12.0319 65.8643 10.9532 65.8643C7.31863 65.8643 4.75359 65.0944 4.09168 63.8044C3.62274 62.8903 4.08738 61.344 5.36629 59.562C7.90398 56.0261 10.9288 51.0315 10.9288 47.3163C10.9288 34.3849 19.3459 23.3146 31.3145 19.4394C30.9735 20.2341 30.7836 21.1084 30.7836 22.0265C30.7836 25.6558 33.7364 28.6083 37.3656 28.6083H43.8483L41.3016 39.2771C41.1717 39.821 41.2813 40.3948 41.6027 40.8525C41.9242 41.3105 42.4264 41.6083 42.9822 41.671L46.0752 42.0202L44.0744 51.4727C43.8885 52.3517 44.3258 53.244 45.1346 53.6354C45.4066 53.7671 45.6969 53.8306 45.9846 53.8306C46.5516 53.8304 47.1076 53.5833 47.4883 53.1247L60.6855 37.2234C61.1183 36.7019 61.25 35.9931 61.033 35.3511C60.8162 34.7089 60.2818 34.2251 59.6215 34.0728L56.3662 33.3216L58.2691 28.608H63.4468C67.881 33.8784 70.3146 40.488 70.3146 47.3161C70.3146 52.6962 68.8099 57.9673 65.9631 62.5594C64.1297 65.5165 62.6939 68.2596 61.5728 70.9454C61.1574 71.9409 61.6275 73.0846 62.623 73.5001C62.8689 73.6026 63.1236 73.6512 63.3746 73.6512C64.139 73.6512 64.865 73.1995 65.1777 72.4499C66.2175 69.9581 67.5605 67.3962 69.283 64.6176C72.5134 59.4067 74.2208 53.4241 74.2208 47.3161C74.2208 40.6179 72.1597 34.1087 68.356 28.608H73.7208C78.3048 28.6076 82.0337 24.8785 82.0337 20.2949ZM34.6901 22.0255C34.6901 20.5502 35.8904 19.35 37.3658 19.35C38.4445 19.35 39.319 18.4754 39.319 17.3968C39.319 14.306 41.8336 11.7914 44.9244 11.7914C45.1955 11.7914 45.4703 11.8113 45.7414 11.8506C46.735 11.9949 47.675 11.3623 47.917 10.3885C48.8648 6.57167 52.2777 3.90624 56.2164 3.90624C59.233 3.90624 61.9691 5.44843 63.5355 8.03182C63.922 8.66932 64.6361 9.03201 65.38 8.96444C65.5521 8.94901 65.7236 8.94119 65.8894 8.94119C68.7912 8.94119 71.2453 11.2033 71.4763 14.0912C71.5574 15.106 72.4048 15.8884 73.4232 15.8884H73.721C76.1505 15.8884 78.1275 17.8652 78.1275 20.2949C78.1275 22.7246 76.1507 24.7013 73.721 24.7013H37.3656C35.8904 24.7013 34.6901 23.5009 34.6901 22.0255ZM51.9672 35.6124C52.2312 36.1193 52.7037 36.4849 53.2603 36.6134L55.6562 37.1661L49.5342 44.5427L50.3424 40.7247C50.4564 40.1859 50.3379 39.6241 50.0156 39.1775C49.6936 38.731 49.1978 38.4409 48.6508 38.3794L45.6139 38.0364L47.8645 28.6076H54.0568L51.8883 33.9792C51.6744 34.5089 51.7031 35.1058 51.9672 35.6124Z" fill="#005FC6"/>
<path fill-rule="evenodd" clip-rule="evenodd" d="M82.2501 20.2949C82.2501 16.1734 79.2353 12.7429 75.2952 12.0931C74.2298 8.12967 70.6433 5.19198 66.4451 5.0412C64.1007 1.86445 60.4365 0 56.4328 0C51.2472 0 46.6875 3.17285 44.8383 7.88983C40.7734 8.01737 37.3453 10.7082 36.116 14.3957C32.8357 15.1122 31.6925 18.0567 31.5309 19.4394C31.1898 20.2341 31 21.1084 31 22.0265C31 25.6558 33.9527 28.6083 37.582 28.6083H44.0646L41.518 39.2771C41.3881 39.821 41.4976 40.3948 41.8191 40.8525C42.1406 41.3105 42.6427 41.6083 43.1986 41.671L46.2916 42.0202L44.2908 51.4727C44.1049 52.3517 44.5422 53.244 45.351 53.6354C45.623 53.7671 45.9132 53.8306 46.2009 53.8306C46.7679 53.8304 47.324 53.5833 47.7047 53.1247L60.9019 37.2234C61.3347 36.7019 61.4663 35.9931 61.2494 35.3511C61.0326 34.7089 60.4982 34.2251 59.8378 34.0728L56.5826 33.3216L58.4855 28.608H63.6632C63.6929 28.6432 63.7224 28.6785 63.7519 28.7138L68.5724 28.608H73.9372C78.5212 28.6076 82.2501 24.8785 82.2501 20.2949ZM37.6758 19.4437C36.2004 19.4437 35 20.6439 35 22.1193C35 23.5947 36.2004 24.7951 37.6756 24.7951H74.031C76.4607 24.7951 78.4374 22.8183 78.4374 20.3886C78.4374 17.959 76.4605 15.9822 74.031 15.9822H73.7331C72.7148 15.9822 71.8673 15.1998 71.7863 14.1849C71.5552 11.2971 69.1011 9.03495 66.1994 9.03495C66.0335 9.03495 65.8621 9.04276 65.69 9.05819C64.946 9.12577 64.232 8.76308 63.8455 8.12558C62.2791 5.54218 59.5429 4 56.5263 4C52.5877 4 49.1748 6.66542 48.2269 10.4822C47.9849 11.456 47.0449 12.0887 46.0513 11.9443C45.7803 11.9051 45.5054 11.8851 45.2344 11.8851C42.1435 11.8851 39.6289 14.3998 39.6289 17.4906C39.6289 18.5691 38.7545 19.4437 37.6758 19.4437ZM53.5703 36.7072C53.0136 36.5786 52.5412 36.213 52.2771 35.7062C52.0131 35.1995 51.9843 34.6027 52.1982 34.073L54.3668 28.7013H48.1744L45.9238 38.1302L48.9607 38.4732C49.5078 38.5347 50.0035 38.8247 50.3256 39.2712C50.6478 39.7179 50.7664 40.2796 50.6523 40.8185L49.8441 44.6364L55.9662 37.2599L53.5703 36.7072Z" fill="#57A9FF"/>
<path d="M17.3024 49.8335C16.2237 49.8335 15.3499 50.7081 15.3499 51.7866C15.3499 52.8651 16.225 53.7397 17.3038 53.7397C18.3825 53.7397 19.2569 52.8651 19.2569 51.7866C19.2569 50.7081 18.3825 49.8335 17.3038 49.8335H17.3024Z" fill="#005FC6"/>
<path d="M60.8756 78.1714H60.8742C59.7957 78.1714 58.9219 79.046 58.9219 80.1245C58.9219 81.203 59.7969 82.0776 60.8756 82.0776C61.9543 82.0776 62.8287 81.203 62.8287 80.1245C62.8287 79.046 61.9543 78.1714 60.8756 78.1714Z" fill="#005FC6"/>
<path d="M24.6419 44.9502C24.6419 43.8717 23.7675 42.9971 22.6888 42.9971C21.9443 42.9971 21.0115 42.5988 20.0238 42.1773C18.7791 41.6461 17.3685 41.0439 15.825 41.0439C14.7462 41.0439 13.8718 41.9186 13.8718 42.9971C13.8718 44.0756 14.7462 44.9502 15.825 44.9502C16.5697 44.9502 17.5025 45.3484 18.4902 45.7699C19.7347 46.3012 21.1455 46.9033 22.6888 46.9033C23.7675 46.9033 24.6419 46.0287 24.6419 44.9502Z" fill="#005FC6"/>
</svg>
