<svg width="90" height="90" viewBox="0 0 90 90" fill="none" xmlns="http://www.w3.org/2000/svg">
<path d="M45 10.7188C26.0995 10.7188 10.7227 26.0963 10.7227 44.9979C10.7227 63.8994 26.0995 79.277 45 79.277C63.9005 79.277 79.2773 63.8994 79.2773 44.9979C79.2773 26.0963 63.9005 10.7188 45 10.7188ZM45 14.2346C57.5372 14.2346 68.345 21.7749 73.1315 32.558C69.5225 33.8025 65.4657 34.7908 61.0407 35.5002C58.3866 35.9263 55.4788 35.5129 52.4002 35.0752C50.0203 34.7368 47.5592 34.3868 45 34.3868C42.4408 34.3868 39.9797 34.7368 37.5998 35.0752C34.521 35.5129 31.6132 35.9263 28.9589 35.5002C25.2932 34.9126 19.7562 33.324 16.9072 32.4694C21.7136 21.7334 32.497 14.2346 45 14.2346ZM36.9141 74.6817C24.2578 71.2511 14.9309 60.0108 14.2734 46.5117C17.7743 47.5435 22.2451 49.1934 23.798 50.5344C24.7329 51.342 26.2809 53.3063 27.6463 55.0395C28.8172 56.5261 29.9213 57.9303 30.787 58.8195C32.5343 60.6167 34.6289 62.0826 36.9141 63.1046V74.6817ZM49.5703 61.9268V75.4217C47.9883 75.6444 46.5511 75.761 45 75.761C43.4489 75.761 42.0117 75.6444 40.4297 75.4217V61.9268C40.4297 61.1931 39.9765 60.5366 39.2892 60.2799C37.0517 59.4444 34.9845 58.0918 33.3084 56.3679C32.5705 55.6098 31.4713 54.2139 30.408 52.8637C28.8737 50.9157 27.2871 48.9014 26.0968 47.8735C23.5136 45.6424 16.9625 43.619 14.3132 42.8706C14.4819 40.4124 14.9396 38.0325 15.6544 35.7653C18.4975 36.6242 24.386 38.3275 28.4022 38.9715C31.5817 39.4827 34.8929 39.0115 38.095 38.556C40.3539 38.2348 42.6899 37.9026 45.0002 37.9026C47.3105 37.9026 49.6466 38.2348 51.9054 38.556C54.1202 38.871 56.3866 39.1934 58.6259 39.1932C59.6243 39.1932 60.6175 39.1292 61.5976 38.9717C66.3843 38.2043 70.4967 37.1188 74.3381 35.7419C75.0572 38.0162 75.5176 40.4038 75.6868 42.8706C73.0375 43.619 66.4863 45.6424 63.903 47.8735C62.7128 48.9014 61.126 50.9159 59.5916 52.8637C58.5281 54.2137 57.4284 55.6098 56.6896 56.3686C55.0144 58.0916 52.9485 59.4443 50.7108 60.2798C50.0235 60.5366 49.5703 61.1931 49.5703 61.9268ZM53.0859 74.6817V63.1047C55.3711 62.0827 57.4652 60.6171 59.2119 58.8204C60.0785 57.9304 61.1835 56.5261 62.3544 55.0395C63.7198 53.3063 65.2665 51.342 66.2015 50.5344C67.7544 49.1934 72.2261 47.5435 75.7269 46.5117C75.0695 60.0108 65.7422 71.2511 53.0859 74.6817Z" fill="#0056BC"/>
<path d="M45 41.833C41.123 41.833 37.9688 44.9874 37.9688 48.8646C37.9688 52.7418 41.123 55.8962 45 55.8962C48.877 55.8962 52.0312 52.7418 52.0312 48.8646C52.0312 44.9874 48.877 41.833 45 41.833ZM45 52.3802C43.0615 52.3802 41.4844 50.8031 41.4844 48.8644C41.4844 46.9257 43.0615 45.3486 45 45.3486C46.9385 45.3486 48.5156 46.9257 48.5156 48.8644C48.5156 50.8033 46.9385 52.3802 45 52.3802Z" fill="#57A9FF"/>
<path d="M73.4707 79.3027C74.4415 79.3027 75.2285 78.5157 75.2285 77.5449C75.2285 76.5741 74.4415 75.7871 73.4707 75.7871C72.4999 75.7871 71.7129 76.5741 71.7129 77.5449C71.7129 78.5157 72.4999 79.3027 73.4707 79.3027Z" fill="#57A9FF"/>
<path d="M89.0859 35.9288C88.4936 33.0387 87.6111 30.1962 86.4633 27.4802C85.3348 24.8134 83.9391 22.2417 82.3148 19.8369C80.7047 17.4533 78.8555 15.2136 76.8199 13.1762C74.7826 11.1404 72.5432 9.29123 70.1596 7.68107C67.7549 6.05667 65.183 4.66097 62.5166 3.53246C59.8008 2.38285 56.9584 1.50201 54.0686 0.9098C48.1395 -0.303267 41.8605 -0.303267 35.9314 0.9098C33.0416 1.50201 30.1992 2.38285 27.4832 3.53263C24.8184 4.66115 22.2449 6.05685 19.8404 7.68125C17.4567 9.2914 15.2172 11.1406 13.1799 13.1763C11.1444 15.2136 9.29514 17.4533 7.68498 19.837C6.06076 22.2417 4.66506 24.8136 3.53654 27.4804C2.38869 30.1964 1.50609 33.0389 0.913887 35.9289C0.307617 38.8924 0 41.9444 0 44.9978C0 48.0513 0.307617 51.1029 0.914062 54.0668C1.50627 56.9568 2.38887 59.7993 3.53672 62.5152C4.66523 65.1802 6.06076 67.752 7.68516 70.1586C9.29531 72.5422 11.1445 74.7819 13.1801 76.8192C15.2174 78.8549 17.4568 80.7043 19.8406 82.3145C22.2453 83.9387 24.8186 85.3345 27.4834 86.4631C30.1992 87.6111 33.0416 88.4933 35.9316 89.0859C38.8951 89.6923 41.9451 90 44.9984 90L45.0002 89.9912V90C49.0431 90 53.1881 89.4445 57.1133 88.3492C60.9207 87.2875 64.5761 85.723 67.979 83.6979C68.3815 83.4572 68.6684 83.0738 68.7829 82.6203C68.8989 82.165 68.8305 81.6922 68.5898 81.2877C68.2752 80.7586 67.6951 80.4299 67.0781 80.4299C66.7635 80.4299 66.4541 80.5143 66.1818 80.676C59.7957 84.4748 52.4726 86.4824 45.0002 86.4842C33.9223 86.4824 23.5039 82.1685 15.6658 74.3335C7.83106 66.495 3.51562 56.0759 3.51562 44.9978C3.51562 33.9194 7.83106 23.5003 15.6656 15.6621C23.5037 7.82697 33.9221 3.51136 45 3.51136C56.0777 3.51136 66.4963 7.82697 74.3344 15.6621C82.1689 23.5003 86.4844 33.9194 86.4844 44.9978C86.4844 54.4429 83.3904 63.3433 77.5387 70.7333C77.2471 71.1026 77.117 71.5612 77.1713 72.029C77.224 72.4948 77.4578 72.9116 77.8254 73.2034C78.14 73.451 78.5162 73.5829 78.9151 73.5829C79.4565 73.5829 79.9592 73.3403 80.2951 72.9167C83.3748 69.0284 85.7742 64.695 87.4264 60.0349C89.1352 55.2128 90 50.1554 90 44.9978C90 41.9444 89.6924 38.8924 89.0859 35.9288Z" fill="#0056BC"/>
</svg>
