<svg width="91" height="91" viewBox="0 0 91 91" fill="none" xmlns="http://www.w3.org/2000/svg">
<path d="M90.4795 0.52054C89.7853 -0.173513 88.6603 -0.173513 87.9659 0.52054L67.5392 20.9474L66.283 19.6911C65.5893 18.9973 64.4635 18.9973 63.7693 19.6911L57.9167 25.5438L56.6602 24.2874C54.5765 22.2036 51.2045 22.2034 49.1204 24.2874C46.644 26.7636 17.1595 56.2481 15.5661 57.8415L10.1436 52.419C9.44956 51.7249 8.32414 51.7249 7.62991 52.419C6.93586 53.113 6.93586 54.2384 7.62991 54.9327L18.0787 65.3815L8.15103 75.3092L3.03424 70.1924C2.34018 69.4984 1.21477 69.4984 0.52054 70.1924C-0.173513 70.8865 -0.173513 72.0119 0.52054 72.7061L18.294 90.4795C18.988 91.1736 20.1134 91.1736 20.8077 90.4795C21.5017 89.7855 21.5017 88.6601 20.8077 87.9659L15.6911 82.8491L25.6188 72.9213L36.0676 83.3702C36.7616 84.0642 37.8871 84.0642 38.5813 83.3702C39.2753 82.6761 39.2753 81.5507 38.5813 80.8565L33.1588 75.434C38.9017 69.691 58.3816 50.2113 66.7131 41.8797C68.7917 39.8009 68.7917 36.4186 66.7131 34.3398L65.4567 33.0834L71.3091 27.231C72.0032 26.5369 72.0032 25.4115 71.3091 24.7175L70.0527 23.4611L90.4795 3.03424C91.1738 2.34001 91.1738 1.21459 90.4795 0.52054ZM13.1774 80.3355L10.6646 77.8227L20.5923 67.895L23.1051 70.4078L13.1774 80.3355ZM18.0796 60.355L22.0659 56.3689L34.6313 68.9344L30.6453 72.9205L18.0796 60.355ZM64.1994 39.3662L59.3616 44.2039L53.0789 37.9212C52.3847 37.2271 51.2596 37.2271 50.5652 37.9212C49.8712 38.6152 49.8712 39.7407 50.5652 40.4349L56.8479 46.7176L52.2523 51.3133L45.9695 45.0306C45.2753 44.3365 44.1502 44.3365 43.4558 45.0306C42.7618 45.7246 42.7618 46.85 43.4558 47.5443L49.7386 53.827L45.1429 58.4227L38.86 52.1399C38.1659 51.4459 37.0405 51.4459 36.3465 52.1399C35.6524 52.834 35.6524 53.9594 36.3465 54.6535L42.6292 60.9362L37.1448 66.4205L24.5794 53.8551L51.6339 26.8005C52.3285 26.1061 53.4518 26.1059 54.1466 26.8005C55.0166 27.6705 62.8426 35.4964 64.1994 36.853C64.892 37.5462 64.892 38.6735 64.1994 39.3662ZM62.943 30.5699L60.4304 28.0573L65.0262 23.4614C65.8834 24.3186 66.5944 25.0296 67.539 25.9742L62.943 30.5699Z" fill="#0056BD"/>
<path d="M65.5847 89.2227C65.5847 90.2043 66.3806 91 67.3621 91H85.1355C86.117 91 86.9128 90.2043 86.9128 89.2227V66.1172H89.2234C90.2048 66.1172 91.0007 65.3215 91.0007 64.3398V57.2305C91.0007 56.2488 90.2048 55.4531 89.2234 55.4531H84.2468C83.2654 55.4531 82.4695 56.2488 82.4695 57.2305C82.4695 58.2121 83.2654 59.0078 84.2468 59.0078H87.446V62.5625H65.0515V59.0078H68.2507C69.2322 59.0078 70.0281 58.2121 70.0281 57.2305C70.0281 56.2488 69.2322 55.4531 68.2507 55.4531H63.2742C62.2927 55.4531 61.4968 56.2488 61.4968 57.2305V64.3398C61.4968 65.3215 62.2927 66.1172 63.2742 66.1172H65.5847V89.2227ZM69.1394 87.4453V75.0101C71.3259 75.072 73.5003 75.616 75.4534 76.5934C77.8978 77.8166 80.6221 78.4898 83.3582 78.5524V87.4453H69.1394ZM83.3582 66.1172V74.9977C81.1717 74.9358 78.9973 74.3918 77.0441 73.4144C74.5998 72.1913 71.8754 71.518 69.1394 71.4554V66.1172H83.3582Z" fill="#57A9FF"/>
<path d="M76.2488 59.0078C77.2304 59.0078 78.0261 58.2121 78.0261 57.2305C78.0261 56.2489 77.2304 55.4531 76.2488 55.4531C75.2672 55.4531 74.4714 56.2489 74.4714 57.2305C74.4714 58.2121 75.2672 59.0078 76.2488 59.0078Z" fill="#0056BD"/>
</svg>
