<svg width="79" height="87" viewBox="0 0 79 87" fill="none" xmlns="http://www.w3.org/2000/svg">
<rect x="9" y="51" width="13" height="3" fill="#57A9FF"/>
<rect x="9" y="32" width="13" height="3" fill="#57A9FF"/>
<path d="M77.1462 13.7139C78.0845 13.7139 78.8455 12.953 78.8455 12.0147V1.69922C78.8455 0.76091 78.0845 0 77.1462 0H1.69922C0.76091 0 0 0.76091 0 1.69922V12.0147C0 12.953 0.76091 13.7139 1.69922 13.7139H5.83291V73.2861H1.69922C0.76091 73.2861 0 74.047 0 74.9853V85.3008C0 86.2391 0.76091 87 1.69922 87H77.1462C78.0845 87 78.8455 86.2391 78.8455 85.3008V74.9853C78.8455 74.047 78.0845 73.2861 77.1462 73.2861H71.5269V13.7139H77.1462ZM3.39844 3.39844H75.447V10.3154H3.39844V3.39844ZM24.8052 73.2861V13.7139H36.9806V73.2861H24.8052ZM9.23135 35.5956H21.4066V55.0234H9.23135V35.5956ZM21.4068 13.7139L21.4066 35.5956H9.23135V13.7139H21.4068ZM9.23135 55.0234H21.4066V73.2861H9.23135V55.0234ZM75.447 83.6016H3.39844V76.6846H75.447V83.6016ZM68.1285 73.2861H55.9532L55.9556 52.4168C55.9558 51.4785 55.195 50.7176 54.2566 50.7174C53.3183 50.7174 52.5573 51.4782 52.5572 52.4165L52.5548 73.2861H40.3792V13.7139H52.5546V34.5978C52.5546 35.5361 53.3155 36.297 54.2538 36.297C55.1922 36.297 55.9531 35.5361 55.9531 34.5978V13.7139H68.1285V73.2861Z" fill="#0060C7"/>
<path d="M15.404 37.6992C13.016 37.6992 11.0732 39.6421 11.0732 42.03C11.0732 43.8152 12.159 45.3511 13.7048 46.0132V48.3215C13.7048 49.2598 14.4657 50.0208 15.404 50.0208C16.3423 50.0208 17.1033 49.2598 17.1033 48.3215V46.0132C18.649 45.3511 19.7348 43.8152 19.7348 42.03C19.735 39.6421 17.7921 37.6992 15.404 37.6992ZM15.404 41.0977C15.9181 41.0977 16.3364 41.516 16.3364 42.03C16.3364 42.544 15.9181 42.9624 15.404 42.9624C14.89 42.9624 14.4717 42.544 14.4717 42.03C14.4717 41.516 14.89 41.0977 15.404 41.0977Z" fill="#57A9FF"/>
<path d="M56.8157 42.5412C56.2901 41.2808 54.8052 40.6642 53.5421 41.1856C52.2797 41.7066 51.6641 43.1982 52.186 44.4583C52.7089 45.7205 54.1968 46.3361 55.4596 45.8137C56.724 45.2905 57.3328 43.8034 56.8157 42.5412Z" fill="#57A9FF"/>
</svg>
