<svg width="233" height="258" viewBox="0 0 233 258" fill="none" xmlns="http://www.w3.org/2000/svg">
<g opacity="0.1">
<path d="M92.8654 38.0279C91.0688 38.0279 89.5716 38.0279 88.1493 38.0279C72.8033 38.0279 57.4574 38.0279 42.1115 38.0279C30.2839 38.0279 18.4562 38.0279 6.55378 38.0279C1.76285 38.0279 -1.0069 41.621 0.340548 45.888C1.38856 49.032 3.70917 50.1549 7.00293 50.1549C34.7005 50.08 62.398 50.1549 90.0207 50.08C90.9939 50.08 91.8922 49.8555 92.8654 49.7806C92.8654 45.888 92.8654 42.2948 92.8654 38.0279ZM12.8419 34.9587C39.6411 34.9587 66.141 34.9587 92.7156 34.9587C92.7156 32.5632 92.7156 30.3923 92.7156 27.6974C69.5096 27.6974 46.5281 27.6974 23.7712 27.6974C23.3969 24.0294 23.0975 20.8853 22.6483 17.2173C46.0041 17.2173 69.3599 17.2173 92.9402 17.2173C92.8654 15.7949 92.7905 14.8966 92.7156 13.8486C65.9164 13.8486 39.3417 13.8486 12.6173 13.8486C17.9322 23.5802 17.9322 25.5265 12.8419 34.9587ZM92.7905 71.4146C91.7425 71.3398 90.919 71.2649 90.0956 71.2649C62.7723 71.2649 35.4491 71.2649 8.12581 71.2649C7.15265 71.2649 5.88006 71.1152 5.20633 71.6392C4.15832 72.4627 2.88573 73.885 2.96059 75.0078C3.03545 76.1307 4.38289 77.4782 5.50577 78.2267C6.32921 78.7507 7.67666 78.4513 8.79953 78.4513C35.5239 78.4513 62.1735 78.4513 88.8979 78.4513C90.2453 78.4513 91.5179 78.4513 92.8654 78.4513C92.7905 75.8313 92.7905 73.7352 92.7905 71.4146ZM14.2642 53.2989C17.2585 58.0899 17.2585 62.5814 14.4139 67.2226C40.8389 67.2226 66.7398 67.2226 92.7905 67.2226C92.7905 65.8003 92.7905 64.6774 92.7905 63.0305C69.1353 63.0305 45.5549 63.0305 21.9746 63.0305C21.8249 60.5602 21.6752 58.539 21.4506 56.1436C23.0226 56.1436 24.37 56.1436 25.7175 56.1436C36.7217 56.1436 47.651 56.1436 58.6551 56.1436C69.1353 56.1436 79.6154 56.1436 90.0956 56.1436C91.8922 56.1436 93.9134 56.2933 92.4162 53.3738C66.5901 53.2989 40.8389 53.2989 14.2642 53.2989Z" fill="#00295D"/>
<path d="M233 0C233 16.918 233 33.9108 233 51.2779C200.362 51.2779 168.023 51.2779 135.385 51.2779C135.385 70.0673 135.385 88.4825 135.385 107.272C164.954 107.272 194.298 107.272 223.867 107.272C223.867 123.516 223.867 139.311 223.867 155.481C194.523 155.481 165.104 155.481 135.235 155.481C135.235 189.317 135.235 222.778 135.235 256.614C124.081 256.614 113.451 256.614 102.372 256.614C102.372 255.042 102.372 253.62 102.372 252.123C102.372 169.554 102.372 86.9853 102.372 4.41664C102.372 2.91947 102.597 1.42231 102.747 0C146.164 0 189.582 0 233 0Z" fill="#00295D"/>
<path d="M75.7976 257.512C75.7976 200.994 75.7976 144.476 75.7976 88.0328C75.7976 83.4665 76.4713 82.7179 81.1125 82.4184C82.3851 82.3436 83.5829 82.3436 84.8555 82.4184C89.1972 82.7927 89.9458 83.6162 89.9458 88.0328C89.9458 143.653 89.9458 199.272 89.9458 254.892C89.9458 255.79 90.0207 256.614 90.0207 257.512C85.3046 257.512 80.5137 257.512 75.7976 257.512Z" fill="#00295D"/>
<path d="M23.3969 257.513C23.3969 200.77 23.3969 143.953 23.322 87.2102C23.322 83.9165 24.7443 82.7187 27.5889 82.4941C29.0861 82.3444 30.5833 82.3444 32.0804 82.4193C36.7217 82.7187 37.5451 83.617 37.5451 88.4079C37.5451 143.803 37.5451 199.198 37.5451 254.593C37.5451 255.566 37.6199 256.614 37.6199 257.588C32.9039 257.513 28.113 257.513 23.3969 257.513Z" fill="#00295D"/>
<path d="M49.5971 257.513C49.5971 200.92 49.5971 144.253 49.5222 87.6598C49.5222 83.9917 50.9445 82.7191 54.1634 82.4945C55.436 82.4197 56.6337 82.3448 57.9063 82.4197C62.847 82.6443 63.7453 83.5426 63.7453 88.4083C63.7453 143.878 63.7453 199.423 63.7453 254.893C63.7453 255.791 63.8201 256.615 63.8201 257.513C59.1041 257.513 54.3131 257.513 49.5971 257.513Z" fill="#00295D"/>
<path d="M92.8654 38.0284C92.8654 42.2953 92.8654 45.8885 92.8654 49.7811C91.8922 49.9309 90.919 50.0806 90.0207 50.0806C62.3232 50.0806 34.6256 50.0806 7.00293 50.1554C3.70916 50.1554 1.38856 49.1074 0.340542 45.8885C-1.00691 41.6216 1.83771 38.0284 6.55378 38.0284C18.3814 37.9535 30.209 38.0284 42.1115 38.0284C57.4574 38.0284 72.8033 38.0284 88.1493 38.0284C89.5716 38.0284 91.0688 38.0284 92.8654 38.0284Z" fill="#00295D"/>
<path d="M12.8419 34.9587C18.0071 25.5265 18.0071 23.5802 12.6921 13.8486C39.4165 13.8486 65.9912 13.8486 92.7905 13.8486C92.8653 14.8966 92.9402 15.7949 93.0151 17.2173C69.4347 17.2173 46.0789 17.2173 22.7231 17.2173C23.0974 20.8105 23.4717 24.0294 23.846 27.6974C46.6029 27.6974 69.5844 27.6974 92.7905 27.6974C92.7905 30.3923 92.7905 32.5632 92.7905 34.9587C66.1409 34.9587 39.6411 34.9587 12.8419 34.9587Z" fill="#00295D"/>
<path d="M92.7904 71.4153C92.7904 73.661 92.7904 75.7571 92.7904 78.3771C91.4429 78.3771 90.1703 78.3771 88.8229 78.3771C62.0985 78.3771 35.4489 78.3771 8.72454 78.3771C7.60167 78.3771 6.25422 78.6765 5.43078 78.1525C4.30791 77.4039 2.96046 76.0565 2.8856 74.9336C2.81074 73.8107 4.08333 72.4633 5.13135 71.565C5.73021 71.041 7.0028 71.1907 8.05082 71.1907C35.3741 71.1907 62.6974 71.1907 90.0206 71.1907C90.8441 71.2656 91.7424 71.4153 92.7904 71.4153Z" fill="#00295D"/>
<path d="M14.2642 53.2988C40.764 53.2988 66.5901 53.2988 92.3413 53.2988C93.8385 56.2183 91.8173 56.0686 90.0207 56.0686C79.5406 56.0686 69.0604 56.0686 58.5803 56.0686C47.5761 56.0686 36.6468 56.0686 25.6426 56.0686C24.2952 56.0686 22.9477 56.0686 21.3757 56.0686C21.5254 58.464 21.6751 60.4852 21.8997 62.9555C45.4801 62.9555 68.9855 62.9555 92.7156 62.9555C92.7156 64.5276 92.7156 65.7253 92.7156 67.1476C66.6649 67.1476 40.764 67.1476 14.339 67.1476C17.2585 62.5813 17.2585 58.0898 14.2642 53.2988Z" fill="#00295D"/>
</g>
</svg>
