<svg width="23" height="22" viewBox="0 0 23 22" fill="none" xmlns="http://www.w3.org/2000/svg">
<path d="M10.7411 0.461236C10.8619 0.0829335 11.3971 0.0829359 11.5179 0.461238L13.8611 7.80498C13.915 7.97398 14.072 8.0887 14.2494 8.0887H21.8478C22.2409 8.0887 22.4063 8.59025 22.0903 8.82405L15.9304 13.3814C15.7901 13.4851 15.7315 13.6667 15.7845 13.833L18.1344 21.1974C18.2546 21.5743 17.8216 21.8843 17.5036 21.649L11.372 17.1126C11.2279 17.0061 11.0311 17.0061 10.8871 17.1126L4.75544 21.649C4.43743 21.8843 4.00439 21.5743 4.12464 21.1974L6.47449 13.833C6.52754 13.6667 6.46887 13.4851 6.32859 13.3814L0.168716 8.82405C-0.147298 8.59025 0.0180651 8.0887 0.411165 8.0887H8.00955C8.18695 8.0887 8.34398 7.97398 8.39791 7.80497L10.7411 0.461236Z" fill="white"/>
</svg>
