<svg width="78" height="115" viewBox="0 0 78 115" fill="none" xmlns="http://www.w3.org/2000/svg">
<path d="M36.513 13.3368C35.5374 13.3368 34.7433 12.5502 34.7433 11.5839C34.7433 10.6176 35.5374 9.83102 36.513 9.83102H41.3457C42.3214 9.83102 43.1155 10.6176 43.1155 11.5839C43.1155 12.5502 42.3214 13.3368 41.3457 13.3368H36.513Z" fill="url(#paint0_linear)"/>
<path fill-rule="evenodd" clip-rule="evenodd" d="M36.513 10.3012C35.7928 10.3012 35.2134 10.8815 35.2134 11.5839C35.2134 12.2863 35.7928 12.8666 36.513 12.8666H41.3457C42.066 12.8666 42.6453 12.2863 42.6453 11.5839C42.6453 10.8815 42.066 10.3012 41.3457 10.3012H36.513ZM34.2731 11.5839C34.2731 10.3537 35.282 9.36085 36.513 9.36085H41.3457C42.5768 9.36085 43.5856 10.3537 43.5856 11.5839C43.5856 12.8141 42.5768 13.8069 41.3457 13.8069H36.513C35.282 13.8069 34.2731 12.8141 34.2731 11.5839Z" fill="url(#paint1_linear)"/>
<path d="M31.6581 104.442C30.6825 104.442 29.8884 103.655 29.8884 102.689C29.8884 101.722 30.6825 100.936 31.6581 100.936H46.179C47.1546 100.936 47.9487 101.722 47.9487 102.689C47.9487 103.655 47.1546 104.442 46.179 104.442H31.6581Z" fill="url(#paint2_linear)"/>
<path fill-rule="evenodd" clip-rule="evenodd" d="M31.6581 101.406C30.9379 101.406 30.3585 101.986 30.3585 102.689C30.3585 103.391 30.9379 103.971 31.6581 103.971H46.179C46.8992 103.971 47.4786 103.391 47.4786 102.689C47.4786 101.986 46.8992 101.406 46.179 101.406H31.6581ZM29.4182 102.689C29.4182 101.458 30.4271 100.466 31.6581 100.466H46.179C47.41 100.466 48.4189 101.458 48.4189 102.689C48.4189 103.919 47.41 104.912 46.179 104.912H31.6581C30.4271 104.912 29.4182 103.919 29.4182 102.689Z" fill="url(#paint3_linear)"/>
<path d="M65.555 13.3368C66.5324 13.3368 67.3247 12.552 67.3247 11.5839C67.3247 10.6158 66.5324 9.83102 65.555 9.83102C64.5776 9.83102 63.7852 10.6158 63.7852 11.5839C63.7852 12.552 64.5776 13.3368 65.555 13.3368Z" fill="url(#paint4_linear)"/>
<path fill-rule="evenodd" clip-rule="evenodd" d="M65.555 10.3012C64.833 10.3012 64.2554 10.8797 64.2554 11.5839C64.2554 12.2881 64.833 12.8666 65.555 12.8666C66.277 12.8666 66.8545 12.2881 66.8545 11.5839C66.8545 10.8797 66.277 10.3012 65.555 10.3012ZM63.3151 11.5839C63.3151 10.3519 64.3222 9.36085 65.555 9.36085C66.7878 9.36085 67.7949 10.3519 67.7949 11.5839C67.7949 12.8159 66.7878 13.8069 65.555 13.8069C64.3222 13.8069 63.3151 12.8159 63.3151 11.5839Z" fill="url(#paint5_linear)"/>
<path d="M9.8766 114.015C4.88504 114.015 0.84641 109.992 0.84641 105.071V9.17926C0.84641 4.25772 4.90772 0.235082 9.8766 0.235082H67.9602C72.9518 0.235082 76.9904 4.25772 76.9904 9.17926V105.071C76.9904 110.015 72.9291 114.015 67.9602 114.015H9.8766ZM4.40857 105.071C4.40857 108.06 6.85897 110.509 9.89929 110.509H67.9829C71.0005 110.509 73.4736 108.082 73.4736 105.071V94.8456H4.40857V105.071ZM9.8766 3.76331C6.85897 3.76331 4.38588 6.19038 4.38588 9.20173V91.3398H73.4509V9.17926C73.4509 6.19038 71.0005 3.74084 67.9602 3.74084H9.8766V3.76331Z" fill="url(#paint6_linear)"/>
<path fill-rule="evenodd" clip-rule="evenodd" d="M9.8766 0.470165C5.03543 0.470165 1.08149 4.38966 1.08149 9.17926V105.071C1.08149 109.861 5.01313 113.78 9.8766 113.78H67.9602C72.8018 113.78 76.7553 109.882 76.7553 105.071V9.17926C76.7553 4.38928 72.8237 0.470165 67.9602 0.470165H9.8766ZM0.611328 9.17926C0.611328 4.12577 4.78002 0 9.8766 0H67.9602C73.0798 0 77.2255 4.12615 77.2255 9.17926V105.071C77.2255 110.147 73.0564 114.25 67.9602 114.25H9.8766C4.75694 114.25 0.611328 110.124 0.611328 105.071V9.17926ZM9.64151 3.53296C6.60429 3.65527 4.1508 6.13651 4.1508 9.20173V91.5749H73.686V9.17926C73.686 6.05906 71.1289 3.50576 67.9602 3.50576H9.64151V3.53296ZM10.1117 3.97592V3.9984H9.8766C6.98604 3.9984 4.62096 6.32295 4.62096 9.20173V91.1048H73.2158V9.17926C73.2158 6.3217 70.8722 3.97592 67.9602 3.97592H10.1117ZM4.17349 94.6105H73.7087V105.071C73.7087 108.215 71.1276 110.744 67.9829 110.744H9.89929C6.73063 110.744 4.17349 108.191 4.17349 105.071V94.6105ZM4.64365 95.0807V105.071C4.64365 107.928 6.98731 110.274 9.89929 110.274H67.9829C70.8734 110.274 73.2385 107.95 73.2385 105.071V95.0807H4.64365Z" fill="url(#paint7_linear)"/>
<path d="M17.1372 46.9111C16.1615 46.9111 15.3674 46.1246 15.3674 45.1582V30.7757C15.3674 29.8093 16.1615 29.0228 17.1372 29.0228H31.6581C32.6337 29.0228 33.4278 29.8093 33.4278 30.7757V45.1582C33.4278 46.1246 32.6337 46.9111 31.6581 46.9111H17.1372ZM18.9296 43.3829H29.8883V32.5285H18.9296V43.3829Z" fill="url(#paint8_linear)"/>
<path fill-rule="evenodd" clip-rule="evenodd" d="M17.1372 29.4929C16.4169 29.4929 15.8376 30.0732 15.8376 30.7757V45.1582C15.8376 45.8607 16.4169 46.441 17.1372 46.441H31.6581C32.3783 46.441 32.9576 45.8607 32.9576 45.1582V30.7757C32.9576 30.0732 32.3783 29.4929 31.6581 29.4929H17.1372ZM14.8973 30.7757C14.8973 29.5454 15.9061 28.5526 17.1372 28.5526H31.6581C32.8891 28.5526 33.898 29.5454 33.898 30.7757V45.1582C33.898 46.3885 32.8891 47.3813 31.6581 47.3813H17.1372C15.9061 47.3813 14.8973 46.3885 14.8973 45.1582V30.7757ZM18.4594 32.0584H30.3585V43.8531H18.4594V32.0584ZM19.3997 32.9987V42.9127H29.4182V32.9987H19.3997Z" fill="url(#paint9_linear)"/>
<path d="M46.1787 46.9111C45.2031 46.9111 44.409 46.1246 44.409 45.1582V30.7757C44.409 29.8093 45.2031 29.0228 46.1787 29.0228H60.6996C61.6753 29.0228 62.4694 29.8093 62.4694 30.7757V45.1582C62.4694 46.1246 61.6753 46.9111 60.6996 46.9111H46.1787ZM47.9712 43.3829H58.9299V32.5285H47.9712V43.3829Z" fill="url(#paint10_linear)"/>
<path fill-rule="evenodd" clip-rule="evenodd" d="M46.1787 29.4929C45.4585 29.4929 44.8792 30.0732 44.8792 30.7757V45.1582C44.8792 45.8607 45.4585 46.441 46.1787 46.441H60.6996C61.4198 46.441 61.9992 45.8607 61.9992 45.1582V30.7757C61.9992 30.0732 61.4198 29.4929 60.6996 29.4929H46.1787ZM43.9388 30.7757C43.9388 29.5454 44.9477 28.5526 46.1787 28.5526H60.6996C61.9307 28.5526 62.9395 29.5454 62.9395 30.7757V45.1582C62.9395 46.3885 61.9307 47.3813 60.6996 47.3813H46.1787C44.9477 47.3813 43.9388 46.3885 43.9388 45.1582V30.7757ZM47.501 32.0584H59.4001V43.8531H47.501V32.0584ZM48.4413 32.9987V42.9127H58.4597V32.9987H48.4413Z" fill="url(#paint11_linear)"/>
<path d="M17.1372 75.6763C16.1615 75.6763 15.3674 74.8898 15.3674 73.9235V59.5408C15.3674 58.5745 16.1615 57.788 17.1372 57.788H31.6581C32.6337 57.788 33.4278 58.5745 33.4278 59.5408V73.9235C33.4278 74.8898 32.6337 75.6763 31.6581 75.6763H17.1372ZM18.9296 72.1481H29.8883V61.2937H18.9296V72.1481Z" fill="url(#paint12_linear)"/>
<path fill-rule="evenodd" clip-rule="evenodd" d="M17.1372 58.2581C16.4169 58.2581 15.8376 58.8384 15.8376 59.5408V73.9235C15.8376 74.6259 16.4169 75.2062 17.1372 75.2062H31.6581C32.3783 75.2062 32.9576 74.6259 32.9576 73.9235V59.5408C32.9576 58.8384 32.3783 58.2581 31.6581 58.2581H17.1372ZM14.8973 59.5408C14.8973 58.3106 15.9061 57.3178 17.1372 57.3178H31.6581C32.8891 57.3178 33.898 58.3106 33.898 59.5408V73.9235C33.898 75.1537 32.8891 76.1465 31.6581 76.1465H17.1372C15.9061 76.1465 14.8973 75.1537 14.8973 73.9235V59.5408ZM18.4594 60.8236H30.3585V72.6183H18.4594V60.8236ZM19.3997 61.7639V71.6779H29.4182V61.7639H19.3997Z" fill="url(#paint13_linear)"/>
<path d="M46.1787 75.6763C45.2031 75.6763 44.409 74.8898 44.409 73.9235V59.5408C44.409 58.5745 45.2031 57.788 46.1787 57.788H60.6996C61.6753 57.788 62.4694 58.5745 62.4694 59.5408V73.9235C62.4694 74.8898 61.6753 75.6763 60.6996 75.6763H46.1787ZM47.9712 72.1481H58.9299V61.2937H47.9712V72.1481Z" fill="url(#paint14_linear)"/>
<path fill-rule="evenodd" clip-rule="evenodd" d="M46.1787 58.2581C45.4585 58.2581 44.8792 58.8384 44.8792 59.5408V73.9235C44.8792 74.6259 45.4585 75.2062 46.1787 75.2062H60.6996C61.4198 75.2062 61.9992 74.6259 61.9992 73.9235V59.5408C61.9992 58.8384 61.4198 58.2581 60.6996 58.2581H46.1787ZM43.9388 59.5408C43.9388 58.3106 44.9477 57.3178 46.1787 57.3178H60.6996C61.9307 57.3178 62.9395 58.3106 62.9395 59.5408V73.9235C62.9395 75.1537 61.9307 76.1465 60.6996 76.1465H46.1787C44.9477 76.1465 43.9388 75.1537 43.9388 73.9235V59.5408ZM47.501 60.8236H59.4001V72.6183H47.501V60.8236ZM48.4413 61.7639V71.6779H58.4597V61.7639H48.4413Z" fill="url(#paint15_linear)"/>
<defs>
<linearGradient id="paint0_linear" x1="26.4897" y1="95.7376" x2="78.5539" y2="63.7059" gradientUnits="userSpaceOnUse">
<stop stop-color="#974B9B"/>
<stop offset="1" stop-color="#88B8FF"/>
</linearGradient>
<linearGradient id="paint1_linear" x1="26.4897" y1="95.7376" x2="78.5539" y2="63.7059" gradientUnits="userSpaceOnUse">
<stop stop-color="#974B9B"/>
<stop offset="1" stop-color="#88B8FF"/>
</linearGradient>
<linearGradient id="paint2_linear" x1="26.4897" y1="95.7376" x2="78.5539" y2="63.7059" gradientUnits="userSpaceOnUse">
<stop stop-color="#974B9B"/>
<stop offset="1" stop-color="#88B8FF"/>
</linearGradient>
<linearGradient id="paint3_linear" x1="26.4897" y1="95.7376" x2="78.5539" y2="63.7059" gradientUnits="userSpaceOnUse">
<stop stop-color="#974B9B"/>
<stop offset="1" stop-color="#88B8FF"/>
</linearGradient>
<linearGradient id="paint4_linear" x1="26.4897" y1="95.7376" x2="78.5539" y2="63.7059" gradientUnits="userSpaceOnUse">
<stop stop-color="#974B9B"/>
<stop offset="1" stop-color="#88B8FF"/>
</linearGradient>
<linearGradient id="paint5_linear" x1="26.4897" y1="95.7376" x2="78.5539" y2="63.7059" gradientUnits="userSpaceOnUse">
<stop stop-color="#974B9B"/>
<stop offset="1" stop-color="#88B8FF"/>
</linearGradient>
<linearGradient id="paint6_linear" x1="26.4897" y1="95.7376" x2="78.5539" y2="63.7059" gradientUnits="userSpaceOnUse">
<stop stop-color="#974B9B"/>
<stop offset="1" stop-color="#88B8FF"/>
</linearGradient>
<linearGradient id="paint7_linear" x1="26.4897" y1="95.7376" x2="78.5539" y2="63.7059" gradientUnits="userSpaceOnUse">
<stop stop-color="#974B9B"/>
<stop offset="1" stop-color="#88B8FF"/>
</linearGradient>
<linearGradient id="paint8_linear" x1="26.4897" y1="95.7376" x2="78.5539" y2="63.7059" gradientUnits="userSpaceOnUse">
<stop stop-color="#974B9B"/>
<stop offset="1" stop-color="#88B8FF"/>
</linearGradient>
<linearGradient id="paint9_linear" x1="26.4897" y1="95.7376" x2="78.5539" y2="63.7059" gradientUnits="userSpaceOnUse">
<stop stop-color="#974B9B"/>
<stop offset="1" stop-color="#88B8FF"/>
</linearGradient>
<linearGradient id="paint10_linear" x1="26.4897" y1="95.7376" x2="78.5539" y2="63.7059" gradientUnits="userSpaceOnUse">
<stop stop-color="#974B9B"/>
<stop offset="1" stop-color="#88B8FF"/>
</linearGradient>
<linearGradient id="paint11_linear" x1="26.4897" y1="95.7376" x2="78.5539" y2="63.7059" gradientUnits="userSpaceOnUse">
<stop stop-color="#974B9B"/>
<stop offset="1" stop-color="#88B8FF"/>
</linearGradient>
<linearGradient id="paint12_linear" x1="26.4897" y1="95.7376" x2="78.5539" y2="63.7059" gradientUnits="userSpaceOnUse">
<stop stop-color="#974B9B"/>
<stop offset="1" stop-color="#88B8FF"/>
</linearGradient>
<linearGradient id="paint13_linear" x1="26.4897" y1="95.7376" x2="78.5539" y2="63.7059" gradientUnits="userSpaceOnUse">
<stop stop-color="#974B9B"/>
<stop offset="1" stop-color="#88B8FF"/>
</linearGradient>
<linearGradient id="paint14_linear" x1="26.4897" y1="95.7376" x2="78.5539" y2="63.7059" gradientUnits="userSpaceOnUse">
<stop stop-color="#974B9B"/>
<stop offset="1" stop-color="#88B8FF"/>
</linearGradient>
<linearGradient id="paint15_linear" x1="26.4897" y1="95.7376" x2="78.5539" y2="63.7059" gradientUnits="userSpaceOnUse">
<stop stop-color="#974B9B"/>
<stop offset="1" stop-color="#88B8FF"/>
</linearGradient>
</defs>
</svg>
