<svg width="111" height="115" viewBox="0 0 111 115" fill="none" xmlns="http://www.w3.org/2000/svg">
<path d="M22.9036 55.653C21.7051 55.653 20.7227 54.6706 20.7227 53.472C20.7227 52.2734 21.7051 51.291 22.9036 51.291H60.9236C62.1222 51.291 63.1046 52.2734 63.1046 53.472C63.1046 54.6706 62.1222 55.653 60.9236 55.653H22.9036Z" fill="url(#paint0_linear)"/>
<path d="M22.9036 71.6077C21.7051 71.6077 20.7227 70.6253 20.7227 69.4267C20.7227 68.2282 21.7051 67.2457 22.9036 67.2457H45.6763C46.8749 67.2457 47.8573 68.2282 47.8573 69.4267C47.8573 70.6253 46.8749 71.6077 45.6763 71.6077H22.9036Z" fill="url(#paint1_linear)"/>
<path d="M83.2447 114.756C77.9003 114.756 72.713 113.164 68.2725 110.158C63.7729 107.113 60.3541 102.829 58.3696 97.7599L58.291 97.5831H12.7063C6.10441 97.5831 0.720703 92.1993 0.720703 85.5974V19.1264C0.720703 12.5244 6.10441 7.14073 12.7063 7.14073H23.0415V2.18929C23.0415 0.990729 24.0239 0.00830078 25.2225 0.00830078C26.421 0.00830078 27.4035 0.990729 27.4035 2.18929V7.16038H61.3365V2.18929C61.3365 0.990729 62.3189 0.00830078 63.5175 0.00830078C64.7161 0.00830078 65.6985 0.990729 65.6985 2.18929V7.16038H76.0336C82.6356 7.16038 88.0193 12.5441 88.0193 19.146V61.7637L88.2551 61.803C100.889 64.1805 110.026 75.223 110.006 88.0535C110.006 100.884 100.85 111.926 88.2354 114.304C86.5653 114.599 84.8951 114.756 83.2447 114.756ZM83.284 65.6934C70.9643 65.6934 60.9239 75.7142 60.9239 88.0535C60.9239 100.393 70.9447 110.414 83.284 110.414C95.6036 110.394 105.624 100.373 105.644 88.0535C105.644 75.7142 95.6036 65.6934 83.284 65.6934ZM5.08268 85.5974C5.10233 89.8022 8.52118 93.2211 12.726 93.2407H57.0728L57.0138 92.9067C55.5795 85.0866 57.6819 77.0896 62.7709 70.9789C67.8598 64.8682 75.3459 61.3511 83.284 61.3511H83.6376V29.6776H5.08268V85.5974ZM12.726 11.5027C8.52118 11.5027 5.08268 14.9412 5.08268 19.146V25.3549H83.6573V19.146C83.6376 14.9412 80.2188 11.5224 76.014 11.5027H65.6788V16.4738C65.6788 17.6724 64.6964 18.6548 63.4979 18.6548C62.2993 18.6548 61.3169 17.6724 61.3169 16.4738V11.5027H27.4035V16.4738C27.4035 17.6724 26.421 18.6548 25.2225 18.6548C24.0239 18.6548 23.0415 17.6724 23.0415 16.4738V11.5027H12.726Z" fill="url(#paint2_linear)"/>
<path d="M80.0407 98.7424C79.4709 98.7424 78.9207 98.5066 78.5278 98.1136L69.2733 88.8591C68.8607 88.4465 68.6445 87.8964 68.6445 87.3266C68.6445 86.7567 68.8607 86.2066 69.2733 85.794C69.6859 85.3813 70.2361 85.1652 70.8059 85.1652C71.3757 85.1652 71.9258 85.3813 72.3385 85.794L80.0603 93.5355L94.836 79.4278C95.2487 79.0349 95.7988 78.8187 96.3686 78.8187C96.9581 78.8187 97.5279 79.0545 97.9405 79.4671C98.3335 79.8797 98.5496 80.4299 98.5496 81.0194C98.53 81.5892 98.2942 82.1393 97.8816 82.5323L81.5929 98.1136C81.1999 98.5066 80.6694 98.7227 80.1193 98.7227L80.0407 98.7424Z" fill="url(#paint3_linear)"/>
<defs>
<linearGradient id="paint0_linear" x1="35.0382" y1="54.9462" x2="35.5317" y2="50.5477" gradientUnits="userSpaceOnUse">
<stop stop-color="#974B9B"/>
<stop offset="1" stop-color="#88B8FF"/>
</linearGradient>
<linearGradient id="paint1_linear" x1="29.8881" y1="70.9009" x2="30.6452" y2="66.5797" gradientUnits="userSpaceOnUse">
<stop stop-color="#974B9B"/>
<stop offset="1" stop-color="#88B8FF"/>
</linearGradient>
<linearGradient id="paint2_linear" x1="37.6346" y1="96.1629" x2="95.6877" y2="45.4366" gradientUnits="userSpaceOnUse">
<stop stop-color="#974B9B"/>
<stop offset="1" stop-color="#88B8FF"/>
</linearGradient>
<linearGradient id="paint3_linear" x1="78.7457" y1="95.5141" x2="88.418" y2="82.1944" gradientUnits="userSpaceOnUse">
<stop stop-color="#974B9B"/>
<stop offset="1" stop-color="#88B8FF"/>
</linearGradient>
</defs>
</svg>
