<svg width="14" height="16" viewBox="0 0 14 16" fill="none" xmlns="http://www.w3.org/2000/svg">
<path d="M7.54628 9.64968L13.7763 2.83236C13.9206 2.67469 14 2.4642 14 2.23977C14 2.01534 13.9206 1.80485 13.7763 1.64718L13.3176 1.14513C13.0188 0.818443 12.533 0.818443 12.2345 1.14513L7.0029 6.8698L1.76547 1.13878C1.62126 0.981101 1.42901 0.894042 1.22402 0.894042C1.0188 0.894042 0.826562 0.981101 0.682239 1.13878L0.223657 1.64082C0.0794468 1.79863 -4.87357e-08 2.00899 -5.8546e-08 2.23342C-6.83563e-08 2.45785 0.0794467 2.66834 0.223657 2.82601L6.45941 9.64968C6.60408 9.80773 6.79723 9.89454 7.00256 9.89404C7.20869 9.89454 7.40173 9.80773 7.54628 9.64968Z" fill="white"/>
<path d="M6.45372 7.13841L0.223657 13.9557C0.0794465 14.1134 1.8724e-08 14.3239 1.60476e-08 14.5483C1.33713e-08 14.7727 0.0794465 14.9832 0.223657 15.1409L0.682352 15.643C0.981244 15.9696 1.46703 15.9696 1.76547 15.643L6.9971 9.91829L12.2345 15.6493C12.3787 15.807 12.571 15.894 12.776 15.894C12.9812 15.894 13.1734 15.807 13.3178 15.6493L13.7763 15.1473C13.9206 14.9895 14 14.7791 14 14.5547C14 14.3302 13.9206 14.1197 13.7763 13.9621L7.54059 7.13841C7.39592 6.98036 7.20277 6.89355 6.99744 6.89404C6.79131 6.89355 6.59827 6.98036 6.45372 7.13841Z" fill="white"/>
</svg>
