<svg width="107" height="100" viewBox="0 0 107 100" fill="none" xmlns="http://www.w3.org/2000/svg">
<path d="M32.9806 99.7327C31.8905 99.7327 30.9928 98.835 30.9928 97.7449C30.9928 96.6548 31.8905 95.7571 32.9806 95.7571H38.1318L40.8891 79.2347H8.40012C3.76189 79.2347 0 75.4728 0 70.8346V8.40012C0 3.76189 3.76189 0 8.40012 0H98.5999C103.238 0 107 3.76189 107 8.40012V70.8132C107 75.4515 103.238 79.2133 98.5999 79.2133H66.1109L68.8682 95.7357H74.0194C75.1095 95.7357 76.0072 96.6334 76.0072 97.7235C76.0072 98.8136 75.1095 99.7114 74.0194 99.7114H32.9806V99.7327ZM42.1716 95.7571H64.8284L62.0711 79.2347H44.9289L42.1716 95.7571ZM8.40012 3.97563C5.96344 3.97563 3.97563 5.96344 3.97563 8.40012V70.8132C3.97563 73.2499 5.96344 75.2377 8.40012 75.2377H98.5999C101.037 75.2377 103.024 73.2499 103.024 70.8132V8.40012C103.024 5.96344 101.037 3.97563 98.5999 3.97563H55.4878V8.82761C55.4878 9.9177 54.5901 10.8154 53.5 10.8154C52.4099 10.8154 51.5122 9.9177 51.5122 8.82761V3.97563H8.40012Z" fill="url(#paint0_linear)"/>
<path d="M15.8804 58.694C14.7903 58.694 13.8926 57.7963 13.8926 56.7062V22.5072C13.8926 21.4171 14.7903 20.5194 15.8804 20.5194C16.9705 20.5194 17.8682 21.4171 17.8682 22.5072V54.7184H27.5508V32.7669C27.5508 31.6768 28.4485 30.7791 29.5386 30.7791C30.6287 30.7791 31.5264 31.6768 31.5264 32.7669V54.7184H41.209V43.0266C41.209 41.9365 42.1067 41.0388 43.1968 41.0388C44.2869 41.0388 45.1846 41.9365 45.1846 43.0266V56.7062C45.1846 57.7963 44.2869 58.694 43.1968 58.694H15.8804Z" fill="url(#paint1_linear)"/>
<path d="M75.7289 56.9841C71.1762 56.9841 66.8586 55.2314 63.5883 52.0252L63.5669 52.0039L63.5242 51.9611C63.4814 51.9184 63.46 51.9184 63.4387 51.897C63.4173 51.8756 63.3959 51.8542 63.3532 51.7901L63.3318 51.7687L63.3104 51.7474C60.1043 48.4771 58.3516 44.1595 58.3516 39.6067C58.3516 30.031 66.1532 22.2294 75.7289 22.2294C85.3046 22.2294 93.1063 30.031 93.1063 39.6067C93.1063 49.1824 85.3046 56.9841 75.7289 56.9841ZM67.7135 50.4435L69.0815 51.2344C71.112 52.3886 73.3991 53.0085 75.6862 53.0085C81.7137 53.0085 87.0573 48.9473 88.639 43.1335L89.0665 41.5945H76.5625L67.7135 50.4435ZM72.2021 26.6752C68.1838 27.7653 64.9562 30.6295 63.3532 34.4983C61.7501 38.3456 62.0279 42.6419 64.1013 46.2328L64.8921 47.6007L73.7411 38.7518V26.2478L72.2021 26.6752ZM77.7167 37.6189H89.0665L88.639 36.08C87.3993 31.5272 83.787 27.9363 79.2343 26.6752L77.6954 26.2478V37.6189H77.7167Z" fill="url(#paint2_linear)"/>
<defs>
<linearGradient id="paint0_linear" x1="36.1419" y1="83.5727" x2="87.0523" y2="33.4607" gradientUnits="userSpaceOnUse">
<stop stop-color="#974B9B"/>
<stop offset="1" stop-color="#88B8FF"/>
</linearGradient>
<linearGradient id="paint1_linear" x1="24.4623" y1="52.5084" x2="43.1863" y2="38.427" gradientUnits="userSpaceOnUse">
<stop stop-color="#974B9B"/>
<stop offset="1" stop-color="#88B8FF"/>
</linearGradient>
<linearGradient id="paint2_linear" x1="70.0908" y1="51.3526" x2="87.7686" y2="35.134" gradientUnits="userSpaceOnUse">
<stop stop-color="#974B9B"/>
<stop offset="1" stop-color="#88B8FF"/>
</linearGradient>
</defs>
</svg>
