<svg width="130" height="130" viewBox="0 0 130 130" fill="none" xmlns="http://www.w3.org/2000/svg">
<circle cx="65" cy="65" r="65" fill="#242135"/>
<path d="M98.1367 18.9726H86.1457C82.9815 15.3182 78.3183 13 73.1221 13H55.8779C50.6817 13 46.0185 15.3182 42.8543 18.9726H30.8633C25.5808 18.9726 21.2832 23.2788 21.2832 28.5715V112.401C21.2832 117.694 25.5808 122 30.8633 122H98.1367C103.419 122 107.717 117.694 107.717 112.401V28.5715C107.717 23.2786 103.419 18.9726 98.1367 18.9726ZM55.8779 19.3993H73.1221C78.0562 19.3993 82.154 22.7023 83.5005 27.0782H45.4995C46.8437 22.7099 50.9361 19.3993 55.8779 19.3993ZM101.33 112.401C101.33 114.165 99.8975 115.601 98.1367 115.601H30.8633C29.1025 115.601 27.6699 114.165 27.6699 112.401V28.5715C27.6699 26.8072 29.1025 25.3719 30.8633 25.3719H39.3461C38.8852 26.9282 38.6338 28.5738 38.6338 30.278C38.6338 32.045 40.0636 33.4775 41.8271 33.4775H87.1729C88.9364 33.4775 90.3662 32.045 90.3662 30.278C90.3662 28.5738 90.1148 26.9282 89.6539 25.3719H98.1367C99.8975 25.3719 101.33 26.8072 101.33 28.5715V112.401Z" fill="url(#paint0_linear)"/>
<path d="M48.7585 76.5785L44.0621 81.2838L42.9138 80.1333C41.6669 78.8837 39.6449 78.8837 38.3977 80.1333C37.1506 81.3828 37.1506 83.4087 38.3977 84.6581L41.804 88.071C43.0509 89.3204 45.0729 89.3206 46.32 88.071L53.2743 81.1031C54.5214 79.8536 54.5214 77.8277 53.2743 76.5783C52.0274 75.3288 50.0054 75.3288 48.7585 76.5785Z" fill="url(#paint1_linear)"/>
<path d="M88.1309 79.1253H62.3711C60.6075 79.1253 59.1777 80.5579 59.1777 82.3249C59.1777 84.0919 60.6075 85.5244 62.3711 85.5244H88.1309C89.8944 85.5244 91.3242 84.0919 91.3242 82.3249C91.3242 80.5579 89.8944 79.1253 88.1309 79.1253Z" fill="url(#paint2_linear)"/>
<path d="M48.7585 94.9229L44.0621 99.6282L42.9138 98.4777C41.6669 97.2281 39.6449 97.2281 38.3977 98.4777C37.1506 99.7272 37.1506 101.753 38.3977 103.003L41.804 106.415C43.0509 107.665 45.0729 107.665 46.32 106.415L53.2743 99.4474C54.5214 98.198 54.5214 96.1721 53.2743 94.9227C52.0274 93.6732 50.0054 93.6732 48.7585 94.9229Z" fill="url(#paint3_linear)"/>
<path d="M88.1309 97.4697H62.3711C60.6075 97.4697 59.1777 98.9023 59.1777 100.669C59.1777 102.436 60.6075 103.869 62.3711 103.869H88.1309C89.8944 103.869 91.3242 102.436 91.3242 100.669C91.3242 98.9023 89.8944 97.4697 88.1309 97.4697Z" fill="url(#paint4_linear)"/>
<path d="M70.5896 64.323L80.4664 54.427V54.8083C80.4664 56.5753 81.8962 58.0078 83.6598 58.0078C85.4234 58.0078 86.8531 56.5753 86.8531 54.8083C86.8531 45.7577 86.868 46.6003 86.8165 46.2428C86.5907 44.6775 85.2511 43.5025 83.6587 43.5029H75.5699C73.8064 43.5029 72.3766 44.9355 72.3766 46.7025C72.3766 48.4695 73.8064 49.902 75.5699 49.902H75.9504L68.3317 57.5356L58.6677 47.8529C57.4208 46.6033 55.3988 46.6033 54.1516 47.8529L42.6556 59.3716C41.4084 60.621 41.4084 62.6469 42.6556 63.8964C43.9025 65.146 45.9245 65.146 47.1716 63.8964L56.4098 54.6403L66.0737 64.323C67.3204 65.5725 69.3427 65.5727 70.5896 64.323Z" fill="url(#paint5_linear)"/>
<defs>
<linearGradient id="paint0_linear" x1="53.8784" y1="60.017" x2="62.8036" y2="42.7718" gradientUnits="userSpaceOnUse">
<stop stop-color="#F29C40"/>
<stop offset="1" stop-color="#D35135"/>
</linearGradient>
<linearGradient id="paint1_linear" x1="53.8784" y1="60.017" x2="62.8036" y2="42.7718" gradientUnits="userSpaceOnUse">
<stop stop-color="#F29C40"/>
<stop offset="1" stop-color="#D35135"/>
</linearGradient>
<linearGradient id="paint2_linear" x1="53.8784" y1="60.017" x2="62.8036" y2="42.7718" gradientUnits="userSpaceOnUse">
<stop stop-color="#F29C40"/>
<stop offset="1" stop-color="#D35135"/>
</linearGradient>
<linearGradient id="paint3_linear" x1="53.8784" y1="60.017" x2="62.8036" y2="42.7718" gradientUnits="userSpaceOnUse">
<stop stop-color="#F29C40"/>
<stop offset="1" stop-color="#D35135"/>
</linearGradient>
<linearGradient id="paint4_linear" x1="53.8784" y1="60.017" x2="62.8036" y2="42.7718" gradientUnits="userSpaceOnUse">
<stop stop-color="#F29C40"/>
<stop offset="1" stop-color="#D35135"/>
</linearGradient>
<linearGradient id="paint5_linear" x1="53.8784" y1="60.017" x2="62.8036" y2="42.7718" gradientUnits="userSpaceOnUse">
<stop stop-color="#F29C40"/>
<stop offset="1" stop-color="#D35135"/>
</linearGradient>
</defs>
</svg>
