<svg width="20" height="25" viewBox="0 0 20 25" fill="none" xmlns="http://www.w3.org/2000/svg">
<path d="M19.1923 6.43949C18.3162 3.60901 16.0404 1.31451 13.2531 0.451286C10.2849 -0.467904 7.19049 0.0310725 4.76338 1.82026C3.60041 2.67753 2.63539 3.80829 1.97269 5.09015C1.28777 6.41501 0.925781 7.90657 0.925781 9.40364C0.925781 11.4458 1.57177 13.3865 2.79397 15.016L10.2875 24.5745L17.7718 15.0282L17.7812 15.016C19.6102 12.5773 20.1245 9.45125 19.1923 6.43949ZM16.6334 14.1459L10.2875 22.2409L3.94167 14.1459C2.91094 12.7689 2.36608 11.1292 2.36608 9.40364C2.36608 6.88221 3.58174 4.48068 5.61802 2.97962C7.67296 1.46479 10.3006 1.04477 12.8271 1.82712C15.167 2.55178 17.0788 4.48232 17.8165 6.86532C18.6098 9.42846 18.1785 12.0817 16.6334 14.1459Z" fill="url(#paint0_linear)"/>
<path d="M10.289 4.36279C7.50943 4.36279 5.24805 6.62417 5.24805 9.40373C5.24805 12.1833 7.50943 14.4447 10.289 14.4447C13.0685 14.4447 15.3299 12.1833 15.3299 9.40373C15.3299 6.62417 13.0685 4.36279 10.289 4.36279ZM10.289 13.0044C8.30358 13.0044 6.68829 11.3892 6.68829 9.40373C6.68829 7.41833 8.30354 5.80304 10.289 5.80304C12.2744 5.80304 13.8897 7.41828 13.8897 9.40373C13.8897 11.3891 12.2744 13.0044 10.289 13.0044Z" fill="url(#paint1_linear)"/>
<defs>
<linearGradient id="paint0_linear" x1="7.24947" y1="20.5926" x2="19.0317" y2="12.3574" gradientUnits="userSpaceOnUse">
<stop stop-color="#974B9B"/>
<stop offset="1" stop-color="#88B8FF"/>
</linearGradient>
<linearGradient id="paint1_linear" x1="8.65345" y1="12.8111" x2="13.7815" y2="8.10623" gradientUnits="userSpaceOnUse">
<stop stop-color="#974B9B"/>
<stop offset="1" stop-color="#88B8FF"/>
</linearGradient>
</defs>
</svg>
