<svg width="130" height="130" viewBox="0 0 130 130" fill="none" xmlns="http://www.w3.org/2000/svg">
<circle cx="65" cy="65" r="65" fill="#242135"/>
<path d="M96.1875 60.875H82.3125C81.036 60.875 80 59.839 80 58.5625V26.1875C80 24.911 81.036 23.875 82.3125 23.875H96.1875C97.464 23.875 98.5 24.911 98.5 26.1875V58.5625C98.5 59.839 97.464 60.875 96.1875 60.875ZM84.625 56.25H93.875V28.5H84.625V56.25Z" fill="url(#paint0_linear)"/>
<path fill-rule="evenodd" clip-rule="evenodd" d="M82.3125 24.875C81.5883 24.875 81 25.4633 81 26.1875V58.5625C81 59.2867 81.5883 59.875 82.3125 59.875H96.1875C96.9117 59.875 97.5 59.2867 97.5 58.5625V26.1875C97.5 25.4633 96.9117 24.875 96.1875 24.875H82.3125ZM79 26.1875C79 24.3587 80.4837 22.875 82.3125 22.875H96.1875C98.0163 22.875 99.5 24.3587 99.5 26.1875V58.5625C99.5 60.3913 98.0163 61.875 96.1875 61.875H82.3125C80.4837 61.875 79 60.3913 79 58.5625V26.1875ZM83.625 27.5H94.875V57.25H83.625V27.5ZM85.625 29.5V55.25H92.875V29.5H85.625Z" fill="url(#paint1_linear)"/>
<path d="M68.4375 60.875H54.5625C53.286 60.875 52.25 59.839 52.25 58.5625V44.6875C52.25 43.411 53.286 42.375 54.5625 42.375H68.4375C69.714 42.375 70.75 43.411 70.75 44.6875V58.5625C70.75 59.839 69.714 60.875 68.4375 60.875ZM56.875 56.25H66.125V47H56.875V56.25Z" fill="url(#paint2_linear)"/>
<path fill-rule="evenodd" clip-rule="evenodd" d="M54.5625 43.375C53.8383 43.375 53.25 43.9633 53.25 44.6875V58.5625C53.25 59.2867 53.8383 59.875 54.5625 59.875H68.4375C69.1617 59.875 69.75 59.2867 69.75 58.5625V44.6875C69.75 43.9633 69.1617 43.375 68.4375 43.375H54.5625ZM51.25 44.6875C51.25 42.8587 52.7337 41.375 54.5625 41.375H68.4375C70.2663 41.375 71.75 42.8587 71.75 44.6875V58.5625C71.75 60.3913 70.2663 61.875 68.4375 61.875H54.5625C52.7337 61.875 51.25 60.3913 51.25 58.5625V44.6875ZM55.875 46H67.125V57.25H55.875V46ZM57.875 48V55.25H65.125V48H57.875Z" fill="url(#paint3_linear)"/>
<path d="M100.812 60.875H49.9375C48.661 60.875 47.625 59.839 47.625 58.5625C47.625 57.286 48.661 56.25 49.9375 56.25H100.812C102.089 56.25 103.125 57.286 103.125 58.5625C103.125 59.839 102.089 60.875 100.812 60.875Z" fill="url(#paint4_linear)"/>
<path fill-rule="evenodd" clip-rule="evenodd" d="M49.9375 57.25C49.2133 57.25 48.625 57.8383 48.625 58.5625C48.625 59.2867 49.2133 59.875 49.9375 59.875H100.812C101.537 59.875 102.125 59.2867 102.125 58.5625C102.125 57.8383 101.537 57.25 100.812 57.25H49.9375ZM46.625 58.5625C46.625 56.7337 48.1087 55.25 49.9375 55.25H100.812C102.641 55.25 104.125 56.7337 104.125 58.5625C104.125 60.3913 102.641 61.875 100.812 61.875H49.9375C48.1087 61.875 46.625 60.3913 46.625 58.5625Z" fill="url(#paint5_linear)"/>
<path d="M63.8125 93.25C63.5674 93.25 63.3223 93.213 63.0817 93.1298C62.1382 92.8153 61.5 91.9319 61.5 90.9375V74.75H56.875C55.5985 74.75 54.5625 73.714 54.5625 72.4375C54.5625 71.161 55.5985 70.125 56.875 70.125H63.8125C65.089 70.125 66.125 71.161 66.125 72.4375V84L75.8375 71.05C76.2769 70.4673 76.9614 70.125 77.6875 70.125H110.062C111.334 70.125 112.375 69.089 112.375 67.8125V16.9375C112.375 15.661 111.334 14.625 110.062 14.625H36.0625C34.7906 14.625 33.75 15.661 33.75 16.9375V49.3125C33.75 50.589 32.714 51.625 31.4375 51.625C30.161 51.625 29.125 50.589 29.125 49.3125V16.9375C29.125 13.1126 32.2376 10 36.0625 10H110.062C113.887 10 117 13.1126 117 16.9375V67.8125C117 71.6374 113.887 74.75 110.062 74.75H78.8438L65.6625 92.325C65.2185 92.917 64.5247 93.25 63.8125 93.25Z" fill="url(#paint6_linear)"/>
<path fill-rule="evenodd" clip-rule="evenodd" d="M36.0625 11C32.7899 11 30.125 13.6649 30.125 16.9375V49.3125C30.125 50.0367 30.7133 50.625 31.4375 50.625C32.1617 50.625 32.75 50.0367 32.75 49.3125V16.9375C32.75 15.1074 34.2396 13.625 36.0625 13.625H110.062C111.885 13.625 113.375 15.1074 113.375 16.9375V67.8125C113.375 69.6426 111.885 71.125 110.062 71.125H77.6875C77.2774 71.125 76.888 71.3181 76.6365 71.6514L65.125 87V72.4375C65.125 71.7133 64.5367 71.125 63.8125 71.125H56.875C56.1508 71.125 55.5625 71.7133 55.5625 72.4375C55.5625 73.1617 56.1508 73.75 56.875 73.75H62.5V90.9375C62.5 91.5003 62.8617 92.0023 63.398 92.1811L63.4089 92.1847C63.5356 92.2286 63.6692 92.25 63.8125 92.25C64.2165 92.25 64.6112 92.06 64.8625 91.725L78.3438 73.75H110.062C113.335 73.75 116 71.0851 116 67.8125V16.9375C116 13.6649 113.335 11 110.062 11H36.0625ZM28.125 16.9375C28.125 12.5603 31.6853 9 36.0625 9H110.062C114.44 9 118 12.5603 118 16.9375V67.8125C118 72.1897 114.44 75.75 110.062 75.75H79.3438L66.4625 92.925C65.8258 93.774 64.833 94.25 63.8125 94.25C63.4674 94.25 63.1128 94.198 62.7604 94.0767C61.4124 93.625 60.5 92.3616 60.5 90.9375V75.75H56.875C55.0462 75.75 53.5625 74.2663 53.5625 72.4375C53.5625 70.6087 55.0462 69.125 56.875 69.125H63.8125C65.6413 69.125 67.125 70.6087 67.125 72.4375V81L75.039 70.448C75.6662 69.6161 76.6456 69.125 77.6875 69.125H110.062C110.783 69.125 111.375 68.5354 111.375 67.8125V16.9375C111.375 16.2146 110.783 15.625 110.062 15.625H36.0625C35.3416 15.625 34.75 16.2146 34.75 16.9375V49.3125C34.75 51.1413 33.2663 52.625 31.4375 52.625C29.6087 52.625 28.125 51.1413 28.125 49.3125V16.9375Z" fill="url(#paint7_linear)"/>
<path d="M31.4375 90.9375C23.7878 90.9375 17.5625 84.7122 17.5625 77.0625C17.5625 69.4128 23.7878 63.1875 31.4375 63.1875C39.0873 63.1875 45.3125 69.4128 45.3125 77.0625C45.3125 84.7122 39.0873 90.9375 31.4375 90.9375ZM31.4375 67.8125C26.3361 67.8125 22.1875 71.9611 22.1875 77.0625C22.1875 82.1639 26.3361 86.3125 31.4375 86.3125C36.5389 86.3125 40.6875 82.1639 40.6875 77.0625C40.6875 71.9611 36.5389 67.8125 31.4375 67.8125Z" fill="url(#paint8_linear)"/>
<path fill-rule="evenodd" clip-rule="evenodd" d="M31.4375 64.1875C24.34 64.1875 18.5625 69.965 18.5625 77.0625C18.5625 84.16 24.34 89.9375 31.4375 89.9375C38.535 89.9375 44.3125 84.16 44.3125 77.0625C44.3125 69.965 38.535 64.1875 31.4375 64.1875ZM16.5625 77.0625C16.5625 68.8605 23.2355 62.1875 31.4375 62.1875C39.6395 62.1875 46.3125 68.8605 46.3125 77.0625C46.3125 85.2645 39.6395 91.9375 31.4375 91.9375C23.2355 91.9375 16.5625 85.2645 16.5625 77.0625ZM21.1875 77.0625C21.1875 71.4088 25.7838 66.8125 31.4375 66.8125C37.0912 66.8125 41.6875 71.4088 41.6875 77.0625C41.6875 82.7162 37.0912 87.3125 31.4375 87.3125C25.7838 87.3125 21.1875 82.7162 21.1875 77.0625ZM31.4375 68.8125C26.8884 68.8125 23.1875 72.5134 23.1875 77.0625C23.1875 81.6116 26.8884 85.3125 31.4375 85.3125C35.9866 85.3125 39.6875 81.6116 39.6875 77.0625C39.6875 72.5134 35.9866 68.8125 31.4375 68.8125Z" fill="url(#paint9_linear)"/>
<path d="M54.5625 121C53.286 121 52.25 119.964 52.25 118.687V109.438C52.25 105.613 49.1374 102.5 45.3125 102.5H17.5625C13.7376 102.5 10.625 105.613 10.625 109.438V118.687C10.625 119.964 9.589 121 8.3125 121C7.036 121 6 119.964 6 118.687V109.438C6 103.064 11.1846 97.875 17.5625 97.875H45.3125C51.6904 97.875 56.875 103.064 56.875 109.438V118.687C56.875 119.964 55.839 121 54.5625 121Z" fill="url(#paint10_linear)"/>
<path fill-rule="evenodd" clip-rule="evenodd" d="M17.5625 98.875C11.7372 98.875 7 103.616 7 109.438V118.687C7 119.412 7.58828 120 8.3125 120C9.03672 120 9.625 119.412 9.625 118.687V109.438C9.625 105.06 13.1853 101.5 17.5625 101.5H45.3125C49.6897 101.5 53.25 105.06 53.25 109.438V118.687C53.25 119.412 53.8383 120 54.5625 120C55.2867 120 55.875 119.412 55.875 118.687V109.438C55.875 103.616 51.1378 98.875 45.3125 98.875H17.5625ZM5 109.438C5 102.512 10.6321 96.875 17.5625 96.875H45.3125C52.2429 96.875 57.875 102.512 57.875 109.438V118.687C57.875 120.516 56.3913 122 54.5625 122C52.7337 122 51.25 120.516 51.25 118.687V109.438C51.25 106.165 48.5851 103.5 45.3125 103.5H17.5625C14.2899 103.5 11.625 106.165 11.625 109.438V118.687C11.625 120.516 10.1413 122 8.3125 122C6.48372 122 5 120.516 5 118.687V109.438Z" fill="url(#paint11_linear)"/>
<defs>
<linearGradient id="paint0_linear" x1="35.438" y1="94.769" x2="92.0735" y2="42.0184" gradientUnits="userSpaceOnUse">
<stop stop-color="#F29C40"/>
<stop offset="1" stop-color="#D35135"/>
</linearGradient>
<linearGradient id="paint1_linear" x1="35.438" y1="94.769" x2="92.0735" y2="42.0184" gradientUnits="userSpaceOnUse">
<stop stop-color="#F29C40"/>
<stop offset="1" stop-color="#D35135"/>
</linearGradient>
<linearGradient id="paint2_linear" x1="35.438" y1="94.769" x2="92.0735" y2="42.0184" gradientUnits="userSpaceOnUse">
<stop stop-color="#F29C40"/>
<stop offset="1" stop-color="#D35135"/>
</linearGradient>
<linearGradient id="paint3_linear" x1="35.438" y1="94.769" x2="92.0735" y2="42.0184" gradientUnits="userSpaceOnUse">
<stop stop-color="#F29C40"/>
<stop offset="1" stop-color="#D35135"/>
</linearGradient>
<linearGradient id="paint4_linear" x1="35.438" y1="94.769" x2="92.0735" y2="42.0184" gradientUnits="userSpaceOnUse">
<stop stop-color="#F29C40"/>
<stop offset="1" stop-color="#D35135"/>
</linearGradient>
<linearGradient id="paint5_linear" x1="35.438" y1="94.769" x2="92.0735" y2="42.0184" gradientUnits="userSpaceOnUse">
<stop stop-color="#F29C40"/>
<stop offset="1" stop-color="#D35135"/>
</linearGradient>
<linearGradient id="paint6_linear" x1="35.438" y1="94.769" x2="92.0735" y2="42.0184" gradientUnits="userSpaceOnUse">
<stop stop-color="#F29C40"/>
<stop offset="1" stop-color="#D35135"/>
</linearGradient>
<linearGradient id="paint7_linear" x1="35.438" y1="94.769" x2="92.0735" y2="42.0184" gradientUnits="userSpaceOnUse">
<stop stop-color="#F29C40"/>
<stop offset="1" stop-color="#D35135"/>
</linearGradient>
<linearGradient id="paint8_linear" x1="35.438" y1="94.769" x2="92.0735" y2="42.0184" gradientUnits="userSpaceOnUse">
<stop stop-color="#F29C40"/>
<stop offset="1" stop-color="#D35135"/>
</linearGradient>
<linearGradient id="paint9_linear" x1="35.438" y1="94.769" x2="92.0735" y2="42.0184" gradientUnits="userSpaceOnUse">
<stop stop-color="#F29C40"/>
<stop offset="1" stop-color="#D35135"/>
</linearGradient>
<linearGradient id="paint10_linear" x1="35.438" y1="94.769" x2="92.0735" y2="42.0184" gradientUnits="userSpaceOnUse">
<stop stop-color="#F29C40"/>
<stop offset="1" stop-color="#D35135"/>
</linearGradient>
<linearGradient id="paint11_linear" x1="35.438" y1="94.769" x2="92.0735" y2="42.0184" gradientUnits="userSpaceOnUse">
<stop stop-color="#F29C40"/>
<stop offset="1" stop-color="#D35135"/>
</linearGradient>
</defs>
</svg>
