<svg width="114" height="114" viewBox="0 0 114 114" fill="none" xmlns="http://www.w3.org/2000/svg">
<path d="M108.98 0H86.7738C85.8495 0 85.1005 0.749016 85.1005 1.67326C85.1005 2.59751 85.8495 3.34652 86.7738 3.34652H108.98C109.903 3.34652 110.654 4.0971 110.654 5.01979V38.6972C110.654 39.6199 109.903 40.3705 108.98 40.3705H62.942V39.566C62.942 36.3019 60.2866 33.6467 57.0226 33.6467C53.7587 33.6467 51.1033 36.3021 51.1033 39.566V40.3705H34.0592C33.1352 40.3705 32.386 41.1195 32.386 42.0437C32.386 42.968 33.1352 43.717 34.0592 43.717H51.1033V73.2038L47.1291 68.7498C44.6759 66.0004 41.1557 64.4236 37.4712 64.4236C36.0981 64.4236 34.8594 65.1283 34.1579 66.3088C33.4563 67.4893 33.4295 68.9143 34.0859 70.1205L40.7496 82.3619C42.4015 85.3965 44.5085 88.1434 47.012 90.5256L54.1134 97.2825V100.867C52.3765 101.228 51.0675 102.77 51.0675 104.612V110.175C51.0675 112.284 52.7835 114 54.8929 114H81.2748C83.3843 114 85.1005 112.284 85.1005 110.175V104.612C85.1005 102.81 83.8458 101.298 82.165 100.895V97.1759C83.69 95.2521 88.4185 88.1921 88.4185 74.6299V64.41C88.4185 61.1461 85.7631 58.4909 82.4992 58.4909C81.4084 58.4909 80.3855 58.7875 79.5069 59.3043C78.6348 57.1207 76.4982 55.5737 74.0069 55.5737C72.9161 55.5737 71.8934 55.8702 71.0148 56.387C70.1427 54.2034 68.0061 52.6564 65.5148 52.6564C64.5932 52.6564 63.7202 52.8679 62.9417 53.2453V43.7174H108.98C111.748 43.7174 114 41.4655 114 38.6979V5.01956C114 2.25172 111.748 0 108.98 0ZM65.515 56.0021C66.9337 56.0021 68.088 57.1563 68.088 58.5751V61.4925C68.088 62.4168 68.837 63.1658 69.7613 63.1658C70.6855 63.1658 71.4345 62.4168 71.4345 61.4925C71.4345 60.0738 72.5888 58.9195 74.0075 58.9195C75.4261 58.9195 76.5803 60.0738 76.5803 61.4925V64.4098C76.5803 65.334 77.3293 66.083 78.2536 66.083C79.1778 66.083 79.9269 65.334 79.9269 64.4098C79.9269 62.991 81.0811 61.837 82.4999 61.837C83.9186 61.837 85.0729 62.991 85.0729 64.4098V74.6297C85.0729 89.0048 79.3304 95.3577 79.2783 95.4138C78.9835 95.7244 78.8191 96.1365 78.8191 96.5649V100.786H74.7768C73.8526 100.786 73.1036 101.535 73.1036 102.46C73.1036 103.384 73.8526 104.133 74.7768 104.133H81.275C81.5393 104.133 81.7544 104.348 81.7544 104.612V110.175C81.7544 110.439 81.5393 110.654 81.275 110.654H54.8929C54.6287 110.654 54.4138 110.439 54.4138 110.175V104.612C54.4138 104.348 54.6287 104.133 54.8929 104.133H68.084C69.0082 104.133 69.7572 103.384 69.7572 102.46C69.7572 101.535 69.0082 100.786 68.084 100.786H57.4599V96.5649C57.4599 96.1067 57.272 95.6687 56.94 95.3528L49.3187 88.1011C47.0679 85.9593 45.1738 83.4901 43.6887 80.7617L37.025 68.5202C36.8676 68.0981 37.0248 67.8333 37.471 67.7697C40.203 67.7697 42.813 68.9386 44.6318 70.9772L51.464 78.6344C52.4335 79.7748 54.4959 79.0474 54.4492 77.5204V39.566C54.4492 38.1472 55.6034 36.993 57.0222 36.993C58.4408 36.993 59.595 38.1472 59.595 39.566V58.5751C59.595 59.4993 60.344 60.2483 61.2683 60.2483C62.1925 60.2483 62.9415 59.4993 62.9415 58.5751C62.942 57.1563 64.0962 56.0021 65.515 56.0021Z" fill="url(#paint0_linear)"/>
<path d="M27.3665 40.3703H5.01956C4.09688 40.3703 3.3463 39.6197 3.3463 38.697V5.01956C3.3463 4.09688 4.09688 3.3463 5.01956 3.3463H80.081C81.0052 3.3463 81.7543 2.59729 81.7543 1.67304C81.7543 0.748793 81.0052 0 80.081 0H5.01956C2.25172 0 0 2.25172 0 5.01956V38.697C0 41.4646 2.25172 43.7166 5.01956 43.7166H27.3665C28.2905 43.7166 29.0397 42.9675 29.0397 42.0433C29.0397 41.119 28.2907 40.3703 27.3665 40.3703Z" fill="url(#paint1_linear)"/>
<path d="M68.0114 20.6015C68.9945 19.6434 69.3418 18.2371 68.9174 16.9314C68.4933 15.6258 67.3856 14.6919 66.0269 14.4944L62.1311 13.9285C62.0547 13.9173 61.9886 13.8695 61.9543 13.8002L60.2118 10.2698C59.6044 9.0387 58.3742 8.27388 57.0011 8.27388C55.6282 8.27388 54.3978 9.03848 53.7902 10.2698L52.0477 13.8004C52.0134 13.8695 51.9475 13.9175 51.8715 13.9285L47.9748 14.4944C46.6162 14.6919 45.5087 15.6258 45.0845 16.9314C44.6604 18.2371 45.0075 19.6434 45.9905 20.6015L48.81 23.3499C48.8652 23.4038 48.8904 23.4811 48.8773 23.5572L48.2117 27.4377C47.9797 28.7905 48.5255 30.1325 49.6361 30.9394C50.7467 31.7465 52.1917 31.8509 53.407 31.2121L56.892 29.3799C56.9601 29.3438 57.0416 29.3438 57.1097 29.3799L60.595 31.2121C61.1236 31.4898 61.6954 31.6272 62.2645 31.6272C63.0037 31.6272 63.7382 31.3954 64.3659 30.9394C65.4763 30.1325 66.022 28.7905 65.7898 27.4377L65.1245 23.5572C65.1113 23.4813 65.1365 23.4038 65.1917 23.3499L68.0114 20.6015ZM62.8561 20.9539C62.012 21.7766 61.627 22.9614 61.8265 24.123L62.492 28.0039C62.4985 28.0431 62.5165 28.1473 62.3987 28.2326C62.2814 28.3181 62.187 28.2686 62.152 28.2504L58.6672 26.4184C58.1453 26.1438 57.5733 26.0069 57.0009 26.0069C56.4286 26.0069 55.8564 26.144 55.3347 26.4181L51.8499 28.2504C51.8148 28.2686 51.721 28.3185 51.603 28.2326C51.4852 28.1471 51.503 28.0429 51.5099 28.0037L52.1755 24.123C52.3747 22.9612 51.9898 21.7764 51.1457 20.9539L48.3264 18.2057C48.2979 18.1779 48.2222 18.1039 48.267 17.9657C48.3119 17.8272 48.4168 17.8118 48.456 17.8062L52.3527 17.2402C53.5192 17.0706 54.5267 16.338 55.0482 15.2815L56.7907 11.7511C56.8083 11.7153 56.855 11.6206 57.0006 11.6206C57.1463 11.6206 57.1928 11.7155 57.2106 11.7511L58.9531 15.2813C59.4744 16.3383 60.4823 17.0706 61.6493 17.2405L65.5453 17.8065C65.5847 17.8122 65.6896 17.8274 65.7343 17.9659C65.7793 18.1042 65.7036 18.1781 65.6751 18.2059L62.8561 20.9539Z" fill="url(#paint2_linear)"/>
<path d="M32.4275 27.4379L31.762 23.5575C31.7489 23.4815 31.774 23.4041 31.8295 23.3502L34.6487 20.6017C35.6318 19.6436 35.9789 18.2373 35.5547 16.9317C35.1306 15.626 34.0231 14.6922 32.6642 14.4947L28.7682 13.9287C28.6918 13.9176 28.6259 13.8697 28.5916 13.8004L26.8491 10.27C26.2415 9.03895 25.0113 8.27412 23.6384 8.27412C22.2655 8.27412 21.0351 9.03872 20.4275 10.27L18.6852 13.8004C18.6509 13.8697 18.5848 13.9176 18.5088 13.9287L14.6123 14.4947C13.2537 14.6922 12.1462 15.626 11.722 16.9317C11.2979 18.2373 11.645 19.6436 12.628 20.6017L15.4475 23.3502C15.5027 23.4041 15.5279 23.4813 15.5148 23.5575L14.8492 27.4379C14.6172 28.791 15.163 30.1329 16.2736 30.9396C17.3844 31.747 18.8292 31.851 20.0445 31.2124L23.5295 29.3801C23.5976 29.3443 23.6791 29.3443 23.7475 29.3801L27.2327 31.2124C27.7613 31.49 28.3331 31.6274 28.9022 31.6274C29.6414 31.6274 30.376 31.3956 31.0036 30.9396C32.1138 30.1327 32.6595 28.7908 32.4275 27.4379ZM29.4938 20.9537C28.6495 21.7764 28.2645 22.9612 28.4638 24.123L29.1293 28.0037C29.136 28.0429 29.154 28.1471 29.0362 28.2326C28.9187 28.3185 28.8247 28.2686 28.7895 28.2504L25.3045 26.4181C24.7828 26.1438 24.2106 26.0069 23.6384 26.0069C23.0662 26.0069 22.4937 26.1441 21.9722 26.4181L18.4875 28.2504C18.4523 28.2686 18.3585 28.3183 18.2407 28.2326C18.123 28.1473 18.1408 28.0429 18.1477 28.0037L18.8132 24.123C19.0125 22.9612 18.6275 21.7764 17.7834 20.9539L14.9641 18.2055C14.9356 18.1776 14.8599 18.1037 14.9047 17.9655C14.9497 17.827 15.0545 17.8116 15.0937 17.806L18.9904 17.24C20.1567 17.0704 21.1644 16.3381 21.6861 15.2813L23.4286 11.7509C23.4462 11.715 23.493 11.6204 23.6386 11.6204C23.7842 11.6204 23.831 11.7153 23.8486 11.7509L25.5911 15.2811C26.1125 16.3381 27.1201 17.0704 28.287 17.2403L32.1833 17.8063C32.2227 17.812 32.3273 17.8272 32.3723 17.9657C32.4173 18.1039 32.3416 18.1779 32.3131 18.2057L29.4938 20.9537Z" fill="url(#paint3_linear)"/>
<path d="M101.374 20.6015C102.357 19.6434 102.704 18.2371 102.279 16.9314C101.855 15.6258 100.748 14.6919 99.389 14.4944L95.4931 13.9285C95.4166 13.9173 95.3506 13.8695 95.3164 13.8002L93.5739 10.2698C92.9662 9.03871 91.736 8.27388 90.3631 8.27388C88.9902 8.27388 87.7598 9.03848 87.1522 10.2698L85.4099 13.8C85.3754 13.8692 85.3095 13.9173 85.2334 13.9285L81.3369 14.4944C79.978 14.6919 78.8707 15.6258 78.4466 16.9316C78.0224 18.2373 78.3698 19.6436 79.3526 20.6015L82.1721 23.3499C82.2271 23.4038 82.2524 23.4811 82.2391 23.5572L81.574 27.4377C81.3418 28.7908 81.8875 30.1327 82.9981 30.9396C84.1083 31.7467 85.5533 31.8512 86.7688 31.2124L90.2538 29.3801C90.3217 29.3445 90.4037 29.3441 90.4716 29.3801L93.9568 31.2124C94.4854 31.49 95.0572 31.6274 95.6263 31.6274C96.3655 31.6274 97.1001 31.3956 97.7277 30.9396C98.8381 30.1327 99.3839 28.7908 99.1516 27.4379L98.4863 23.5574C98.4732 23.4815 98.4983 23.404 98.5536 23.3502L101.374 20.6015ZM96.2181 20.9539C95.374 21.7766 94.9891 22.9614 95.1886 24.123L95.8541 28.0039C95.8605 28.0431 95.8786 28.1473 95.7608 28.2326C95.6434 28.3181 95.549 28.2686 95.5141 28.2504L92.0293 26.4184C91.5076 26.1438 90.9354 26.0069 90.3631 26.0069C89.7909 26.0069 89.2185 26.144 88.6968 26.4181L85.2118 28.2504C85.177 28.2686 85.0831 28.3183 84.9653 28.2326C84.8477 28.1473 84.8655 28.0431 84.8722 28.0037L85.5373 24.1237C85.7368 22.9618 85.352 21.7769 84.5079 20.9539L81.6887 18.2052C81.6604 18.1776 81.5845 18.1037 81.6295 17.9654C81.6747 17.8269 81.7793 17.8116 81.8185 17.806L85.7152 17.24C86.8812 17.0704 87.8888 16.338 88.4109 15.2813L90.1534 11.7509C90.171 11.715 90.218 11.6204 90.3634 11.6204C90.5088 11.6204 90.5555 11.7153 90.5731 11.7509L92.3156 15.2811C92.8369 16.338 93.8448 17.0704 95.0118 17.2402L98.9078 17.8062C98.9472 17.812 99.0521 17.8272 99.0968 17.9657C99.142 18.1039 99.0661 18.1779 99.0376 18.2057L96.2181 20.9539Z" fill="url(#paint4_linear)"/>
<defs>
<linearGradient id="paint0_linear" x1="38.5063" y1="95.5283" x2="96.4917" y2="42.329" gradientUnits="userSpaceOnUse">
<stop stop-color="#974B9B"/>
<stop offset="1" stop-color="#88B8FF"/>
</linearGradient>
<linearGradient id="paint1_linear" x1="38.5063" y1="95.5283" x2="96.4917" y2="42.329" gradientUnits="userSpaceOnUse">
<stop stop-color="#974B9B"/>
<stop offset="1" stop-color="#88B8FF"/>
</linearGradient>
<linearGradient id="paint2_linear" x1="38.5063" y1="95.5283" x2="96.4917" y2="42.329" gradientUnits="userSpaceOnUse">
<stop stop-color="#974B9B"/>
<stop offset="1" stop-color="#88B8FF"/>
</linearGradient>
<linearGradient id="paint3_linear" x1="38.5063" y1="95.5283" x2="96.4917" y2="42.329" gradientUnits="userSpaceOnUse">
<stop stop-color="#974B9B"/>
<stop offset="1" stop-color="#88B8FF"/>
</linearGradient>
<linearGradient id="paint4_linear" x1="38.5063" y1="95.5283" x2="96.4917" y2="42.329" gradientUnits="userSpaceOnUse">
<stop stop-color="#974B9B"/>
<stop offset="1" stop-color="#88B8FF"/>
</linearGradient>
</defs>
</svg>
