<svg width="53" height="54" viewBox="0 0 53 54" fill="none" xmlns="http://www.w3.org/2000/svg">
<path fill-rule="evenodd" clip-rule="evenodd" d="M34.6257 17.1081C39.1789 17.1081 42.8699 13.417 42.8699 8.86384C42.8699 4.31067 39.1789 0.619629 34.6257 0.619629C30.0725 0.619629 26.3815 4.31067 26.3815 8.86384C26.3869 13.4148 30.0748 17.1026 34.6257 17.1081ZM34.6257 3.91731C37.3576 3.91731 39.5722 6.13192 39.5722 8.86384C39.5722 11.5958 37.3576 13.8104 34.6257 13.8104C31.8938 13.8104 29.6792 11.5958 29.6792 8.86384C29.6792 6.13192 31.8938 3.91731 34.6257 3.91731ZM0 22.0547C0 16.591 4.42931 12.1617 9.89306 12.1617C15.3545 12.1671 19.7807 16.5933 19.7861 22.0547C19.7861 27.5185 15.3568 31.9478 9.89306 31.9478C4.42931 31.9478 0 27.5185 0 22.0547ZM4.21444 25.3524C5.38347 27.3861 7.54737 28.6427 9.89306 28.6501C13.5356 28.6501 16.4884 25.6972 16.4884 22.0547H11.5419V18.7571H15.5717C14.3951 16.7093 12.2105 15.45 9.84885 15.4581C6.2182 15.4707 3.28511 18.4241 3.29769 22.0547H8.24422V25.3524H4.21444ZM36.2749 20.4057C39.8231 20.401 43.2779 21.5427 46.1249 23.6606C53.4217 29.0889 54.9364 39.4044 49.5082 46.7013C44.08 53.9981 33.7643 55.5129 26.4675 50.0846C19.1706 44.6564 17.6558 34.3407 23.0841 27.0439V27.001H23.1155C26.2198 22.8545 31.095 20.4111 36.2749 20.4057ZM23.0841 36.8941C23.0839 39.8725 24.0968 42.7623 25.9564 45.0888L29.9433 42.4309L31.5922 37.4844L36.2749 34.3631V30.2987H24.8682C23.7002 32.3005 23.0845 34.5764 23.0841 36.8941ZM41.2214 44.1671V49.1137C45.086 47.5376 47.9808 44.2309 49.032 40.1918H45.2017L41.2214 44.1671ZM37.9237 42.8068L43.8365 36.8941H49.4656C49.471 33.6757 48.2977 30.5669 46.1673 28.1546C41.3528 22.703 33.0305 22.1865 27.5789 27.001H39.5726V36.1274L34.3622 39.6015L32.7134 44.548L28.3802 47.4368C30.6542 49.1539 33.4255 50.0834 36.2749 50.0848C36.8263 50.0812 37.377 50.0432 37.9237 49.9711V42.8068ZM4.94666 44.3141C4.94666 41.1269 7.53039 38.5432 10.7176 38.5432C13.9048 38.5432 16.4886 41.1269 16.4886 44.3141C16.4886 47.5013 13.9048 50.0851 10.7176 50.0851C7.53039 50.0851 4.94666 47.5013 4.94666 44.3141ZM8.24434 44.3141C8.24434 45.6801 9.35164 46.7874 10.7176 46.7874C12.0836 46.7874 13.1909 45.6801 13.1909 44.3141C13.1909 42.9481 12.0836 41.8408 10.7176 41.8408C9.35164 41.8408 8.24434 42.9481 8.24434 44.3141ZM49.4652 10.5128H46.1675V13.8105H49.4652V10.5128ZM16.4883 3.91736H19.786V7.21505H16.4883V3.91736ZM6.59542 0.619629H3.29773V3.91732H6.59542V0.619629ZM23.0837 17.1079H26.3814V20.4056H23.0837V17.1079ZM21.4348 50.0848H18.1371V53.3825H21.4348V50.0848ZM0 33.4596H3.29769V36.7573H0V33.4596Z" fill="url(#paint0_linear)"/>
<defs>
<linearGradient id="paint0_linear" x1="14.2127" y1="40.6676" x2="40.6575" y2="16.0363" gradientUnits="userSpaceOnUse">
<stop stop-color="#F29C40"/>
<stop offset="1" stop-color="#D35135"/>
</linearGradient>
</defs>
</svg>
