<svg width="64" height="52" viewBox="0 0 64 52" fill="none" xmlns="http://www.w3.org/2000/svg">
<path d="M44.6562 51.9873C44.4271 51.9873 44.1599 51.8854 41.3728 50.7519C40.482 50.3953 39.3494 49.9368 37.8731 49.3382C37.4532 49.1727 37.135 48.8288 36.995 48.3958L36.0278 45.4156H10.0664C9.65918 45.4156 9.65918 45.4156 7.25393 44.1421C6.63034 43.8109 5.86677 43.4034 4.89958 42.8939L4.60688 42.7411L3.05429 43.6963V48.9434H24.3834C25.2233 48.9434 25.9105 49.6312 25.9105 50.4717C25.9105 51.3123 25.2233 52 24.3834 52H1.52714C0.687214 52 0 51.3123 0 50.4717V42.843C0 42.3081 0.279976 41.8114 0.738119 41.544L3.18155 40.0539L4.11056 35.0742C4.25055 34.3483 4.87413 33.8261 5.61225 33.8261H7.36846V24.6054C7.35574 11.0291 18.3766 0 31.93 0C45.4834 0 56.5043 11.0291 56.5043 24.5927V33.8134H58.4005C59.0622 33.8134 59.6476 34.2337 59.8513 34.8704L61.4675 39.8501L63.6564 42.5246C63.8727 42.7921 64 43.1359 64 43.4925V50.459C64 51.2995 63.3128 51.9873 62.4729 51.9873H44.6562ZM6.24856 40.1685L10.4355 42.3718H37.1223C37.7841 42.3718 38.3695 42.7921 38.5731 43.4289L39.6675 46.7911L45.038 48.9434H60.9584V44.0402L60.8312 43.8746C60.4367 43.3906 60.1185 43.0086 59.864 42.6902C58.7695 41.3657 58.7695 41.3529 58.6805 41.06L57.3187 36.8572H6.85942L6.24856 40.1685ZM39.4894 10.2905C40.3293 10.2905 41.0038 10.9782 41.0038 11.8188V20.4536L47.7232 22.7333C48.3468 22.9371 48.754 23.5229 48.754 24.1724V33.8261H53.45V24.6054C53.4627 12.723 43.8035 3.05658 31.93 3.05658C20.0565 3.05658 10.41 12.723 10.41 24.5927V33.8134H13.6679V28.9101C13.6679 28.0696 14.3551 27.3818 15.1951 27.3818C16.035 27.3818 16.7222 28.0696 16.7222 28.9101V33.8261H21.2909V26.4139C21.2909 25.7771 21.6981 25.204 22.2963 24.9748L28.5194 22.7078V13.1305C28.5194 12.3791 29.0793 11.7296 29.8302 11.615L39.2857 10.3032C39.3494 10.2905 39.4257 10.2905 39.4894 10.2905ZM41.0165 33.8261H45.7125V25.2677L41.0165 23.6757V33.8261ZM31.5609 14.4551V33.8134H37.9749V13.5636L31.5609 14.4551ZM24.3325 27.4837V33.8261H28.5067V25.9554L24.3325 27.4837ZM19.7256 16.0343C19.3947 16.0343 19.0766 15.9324 18.8093 15.7286C18.4784 15.4867 18.2748 15.1301 18.2112 14.7225C18.1603 14.315 18.2621 13.9202 18.5039 13.589C19.7001 11.9843 21.1637 10.6343 22.8435 9.5518C23.0853 9.38624 23.378 9.30982 23.6707 9.30982C24.1925 9.30982 24.6761 9.57727 24.9561 10.0103C25.4142 10.7235 25.2106 11.6659 24.4979 12.1244C23.1235 13.0159 21.9272 14.1239 20.9473 15.4357C20.6546 15.8178 20.2092 16.0343 19.7256 16.0343Z" fill="url(#paint0_linear)"/>
<defs>
<linearGradient id="paint0_linear" x1="17.2392" y1="39.4689" x2="43.1256" y2="9.79423" gradientUnits="userSpaceOnUse">
<stop stop-color="#F29C40"/>
<stop offset="1" stop-color="#D35135"/>
</linearGradient>
</defs>
</svg>
