<svg width="409" height="247" viewBox="0 0 409 247" fill="none" xmlns="http://www.w3.org/2000/svg">
<g opacity="0.07" clip-path="url(#clip0)">
<path d="M12.185 237.963C14.6656 237.963 16.6147 239.912 16.6147 242.393C16.6147 245.051 14.6656 247 12.185 247C9.70438 247 7.57812 245.051 7.57812 242.57C7.57812 240.09 9.70438 237.963 12.185 237.963Z" fill="#323232"/>
<path d="M12.1847 211.562C14.6653 211.562 16.6144 213.512 16.6144 215.992C16.6144 218.473 14.6653 220.422 12.1847 220.422C9.70403 220.422 7.75496 218.473 7.75496 215.992C7.57778 213.512 9.70403 211.562 12.1847 211.562Z" fill="#323232"/>
<path d="M12.1845 185.162C14.6652 185.162 16.6142 187.111 16.6142 189.591C16.6142 192.072 14.6652 194.021 12.1845 194.021C9.70389 194.021 7.57764 192.072 7.57764 189.591C7.57764 187.111 9.70389 185.162 12.1845 185.162Z" fill="#323232"/>
<path d="M12.1846 158.76C14.6652 158.76 16.6143 160.709 16.6143 163.19C16.6143 165.671 14.6652 167.62 12.1846 167.62C9.70395 167.62 7.75488 165.671 7.75488 163.19C7.75488 160.709 9.70395 158.76 12.1846 158.76Z" fill="#323232"/>
<path d="M12.1847 132.182C14.6653 132.182 16.6144 134.131 16.6144 136.612C16.6144 139.092 14.6653 141.042 12.1847 141.042C9.70403 141.042 7.75496 139.092 7.75496 136.612C7.57778 134.308 9.70403 132.182 12.1847 132.182Z" fill="#323232"/>
<path d="M12.1847 105.781C14.6653 105.781 16.6144 107.73 16.6144 110.211C16.6144 112.692 14.6653 114.641 12.1847 114.641C9.70403 114.641 7.75496 112.692 7.75496 110.211C7.57778 107.73 9.70403 105.781 12.1847 105.781Z" fill="#323232"/>
<path d="M12.1847 79.3803C14.6653 79.3803 16.6144 81.3294 16.6144 83.81C16.6144 86.2907 14.6653 88.2397 12.1847 88.2397C9.70403 88.2397 7.75496 86.2907 7.75496 83.81C7.57778 81.3294 9.70403 79.3803 12.1847 79.3803Z" fill="#323232"/>
<path d="M12.1847 52.979C14.6653 52.979 16.6144 54.928 16.6144 57.4087C16.6144 59.8893 14.6653 61.8384 12.1847 61.8384C9.70403 61.8384 7.75496 59.8893 7.75496 57.4087C7.57778 54.928 9.70403 52.979 12.1847 52.979Z" fill="#323232"/>
<path d="M12.1847 26.4009C14.6653 26.4009 16.6144 28.3499 16.6144 30.8306C16.6144 33.3112 14.6653 35.2603 12.1847 35.2603C9.70403 35.2603 7.75496 33.3112 7.75496 30.8306C7.57778 28.5271 9.70403 26.4009 12.1847 26.4009Z" fill="#323232"/>
<path d="M12.1846 -2.30818e-05C14.6652 -2.31902e-05 16.6143 1.94904 16.6143 4.42968C16.6143 6.91031 14.6652 8.85937 12.1846 8.85937C9.70395 8.85937 7.75488 6.91031 7.75488 4.42968C7.75488 1.94904 9.70395 -2.29734e-05 12.1846 -2.30818e-05Z" fill="#323232"/>
<path d="M38.7636 237.963C41.2443 237.963 43.1933 239.912 43.1933 242.393C43.1933 245.051 41.2443 247 38.7636 247C36.283 247 34.1567 245.051 34.1567 242.57C34.1567 240.09 36.283 237.963 38.7636 237.963Z" fill="#323232"/>
<path d="M38.7633 211.562C41.2439 211.562 43.193 213.512 43.193 215.992C43.193 218.473 41.2439 220.422 38.7633 220.422C36.2826 220.422 34.3336 218.473 34.3336 215.992C34.1564 213.512 36.2826 211.562 38.7633 211.562Z" fill="#323232"/>
<path d="M38.7633 185.162C41.2439 185.162 43.193 187.111 43.193 189.591C43.193 192.072 41.2439 194.021 38.7633 194.021C36.2826 194.021 34.3336 192.072 34.3336 189.591C34.1564 187.111 36.2826 185.162 38.7633 185.162Z" fill="#323232"/>
<path d="M38.7632 158.76C41.2438 158.76 43.1929 160.709 43.1929 163.19C43.1929 165.671 41.2438 167.62 38.7632 167.62C36.2826 167.62 34.3335 165.671 34.3335 163.19C34.3335 160.709 36.2826 158.76 38.7632 158.76Z" fill="#323232"/>
<path d="M38.7633 132.182C41.2439 132.182 43.193 134.131 43.193 136.612C43.193 139.092 41.2439 141.042 38.7633 141.042C36.2826 141.042 34.3336 139.092 34.3336 136.612C34.1564 134.308 36.2826 132.182 38.7633 132.182Z" fill="#323232"/>
<path d="M38.7633 105.781C41.2439 105.781 43.193 107.73 43.193 110.211C43.193 112.692 41.2439 114.641 38.7633 114.641C36.2826 114.641 34.3336 112.692 34.3336 110.211C34.1564 107.73 36.2826 105.781 38.7633 105.781Z" fill="#323232"/>
<path d="M38.7633 79.3803C41.2439 79.3803 43.193 81.3294 43.193 83.81C43.193 86.2907 41.2439 88.2397 38.7633 88.2397C36.2826 88.2397 34.3336 86.2907 34.3336 83.81C34.1564 81.3294 36.2826 79.3803 38.7633 79.3803Z" fill="#323232"/>
<path d="M38.7633 52.979C41.2439 52.979 43.193 54.928 43.193 57.4087C43.193 59.8893 41.2439 61.8384 38.7633 61.8384C36.2826 61.8384 34.3336 59.8893 34.3336 57.4087C34.1564 54.928 36.2826 52.979 38.7633 52.979Z" fill="#323232"/>
<path d="M38.7633 26.4009C41.2439 26.4009 43.193 28.3499 43.193 30.8306C43.193 33.3112 41.2439 35.2603 38.7633 35.2603C36.2826 35.2603 34.3336 33.3112 34.3336 30.8306C34.1564 28.5271 36.2826 26.4009 38.7633 26.4009Z" fill="#323232"/>
<path d="M38.7632 -2.30818e-05C41.2438 -2.31902e-05 43.1929 1.94904 43.1929 4.42968C43.1929 6.91031 41.2438 8.85937 38.7632 8.85937C36.2826 8.85937 34.3335 6.91031 34.3335 4.42968C34.3335 1.94904 36.2826 -2.29734e-05 38.7632 -2.30818e-05Z" fill="#323232"/>
<path d="M65.3418 237.963C67.8224 237.963 69.7715 239.912 69.7715 242.393C69.9487 245.051 67.8224 247 65.3418 247C62.8612 247 60.9121 245.051 60.9121 242.57C60.9121 240.09 62.8612 237.963 65.3418 237.963Z" fill="#323232"/>
<path d="M65.3413 211.562C67.822 211.562 69.771 213.512 69.771 215.992C69.771 218.473 67.822 220.422 65.3413 220.422C62.8607 220.422 60.9116 218.473 60.9116 215.992C60.9116 213.512 62.8607 211.562 65.3413 211.562Z" fill="#323232"/>
<path d="M65.3413 185.162C67.822 185.162 69.771 187.111 69.771 189.591C69.771 192.072 67.822 194.021 65.3413 194.021C62.8607 194.021 60.9116 192.072 60.9116 189.591C60.9116 187.111 62.8607 185.162 65.3413 185.162Z" fill="#323232"/>
<path d="M65.3413 158.76C67.822 158.76 69.771 160.709 69.771 163.19C69.771 165.671 67.822 167.62 65.3413 167.62C62.8607 167.62 60.9116 165.671 60.9116 163.19C60.9116 160.709 62.8607 158.76 65.3413 158.76Z" fill="#323232"/>
<path d="M65.3413 132.182C67.822 132.182 69.771 134.131 69.771 136.612C69.771 139.092 67.822 141.042 65.3413 141.042C62.8607 141.042 60.9116 139.092 60.9116 136.612C60.9116 134.308 62.8607 132.182 65.3413 132.182Z" fill="#323232"/>
<path d="M65.3413 105.781C67.822 105.781 69.771 107.73 69.771 110.211C69.771 112.692 67.822 114.641 65.3413 114.641C62.8607 114.641 60.9116 112.692 60.9116 110.211C60.9116 107.73 62.8607 105.781 65.3413 105.781Z" fill="#323232"/>
<path d="M65.3413 79.3803C67.822 79.3803 69.771 81.3294 69.771 83.81C69.771 86.2907 67.822 88.2397 65.3413 88.2397C62.8607 88.2397 60.9116 86.2907 60.9116 83.81C60.9116 81.3294 62.8607 79.3803 65.3413 79.3803Z" fill="#323232"/>
<path d="M65.3413 52.979C67.822 52.979 69.771 54.928 69.771 57.4087C69.771 59.8893 67.822 61.8384 65.3413 61.8384C62.8607 61.8384 60.9116 59.8893 60.9116 57.4087C60.9116 54.928 62.8607 52.979 65.3413 52.979Z" fill="#323232"/>
<path d="M65.3413 26.4009C67.822 26.4009 69.771 28.3499 69.771 30.8306C69.771 33.3112 67.822 35.2603 65.3413 35.2603C62.8607 35.2603 60.9116 33.3112 60.9116 30.8306C60.9116 28.5271 62.8607 26.4009 65.3413 26.4009Z" fill="#323232"/>
<path d="M65.3413 -2.30818e-05C67.822 -2.31902e-05 69.771 1.94904 69.771 4.42968C69.771 6.91031 67.822 8.85937 65.3413 8.85937C62.8607 8.85937 60.9116 6.91031 60.9116 4.42968C60.9116 1.94904 62.8607 -2.29734e-05 65.3413 -2.30818e-05Z" fill="#323232"/>
<path d="M91.9199 237.963C94.4006 237.963 96.3496 239.912 96.3496 242.393C96.5268 245.051 94.4006 247 91.9199 247C89.4393 247 87.4902 245.051 87.4902 242.57C87.4902 240.09 89.4393 237.963 91.9199 237.963Z" fill="#323232"/>
<path d="M91.9199 211.562C94.4006 211.562 96.3496 213.512 96.3496 215.992C96.3496 218.473 94.4006 220.422 91.9199 220.422C89.4393 220.422 87.4902 218.473 87.4902 215.992C87.4902 213.512 89.4393 211.562 91.9199 211.562Z" fill="#323232"/>
<path d="M91.9199 185.162C94.4006 185.162 96.3496 187.111 96.3496 189.591C96.3496 192.072 94.4006 194.021 91.9199 194.021C89.4393 194.021 87.4902 192.072 87.4902 189.591C87.4902 187.111 89.4393 185.162 91.9199 185.162Z" fill="#323232"/>
<path d="M91.9199 158.76C94.4006 158.76 96.3496 160.709 96.3496 163.19C96.3496 165.671 94.4006 167.62 91.9199 167.62C89.4393 167.62 87.4902 165.671 87.4902 163.19C87.4902 160.709 89.4393 158.76 91.9199 158.76Z" fill="#323232"/>
<path d="M91.9199 132.182C94.4006 132.182 96.3496 134.131 96.3496 136.612C96.3496 139.092 94.4006 141.042 91.9199 141.042C89.4393 141.042 87.4902 139.092 87.4902 136.612C87.4902 134.308 89.4393 132.182 91.9199 132.182Z" fill="#323232"/>
<path d="M91.9199 105.781C94.4006 105.781 96.3496 107.73 96.3496 110.211C96.3496 112.692 94.4006 114.641 91.9199 114.641C89.4393 114.641 87.4902 112.692 87.4902 110.211C87.4902 107.73 89.4393 105.781 91.9199 105.781Z" fill="#323232"/>
<path d="M91.9199 79.3803C94.4006 79.3803 96.3496 81.3294 96.3496 83.81C96.3496 86.2907 94.4006 88.2397 91.9199 88.2397C89.4393 88.2397 87.4902 86.2907 87.4902 83.81C87.4902 81.3294 89.4393 79.3803 91.9199 79.3803Z" fill="#323232"/>
<path d="M91.9199 52.979C94.4006 52.979 96.3496 54.928 96.3496 57.4087C96.3496 59.8893 94.4006 61.8384 91.9199 61.8384C89.4393 61.8384 87.4902 59.8893 87.4902 57.4087C87.4902 54.928 89.4393 52.979 91.9199 52.979Z" fill="#323232"/>
<path d="M91.9199 26.4009C94.4006 26.4009 96.3496 28.3499 96.3496 30.8306C96.3496 33.3112 94.4006 35.2603 91.9199 35.2603C89.4393 35.2603 87.4902 33.3112 87.4902 30.8306C87.4902 28.5271 89.4393 26.4009 91.9199 26.4009Z" fill="#323232"/>
<path d="M91.9199 -2.30818e-05C94.4006 -2.31902e-05 96.3496 1.94904 96.3496 4.42968C96.3496 6.91031 94.4006 8.85937 91.9199 8.85937C89.4393 8.85937 87.4902 6.91031 87.4902 4.42968C87.4902 1.94904 89.4393 -2.29734e-05 91.9199 -2.30818e-05Z" fill="#323232"/>
<path d="M118.675 237.963C121.156 237.963 123.105 239.912 123.105 242.393C123.105 244.874 121.156 246.823 118.675 246.823C116.195 246.823 114.246 244.874 114.246 242.393C114.068 240.09 116.195 237.963 118.675 237.963Z" fill="#323232"/>
<path d="M118.675 211.562C121.156 211.562 123.105 213.512 123.105 215.992C123.105 218.473 121.156 220.422 118.675 220.422C116.194 220.422 114.245 218.473 114.245 215.992C114.068 213.512 116.194 211.562 118.675 211.562Z" fill="#323232"/>
<path d="M118.675 185.161C121.156 185.161 123.105 187.11 123.105 189.591C123.105 192.071 121.156 194.021 118.675 194.021C116.194 194.021 114.245 192.071 114.245 189.591C114.068 187.11 116.194 185.161 118.675 185.161Z" fill="#323232"/>
<path d="M118.675 158.76C121.155 158.76 123.105 160.709 123.105 163.19C123.105 165.671 121.155 167.62 118.675 167.62C116.194 167.62 114.245 165.671 114.245 163.19C114.245 160.709 116.194 158.76 118.675 158.76Z" fill="#323232"/>
<path d="M118.675 132.182C121.156 132.182 123.105 134.131 123.105 136.612C123.105 139.092 121.156 141.042 118.675 141.042C116.194 141.042 114.245 139.092 114.245 136.612C114.068 134.308 116.194 132.182 118.675 132.182Z" fill="#323232"/>
<path d="M118.675 105.781C121.156 105.781 123.105 107.73 123.105 110.211C123.105 112.692 121.156 114.641 118.675 114.641C116.194 114.641 114.245 112.692 114.245 110.211C114.068 107.73 116.194 105.781 118.675 105.781Z" fill="#323232"/>
<path d="M118.675 79.3803C121.156 79.3803 123.105 81.3294 123.105 83.81C123.105 86.2907 121.156 88.2397 118.675 88.2397C116.194 88.2397 114.245 86.2907 114.245 83.81C114.068 81.3294 116.194 79.3803 118.675 79.3803Z" fill="#323232"/>
<path d="M118.675 52.979C121.156 52.979 123.105 54.928 123.105 57.4087C123.105 59.8893 121.156 61.8384 118.675 61.8384C116.194 61.8384 114.245 59.8893 114.245 57.4087C114.068 54.928 116.194 52.979 118.675 52.979Z" fill="#323232"/>
<path d="M118.675 26.4009C121.156 26.4009 123.105 28.3499 123.105 30.8306C123.105 33.3112 121.156 35.2603 118.675 35.2603C116.194 35.2603 114.245 33.3112 114.245 30.8306C114.068 28.5271 116.194 26.4009 118.675 26.4009Z" fill="#323232"/>
<path d="M118.675 -2.30818e-05C121.155 -2.31902e-05 123.105 1.94904 123.105 4.42968C123.105 6.91031 121.155 8.85937 118.675 8.85937C116.194 8.85937 114.245 6.91031 114.245 4.42968C114.245 1.94904 116.194 -2.29734e-05 118.675 -2.30818e-05Z" fill="#323232"/>
<path d="M145.255 237.963C147.736 237.963 149.685 239.912 149.685 242.393C149.685 244.874 147.736 246.823 145.255 246.823C142.774 246.823 140.825 244.874 140.825 242.393C140.648 240.09 142.774 237.963 145.255 237.963Z" fill="#323232"/>
<path d="M145.254 211.562C147.735 211.562 149.684 213.512 149.684 215.992C149.684 218.473 147.735 220.422 145.254 220.422C142.773 220.422 140.824 218.473 140.824 215.992C140.647 213.512 142.773 211.562 145.254 211.562Z" fill="#323232"/>
<path d="M145.254 185.161C147.735 185.161 149.684 187.11 149.684 189.591C149.684 192.071 147.735 194.021 145.254 194.021C142.773 194.021 140.824 192.071 140.824 189.591C140.647 187.11 142.773 185.161 145.254 185.161Z" fill="#323232"/>
<path d="M145.254 158.76C147.735 158.76 149.684 160.709 149.684 163.19C149.684 165.671 147.735 167.62 145.254 167.62C142.773 167.62 140.824 165.671 140.824 163.19C140.824 160.709 142.773 158.76 145.254 158.76Z" fill="#323232"/>
<path d="M145.254 132.182C147.735 132.182 149.684 134.131 149.684 136.612C149.684 139.092 147.735 141.042 145.254 141.042C142.773 141.042 140.824 139.092 140.824 136.612C140.647 134.308 142.773 132.182 145.254 132.182Z" fill="#323232"/>
<path d="M145.254 105.781C147.735 105.781 149.684 107.73 149.684 110.211C149.684 112.692 147.735 114.641 145.254 114.641C142.773 114.641 140.824 112.692 140.824 110.211C140.647 107.73 142.773 105.781 145.254 105.781Z" fill="#323232"/>
<path d="M145.254 79.3803C147.735 79.3803 149.684 81.3294 149.684 83.81C149.684 86.2907 147.735 88.2397 145.254 88.2397C142.773 88.2397 140.824 86.2907 140.824 83.81C140.647 81.3294 142.773 79.3803 145.254 79.3803Z" fill="#323232"/>
<path d="M145.254 52.979C147.735 52.979 149.684 54.928 149.684 57.4087C149.684 59.8893 147.735 61.8384 145.254 61.8384C142.773 61.8384 140.824 59.8893 140.824 57.4087C140.647 54.928 142.773 52.979 145.254 52.979Z" fill="#323232"/>
<path d="M145.254 26.4009C147.735 26.4009 149.684 28.3499 149.684 30.8306C149.684 33.3112 147.735 35.2603 145.254 35.2603C142.773 35.2603 140.824 33.3112 140.824 30.8306C140.647 28.5271 142.773 26.4009 145.254 26.4009Z" fill="#323232"/>
<path d="M145.254 -2.30818e-05C147.735 -2.31902e-05 149.684 1.94904 149.684 4.42968C149.684 6.91031 147.735 8.85937 145.254 8.85937C142.773 8.85937 140.824 6.91031 140.824 4.42968C140.824 1.94904 142.773 -2.29734e-05 145.254 -2.30818e-05Z" fill="#323232"/>
<path d="M171.832 237.963C174.313 237.963 176.262 239.912 176.262 242.393C176.262 244.874 174.313 246.823 171.832 246.823C169.351 246.823 167.402 244.874 167.402 242.393C167.402 240.09 169.351 237.963 171.832 237.963Z" fill="#323232"/>
<path d="M171.832 211.562C174.313 211.562 176.262 213.512 176.262 215.992C176.262 218.473 174.313 220.422 171.832 220.422C169.351 220.422 167.402 218.473 167.402 215.992C167.402 213.512 169.351 211.562 171.832 211.562Z" fill="#323232"/>
<path d="M171.832 185.161C174.313 185.161 176.262 187.11 176.262 189.591C176.262 192.071 174.313 194.021 171.832 194.021C169.351 194.021 167.402 192.071 167.402 189.591C167.402 187.11 169.351 185.161 171.832 185.161Z" fill="#323232"/>
<path d="M171.832 158.76C174.313 158.76 176.262 160.709 176.262 163.19C176.262 165.671 174.313 167.62 171.832 167.62C169.351 167.62 167.402 165.671 167.402 163.19C167.402 160.709 169.351 158.76 171.832 158.76Z" fill="#323232"/>
<path d="M171.832 132.182C174.313 132.182 176.262 134.131 176.262 136.612C176.262 139.092 174.313 141.042 171.832 141.042C169.351 141.042 167.402 139.092 167.402 136.612C167.402 134.308 169.351 132.182 171.832 132.182Z" fill="#323232"/>
<path d="M171.832 105.781C174.313 105.781 176.262 107.73 176.262 110.211C176.262 112.692 174.313 114.641 171.832 114.641C169.351 114.641 167.402 112.692 167.402 110.211C167.402 107.73 169.351 105.781 171.832 105.781Z" fill="#323232"/>
<path d="M171.832 79.3803C174.313 79.3803 176.262 81.3294 176.262 83.81C176.262 86.2907 174.313 88.2397 171.832 88.2397C169.351 88.2397 167.402 86.2907 167.402 83.81C167.402 81.3294 169.351 79.3803 171.832 79.3803Z" fill="#323232"/>
<path d="M171.832 52.979C174.313 52.979 176.262 54.928 176.262 57.4087C176.262 59.8893 174.313 61.8384 171.832 61.8384C169.351 61.8384 167.402 59.8893 167.402 57.4087C167.402 54.928 169.351 52.979 171.832 52.979Z" fill="#323232"/>
<path d="M171.832 26.4009C174.313 26.4009 176.262 28.3499 176.262 30.8306C176.262 33.3112 174.313 35.2603 171.832 35.2603C169.351 35.2603 167.402 33.3112 167.402 30.8306C167.402 28.5271 169.351 26.4009 171.832 26.4009Z" fill="#323232"/>
<path d="M171.832 -2.30818e-05C174.313 -2.31902e-05 176.262 1.94904 176.262 4.42968C176.262 6.91031 174.313 8.85937 171.832 8.85937C169.351 8.85937 167.402 6.91031 167.402 4.42968C167.402 1.94904 169.351 -2.29734e-05 171.832 -2.30818e-05Z" fill="#323232"/>
<path d="M198.411 237.963C200.891 237.963 202.84 239.912 202.84 242.393C202.84 244.874 200.891 246.823 198.411 246.823C195.93 246.823 193.981 244.874 193.981 242.393C193.981 240.09 195.93 237.963 198.411 237.963Z" fill="#323232"/>
<path d="M198.41 211.562C200.89 211.562 202.839 213.512 202.839 215.992C202.839 218.473 200.89 220.422 198.41 220.422C195.929 220.422 193.98 218.473 193.98 215.992C193.98 213.512 195.929 211.562 198.41 211.562Z" fill="#323232"/>
<path d="M198.41 185.161C200.89 185.161 202.839 187.11 202.839 189.591C202.839 192.071 200.89 194.021 198.41 194.021C195.929 194.021 193.98 192.071 193.98 189.591C193.98 187.11 195.929 185.161 198.41 185.161Z" fill="#323232"/>
<path d="M198.41 158.76C200.89 158.76 202.839 160.709 202.839 163.19C202.839 165.671 200.89 167.62 198.41 167.62C195.929 167.62 193.98 165.671 193.98 163.19C193.98 160.709 195.929 158.76 198.41 158.76Z" fill="#323232"/>
<path d="M198.41 132.182C200.89 132.182 202.839 134.131 202.839 136.612C202.839 139.092 200.89 141.042 198.41 141.042C195.929 141.042 193.98 139.092 193.98 136.612C193.98 134.308 195.929 132.182 198.41 132.182Z" fill="#323232"/>
<path d="M198.41 105.781C200.89 105.781 202.839 107.73 202.839 110.211C202.839 112.692 200.89 114.641 198.41 114.641C195.929 114.641 193.98 112.692 193.98 110.211C193.98 107.73 195.929 105.781 198.41 105.781Z" fill="#323232"/>
<path d="M198.41 79.3803C200.89 79.3803 202.839 81.3294 202.839 83.81C202.839 86.2907 200.89 88.2397 198.41 88.2397C195.929 88.2397 193.98 86.2907 193.98 83.81C193.98 81.3294 195.929 79.3803 198.41 79.3803Z" fill="#323232"/>
<path d="M198.41 52.979C200.89 52.979 202.839 54.928 202.839 57.4087C202.839 59.8893 200.89 61.8384 198.41 61.8384C195.929 61.8384 193.98 59.8893 193.98 57.4087C193.98 54.928 195.929 52.979 198.41 52.979Z" fill="#323232"/>
<path d="M198.41 26.4009C200.89 26.4009 202.839 28.3499 202.839 30.8306C202.839 33.3112 200.89 35.2603 198.41 35.2603C195.929 35.2603 193.98 33.3112 193.98 30.8306C193.98 28.5271 195.929 26.4009 198.41 26.4009Z" fill="#323232"/>
<path d="M198.41 -2.30818e-05C200.89 -2.31902e-05 202.839 1.94904 202.839 4.42968C202.839 6.91031 200.89 8.85937 198.41 8.85937C195.929 8.85937 193.98 6.91031 193.98 4.42968C193.98 1.94904 195.929 -2.29734e-05 198.41 -2.30818e-05Z" fill="#323232"/>
<path d="M225.165 237.963C227.645 237.963 229.594 239.912 229.594 242.393C229.594 244.874 227.645 246.823 225.165 246.823C222.684 246.823 220.735 244.874 220.735 242.393C220.558 240.09 222.684 237.963 225.165 237.963Z" fill="#323232"/>
<path d="M225.164 211.562C227.645 211.562 229.594 213.512 229.594 215.992C229.594 218.473 227.645 220.422 225.164 220.422C222.684 220.422 220.734 218.473 220.734 215.992C220.557 213.512 222.684 211.562 225.164 211.562Z" fill="#323232"/>
<path d="M225.164 185.161C227.645 185.161 229.594 187.11 229.594 189.591C229.594 192.071 227.645 194.021 225.164 194.021C222.684 194.021 220.734 192.071 220.734 189.591C220.557 187.11 222.684 185.161 225.164 185.161Z" fill="#323232"/>
<path d="M225.164 158.76C227.645 158.76 229.594 160.709 229.594 163.19C229.594 165.671 227.645 167.62 225.164 167.62C222.683 167.62 220.734 165.671 220.734 163.19C220.734 160.709 222.683 158.76 225.164 158.76Z" fill="#323232"/>
<path d="M225.164 132.182C227.645 132.182 229.594 134.131 229.594 136.612C229.594 139.092 227.645 141.042 225.164 141.042C222.684 141.042 220.734 139.092 220.734 136.612C220.557 134.308 222.684 132.182 225.164 132.182Z" fill="#323232"/>
<path d="M225.164 105.781C227.645 105.781 229.594 107.73 229.594 110.211C229.594 112.692 227.645 114.641 225.164 114.641C222.684 114.641 220.734 112.692 220.734 110.211C220.557 107.73 222.684 105.781 225.164 105.781Z" fill="#323232"/>
<path d="M225.164 79.3803C227.645 79.3803 229.594 81.3294 229.594 83.81C229.594 86.2907 227.645 88.2397 225.164 88.2397C222.684 88.2397 220.734 86.2907 220.734 83.81C220.557 81.3294 222.684 79.3803 225.164 79.3803Z" fill="#323232"/>
<path d="M225.164 52.979C227.645 52.979 229.594 54.928 229.594 57.4087C229.594 59.8893 227.645 61.8384 225.164 61.8384C222.684 61.8384 220.734 59.8893 220.734 57.4087C220.557 54.928 222.684 52.979 225.164 52.979Z" fill="#323232"/>
<path d="M225.164 26.4009C227.645 26.4009 229.594 28.3499 229.594 30.8306C229.594 33.3112 227.645 35.2603 225.164 35.2603C222.684 35.2603 220.734 33.3112 220.734 30.8306C220.557 28.5271 222.684 26.4009 225.164 26.4009Z" fill="#323232"/>
<path d="M225.164 -2.30818e-05C227.645 -2.31902e-05 229.594 1.94904 229.594 4.42968C229.594 6.91031 227.645 8.85937 225.164 8.85937C222.683 8.85937 220.734 6.91031 220.734 4.42968C220.734 1.94904 222.683 -2.29734e-05 225.164 -2.30818e-05Z" fill="#323232"/>
<path d="M251.744 237.963C254.225 237.963 256.174 239.912 256.174 242.393C256.174 244.874 254.225 246.823 251.744 246.823C249.264 246.823 247.315 244.874 247.315 242.393C247.137 240.09 249.264 237.963 251.744 237.963Z" fill="#323232"/>
<path d="M251.743 211.562C254.223 211.562 256.172 213.512 256.172 215.992C256.172 218.473 254.223 220.422 251.743 220.422C249.262 220.422 247.313 218.473 247.313 215.992C247.136 213.512 249.262 211.562 251.743 211.562Z" fill="#323232"/>
<path d="M251.743 185.161C254.223 185.161 256.172 187.11 256.172 189.591C256.172 192.071 254.223 194.021 251.743 194.021C249.262 194.021 247.313 192.071 247.313 189.591C247.136 187.11 249.262 185.161 251.743 185.161Z" fill="#323232"/>
<path d="M251.743 158.76C254.223 158.76 256.172 160.709 256.172 163.19C256.172 165.671 254.223 167.62 251.743 167.62C249.262 167.62 247.313 165.671 247.313 163.19C247.313 160.709 249.262 158.76 251.743 158.76Z" fill="#323232"/>
<path d="M251.743 132.182C254.223 132.182 256.172 134.131 256.172 136.612C256.172 139.092 254.223 141.042 251.743 141.042C249.262 141.042 247.313 139.092 247.313 136.612C247.136 134.308 249.262 132.182 251.743 132.182Z" fill="#323232"/>
<path d="M251.743 105.781C254.223 105.781 256.172 107.73 256.172 110.211C256.172 112.692 254.223 114.641 251.743 114.641C249.262 114.641 247.313 112.692 247.313 110.211C247.136 107.73 249.262 105.781 251.743 105.781Z" fill="#323232"/>
<path d="M251.743 79.3803C254.223 79.3803 256.172 81.3294 256.172 83.81C256.172 86.2907 254.223 88.2397 251.743 88.2397C249.262 88.2397 247.313 86.2907 247.313 83.81C247.136 81.3294 249.262 79.3803 251.743 79.3803Z" fill="#323232"/>
<path d="M251.743 52.979C254.223 52.979 256.172 54.928 256.172 57.4087C256.172 59.8893 254.223 61.8384 251.743 61.8384C249.262 61.8384 247.313 59.8893 247.313 57.4087C247.136 54.928 249.262 52.979 251.743 52.979Z" fill="#323232"/>
<path d="M251.743 26.4009C254.223 26.4009 256.172 28.3499 256.172 30.8306C256.172 33.3112 254.223 35.2603 251.743 35.2603C249.262 35.2603 247.313 33.3112 247.313 30.8306C247.136 28.5271 249.262 26.4009 251.743 26.4009Z" fill="#323232"/>
<path d="M251.743 -2.30818e-05C254.223 -2.31902e-05 256.172 1.94904 256.172 4.42968C256.172 6.91031 254.223 8.85937 251.743 8.85937C249.262 8.85937 247.313 6.91031 247.313 4.42968C247.313 1.94904 249.262 -2.29734e-05 251.743 -2.30818e-05Z" fill="#323232"/>
<path d="M278.321 237.963C280.802 237.963 282.751 239.912 282.751 242.393C282.751 244.874 280.802 246.823 278.321 246.823C275.841 246.823 273.892 244.874 273.892 242.393C273.892 240.09 275.841 237.963 278.321 237.963Z" fill="#323232"/>
<path d="M278.321 211.562C280.801 211.562 282.751 213.512 282.751 215.992C282.751 218.473 280.801 220.422 278.321 220.422C275.84 220.422 273.891 218.473 273.891 215.992C273.891 213.512 275.84 211.562 278.321 211.562Z" fill="#323232"/>
<path d="M278.321 185.161C280.801 185.161 282.751 187.11 282.751 189.591C282.751 192.071 280.801 194.021 278.321 194.021C275.84 194.021 273.891 192.071 273.891 189.591C273.891 187.11 275.84 185.161 278.321 185.161Z" fill="#323232"/>
<path d="M278.321 158.76C280.801 158.76 282.751 160.709 282.751 163.19C282.751 165.671 280.801 167.62 278.321 167.62C275.84 167.62 273.891 165.671 273.891 163.19C273.891 160.709 275.84 158.76 278.321 158.76Z" fill="#323232"/>
<path d="M278.321 132.182C280.801 132.182 282.751 134.131 282.751 136.612C282.751 139.092 280.801 141.042 278.321 141.042C275.84 141.042 273.891 139.092 273.891 136.612C273.891 134.308 275.84 132.182 278.321 132.182Z" fill="#323232"/>
<path d="M278.321 105.781C280.801 105.781 282.751 107.73 282.751 110.211C282.751 112.692 280.801 114.641 278.321 114.641C275.84 114.641 273.891 112.692 273.891 110.211C273.891 107.73 275.84 105.781 278.321 105.781Z" fill="#323232"/>
<path d="M278.321 79.3803C280.801 79.3803 282.751 81.3294 282.751 83.81C282.751 86.2907 280.801 88.2397 278.321 88.2397C275.84 88.2397 273.891 86.2907 273.891 83.81C273.891 81.3294 275.84 79.3803 278.321 79.3803Z" fill="#323232"/>
<path d="M278.321 52.979C280.801 52.979 282.751 54.928 282.751 57.4087C282.751 59.8893 280.801 61.8384 278.321 61.8384C275.84 61.8384 273.891 59.8893 273.891 57.4087C273.891 54.928 275.84 52.979 278.321 52.979Z" fill="#323232"/>
<path d="M278.321 26.4009C280.801 26.4009 282.751 28.3499 282.751 30.8306C282.751 33.3112 280.801 35.2603 278.321 35.2603C275.84 35.2603 273.891 33.3112 273.891 30.8306C273.891 28.5271 275.84 26.4009 278.321 26.4009Z" fill="#323232"/>
<path d="M278.321 -2.30818e-05C280.801 -2.31902e-05 282.751 1.94904 282.751 4.42968C282.751 6.91031 280.801 8.85937 278.321 8.85937C275.84 8.85937 273.891 6.91031 273.891 4.42968C273.891 1.94904 275.84 -2.29734e-05 278.321 -2.30818e-05Z" fill="#323232"/>
<path d="M304.9 237.963C307.381 237.963 309.33 239.912 309.33 242.393C309.33 244.874 307.381 246.823 304.9 246.823C302.42 246.823 300.471 244.874 300.471 242.393C300.471 240.09 302.42 237.963 304.9 237.963Z" fill="#323232"/>
<path d="M304.9 211.562C307.381 211.562 309.33 213.512 309.33 215.992C309.33 218.473 307.381 220.422 304.9 220.422C302.419 220.422 300.47 218.473 300.47 215.992C300.47 213.512 302.419 211.562 304.9 211.562Z" fill="#323232"/>
<path d="M304.9 185.161C307.381 185.161 309.33 187.11 309.33 189.591C309.33 192.071 307.381 194.021 304.9 194.021C302.419 194.021 300.47 192.071 300.47 189.591C300.47 187.11 302.419 185.161 304.9 185.161Z" fill="#323232"/>
<path d="M304.9 158.76C307.381 158.76 309.33 160.709 309.33 163.19C309.33 165.671 307.381 167.62 304.9 167.62C302.419 167.62 300.47 165.671 300.47 163.19C300.47 160.709 302.419 158.76 304.9 158.76Z" fill="#323232"/>
<path d="M304.9 132.182C307.381 132.182 309.33 134.131 309.33 136.612C309.33 139.092 307.381 141.042 304.9 141.042C302.419 141.042 300.47 139.092 300.47 136.612C300.47 134.308 302.419 132.182 304.9 132.182Z" fill="#323232"/>
<path d="M304.9 105.781C307.381 105.781 309.33 107.73 309.33 110.211C309.33 112.692 307.381 114.641 304.9 114.641C302.419 114.641 300.47 112.692 300.47 110.211C300.47 107.73 302.419 105.781 304.9 105.781Z" fill="#323232"/>
<path d="M304.9 79.3803C307.381 79.3803 309.33 81.3294 309.33 83.81C309.33 86.2907 307.381 88.2397 304.9 88.2397C302.419 88.2397 300.47 86.2907 300.47 83.81C300.47 81.3294 302.419 79.3803 304.9 79.3803Z" fill="#323232"/>
<path d="M304.9 52.979C307.381 52.979 309.33 54.928 309.33 57.4087C309.33 59.8893 307.381 61.8384 304.9 61.8384C302.419 61.8384 300.47 59.8893 300.47 57.4087C300.47 54.928 302.419 52.979 304.9 52.979Z" fill="#323232"/>
<path d="M304.9 26.4009C307.381 26.4009 309.33 28.3499 309.33 30.8306C309.33 33.3112 307.381 35.2603 304.9 35.2603C302.419 35.2603 300.47 33.3112 300.47 30.8306C300.47 28.5271 302.419 26.4009 304.9 26.4009Z" fill="#323232"/>
<path d="M304.9 -2.30818e-05C307.381 -2.31902e-05 309.33 1.94904 309.33 4.42968C309.33 6.91031 307.381 8.85937 304.9 8.85937C302.419 8.85937 300.47 6.91031 300.47 4.42968C300.47 1.94904 302.419 -2.29734e-05 304.9 -2.30818e-05Z" fill="#323232"/>
<path d="M331.655 237.963C334.136 237.963 336.085 239.912 336.085 242.393C336.085 244.874 334.136 246.823 331.655 246.823C329.175 246.823 327.226 244.874 327.226 242.393C327.048 240.09 329.175 237.963 331.655 237.963Z" fill="#323232"/>
<path d="M331.654 211.562C334.135 211.562 336.084 213.512 336.084 215.992C336.084 218.473 334.135 220.422 331.654 220.422C329.174 220.422 327.225 218.473 327.225 215.992C327.048 213.512 329.174 211.562 331.654 211.562Z" fill="#323232"/>
<path d="M331.654 185.161C334.135 185.161 336.084 187.11 336.084 189.591C336.084 192.071 334.135 194.021 331.654 194.021C329.174 194.021 327.225 192.071 327.225 189.591C327.048 187.11 329.174 185.161 331.654 185.161Z" fill="#323232"/>
<path d="M331.654 158.76C334.135 158.76 336.084 160.709 336.084 163.19C336.084 165.671 334.135 167.62 331.654 167.62C329.174 167.62 327.225 165.671 327.225 163.19C327.225 160.709 329.174 158.76 331.654 158.76Z" fill="#323232"/>
<path d="M331.654 132.182C334.135 132.182 336.084 134.131 336.084 136.612C336.084 139.092 334.135 141.042 331.654 141.042C329.174 141.042 327.225 139.092 327.225 136.612C327.048 134.308 329.174 132.182 331.654 132.182Z" fill="#323232"/>
<path d="M331.654 105.781C334.135 105.781 336.084 107.73 336.084 110.211C336.084 112.692 334.135 114.641 331.654 114.641C329.174 114.641 327.225 112.692 327.225 110.211C327.048 107.73 329.174 105.781 331.654 105.781Z" fill="#323232"/>
<path d="M331.654 79.3803C334.135 79.3803 336.084 81.3294 336.084 83.81C336.084 86.2907 334.135 88.2397 331.654 88.2397C329.174 88.2397 327.225 86.2907 327.225 83.81C327.048 81.3294 329.174 79.3803 331.654 79.3803Z" fill="#323232"/>
<path d="M331.654 52.979C334.135 52.979 336.084 54.928 336.084 57.4087C336.084 59.8893 334.135 61.8384 331.654 61.8384C329.174 61.8384 327.225 59.8893 327.225 57.4087C327.048 54.928 329.174 52.979 331.654 52.979Z" fill="#323232"/>
<path d="M331.654 26.4009C334.135 26.4009 336.084 28.3499 336.084 30.8306C336.084 33.3112 334.135 35.2603 331.654 35.2603C329.174 35.2603 327.225 33.3112 327.225 30.8306C327.048 28.5271 329.174 26.4009 331.654 26.4009Z" fill="#323232"/>
<path d="M331.654 -2.30818e-05C334.135 -2.31902e-05 336.084 1.94904 336.084 4.42968C336.084 6.91031 334.135 8.85937 331.654 8.85937C329.174 8.85937 327.225 6.91031 327.225 4.42968C327.225 1.94904 329.174 -2.29734e-05 331.654 -2.30818e-05Z" fill="#323232"/>
<path d="M358.233 237.963C360.713 237.963 362.662 239.912 362.662 242.393C362.662 244.874 360.713 246.823 358.233 246.823C355.752 246.823 353.803 244.874 353.803 242.393C353.626 240.09 355.752 237.963 358.233 237.963Z" fill="#323232"/>
<path d="M358.233 211.562C360.714 211.562 362.663 213.512 362.663 215.992C362.663 218.473 360.714 220.422 358.233 220.422C355.752 220.422 353.803 218.473 353.803 215.992C353.626 213.512 355.752 211.562 358.233 211.562Z" fill="#323232"/>
<path d="M358.233 185.161C360.714 185.161 362.663 187.11 362.663 189.591C362.663 192.071 360.714 194.021 358.233 194.021C355.752 194.021 353.803 192.071 353.803 189.591C353.626 187.11 355.752 185.161 358.233 185.161Z" fill="#323232"/>
<path d="M358.233 158.76C360.714 158.76 362.663 160.709 362.663 163.19C362.663 165.671 360.714 167.62 358.233 167.62C355.753 167.62 353.804 165.671 353.804 163.19C353.804 160.709 355.753 158.76 358.233 158.76Z" fill="#323232"/>
<path d="M358.233 132.182C360.714 132.182 362.663 134.131 362.663 136.612C362.663 139.092 360.714 141.042 358.233 141.042C355.752 141.042 353.803 139.092 353.803 136.612C353.626 134.308 355.752 132.182 358.233 132.182Z" fill="#323232"/>
<path d="M358.233 105.781C360.714 105.781 362.663 107.73 362.663 110.211C362.663 112.692 360.714 114.641 358.233 114.641C355.752 114.641 353.803 112.692 353.803 110.211C353.626 107.73 355.752 105.781 358.233 105.781Z" fill="#323232"/>
<path d="M358.233 79.3803C360.714 79.3803 362.663 81.3294 362.663 83.81C362.663 86.2907 360.714 88.2397 358.233 88.2397C355.752 88.2397 353.803 86.2907 353.803 83.81C353.626 81.3294 355.752 79.3803 358.233 79.3803Z" fill="#323232"/>
<path d="M358.233 52.979C360.714 52.979 362.663 54.928 362.663 57.4087C362.663 59.8893 360.714 61.8384 358.233 61.8384C355.752 61.8384 353.803 59.8893 353.803 57.4087C353.626 54.928 355.752 52.979 358.233 52.979Z" fill="#323232"/>
<path d="M358.233 26.4009C360.714 26.4009 362.663 28.3499 362.663 30.8306C362.663 33.3112 360.714 35.2603 358.233 35.2603C355.752 35.2603 353.803 33.3112 353.803 30.8306C353.626 28.5271 355.752 26.4009 358.233 26.4009Z" fill="#323232"/>
<path d="M358.233 -2.30818e-05C360.714 -2.31902e-05 362.663 1.94904 362.663 4.42968C362.663 6.91031 360.714 8.85937 358.233 8.85937C355.753 8.85937 353.804 6.91031 353.804 4.42968C353.804 1.94904 355.753 -2.29734e-05 358.233 -2.30818e-05Z" fill="#323232"/>
<path d="M384.813 237.963C387.293 237.963 389.242 239.912 389.242 242.393C389.242 244.874 387.293 246.823 384.813 246.823C382.332 246.823 380.383 244.874 380.383 242.393C380.383 240.09 382.332 237.963 384.813 237.963Z" fill="#323232"/>
<path d="M384.812 211.562C387.292 211.562 389.241 213.512 389.241 215.992C389.241 218.473 387.292 220.422 384.812 220.422C382.331 220.422 380.382 218.473 380.382 215.992C380.382 213.512 382.331 211.562 384.812 211.562Z" fill="#323232"/>
<path d="M384.812 185.161C387.292 185.161 389.241 187.11 389.241 189.591C389.241 192.071 387.292 194.021 384.812 194.021C382.331 194.021 380.382 192.071 380.382 189.591C380.382 187.11 382.331 185.161 384.812 185.161Z" fill="#323232"/>
<path d="M384.812 158.76C387.292 158.76 389.241 160.709 389.241 163.19C389.241 165.671 387.292 167.62 384.812 167.62C382.331 167.62 380.382 165.671 380.382 163.19C380.382 160.709 382.331 158.76 384.812 158.76Z" fill="#323232"/>
<path d="M384.812 132.182C387.292 132.182 389.241 134.131 389.241 136.612C389.241 139.092 387.292 141.042 384.812 141.042C382.331 141.042 380.382 139.092 380.382 136.612C380.382 134.308 382.331 132.182 384.812 132.182Z" fill="#323232"/>
<path d="M384.812 105.781C387.292 105.781 389.241 107.73 389.241 110.211C389.241 112.692 387.292 114.641 384.812 114.641C382.331 114.641 380.382 112.692 380.382 110.211C380.382 107.73 382.331 105.781 384.812 105.781Z" fill="#323232"/>
<path d="M384.812 79.3803C387.292 79.3803 389.241 81.3294 389.241 83.81C389.241 86.2907 387.292 88.2397 384.812 88.2397C382.331 88.2397 380.382 86.2907 380.382 83.81C380.382 81.3294 382.331 79.3803 384.812 79.3803Z" fill="#323232"/>
<path d="M384.812 52.979C387.292 52.979 389.241 54.928 389.241 57.4087C389.241 59.8893 387.292 61.8384 384.812 61.8384C382.331 61.8384 380.382 59.8893 380.382 57.4087C380.382 54.928 382.331 52.979 384.812 52.979Z" fill="#323232"/>
<path d="M384.812 26.4009C387.292 26.4009 389.241 28.3499 389.241 30.8306C389.241 33.3112 387.292 35.2603 384.812 35.2603C382.331 35.2603 380.382 33.3112 380.382 30.8306C380.382 28.5271 382.331 26.4009 384.812 26.4009Z" fill="#323232"/>
<path d="M384.812 -2.30818e-05C387.292 -2.31902e-05 389.241 1.94904 389.241 4.42968C389.241 6.91031 387.292 8.85937 384.812 8.85937C382.331 8.85937 380.382 6.91031 380.382 4.42968C380.382 1.94904 382.331 -2.29734e-05 384.812 -2.30818e-05Z" fill="#323232"/>
</g>
<defs>
<clipPath id="clip0">
<rect width="247" height="408.418" fill="white" transform="translate(0 247) rotate(-90)"/>
</clipPath>
</defs>
</svg>
