<svg width="399" height="195" viewBox="0 0 399 195" fill="none" xmlns="http://www.w3.org/2000/svg">
<path d="M393.812 9.03659C391.332 9.03659 389.383 7.08752 389.383 4.60689C389.205 1.94907 391.332 2.09044e-07 393.812 2.46294e-07C396.293 2.83543e-07 398.242 1.94907 398.242 4.4297C398.242 6.91033 396.293 9.03659 393.812 9.03659Z" fill="#EDEDED"/>
<path d="M393.812 9.03659C391.332 9.03659 389.383 7.08752 389.383 4.60689C389.205 1.94907 391.332 2.09044e-07 393.812 2.46294e-07C396.293 2.83543e-07 398.242 1.94907 398.242 4.4297C398.242 6.91033 396.293 9.03659 393.812 9.03659Z" fill="url(#paint0_linear)"/>
<path d="M393.812 35.4376C391.332 35.4376 389.383 33.4885 389.383 31.0079C389.383 28.5273 391.332 26.5782 393.812 26.5782C396.293 26.5782 398.242 28.5273 398.242 31.0079C398.242 33.4885 396.293 35.4376 393.812 35.4376Z" fill="#EDEDED"/>
<path d="M393.812 35.4376C391.332 35.4376 389.383 33.4885 389.383 31.0079C389.383 28.5273 391.332 26.5782 393.812 26.5782C396.293 26.5782 398.242 28.5273 398.242 31.0079C398.242 33.4885 396.293 35.4376 393.812 35.4376Z" fill="url(#paint1_linear)"/>
<path d="M393.812 61.8386C391.332 61.8386 389.383 59.8895 389.383 57.4089C389.383 54.9282 391.332 52.9792 393.812 52.9792C396.293 52.9792 398.242 54.9282 398.242 57.4089C398.242 59.8895 396.293 61.8386 393.812 61.8386Z" fill="#EDEDED"/>
<path d="M393.812 61.8386C391.332 61.8386 389.383 59.8895 389.383 57.4089C389.383 54.9282 391.332 52.9792 393.812 52.9792C396.293 52.9792 398.242 54.9282 398.242 57.4089C398.242 59.8895 396.293 61.8386 393.812 61.8386Z" fill="url(#paint2_linear)"/>
<path d="M393.812 88.2396C391.332 88.2396 389.383 86.2905 389.383 83.8099C389.383 81.3292 391.332 79.3802 393.812 79.3802C396.293 79.3802 398.242 81.3292 398.242 83.8099C398.242 86.2905 396.293 88.2396 393.812 88.2396Z" fill="#EDEDED"/>
<path d="M393.812 88.2396C391.332 88.2396 389.383 86.2905 389.383 83.8099C389.383 81.3292 391.332 79.3802 393.812 79.3802C396.293 79.3802 398.242 81.3292 398.242 83.8099C398.242 86.2905 396.293 88.2396 393.812 88.2396Z" fill="url(#paint3_linear)"/>
<path d="M393.812 114.818C391.332 114.818 389.383 112.869 389.383 110.388C389.383 107.907 391.332 105.958 393.812 105.958C396.293 105.958 398.242 107.73 398.242 110.211C398.242 112.692 396.293 114.818 393.812 114.818Z" fill="#EDEDED"/>
<path d="M393.812 114.818C391.332 114.818 389.383 112.869 389.383 110.388C389.383 107.907 391.332 105.958 393.812 105.958C396.293 105.958 398.242 107.73 398.242 110.211C398.242 112.692 396.293 114.818 393.812 114.818Z" fill="url(#paint4_linear)"/>
<path d="M393.812 141.219C391.332 141.219 389.383 139.27 389.383 136.789C389.383 134.308 391.332 132.359 393.812 132.359C396.293 132.359 398.242 134.131 398.242 136.789C398.242 139.27 396.293 141.219 393.812 141.219Z" fill="#EDEDED"/>
<path d="M393.812 141.219C391.332 141.219 389.383 139.27 389.383 136.789C389.383 134.308 391.332 132.359 393.812 132.359C396.293 132.359 398.242 134.131 398.242 136.789C398.242 139.27 396.293 141.219 393.812 141.219Z" fill="url(#paint5_linear)"/>
<path d="M393.812 167.62C391.332 167.62 389.383 165.671 389.383 163.19C389.383 160.709 391.332 158.76 393.812 158.76C396.293 158.76 398.242 160.709 398.242 163.19C398.242 165.671 396.293 167.62 393.812 167.62Z" fill="#EDEDED"/>
<path d="M393.812 167.62C391.332 167.62 389.383 165.671 389.383 163.19C389.383 160.709 391.332 158.76 393.812 158.76C396.293 158.76 398.242 160.709 398.242 163.19C398.242 165.671 396.293 167.62 393.812 167.62Z" fill="url(#paint6_linear)"/>
<path d="M393.812 194.021C391.332 194.021 389.383 192.072 389.383 189.591C389.383 187.111 391.332 185.161 393.812 185.161C396.293 185.161 398.242 187.111 398.242 189.591C398.242 192.072 396.293 194.021 393.812 194.021Z" fill="#EDEDED"/>
<path d="M393.812 194.021C391.332 194.021 389.383 192.072 389.383 189.591C389.383 187.111 391.332 185.161 393.812 185.161C396.293 185.161 398.242 187.111 398.242 189.591C398.242 192.072 396.293 194.021 393.812 194.021Z" fill="url(#paint7_linear)"/>
<path d="M367.057 9.03659C364.576 9.03659 362.627 7.08752 362.627 4.60689C362.627 1.94907 364.576 7.60957e-07 367.057 7.98206e-07C369.537 8.35456e-07 371.664 1.94907 371.664 4.4297C371.664 6.91033 369.537 9.03659 367.057 9.03659Z" fill="#EDEDED"/>
<path d="M367.057 9.03659C364.576 9.03659 362.627 7.08752 362.627 4.60689C362.627 1.94907 364.576 7.60957e-07 367.057 7.98206e-07C369.537 8.35456e-07 371.664 1.94907 371.664 4.4297C371.664 6.91033 369.537 9.03659 367.057 9.03659Z" fill="url(#paint8_linear)"/>
<path d="M367.057 35.4376C364.577 35.4376 362.628 33.4885 362.628 31.0079C362.628 28.5273 364.577 26.5782 367.057 26.5782C369.538 26.5782 371.487 28.5273 371.487 31.0079C371.664 33.4885 369.538 35.4376 367.057 35.4376Z" fill="#EDEDED"/>
<path d="M367.057 35.4376C364.577 35.4376 362.628 33.4885 362.628 31.0079C362.628 28.5273 364.577 26.5782 367.057 26.5782C369.538 26.5782 371.487 28.5273 371.487 31.0079C371.664 33.4885 369.538 35.4376 367.057 35.4376Z" fill="url(#paint9_linear)"/>
<path d="M367.057 61.8386C364.577 61.8386 362.628 59.8895 362.628 57.4089C362.628 54.9282 364.577 52.9792 367.057 52.9792C369.538 52.9792 371.664 54.9282 371.664 57.4089C371.664 59.8895 369.538 61.8386 367.057 61.8386Z" fill="#EDEDED"/>
<path d="M367.057 61.8386C364.577 61.8386 362.628 59.8895 362.628 57.4089C362.628 54.9282 364.577 52.9792 367.057 52.9792C369.538 52.9792 371.664 54.9282 371.664 57.4089C371.664 59.8895 369.538 61.8386 367.057 61.8386Z" fill="url(#paint10_linear)"/>
<path d="M367.057 88.2396C364.577 88.2396 362.628 86.2905 362.628 83.8099C362.628 81.3292 364.577 79.3802 367.057 79.3802C369.538 79.3802 371.487 81.3292 371.487 83.8099C371.487 86.2905 369.538 88.2396 367.057 88.2396Z" fill="#EDEDED"/>
<path d="M367.057 88.2396C364.577 88.2396 362.628 86.2905 362.628 83.8099C362.628 81.3292 364.577 79.3802 367.057 79.3802C369.538 79.3802 371.487 81.3292 371.487 83.8099C371.487 86.2905 369.538 88.2396 367.057 88.2396Z" fill="url(#paint11_linear)"/>
<path d="M367.057 114.818C364.577 114.818 362.628 112.869 362.628 110.388C362.628 107.907 364.577 105.958 367.057 105.958C369.538 105.958 371.487 107.907 371.487 110.388C371.664 112.692 369.538 114.818 367.057 114.818Z" fill="#EDEDED"/>
<path d="M367.057 114.818C364.577 114.818 362.628 112.869 362.628 110.388C362.628 107.907 364.577 105.958 367.057 105.958C369.538 105.958 371.487 107.907 371.487 110.388C371.664 112.692 369.538 114.818 367.057 114.818Z" fill="url(#paint12_linear)"/>
<path d="M367.057 141.219C364.577 141.219 362.628 139.27 362.628 136.789C362.628 134.308 364.577 132.359 367.057 132.359C369.538 132.359 371.487 134.308 371.487 136.789C371.664 139.27 369.538 141.219 367.057 141.219Z" fill="#EDEDED"/>
<path d="M367.057 141.219C364.577 141.219 362.628 139.27 362.628 136.789C362.628 134.308 364.577 132.359 367.057 132.359C369.538 132.359 371.487 134.308 371.487 136.789C371.664 139.27 369.538 141.219 367.057 141.219Z" fill="url(#paint13_linear)"/>
<path d="M367.057 167.62C364.577 167.62 362.628 165.671 362.628 163.19C362.628 160.709 364.577 158.76 367.057 158.76C369.538 158.76 371.487 160.709 371.487 163.19C371.664 165.671 369.538 167.62 367.057 167.62Z" fill="#EDEDED"/>
<path d="M367.057 167.62C364.577 167.62 362.628 165.671 362.628 163.19C362.628 160.709 364.577 158.76 367.057 158.76C369.538 158.76 371.487 160.709 371.487 163.19C371.664 165.671 369.538 167.62 367.057 167.62Z" fill="url(#paint14_linear)"/>
<path d="M367.057 194.021C364.577 194.021 362.628 192.072 362.628 189.591C362.628 187.111 364.577 185.161 367.057 185.161C369.538 185.161 371.487 187.111 371.487 189.591C371.664 192.072 369.538 194.021 367.057 194.021Z" fill="#EDEDED"/>
<path d="M367.057 194.021C364.577 194.021 362.628 192.072 362.628 189.591C362.628 187.111 364.577 185.161 367.057 185.161C369.538 185.161 371.487 187.111 371.487 189.591C371.664 192.072 369.538 194.021 367.057 194.021Z" fill="url(#paint15_linear)"/>
<path d="M340.478 9.03659C337.998 9.03659 336.049 7.08752 336.049 4.60689C336.049 1.94907 337.998 3.61855e-07 340.478 3.99104e-07C342.959 4.36354e-07 345.085 1.94907 345.085 4.4297C345.085 6.91033 342.959 9.03659 340.478 9.03659Z" fill="#EDEDED"/>
<path d="M340.478 9.03659C337.998 9.03659 336.049 7.08752 336.049 4.60689C336.049 1.94907 337.998 3.61855e-07 340.478 3.99104e-07C342.959 4.36354e-07 345.085 1.94907 345.085 4.4297C345.085 6.91033 342.959 9.03659 340.478 9.03659Z" fill="url(#paint16_linear)"/>
<path d="M340.479 35.4376C337.998 35.4376 336.049 33.4885 336.049 31.0079C336.049 28.5273 337.998 26.5782 340.479 26.5782C342.959 26.5782 344.908 28.5273 344.908 31.0079C345.086 33.4885 342.959 35.4376 340.479 35.4376Z" fill="#EDEDED"/>
<path d="M340.479 35.4376C337.998 35.4376 336.049 33.4885 336.049 31.0079C336.049 28.5273 337.998 26.5782 340.479 26.5782C342.959 26.5782 344.908 28.5273 344.908 31.0079C345.086 33.4885 342.959 35.4376 340.479 35.4376Z" fill="url(#paint17_linear)"/>
<path d="M340.479 61.8386C337.998 61.8386 336.049 59.8895 336.049 57.4089C336.049 54.9282 337.998 52.9792 340.479 52.9792C342.959 52.9792 344.908 54.9282 344.908 57.4089C345.086 59.8895 342.959 61.8386 340.479 61.8386Z" fill="#EDEDED"/>
<path d="M340.479 61.8386C337.998 61.8386 336.049 59.8895 336.049 57.4089C336.049 54.9282 337.998 52.9792 340.479 52.9792C342.959 52.9792 344.908 54.9282 344.908 57.4089C345.086 59.8895 342.959 61.8386 340.479 61.8386Z" fill="url(#paint18_linear)"/>
<path d="M340.479 88.2396C337.998 88.2396 336.049 86.2905 336.049 83.8099C336.049 81.3292 337.998 79.3802 340.479 79.3802C342.959 79.3802 344.908 81.3292 344.908 83.8099C344.908 86.2905 342.959 88.2396 340.479 88.2396Z" fill="#EDEDED"/>
<path d="M340.479 88.2396C337.998 88.2396 336.049 86.2905 336.049 83.8099C336.049 81.3292 337.998 79.3802 340.479 79.3802C342.959 79.3802 344.908 81.3292 344.908 83.8099C344.908 86.2905 342.959 88.2396 340.479 88.2396Z" fill="url(#paint19_linear)"/>
<path d="M340.479 114.818C337.998 114.818 336.049 112.869 336.049 110.388C336.049 107.907 337.998 105.958 340.479 105.958C342.959 105.958 344.908 107.907 344.908 110.388C345.086 112.692 342.959 114.818 340.479 114.818Z" fill="#EDEDED"/>
<path d="M340.479 114.818C337.998 114.818 336.049 112.869 336.049 110.388C336.049 107.907 337.998 105.958 340.479 105.958C342.959 105.958 344.908 107.907 344.908 110.388C345.086 112.692 342.959 114.818 340.479 114.818Z" fill="url(#paint20_linear)"/>
<path d="M340.479 141.219C337.998 141.219 336.049 139.27 336.049 136.789C336.049 134.308 337.998 132.359 340.479 132.359C342.959 132.359 344.908 134.308 344.908 136.789C345.086 139.27 342.959 141.219 340.479 141.219Z" fill="#EDEDED"/>
<path d="M340.479 141.219C337.998 141.219 336.049 139.27 336.049 136.789C336.049 134.308 337.998 132.359 340.479 132.359C342.959 132.359 344.908 134.308 344.908 136.789C345.086 139.27 342.959 141.219 340.479 141.219Z" fill="url(#paint21_linear)"/>
<path d="M340.479 167.62C337.998 167.62 336.049 165.671 336.049 163.19C336.049 160.709 337.998 158.76 340.479 158.76C342.959 158.76 344.908 160.709 344.908 163.19C345.086 165.671 342.959 167.62 340.479 167.62Z" fill="#EDEDED"/>
<path d="M340.479 167.62C337.998 167.62 336.049 165.671 336.049 163.19C336.049 160.709 337.998 158.76 340.479 158.76C342.959 158.76 344.908 160.709 344.908 163.19C345.086 165.671 342.959 167.62 340.479 167.62Z" fill="url(#paint22_linear)"/>
<path d="M340.479 194.021C337.998 194.021 336.049 192.072 336.049 189.591C336.049 187.111 337.998 185.161 340.479 185.161C342.959 185.161 344.908 187.111 344.908 189.591C345.086 192.072 342.959 194.021 340.479 194.021Z" fill="#EDEDED"/>
<path d="M340.479 194.021C337.998 194.021 336.049 192.072 336.049 189.591C336.049 187.111 337.998 185.161 340.479 185.161C342.959 185.161 344.908 187.111 344.908 189.591C345.086 192.072 342.959 194.021 340.479 194.021Z" fill="url(#paint23_linear)"/>
<path d="M313.9 9.03659C311.419 9.03659 309.47 7.08752 309.47 4.60689C309.293 1.94907 311.419 -3.72495e-08 313.9 0C316.381 3.72495e-08 318.33 1.94907 318.33 4.4297C318.33 6.91033 316.381 9.03659 313.9 9.03659Z" fill="#EDEDED"/>
<path d="M313.9 9.03659C311.419 9.03659 309.47 7.08752 309.47 4.60689C309.293 1.94907 311.419 -3.72495e-08 313.9 0C316.381 3.72495e-08 318.33 1.94907 318.33 4.4297C318.33 6.91033 316.381 9.03659 313.9 9.03659Z" fill="url(#paint24_linear)"/>
<path d="M313.901 35.4376C311.42 35.4376 309.471 33.4885 309.471 31.0079C309.471 28.5273 311.42 26.5782 313.901 26.5782C316.381 26.5782 318.33 28.5273 318.33 31.0079C318.33 33.4885 316.381 35.4376 313.901 35.4376Z" fill="#EDEDED"/>
<path d="M313.901 35.4376C311.42 35.4376 309.471 33.4885 309.471 31.0079C309.471 28.5273 311.42 26.5782 313.901 26.5782C316.381 26.5782 318.33 28.5273 318.33 31.0079C318.33 33.4885 316.381 35.4376 313.901 35.4376Z" fill="url(#paint25_linear)"/>
<path d="M313.901 61.8386C311.42 61.8386 309.471 59.8895 309.471 57.4089C309.471 54.9282 311.42 52.9792 313.901 52.9792C316.381 52.9792 318.33 54.9282 318.33 57.4089C318.33 59.8895 316.381 61.8386 313.901 61.8386Z" fill="#EDEDED"/>
<path d="M313.901 61.8386C311.42 61.8386 309.471 59.8895 309.471 57.4089C309.471 54.9282 311.42 52.9792 313.901 52.9792C316.381 52.9792 318.33 54.9282 318.33 57.4089C318.33 59.8895 316.381 61.8386 313.901 61.8386Z" fill="url(#paint26_linear)"/>
<path d="M313.901 88.2396C311.42 88.2396 309.471 86.2905 309.471 83.8099C309.471 81.3292 311.42 79.3802 313.901 79.3802C316.381 79.3802 318.33 81.3292 318.33 83.8099C318.33 86.2905 316.381 88.2396 313.901 88.2396Z" fill="#EDEDED"/>
<path d="M313.901 88.2396C311.42 88.2396 309.471 86.2905 309.471 83.8099C309.471 81.3292 311.42 79.3802 313.901 79.3802C316.381 79.3802 318.33 81.3292 318.33 83.8099C318.33 86.2905 316.381 88.2396 313.901 88.2396Z" fill="url(#paint27_linear)"/>
<path d="M313.901 114.818C311.42 114.818 309.471 112.869 309.471 110.388C309.471 107.907 311.42 105.958 313.901 105.958C316.381 105.958 318.33 107.907 318.33 110.388C318.33 112.692 316.381 114.818 313.901 114.818Z" fill="#EDEDED"/>
<path d="M313.901 114.818C311.42 114.818 309.471 112.869 309.471 110.388C309.471 107.907 311.42 105.958 313.901 105.958C316.381 105.958 318.33 107.907 318.33 110.388C318.33 112.692 316.381 114.818 313.901 114.818Z" fill="url(#paint28_linear)"/>
<path d="M313.901 141.219C311.42 141.219 309.471 139.27 309.471 136.789C309.471 134.308 311.42 132.359 313.901 132.359C316.381 132.359 318.33 134.308 318.33 136.789C318.33 139.27 316.381 141.219 313.901 141.219Z" fill="#EDEDED"/>
<path d="M313.901 141.219C311.42 141.219 309.471 139.27 309.471 136.789C309.471 134.308 311.42 132.359 313.901 132.359C316.381 132.359 318.33 134.308 318.33 136.789C318.33 139.27 316.381 141.219 313.901 141.219Z" fill="url(#paint29_linear)"/>
<path d="M313.901 167.62C311.42 167.62 309.471 165.671 309.471 163.19C309.471 160.709 311.42 158.76 313.901 158.76C316.381 158.76 318.33 160.709 318.33 163.19C318.33 165.671 316.381 167.62 313.901 167.62Z" fill="#EDEDED"/>
<path d="M313.901 167.62C311.42 167.62 309.471 165.671 309.471 163.19C309.471 160.709 311.42 158.76 313.901 158.76C316.381 158.76 318.33 160.709 318.33 163.19C318.33 165.671 316.381 167.62 313.901 167.62Z" fill="url(#paint30_linear)"/>
<path d="M313.901 194.021C311.42 194.021 309.471 192.072 309.471 189.591C309.471 187.111 311.42 185.161 313.901 185.161C316.381 185.161 318.33 187.111 318.33 189.591C318.33 192.072 316.381 194.021 313.901 194.021Z" fill="#EDEDED"/>
<path d="M313.901 194.021C311.42 194.021 309.471 192.072 309.471 189.591C309.471 187.111 311.42 185.161 313.901 185.161C316.381 185.161 318.33 187.111 318.33 189.591C318.33 192.072 316.381 194.021 313.901 194.021Z" fill="url(#paint31_linear)"/>
<path d="M287.322 9.03659C284.841 9.03659 282.892 7.08752 282.892 4.60689C282.715 1.94907 284.841 5.17327e-07 287.322 5.54576e-07C289.803 5.91826e-07 291.752 1.94907 291.752 4.4297C291.752 6.91033 289.803 9.03659 287.322 9.03659Z" fill="#EDEDED"/>
<path d="M287.322 9.03659C284.841 9.03659 282.892 7.08752 282.892 4.60689C282.715 1.94907 284.841 5.17327e-07 287.322 5.54576e-07C289.803 5.91826e-07 291.752 1.94907 291.752 4.4297C291.752 6.91033 289.803 9.03659 287.322 9.03659Z" fill="url(#paint32_linear)"/>
<path d="M287.322 35.4376C284.842 35.4376 282.892 33.4885 282.892 31.0079C282.892 28.5273 284.842 26.5782 287.322 26.5782C289.803 26.5782 291.752 28.5273 291.752 31.0079C291.752 33.4885 289.803 35.4376 287.322 35.4376Z" fill="#EDEDED"/>
<path d="M287.322 35.4376C284.842 35.4376 282.892 33.4885 282.892 31.0079C282.892 28.5273 284.842 26.5782 287.322 26.5782C289.803 26.5782 291.752 28.5273 291.752 31.0079C291.752 33.4885 289.803 35.4376 287.322 35.4376Z" fill="url(#paint33_linear)"/>
<path d="M287.322 61.8386C284.842 61.8386 282.892 59.8895 282.892 57.4089C282.892 54.9282 284.842 52.9792 287.322 52.9792C289.803 52.9792 291.752 54.9282 291.752 57.4089C291.752 59.8895 289.803 61.8386 287.322 61.8386Z" fill="#EDEDED"/>
<path d="M287.322 61.8386C284.842 61.8386 282.892 59.8895 282.892 57.4089C282.892 54.9282 284.842 52.9792 287.322 52.9792C289.803 52.9792 291.752 54.9282 291.752 57.4089C291.752 59.8895 289.803 61.8386 287.322 61.8386Z" fill="url(#paint34_linear)"/>
<path d="M287.322 88.2396C284.841 88.2396 282.892 86.2905 282.892 83.8099C282.892 81.3292 284.841 79.3802 287.322 79.3802C289.803 79.3802 291.752 81.3292 291.752 83.8099C291.752 86.2905 289.803 88.2396 287.322 88.2396Z" fill="#EDEDED"/>
<path d="M287.322 88.2396C284.841 88.2396 282.892 86.2905 282.892 83.8099C282.892 81.3292 284.841 79.3802 287.322 79.3802C289.803 79.3802 291.752 81.3292 291.752 83.8099C291.752 86.2905 289.803 88.2396 287.322 88.2396Z" fill="url(#paint35_linear)"/>
<path d="M287.322 114.818C284.841 114.818 282.892 112.869 282.892 110.388C282.892 107.907 284.841 105.958 287.322 105.958C289.803 105.958 291.752 107.907 291.752 110.388C291.752 112.692 289.803 114.818 287.322 114.818Z" fill="#EDEDED"/>
<path d="M287.322 114.818C284.841 114.818 282.892 112.869 282.892 110.388C282.892 107.907 284.841 105.958 287.322 105.958C289.803 105.958 291.752 107.907 291.752 110.388C291.752 112.692 289.803 114.818 287.322 114.818Z" fill="url(#paint36_linear)"/>
<path d="M287.322 141.219C284.841 141.219 282.892 139.27 282.892 136.789C282.892 134.308 284.841 132.359 287.322 132.359C289.803 132.359 291.752 134.308 291.752 136.789C291.752 139.27 289.803 141.219 287.322 141.219Z" fill="#EDEDED"/>
<path d="M287.322 141.219C284.841 141.219 282.892 139.27 282.892 136.789C282.892 134.308 284.841 132.359 287.322 132.359C289.803 132.359 291.752 134.308 291.752 136.789C291.752 139.27 289.803 141.219 287.322 141.219Z" fill="url(#paint37_linear)"/>
<path d="M287.322 167.62C284.841 167.62 282.892 165.671 282.892 163.19C282.892 160.709 284.841 158.76 287.322 158.76C289.803 158.76 291.752 160.709 291.752 163.19C291.752 165.671 289.803 167.62 287.322 167.62Z" fill="#EDEDED"/>
<path d="M287.322 167.62C284.841 167.62 282.892 165.671 282.892 163.19C282.892 160.709 284.841 158.76 287.322 158.76C289.803 158.76 291.752 160.709 291.752 163.19C291.752 165.671 289.803 167.62 287.322 167.62Z" fill="url(#paint38_linear)"/>
<path d="M287.322 194.021C284.841 194.021 282.892 192.072 282.892 189.591C282.892 187.111 284.841 185.161 287.322 185.161C289.803 185.161 291.752 187.111 291.752 189.591C291.752 192.072 289.803 194.021 287.322 194.021Z" fill="#EDEDED"/>
<path d="M287.322 194.021C284.841 194.021 282.892 192.072 282.892 189.591C282.892 187.111 284.841 185.161 287.322 185.161C289.803 185.161 291.752 187.111 291.752 189.591C291.752 192.072 289.803 194.021 287.322 194.021Z" fill="url(#paint39_linear)"/>
<path d="M260.566 9.03657C258.086 9.03657 256.137 7.0875 256.137 4.60687C256.137 2.12624 258.086 0.17717 260.566 0.17717C263.047 0.17717 264.996 2.12624 264.996 4.60687C265.173 6.91031 263.047 9.03657 260.566 9.03657Z" fill="#EDEDED"/>
<path d="M260.566 9.03657C258.086 9.03657 256.137 7.0875 256.137 4.60687C256.137 2.12624 258.086 0.17717 260.566 0.17717C263.047 0.17717 264.996 2.12624 264.996 4.60687C265.173 6.91031 263.047 9.03657 260.566 9.03657Z" fill="url(#paint40_linear)"/>
<path d="M260.567 35.4376C258.086 35.4376 256.137 33.4885 256.137 31.0079C256.137 28.5273 258.086 26.5782 260.567 26.5782C263.048 26.5782 264.997 28.5273 264.997 31.0079C265.174 33.4885 263.048 35.4376 260.567 35.4376Z" fill="#EDEDED"/>
<path d="M260.567 35.4376C258.086 35.4376 256.137 33.4885 256.137 31.0079C256.137 28.5273 258.086 26.5782 260.567 26.5782C263.048 26.5782 264.997 28.5273 264.997 31.0079C265.174 33.4885 263.048 35.4376 260.567 35.4376Z" fill="url(#paint41_linear)"/>
<path d="M260.567 61.8386C258.086 61.8386 256.137 59.8895 256.137 57.4089C256.137 54.9282 258.086 52.9792 260.567 52.9792C263.048 52.9792 264.997 54.9282 264.997 57.4089C265.174 59.8895 263.048 61.8386 260.567 61.8386Z" fill="#EDEDED"/>
<path d="M260.567 61.8386C258.086 61.8386 256.137 59.8895 256.137 57.4089C256.137 54.9282 258.086 52.9792 260.567 52.9792C263.048 52.9792 264.997 54.9282 264.997 57.4089C265.174 59.8895 263.048 61.8386 260.567 61.8386Z" fill="url(#paint42_linear)"/>
<path d="M260.567 88.2396C258.086 88.2396 256.137 86.2905 256.137 83.8099C256.137 81.3292 258.086 79.3802 260.567 79.3802C263.048 79.3802 264.997 81.3292 264.997 83.8099C264.997 86.2905 263.048 88.2396 260.567 88.2396Z" fill="#EDEDED"/>
<path d="M260.567 88.2396C258.086 88.2396 256.137 86.2905 256.137 83.8099C256.137 81.3292 258.086 79.3802 260.567 79.3802C263.048 79.3802 264.997 81.3292 264.997 83.8099C264.997 86.2905 263.048 88.2396 260.567 88.2396Z" fill="url(#paint43_linear)"/>
<path d="M260.567 114.818C258.086 114.818 256.137 112.869 256.137 110.388C256.137 107.907 258.086 105.958 260.567 105.958C263.048 105.958 264.997 107.907 264.997 110.388C265.174 112.692 263.048 114.818 260.567 114.818Z" fill="#EDEDED"/>
<path d="M260.567 114.818C258.086 114.818 256.137 112.869 256.137 110.388C256.137 107.907 258.086 105.958 260.567 105.958C263.048 105.958 264.997 107.907 264.997 110.388C265.174 112.692 263.048 114.818 260.567 114.818Z" fill="url(#paint44_linear)"/>
<path d="M260.567 141.219C258.086 141.219 256.137 139.27 256.137 136.789C256.137 134.308 258.086 132.359 260.567 132.359C263.048 132.359 264.997 134.308 264.997 136.789C265.174 139.27 263.048 141.219 260.567 141.219Z" fill="#EDEDED"/>
<path d="M260.567 141.219C258.086 141.219 256.137 139.27 256.137 136.789C256.137 134.308 258.086 132.359 260.567 132.359C263.048 132.359 264.997 134.308 264.997 136.789C265.174 139.27 263.048 141.219 260.567 141.219Z" fill="url(#paint45_linear)"/>
<path d="M260.567 167.62C258.086 167.62 256.137 165.671 256.137 163.19C256.137 160.709 258.086 158.76 260.567 158.76C263.048 158.76 264.997 160.709 264.997 163.19C265.174 165.671 263.048 167.62 260.567 167.62Z" fill="#EDEDED"/>
<path d="M260.567 167.62C258.086 167.62 256.137 165.671 256.137 163.19C256.137 160.709 258.086 158.76 260.567 158.76C263.048 158.76 264.997 160.709 264.997 163.19C265.174 165.671 263.048 167.62 260.567 167.62Z" fill="url(#paint46_linear)"/>
<path d="M260.567 194.021C258.086 194.021 256.137 192.072 256.137 189.591C256.137 187.111 258.086 185.161 260.567 185.161C263.048 185.161 264.997 187.111 264.997 189.591C265.174 192.072 263.048 194.021 260.567 194.021Z" fill="#EDEDED"/>
<path d="M260.567 194.021C258.086 194.021 256.137 192.072 256.137 189.591C256.137 187.111 258.086 185.161 260.567 185.161C263.048 185.161 264.997 187.111 264.997 189.591C265.174 192.072 263.048 194.021 260.567 194.021Z" fill="url(#paint47_linear)"/>
<path d="M233.987 9.03655C231.506 9.03655 229.557 7.08749 229.557 4.60685C229.557 2.12622 231.506 0.177155 233.987 0.177155C236.467 0.177155 238.416 2.12622 238.416 4.60685C238.594 6.9103 236.467 9.03655 233.987 9.03655Z" fill="#EDEDED"/>
<path d="M233.987 9.03655C231.506 9.03655 229.557 7.08749 229.557 4.60685C229.557 2.12622 231.506 0.177155 233.987 0.177155C236.467 0.177155 238.416 2.12622 238.416 4.60685C238.594 6.9103 236.467 9.03655 233.987 9.03655Z" fill="url(#paint48_linear)"/>
<path d="M233.988 35.4376C231.507 35.4376 229.558 33.4885 229.558 31.0079C229.558 28.5272 231.507 26.5782 233.988 26.5782C236.468 26.5782 238.417 28.5272 238.417 31.0079C238.595 33.4885 236.468 35.4376 233.988 35.4376Z" fill="#EDEDED"/>
<path d="M233.988 35.4376C231.507 35.4376 229.558 33.4885 229.558 31.0079C229.558 28.5272 231.507 26.5782 233.988 26.5782C236.468 26.5782 238.417 28.5272 238.417 31.0079C238.595 33.4885 236.468 35.4376 233.988 35.4376Z" fill="url(#paint49_linear)"/>
<path d="M233.988 61.8386C231.507 61.8386 229.558 59.8895 229.558 57.4089C229.558 54.9282 231.507 52.9792 233.988 52.9792C236.468 52.9792 238.417 54.9282 238.417 57.4089C238.595 59.8895 236.468 61.8386 233.988 61.8386Z" fill="#EDEDED"/>
<path d="M233.988 61.8386C231.507 61.8386 229.558 59.8895 229.558 57.4089C229.558 54.9282 231.507 52.9792 233.988 52.9792C236.468 52.9792 238.417 54.9282 238.417 57.4089C238.595 59.8895 236.468 61.8386 233.988 61.8386Z" fill="url(#paint50_linear)"/>
<path d="M233.988 88.2396C231.507 88.2396 229.558 86.2905 229.558 83.8099C229.558 81.3292 231.507 79.3802 233.988 79.3802C236.468 79.3802 238.418 81.3292 238.418 83.8099C238.418 86.2905 236.468 88.2396 233.988 88.2396Z" fill="#EDEDED"/>
<path d="M233.988 88.2396C231.507 88.2396 229.558 86.2905 229.558 83.8099C229.558 81.3292 231.507 79.3802 233.988 79.3802C236.468 79.3802 238.418 81.3292 238.418 83.8099C238.418 86.2905 236.468 88.2396 233.988 88.2396Z" fill="url(#paint51_linear)"/>
<path d="M233.988 114.818C231.507 114.818 229.558 112.869 229.558 110.388C229.558 107.907 231.507 105.958 233.988 105.958C236.468 105.958 238.417 107.907 238.417 110.388C238.595 112.692 236.468 114.818 233.988 114.818Z" fill="#EDEDED"/>
<path d="M233.988 114.818C231.507 114.818 229.558 112.869 229.558 110.388C229.558 107.907 231.507 105.958 233.988 105.958C236.468 105.958 238.417 107.907 238.417 110.388C238.595 112.692 236.468 114.818 233.988 114.818Z" fill="url(#paint52_linear)"/>
<path d="M233.988 141.219C231.507 141.219 229.558 139.27 229.558 136.789C229.558 134.308 231.507 132.359 233.988 132.359C236.468 132.359 238.417 134.308 238.417 136.789C238.595 139.27 236.468 141.219 233.988 141.219Z" fill="#EDEDED"/>
<path d="M233.988 141.219C231.507 141.219 229.558 139.27 229.558 136.789C229.558 134.308 231.507 132.359 233.988 132.359C236.468 132.359 238.417 134.308 238.417 136.789C238.595 139.27 236.468 141.219 233.988 141.219Z" fill="url(#paint53_linear)"/>
<path d="M233.988 167.62C231.507 167.62 229.558 165.671 229.558 163.19C229.558 160.709 231.507 158.76 233.988 158.76C236.468 158.76 238.417 160.709 238.417 163.19C238.595 165.671 236.468 167.62 233.988 167.62Z" fill="#EDEDED"/>
<path d="M233.988 167.62C231.507 167.62 229.558 165.671 229.558 163.19C229.558 160.709 231.507 158.76 233.988 158.76C236.468 158.76 238.417 160.709 238.417 163.19C238.595 165.671 236.468 167.62 233.988 167.62Z" fill="url(#paint54_linear)"/>
<path d="M233.988 194.021C231.507 194.021 229.558 192.072 229.558 189.591C229.558 187.111 231.507 185.161 233.988 185.161C236.468 185.161 238.417 187.111 238.417 189.591C238.595 192.072 236.468 194.021 233.988 194.021Z" fill="#EDEDED"/>
<path d="M233.988 194.021C231.507 194.021 229.558 192.072 229.558 189.591C229.558 187.111 231.507 185.161 233.988 185.161C236.468 185.161 238.417 187.111 238.417 189.591C238.595 192.072 236.468 194.021 233.988 194.021Z" fill="url(#paint55_linear)"/>
<path d="M207.41 9.03655C204.929 9.03655 202.98 7.08749 202.98 4.60685C202.98 2.12622 204.929 0.177155 207.41 0.177155C209.89 0.177155 211.84 2.12622 211.84 4.60685C211.84 6.9103 209.89 9.03655 207.41 9.03655Z" fill="#EDEDED"/>
<path d="M207.41 9.03655C204.929 9.03655 202.98 7.08749 202.98 4.60685C202.98 2.12622 204.929 0.177155 207.41 0.177155C209.89 0.177155 211.84 2.12622 211.84 4.60685C211.84 6.9103 209.89 9.03655 207.41 9.03655Z" fill="url(#paint56_linear)"/>
<path d="M207.41 35.4376C204.929 35.4376 202.98 33.4885 202.98 31.0079C202.98 28.5272 204.929 26.5782 207.41 26.5782C209.891 26.5782 211.84 28.5272 211.84 31.0079C211.84 33.4885 209.891 35.4376 207.41 35.4376Z" fill="#EDEDED"/>
<path d="M207.41 35.4376C204.929 35.4376 202.98 33.4885 202.98 31.0079C202.98 28.5272 204.929 26.5782 207.41 26.5782C209.891 26.5782 211.84 28.5272 211.84 31.0079C211.84 33.4885 209.891 35.4376 207.41 35.4376Z" fill="url(#paint57_linear)"/>
<path d="M207.41 61.8386C204.929 61.8386 202.98 59.8895 202.98 57.4089C202.98 54.9282 204.929 52.9792 207.41 52.9792C209.891 52.9792 211.84 54.9282 211.84 57.4089C211.84 59.8895 209.891 61.8386 207.41 61.8386Z" fill="#EDEDED"/>
<path d="M207.41 61.8386C204.929 61.8386 202.98 59.8895 202.98 57.4089C202.98 54.9282 204.929 52.9792 207.41 52.9792C209.891 52.9792 211.84 54.9282 211.84 57.4089C211.84 59.8895 209.891 61.8386 207.41 61.8386Z" fill="url(#paint58_linear)"/>
<path d="M207.41 88.2396C204.929 88.2396 202.98 86.2905 202.98 83.8099C202.98 81.3292 204.929 79.3802 207.41 79.3802C209.891 79.3802 211.84 81.3292 211.84 83.8099C211.84 86.2905 209.891 88.2396 207.41 88.2396Z" fill="#EDEDED"/>
<path d="M207.41 88.2396C204.929 88.2396 202.98 86.2905 202.98 83.8099C202.98 81.3292 204.929 79.3802 207.41 79.3802C209.891 79.3802 211.84 81.3292 211.84 83.8099C211.84 86.2905 209.891 88.2396 207.41 88.2396Z" fill="url(#paint59_linear)"/>
<path d="M207.41 114.818C204.929 114.818 202.98 112.869 202.98 110.388C202.98 107.907 204.929 105.958 207.41 105.958C209.891 105.958 211.84 107.907 211.84 110.388C211.84 112.692 209.891 114.818 207.41 114.818Z" fill="#EDEDED"/>
<path d="M207.41 114.818C204.929 114.818 202.98 112.869 202.98 110.388C202.98 107.907 204.929 105.958 207.41 105.958C209.891 105.958 211.84 107.907 211.84 110.388C211.84 112.692 209.891 114.818 207.41 114.818Z" fill="url(#paint60_linear)"/>
<path d="M207.41 141.219C204.929 141.219 202.98 139.27 202.98 136.789C202.98 134.308 204.929 132.359 207.41 132.359C209.891 132.359 211.84 134.308 211.84 136.789C211.84 139.27 209.891 141.219 207.41 141.219Z" fill="#EDEDED"/>
<path d="M207.41 141.219C204.929 141.219 202.98 139.27 202.98 136.789C202.98 134.308 204.929 132.359 207.41 132.359C209.891 132.359 211.84 134.308 211.84 136.789C211.84 139.27 209.891 141.219 207.41 141.219Z" fill="url(#paint61_linear)"/>
<path d="M207.41 167.62C204.929 167.62 202.98 165.671 202.98 163.19C202.98 160.709 204.929 158.76 207.41 158.76C209.891 158.76 211.84 160.709 211.84 163.19C211.84 165.671 209.891 167.62 207.41 167.62Z" fill="#EDEDED"/>
<path d="M207.41 167.62C204.929 167.62 202.98 165.671 202.98 163.19C202.98 160.709 204.929 158.76 207.41 158.76C209.891 158.76 211.84 160.709 211.84 163.19C211.84 165.671 209.891 167.62 207.41 167.62Z" fill="url(#paint62_linear)"/>
<path d="M207.41 194.021C204.929 194.021 202.98 192.072 202.98 189.591C202.98 187.111 204.929 185.161 207.41 185.161C209.891 185.161 211.84 187.111 211.84 189.591C211.84 192.072 209.891 194.021 207.41 194.021Z" fill="#EDEDED"/>
<path d="M207.41 194.021C204.929 194.021 202.98 192.072 202.98 189.591C202.98 187.111 204.929 185.161 207.41 185.161C209.891 185.161 211.84 187.111 211.84 189.591C211.84 192.072 209.891 194.021 207.41 194.021Z" fill="url(#paint63_linear)"/>
<path d="M180.831 9.03657C178.351 9.03657 176.402 7.0875 176.402 4.60687C176.402 2.12624 178.351 0.17717 180.831 0.17717C183.312 0.17717 185.261 2.12624 185.261 4.60687C185.261 6.91031 183.312 9.03657 180.831 9.03657Z" fill="#EDEDED"/>
<path d="M180.831 9.03657C178.351 9.03657 176.402 7.0875 176.402 4.60687C176.402 2.12624 178.351 0.17717 180.831 0.17717C183.312 0.17717 185.261 2.12624 185.261 4.60687C185.261 6.91031 183.312 9.03657 180.831 9.03657Z" fill="url(#paint64_linear)"/>
<path d="M180.832 35.4376C178.351 35.4376 176.402 33.4885 176.402 31.0079C176.402 28.5273 178.351 26.5782 180.832 26.5782C183.313 26.5782 185.262 28.5273 185.262 31.0079C185.262 33.4885 183.313 35.4376 180.832 35.4376Z" fill="#EDEDED"/>
<path d="M180.832 35.4376C178.351 35.4376 176.402 33.4885 176.402 31.0079C176.402 28.5273 178.351 26.5782 180.832 26.5782C183.313 26.5782 185.262 28.5273 185.262 31.0079C185.262 33.4885 183.313 35.4376 180.832 35.4376Z" fill="url(#paint65_linear)"/>
<path d="M180.832 61.8386C178.351 61.8386 176.402 59.8895 176.402 57.4089C176.402 54.9283 178.351 52.9792 180.832 52.9792C183.313 52.9792 185.262 54.9283 185.262 57.4089C185.262 59.8895 183.313 61.8386 180.832 61.8386Z" fill="#EDEDED"/>
<path d="M180.832 61.8386C178.351 61.8386 176.402 59.8895 176.402 57.4089C176.402 54.9283 178.351 52.9792 180.832 52.9792C183.313 52.9792 185.262 54.9283 185.262 57.4089C185.262 59.8895 183.313 61.8386 180.832 61.8386Z" fill="url(#paint66_linear)"/>
<path d="M180.832 88.2396C178.351 88.2396 176.402 86.2905 176.402 83.8099C176.402 81.3293 178.351 79.3802 180.832 79.3802C183.313 79.3802 185.262 81.3293 185.262 83.8099C185.262 86.2905 183.313 88.2396 180.832 88.2396Z" fill="#EDEDED"/>
<path d="M180.832 88.2396C178.351 88.2396 176.402 86.2905 176.402 83.8099C176.402 81.3293 178.351 79.3802 180.832 79.3802C183.313 79.3802 185.262 81.3293 185.262 83.8099C185.262 86.2905 183.313 88.2396 180.832 88.2396Z" fill="url(#paint67_linear)"/>
<path d="M180.832 114.818C178.351 114.818 176.402 112.869 176.402 110.388C176.402 107.907 178.351 105.958 180.832 105.958C183.313 105.958 185.262 107.907 185.262 110.388C185.262 112.692 183.313 114.818 180.832 114.818Z" fill="#EDEDED"/>
<path d="M180.832 114.818C178.351 114.818 176.402 112.869 176.402 110.388C176.402 107.907 178.351 105.958 180.832 105.958C183.313 105.958 185.262 107.907 185.262 110.388C185.262 112.692 183.313 114.818 180.832 114.818Z" fill="url(#paint68_linear)"/>
<path d="M180.832 141.219C178.351 141.219 176.402 139.27 176.402 136.789C176.402 134.308 178.351 132.359 180.832 132.359C183.313 132.359 185.262 134.308 185.262 136.789C185.262 139.27 183.313 141.219 180.832 141.219Z" fill="#EDEDED"/>
<path d="M180.832 141.219C178.351 141.219 176.402 139.27 176.402 136.789C176.402 134.308 178.351 132.359 180.832 132.359C183.313 132.359 185.262 134.308 185.262 136.789C185.262 139.27 183.313 141.219 180.832 141.219Z" fill="url(#paint69_linear)"/>
<path d="M180.832 167.62C178.351 167.62 176.402 165.671 176.402 163.19C176.402 160.709 178.351 158.76 180.832 158.76C183.313 158.76 185.262 160.709 185.262 163.19C185.262 165.671 183.313 167.62 180.832 167.62Z" fill="#EDEDED"/>
<path d="M180.832 167.62C178.351 167.62 176.402 165.671 176.402 163.19C176.402 160.709 178.351 158.76 180.832 158.76C183.313 158.76 185.262 160.709 185.262 163.19C185.262 165.671 183.313 167.62 180.832 167.62Z" fill="url(#paint70_linear)"/>
<path d="M180.832 194.021C178.351 194.021 176.402 192.072 176.402 189.591C176.402 187.11 178.351 185.161 180.832 185.161C183.313 185.161 185.262 187.11 185.262 189.591C185.262 192.072 183.313 194.021 180.832 194.021Z" fill="#EDEDED"/>
<path d="M180.832 194.021C178.351 194.021 176.402 192.072 176.402 189.591C176.402 187.11 178.351 185.161 180.832 185.161C183.313 185.161 185.262 187.11 185.262 189.591C185.262 192.072 183.313 194.021 180.832 194.021Z" fill="url(#paint71_linear)"/>
<path d="M154.077 9.03657C151.597 9.03657 149.648 7.0875 149.648 4.60687C149.648 2.12624 151.597 0.17717 154.077 0.17717C156.558 0.17717 158.507 2.12624 158.507 4.60687C158.684 6.91031 156.558 9.03657 154.077 9.03657Z" fill="#EDEDED"/>
<path d="M154.077 9.03657C151.597 9.03657 149.648 7.0875 149.648 4.60687C149.648 2.12624 151.597 0.17717 154.077 0.17717C156.558 0.17717 158.507 2.12624 158.507 4.60687C158.684 6.91031 156.558 9.03657 154.077 9.03657Z" fill="url(#paint72_linear)"/>
<path d="M154.078 35.4376C151.597 35.4376 149.648 33.4885 149.648 31.0079C149.648 28.5273 151.597 26.5782 154.078 26.5782C156.558 26.5782 158.507 28.5273 158.507 31.0079C158.685 33.4885 156.558 35.4376 154.078 35.4376Z" fill="#EDEDED"/>
<path d="M154.078 35.4376C151.597 35.4376 149.648 33.4885 149.648 31.0079C149.648 28.5273 151.597 26.5782 154.078 26.5782C156.558 26.5782 158.507 28.5273 158.507 31.0079C158.685 33.4885 156.558 35.4376 154.078 35.4376Z" fill="url(#paint73_linear)"/>
<path d="M154.078 61.8386C151.597 61.8386 149.648 59.8895 149.648 57.4089C149.648 54.9283 151.597 52.9792 154.078 52.9792C156.558 52.9792 158.507 54.9283 158.507 57.4089C158.685 59.8895 156.558 61.8386 154.078 61.8386Z" fill="#EDEDED"/>
<path d="M154.078 61.8386C151.597 61.8386 149.648 59.8895 149.648 57.4089C149.648 54.9283 151.597 52.9792 154.078 52.9792C156.558 52.9792 158.507 54.9283 158.507 57.4089C158.685 59.8895 156.558 61.8386 154.078 61.8386Z" fill="url(#paint74_linear)"/>
<path d="M154.078 88.2396C151.597 88.2396 149.648 86.2905 149.648 83.8099C149.648 81.3293 151.597 79.3802 154.078 79.3802C156.558 79.3802 158.507 81.3293 158.507 83.8099C158.507 86.2905 156.558 88.2396 154.078 88.2396Z" fill="#EDEDED"/>
<path d="M154.078 88.2396C151.597 88.2396 149.648 86.2905 149.648 83.8099C149.648 81.3293 151.597 79.3802 154.078 79.3802C156.558 79.3802 158.507 81.3293 158.507 83.8099C158.507 86.2905 156.558 88.2396 154.078 88.2396Z" fill="url(#paint75_linear)"/>
<path d="M154.078 114.818C151.597 114.818 149.648 112.869 149.648 110.388C149.648 107.907 151.597 105.958 154.078 105.958C156.558 105.958 158.507 107.907 158.507 110.388C158.685 112.692 156.558 114.818 154.078 114.818Z" fill="#EDEDED"/>
<path d="M154.078 114.818C151.597 114.818 149.648 112.869 149.648 110.388C149.648 107.907 151.597 105.958 154.078 105.958C156.558 105.958 158.507 107.907 158.507 110.388C158.685 112.692 156.558 114.818 154.078 114.818Z" fill="url(#paint76_linear)"/>
<path d="M154.078 141.219C151.597 141.219 149.648 139.27 149.648 136.789C149.648 134.308 151.597 132.359 154.078 132.359C156.558 132.359 158.507 134.308 158.507 136.789C158.685 139.27 156.558 141.219 154.078 141.219Z" fill="#EDEDED"/>
<path d="M154.078 141.219C151.597 141.219 149.648 139.27 149.648 136.789C149.648 134.308 151.597 132.359 154.078 132.359C156.558 132.359 158.507 134.308 158.507 136.789C158.685 139.27 156.558 141.219 154.078 141.219Z" fill="url(#paint77_linear)"/>
<path d="M154.078 167.62C151.597 167.62 149.648 165.671 149.648 163.19C149.648 160.709 151.597 158.76 154.078 158.76C156.558 158.76 158.507 160.709 158.507 163.19C158.685 165.671 156.558 167.62 154.078 167.62Z" fill="#EDEDED"/>
<path d="M154.078 167.62C151.597 167.62 149.648 165.671 149.648 163.19C149.648 160.709 151.597 158.76 154.078 158.76C156.558 158.76 158.507 160.709 158.507 163.19C158.685 165.671 156.558 167.62 154.078 167.62Z" fill="url(#paint78_linear)"/>
<path d="M154.078 194.021C151.597 194.021 149.648 192.072 149.648 189.591C149.648 187.111 151.597 185.161 154.078 185.161C156.558 185.161 158.507 187.111 158.507 189.591C158.685 192.072 156.558 194.021 154.078 194.021Z" fill="#EDEDED"/>
<path d="M154.078 194.021C151.597 194.021 149.648 192.072 149.648 189.591C149.648 187.111 151.597 185.161 154.078 185.161C156.558 185.161 158.507 187.111 158.507 189.591C158.685 192.072 156.558 194.021 154.078 194.021Z" fill="url(#paint79_linear)"/>
<path d="M127.498 9.03657C125.017 9.03657 123.068 7.0875 123.068 4.60687C123.068 2.12624 125.017 0.17717 127.498 0.17717C129.978 0.17717 131.928 2.12624 131.928 4.60687C132.105 6.91031 129.978 9.03657 127.498 9.03657Z" fill="#EDEDED"/>
<path d="M127.498 9.03657C125.017 9.03657 123.068 7.0875 123.068 4.60687C123.068 2.12624 125.017 0.17717 127.498 0.17717C129.978 0.17717 131.928 2.12624 131.928 4.60687C132.105 6.91031 129.978 9.03657 127.498 9.03657Z" fill="url(#paint80_linear)"/>
<path d="M127.499 35.4376C125.018 35.4376 123.069 33.4885 123.069 31.0079C123.069 28.5273 125.018 26.5782 127.499 26.5782C129.98 26.5782 131.929 28.5273 131.929 31.0079C132.106 33.4885 129.98 35.4376 127.499 35.4376Z" fill="#EDEDED"/>
<path d="M127.499 35.4376C125.018 35.4376 123.069 33.4885 123.069 31.0079C123.069 28.5273 125.018 26.5782 127.499 26.5782C129.98 26.5782 131.929 28.5273 131.929 31.0079C132.106 33.4885 129.98 35.4376 127.499 35.4376Z" fill="url(#paint81_linear)"/>
<path d="M127.499 61.8386C125.018 61.8386 123.069 59.8895 123.069 57.4089C123.069 54.9282 125.018 52.9792 127.499 52.9792C129.98 52.9792 131.929 54.9282 131.929 57.4089C132.106 59.8895 129.98 61.8386 127.499 61.8386Z" fill="#EDEDED"/>
<path d="M127.499 61.8386C125.018 61.8386 123.069 59.8895 123.069 57.4089C123.069 54.9282 125.018 52.9792 127.499 52.9792C129.98 52.9792 131.929 54.9282 131.929 57.4089C132.106 59.8895 129.98 61.8386 127.499 61.8386Z" fill="url(#paint82_linear)"/>
<path d="M127.499 88.2396C125.018 88.2396 123.069 86.2905 123.069 83.8099C123.069 81.3292 125.018 79.3802 127.499 79.3802C129.98 79.3802 131.929 81.3292 131.929 83.8099C131.929 86.2905 129.98 88.2396 127.499 88.2396Z" fill="#EDEDED"/>
<path d="M127.499 88.2396C125.018 88.2396 123.069 86.2905 123.069 83.8099C123.069 81.3292 125.018 79.3802 127.499 79.3802C129.98 79.3802 131.929 81.3292 131.929 83.8099C131.929 86.2905 129.98 88.2396 127.499 88.2396Z" fill="url(#paint83_linear)"/>
<path d="M127.499 114.818C125.018 114.818 123.069 112.869 123.069 110.388C123.069 107.907 125.018 105.958 127.499 105.958C129.98 105.958 131.929 107.907 131.929 110.388C132.106 112.692 129.98 114.818 127.499 114.818Z" fill="#EDEDED"/>
<path d="M127.499 114.818C125.018 114.818 123.069 112.869 123.069 110.388C123.069 107.907 125.018 105.958 127.499 105.958C129.98 105.958 131.929 107.907 131.929 110.388C132.106 112.692 129.98 114.818 127.499 114.818Z" fill="url(#paint84_linear)"/>
<path d="M127.499 141.219C125.018 141.219 123.069 139.27 123.069 136.789C123.069 134.308 125.018 132.359 127.499 132.359C129.98 132.359 131.929 134.308 131.929 136.789C132.106 139.27 129.98 141.219 127.499 141.219Z" fill="#EDEDED"/>
<path d="M127.499 141.219C125.018 141.219 123.069 139.27 123.069 136.789C123.069 134.308 125.018 132.359 127.499 132.359C129.98 132.359 131.929 134.308 131.929 136.789C132.106 139.27 129.98 141.219 127.499 141.219Z" fill="url(#paint85_linear)"/>
<path d="M127.499 167.62C125.018 167.62 123.069 165.671 123.069 163.19C123.069 160.709 125.018 158.76 127.499 158.76C129.98 158.76 131.929 160.709 131.929 163.19C132.106 165.671 129.98 167.62 127.499 167.62Z" fill="#EDEDED"/>
<path d="M127.499 167.62C125.018 167.62 123.069 165.671 123.069 163.19C123.069 160.709 125.018 158.76 127.499 158.76C129.98 158.76 131.929 160.709 131.929 163.19C132.106 165.671 129.98 167.62 127.499 167.62Z" fill="url(#paint86_linear)"/>
<path d="M127.499 194.021C125.018 194.021 123.069 192.072 123.069 189.591C123.069 187.11 125.018 185.161 127.499 185.161C129.98 185.161 131.929 187.11 131.929 189.591C132.106 192.072 129.98 194.021 127.499 194.021Z" fill="#EDEDED"/>
<path d="M127.499 194.021C125.018 194.021 123.069 192.072 123.069 189.591C123.069 187.11 125.018 185.161 127.499 185.161C129.98 185.161 131.929 187.11 131.929 189.591C132.106 192.072 129.98 194.021 127.499 194.021Z" fill="url(#paint87_linear)"/>
<path d="M100.921 9.03657C98.4399 9.03657 96.4909 7.0875 96.4909 4.60687C96.4909 2.12624 98.4399 0.17717 100.921 0.17717C103.401 0.17717 105.35 2.12624 105.35 4.60687C105.35 6.91031 103.401 9.03657 100.921 9.03657Z" fill="#EDEDED"/>
<path d="M100.921 9.03657C98.4399 9.03657 96.4909 7.0875 96.4909 4.60687C96.4909 2.12624 98.4399 0.17717 100.921 0.17717C103.401 0.17717 105.35 2.12624 105.35 4.60687C105.35 6.91031 103.401 9.03657 100.921 9.03657Z" fill="url(#paint88_linear)"/>
<path d="M100.921 35.4376C98.4406 35.4376 96.4916 33.4885 96.4916 31.0079C96.4916 28.5273 98.4406 26.5782 100.921 26.5782C103.402 26.5782 105.351 28.5273 105.351 31.0079C105.351 33.4885 103.402 35.4376 100.921 35.4376Z" fill="#EDEDED"/>
<path d="M100.921 35.4376C98.4406 35.4376 96.4916 33.4885 96.4916 31.0079C96.4916 28.5273 98.4406 26.5782 100.921 26.5782C103.402 26.5782 105.351 28.5273 105.351 31.0079C105.351 33.4885 103.402 35.4376 100.921 35.4376Z" fill="url(#paint89_linear)"/>
<path d="M100.921 61.8386C98.4406 61.8386 96.4916 59.8895 96.4916 57.4089C96.4916 54.9282 98.4406 52.9792 100.921 52.9792C103.402 52.9792 105.351 54.9282 105.351 57.4089C105.351 59.8895 103.402 61.8386 100.921 61.8386Z" fill="#EDEDED"/>
<path d="M100.921 61.8386C98.4406 61.8386 96.4916 59.8895 96.4916 57.4089C96.4916 54.9282 98.4406 52.9792 100.921 52.9792C103.402 52.9792 105.351 54.9282 105.351 57.4089C105.351 59.8895 103.402 61.8386 100.921 61.8386Z" fill="url(#paint90_linear)"/>
<path d="M100.921 88.2396C98.4406 88.2396 96.4916 86.2905 96.4916 83.8099C96.4916 81.3292 98.4406 79.3802 100.921 79.3802C103.402 79.3802 105.351 81.3292 105.351 83.8099C105.351 86.2905 103.402 88.2396 100.921 88.2396Z" fill="#EDEDED"/>
<path d="M100.921 88.2396C98.4406 88.2396 96.4916 86.2905 96.4916 83.8099C96.4916 81.3292 98.4406 79.3802 100.921 79.3802C103.402 79.3802 105.351 81.3292 105.351 83.8099C105.351 86.2905 103.402 88.2396 100.921 88.2396Z" fill="url(#paint91_linear)"/>
<path d="M100.921 114.818C98.4406 114.818 96.4916 112.869 96.4916 110.388C96.4916 107.907 98.4406 105.958 100.921 105.958C103.402 105.958 105.351 107.907 105.351 110.388C105.351 112.692 103.402 114.818 100.921 114.818Z" fill="#EDEDED"/>
<path d="M100.921 114.818C98.4406 114.818 96.4916 112.869 96.4916 110.388C96.4916 107.907 98.4406 105.958 100.921 105.958C103.402 105.958 105.351 107.907 105.351 110.388C105.351 112.692 103.402 114.818 100.921 114.818Z" fill="url(#paint92_linear)"/>
<path d="M100.921 141.219C98.4406 141.219 96.4916 139.27 96.4916 136.789C96.4916 134.308 98.4406 132.359 100.921 132.359C103.402 132.359 105.351 134.308 105.351 136.789C105.351 139.27 103.402 141.219 100.921 141.219Z" fill="#EDEDED"/>
<path d="M100.921 141.219C98.4406 141.219 96.4916 139.27 96.4916 136.789C96.4916 134.308 98.4406 132.359 100.921 132.359C103.402 132.359 105.351 134.308 105.351 136.789C105.351 139.27 103.402 141.219 100.921 141.219Z" fill="url(#paint93_linear)"/>
<path d="M100.921 167.62C98.4406 167.62 96.4916 165.671 96.4916 163.19C96.4916 160.709 98.4406 158.76 100.921 158.76C103.402 158.76 105.351 160.709 105.351 163.19C105.351 165.671 103.402 167.62 100.921 167.62Z" fill="#EDEDED"/>
<path d="M100.921 167.62C98.4406 167.62 96.4916 165.671 96.4916 163.19C96.4916 160.709 98.4406 158.76 100.921 158.76C103.402 158.76 105.351 160.709 105.351 163.19C105.351 165.671 103.402 167.62 100.921 167.62Z" fill="url(#paint94_linear)"/>
<path d="M100.921 194.021C98.4406 194.021 96.4916 192.072 96.4916 189.591C96.4916 187.11 98.4406 185.161 100.921 185.161C103.402 185.161 105.351 187.11 105.351 189.591C105.351 192.072 103.402 194.021 100.921 194.021Z" fill="#EDEDED"/>
<path d="M100.921 194.021C98.4406 194.021 96.4916 192.072 96.4916 189.591C96.4916 187.11 98.4406 185.161 100.921 185.161C103.402 185.161 105.351 187.11 105.351 189.591C105.351 192.072 103.402 194.021 100.921 194.021Z" fill="url(#paint95_linear)"/>
<path d="M74.3416 9.03657C71.861 9.03657 69.9119 7.0875 69.9119 4.60687C69.9119 2.12624 71.861 0.17717 74.3416 0.17717C76.8223 0.17717 78.7713 2.12624 78.7713 4.60687C78.7713 6.91031 76.8223 9.03657 74.3416 9.03657Z" fill="#EDEDED"/>
<path d="M74.3416 9.03657C71.861 9.03657 69.9119 7.0875 69.9119 4.60687C69.9119 2.12624 71.861 0.17717 74.3416 0.17717C76.8223 0.17717 78.7713 2.12624 78.7713 4.60687C78.7713 6.91031 76.8223 9.03657 74.3416 9.03657Z" fill="url(#paint96_linear)"/>
<path d="M74.3422 35.4376C71.8615 35.4376 69.9125 33.4885 69.9125 31.0079C69.9125 28.5273 71.8615 26.5782 74.3422 26.5782C76.8228 26.5782 78.7719 28.5273 78.7719 31.0079C78.7719 33.4885 76.8228 35.4376 74.3422 35.4376Z" fill="#EDEDED"/>
<path d="M74.3422 35.4376C71.8615 35.4376 69.9125 33.4885 69.9125 31.0079C69.9125 28.5273 71.8615 26.5782 74.3422 26.5782C76.8228 26.5782 78.7719 28.5273 78.7719 31.0079C78.7719 33.4885 76.8228 35.4376 74.3422 35.4376Z" fill="url(#paint97_linear)"/>
<path d="M74.3422 61.8386C71.8615 61.8386 69.9125 59.8895 69.9125 57.4089C69.9125 54.9282 71.8615 52.9792 74.3422 52.9792C76.8228 52.9792 78.7719 54.9282 78.7719 57.4089C78.7719 59.8895 76.8228 61.8386 74.3422 61.8386Z" fill="#EDEDED"/>
<path d="M74.3422 61.8386C71.8615 61.8386 69.9125 59.8895 69.9125 57.4089C69.9125 54.9282 71.8615 52.9792 74.3422 52.9792C76.8228 52.9792 78.7719 54.9282 78.7719 57.4089C78.7719 59.8895 76.8228 61.8386 74.3422 61.8386Z" fill="url(#paint98_linear)"/>
<path d="M74.3422 88.2396C71.8615 88.2396 69.9125 86.2905 69.9125 83.8099C69.9125 81.3292 71.8615 79.3802 74.3422 79.3802C76.8228 79.3802 78.7719 81.3292 78.7719 83.8099C78.7719 86.2905 76.8228 88.2396 74.3422 88.2396Z" fill="#EDEDED"/>
<path d="M74.3422 88.2396C71.8615 88.2396 69.9125 86.2905 69.9125 83.8099C69.9125 81.3292 71.8615 79.3802 74.3422 79.3802C76.8228 79.3802 78.7719 81.3292 78.7719 83.8099C78.7719 86.2905 76.8228 88.2396 74.3422 88.2396Z" fill="url(#paint99_linear)"/>
<path d="M74.3422 114.818C71.8615 114.818 69.9125 112.869 69.9125 110.388C69.9125 107.907 71.8615 105.958 74.3422 105.958C76.8228 105.958 78.7719 107.907 78.7719 110.388C78.7719 112.692 76.8228 114.818 74.3422 114.818Z" fill="#EDEDED"/>
<path d="M74.3422 114.818C71.8615 114.818 69.9125 112.869 69.9125 110.388C69.9125 107.907 71.8615 105.958 74.3422 105.958C76.8228 105.958 78.7719 107.907 78.7719 110.388C78.7719 112.692 76.8228 114.818 74.3422 114.818Z" fill="url(#paint100_linear)"/>
<path d="M74.3422 141.219C71.8615 141.219 69.9125 139.27 69.9125 136.789C69.9125 134.308 71.8615 132.359 74.3422 132.359C76.8228 132.359 78.7719 134.308 78.7719 136.789C78.7719 139.27 76.8228 141.219 74.3422 141.219Z" fill="#EDEDED"/>
<path d="M74.3422 141.219C71.8615 141.219 69.9125 139.27 69.9125 136.789C69.9125 134.308 71.8615 132.359 74.3422 132.359C76.8228 132.359 78.7719 134.308 78.7719 136.789C78.7719 139.27 76.8228 141.219 74.3422 141.219Z" fill="url(#paint101_linear)"/>
<path d="M74.3422 167.62C71.8615 167.62 69.9125 165.671 69.9125 163.19C69.9125 160.709 71.8615 158.76 74.3422 158.76C76.8228 158.76 78.7719 160.709 78.7719 163.19C78.7719 165.671 76.8228 167.62 74.3422 167.62Z" fill="#EDEDED"/>
<path d="M74.3422 167.62C71.8615 167.62 69.9125 165.671 69.9125 163.19C69.9125 160.709 71.8615 158.76 74.3422 158.76C76.8228 158.76 78.7719 160.709 78.7719 163.19C78.7719 165.671 76.8228 167.62 74.3422 167.62Z" fill="url(#paint102_linear)"/>
<path d="M74.3422 194.021C71.8615 194.021 69.9125 192.072 69.9125 189.591C69.9125 187.11 71.8615 185.161 74.3422 185.161C76.8228 185.161 78.7719 187.11 78.7719 189.591C78.7719 192.072 76.8228 194.021 74.3422 194.021Z" fill="#EDEDED"/>
<path d="M74.3422 194.021C71.8615 194.021 69.9125 192.072 69.9125 189.591C69.9125 187.11 71.8615 185.161 74.3422 185.161C76.8228 185.161 78.7719 187.11 78.7719 189.591C78.7719 192.072 76.8228 194.021 74.3422 194.021Z" fill="url(#paint103_linear)"/>
<path d="M47.5866 9.03657C45.1059 9.03657 43.1569 7.0875 43.1569 4.60687C43.1569 2.12624 45.1059 0.17717 47.5866 0.17717C50.0672 0.17717 52.0163 2.12624 52.0163 4.60687C52.1935 6.91031 50.0672 9.03657 47.5866 9.03657Z" fill="#EDEDED"/>
<path d="M47.5866 9.03657C45.1059 9.03657 43.1569 7.0875 43.1569 4.60687C43.1569 2.12624 45.1059 0.17717 47.5866 0.17717C50.0672 0.17717 52.0163 2.12624 52.0163 4.60687C52.1935 6.91031 50.0672 9.03657 47.5866 9.03657Z" fill="url(#paint104_linear)"/>
<path d="M47.5876 35.4376C45.1069 35.4376 43.1579 33.4885 43.1579 31.0079C43.1579 28.5272 45.1069 26.5782 47.5876 26.5782C50.0682 26.5782 52.0173 28.5272 52.0173 31.0079C52.1945 33.4885 50.0682 35.4376 47.5876 35.4376Z" fill="#EDEDED"/>
<path d="M47.5876 35.4376C45.1069 35.4376 43.1579 33.4885 43.1579 31.0079C43.1579 28.5272 45.1069 26.5782 47.5876 26.5782C50.0682 26.5782 52.0173 28.5272 52.0173 31.0079C52.1945 33.4885 50.0682 35.4376 47.5876 35.4376Z" fill="url(#paint105_linear)"/>
<path d="M47.5876 61.8386C45.1069 61.8386 43.1579 59.8895 43.1579 57.4089C43.1579 54.9282 45.1069 52.9792 47.5876 52.9792C50.0682 52.9792 52.0173 54.9282 52.0173 57.4089C52.1945 59.8895 50.0682 61.8386 47.5876 61.8386Z" fill="#EDEDED"/>
<path d="M47.5876 61.8386C45.1069 61.8386 43.1579 59.8895 43.1579 57.4089C43.1579 54.9282 45.1069 52.9792 47.5876 52.9792C50.0682 52.9792 52.0173 54.9282 52.0173 57.4089C52.1945 59.8895 50.0682 61.8386 47.5876 61.8386Z" fill="url(#paint106_linear)"/>
<path d="M47.5876 88.2396C45.1069 88.2396 43.1579 86.2905 43.1579 83.8099C43.1579 81.3292 45.107 79.3802 47.5876 79.3802C50.0682 79.3802 52.0173 81.3292 52.0173 83.8099C52.0173 86.2905 50.0682 88.2396 47.5876 88.2396Z" fill="#EDEDED"/>
<path d="M47.5876 88.2396C45.1069 88.2396 43.1579 86.2905 43.1579 83.8099C43.1579 81.3292 45.107 79.3802 47.5876 79.3802C50.0682 79.3802 52.0173 81.3292 52.0173 83.8099C52.0173 86.2905 50.0682 88.2396 47.5876 88.2396Z" fill="url(#paint107_linear)"/>
<path d="M47.5876 114.818C45.1069 114.818 43.1579 112.869 43.1579 110.388C43.1579 107.907 45.1069 105.958 47.5876 105.958C50.0682 105.958 52.0173 107.907 52.0173 110.388C52.1945 112.692 50.0682 114.818 47.5876 114.818Z" fill="#EDEDED"/>
<path d="M47.5876 114.818C45.1069 114.818 43.1579 112.869 43.1579 110.388C43.1579 107.907 45.1069 105.958 47.5876 105.958C50.0682 105.958 52.0173 107.907 52.0173 110.388C52.1945 112.692 50.0682 114.818 47.5876 114.818Z" fill="url(#paint108_linear)"/>
<path d="M47.5876 141.219C45.1069 141.219 43.1579 139.27 43.1579 136.789C43.1579 134.308 45.1069 132.359 47.5876 132.359C50.0682 132.359 52.0173 134.308 52.0173 136.789C52.1944 139.27 50.0682 141.219 47.5876 141.219Z" fill="#EDEDED"/>
<path d="M47.5876 141.219C45.1069 141.219 43.1579 139.27 43.1579 136.789C43.1579 134.308 45.1069 132.359 47.5876 132.359C50.0682 132.359 52.0173 134.308 52.0173 136.789C52.1944 139.27 50.0682 141.219 47.5876 141.219Z" fill="url(#paint109_linear)"/>
<path d="M47.5876 167.62C45.1069 167.62 43.1579 165.671 43.1579 163.19C43.1579 160.709 45.1069 158.76 47.5876 158.76C50.0682 158.76 52.0173 160.709 52.0173 163.19C52.1944 165.671 50.0682 167.62 47.5876 167.62Z" fill="#EDEDED"/>
<path d="M47.5876 167.62C45.1069 167.62 43.1579 165.671 43.1579 163.19C43.1579 160.709 45.1069 158.76 47.5876 158.76C50.0682 158.76 52.0173 160.709 52.0173 163.19C52.1944 165.671 50.0682 167.62 47.5876 167.62Z" fill="url(#paint110_linear)"/>
<path d="M47.5876 194.021C45.1069 194.021 43.1579 192.072 43.1579 189.591C43.1579 187.11 45.1069 185.161 47.5876 185.161C50.0682 185.161 52.0173 187.11 52.0173 189.591C52.1944 192.072 50.0682 194.021 47.5876 194.021Z" fill="#EDEDED"/>
<path d="M47.5876 194.021C45.1069 194.021 43.1579 192.072 43.1579 189.591C43.1579 187.11 45.1069 185.161 47.5876 185.161C50.0682 185.161 52.0173 187.11 52.0173 189.591C52.1944 192.072 50.0682 194.021 47.5876 194.021Z" fill="url(#paint111_linear)"/>
<path d="M21.0092 9.03657C18.5286 9.03657 16.5795 7.0875 16.5795 4.60687C16.5795 2.12624 18.5286 0.17717 21.0092 0.17717C23.4898 0.17717 25.4389 2.12624 25.4389 4.60687C25.6161 6.91031 23.4898 9.03657 21.0092 9.03657Z" fill="#EDEDED"/>
<path d="M21.0092 9.03657C18.5286 9.03657 16.5795 7.0875 16.5795 4.60687C16.5795 2.12624 18.5286 0.17717 21.0092 0.17717C23.4898 0.17717 25.4389 2.12624 25.4389 4.60687C25.6161 6.91031 23.4898 9.03657 21.0092 9.03657Z" fill="url(#paint112_linear)"/>
<path d="M21.0086 35.4376C18.528 35.4376 16.5789 33.4885 16.5789 31.0079C16.5789 28.5272 18.528 26.5782 21.0086 26.5782C23.4892 26.5782 25.4383 28.5272 25.4383 31.0079C25.6155 33.4885 23.4892 35.4376 21.0086 35.4376Z" fill="#EDEDED"/>
<path d="M21.0086 35.4376C18.528 35.4376 16.5789 33.4885 16.5789 31.0079C16.5789 28.5272 18.528 26.5782 21.0086 26.5782C23.4892 26.5782 25.4383 28.5272 25.4383 31.0079C25.6155 33.4885 23.4892 35.4376 21.0086 35.4376Z" fill="url(#paint113_linear)"/>
<path d="M21.0086 61.8386C18.528 61.8386 16.5789 59.8895 16.5789 57.4089C16.5789 54.9282 18.528 52.9792 21.0086 52.9792C23.4892 52.9792 25.4383 54.9282 25.4383 57.4089C25.6155 59.8895 23.4892 61.8386 21.0086 61.8386Z" fill="#EDEDED"/>
<path d="M21.0086 61.8386C18.528 61.8386 16.5789 59.8895 16.5789 57.4089C16.5789 54.9282 18.528 52.9792 21.0086 52.9792C23.4892 52.9792 25.4383 54.9282 25.4383 57.4089C25.6155 59.8895 23.4892 61.8386 21.0086 61.8386Z" fill="url(#paint114_linear)"/>
<path d="M21.0086 88.2396C18.528 88.2396 16.5789 86.2905 16.5789 83.8099C16.5789 81.3292 18.528 79.3802 21.0086 79.3802C23.4892 79.3802 25.4383 81.3292 25.4383 83.8099C25.4383 86.2905 23.4892 88.2396 21.0086 88.2396Z" fill="#EDEDED"/>
<path d="M21.0086 88.2396C18.528 88.2396 16.5789 86.2905 16.5789 83.8099C16.5789 81.3292 18.528 79.3802 21.0086 79.3802C23.4892 79.3802 25.4383 81.3292 25.4383 83.8099C25.4383 86.2905 23.4892 88.2396 21.0086 88.2396Z" fill="url(#paint115_linear)"/>
<path d="M21.0086 114.818C18.528 114.818 16.5789 112.869 16.5789 110.388C16.5789 107.907 18.528 105.958 21.0086 105.958C23.4892 105.958 25.4383 107.907 25.4383 110.388C25.6155 112.692 23.4892 114.818 21.0086 114.818Z" fill="#EDEDED"/>
<path d="M21.0086 114.818C18.528 114.818 16.5789 112.869 16.5789 110.388C16.5789 107.907 18.528 105.958 21.0086 105.958C23.4892 105.958 25.4383 107.907 25.4383 110.388C25.6155 112.692 23.4892 114.818 21.0086 114.818Z" fill="url(#paint116_linear)"/>
<path d="M21.0086 141.219C18.5279 141.219 16.5789 139.27 16.5789 136.789C16.5789 134.308 18.528 132.359 21.0086 132.359C23.4892 132.359 25.4383 134.308 25.4383 136.789C25.6155 139.27 23.4892 141.219 21.0086 141.219Z" fill="#EDEDED"/>
<path d="M21.0086 141.219C18.5279 141.219 16.5789 139.27 16.5789 136.789C16.5789 134.308 18.528 132.359 21.0086 132.359C23.4892 132.359 25.4383 134.308 25.4383 136.789C25.6155 139.27 23.4892 141.219 21.0086 141.219Z" fill="url(#paint117_linear)"/>
<path d="M21.0086 167.62C18.5279 167.62 16.5789 165.671 16.5789 163.19C16.5789 160.709 18.528 158.76 21.0086 158.76C23.4892 158.76 25.4383 160.709 25.4383 163.19C25.6155 165.671 23.4892 167.62 21.0086 167.62Z" fill="#EDEDED"/>
<path d="M21.0086 167.62C18.5279 167.62 16.5789 165.671 16.5789 163.19C16.5789 160.709 18.528 158.76 21.0086 158.76C23.4892 158.76 25.4383 160.709 25.4383 163.19C25.6155 165.671 23.4892 167.62 21.0086 167.62Z" fill="url(#paint118_linear)"/>
<path d="M21.0086 194.021C18.5279 194.021 16.5789 192.072 16.5789 189.591C16.5789 187.11 18.528 185.161 21.0086 185.161C23.4892 185.161 25.4383 187.11 25.4383 189.591C25.6155 192.072 23.4892 194.021 21.0086 194.021Z" fill="#EDEDED"/>
<path d="M21.0086 194.021C18.5279 194.021 16.5789 192.072 16.5789 189.591C16.5789 187.11 18.528 185.161 21.0086 185.161C23.4892 185.161 25.4383 187.11 25.4383 189.591C25.6155 192.072 23.4892 194.021 21.0086 194.021Z" fill="url(#paint119_linear)"/>
<path d="M-5.5703 9.03657C-8.05093 9.03657 -10 7.0875 -10 4.60687C-10 2.12624 -8.05093 0.17717 -5.5703 0.17717C-3.08967 0.17717 -1.1406 2.12624 -1.1406 4.60687C-1.1406 6.91031 -3.08967 9.03657 -5.5703 9.03657Z" fill="#EDEDED"/>
<path d="M-5.5703 9.03657C-8.05093 9.03657 -10 7.0875 -10 4.60687C-10 2.12624 -8.05093 0.17717 -5.5703 0.17717C-3.08967 0.17717 -1.1406 2.12624 -1.1406 4.60687C-1.1406 6.91031 -3.08967 9.03657 -5.5703 9.03657Z" fill="url(#paint120_linear)"/>
<path d="M-5.56946 35.4376C-8.05009 35.4376 -9.99916 33.4885 -9.99916 31.0079C-9.99916 28.5272 -8.05009 26.5782 -5.56946 26.5782C-3.08883 26.5782 -1.13976 28.5272 -1.13976 31.0079C-1.13976 33.4885 -3.08883 35.4376 -5.56946 35.4376Z" fill="#EDEDED"/>
<path d="M-5.56946 35.4376C-8.05009 35.4376 -9.99916 33.4885 -9.99916 31.0079C-9.99916 28.5272 -8.05009 26.5782 -5.56946 26.5782C-3.08883 26.5782 -1.13976 28.5272 -1.13976 31.0079C-1.13976 33.4885 -3.08883 35.4376 -5.56946 35.4376Z" fill="url(#paint121_linear)"/>
<path d="M-5.56946 61.8386C-8.05009 61.8386 -9.99916 59.8895 -9.99916 57.4089C-9.99916 54.9282 -8.05009 52.9792 -5.56946 52.9792C-3.08883 52.9792 -1.13976 54.9282 -1.13976 57.4089C-1.13976 59.8895 -3.08883 61.8386 -5.56946 61.8386Z" fill="#EDEDED"/>
<path d="M-5.56946 61.8386C-8.05009 61.8386 -9.99916 59.8895 -9.99916 57.4089C-9.99916 54.9282 -8.05009 52.9792 -5.56946 52.9792C-3.08883 52.9792 -1.13976 54.9282 -1.13976 57.4089C-1.13976 59.8895 -3.08883 61.8386 -5.56946 61.8386Z" fill="url(#paint122_linear)"/>
<path d="M-5.56946 88.2396C-8.05009 88.2396 -9.99916 86.2905 -9.99916 83.8099C-9.99916 81.3292 -8.05009 79.3802 -5.56946 79.3802C-3.08883 79.3802 -1.13976 81.3292 -1.13976 83.8099C-1.13976 86.2905 -3.08883 88.2396 -5.56946 88.2396Z" fill="#EDEDED"/>
<path d="M-5.56946 88.2396C-8.05009 88.2396 -9.99916 86.2905 -9.99916 83.8099C-9.99916 81.3292 -8.05009 79.3802 -5.56946 79.3802C-3.08883 79.3802 -1.13976 81.3292 -1.13976 83.8099C-1.13976 86.2905 -3.08883 88.2396 -5.56946 88.2396Z" fill="url(#paint123_linear)"/>
<path d="M-5.56946 114.818C-8.05009 114.818 -9.99916 112.869 -9.99916 110.388C-9.99916 107.907 -8.05009 105.958 -5.56946 105.958C-3.08883 105.958 -1.13976 107.907 -1.13976 110.388C-1.13976 112.692 -3.08883 114.818 -5.56946 114.818Z" fill="#EDEDED"/>
<path d="M-5.56946 114.818C-8.05009 114.818 -9.99916 112.869 -9.99916 110.388C-9.99916 107.907 -8.05009 105.958 -5.56946 105.958C-3.08883 105.958 -1.13976 107.907 -1.13976 110.388C-1.13976 112.692 -3.08883 114.818 -5.56946 114.818Z" fill="url(#paint124_linear)"/>
<path d="M-5.56946 141.219C-8.0501 141.219 -9.99916 139.27 -9.99916 136.789C-9.99916 134.308 -8.05009 132.359 -5.56946 132.359C-3.08883 132.359 -1.13976 134.308 -1.13976 136.789C-1.13976 139.27 -3.08883 141.219 -5.56946 141.219Z" fill="#EDEDED"/>
<path d="M-5.56946 141.219C-8.0501 141.219 -9.99916 139.27 -9.99916 136.789C-9.99916 134.308 -8.05009 132.359 -5.56946 132.359C-3.08883 132.359 -1.13976 134.308 -1.13976 136.789C-1.13976 139.27 -3.08883 141.219 -5.56946 141.219Z" fill="url(#paint125_linear)"/>
<path d="M-5.56947 167.62C-8.0501 167.62 -9.99916 165.671 -9.99916 163.19C-9.99916 160.709 -8.05009 158.76 -5.56946 158.76C-3.08883 158.76 -1.13976 160.709 -1.13976 163.19C-1.13977 165.671 -3.08883 167.62 -5.56947 167.62Z" fill="#EDEDED"/>
<path d="M-5.56947 167.62C-8.0501 167.62 -9.99916 165.671 -9.99916 163.19C-9.99916 160.709 -8.05009 158.76 -5.56946 158.76C-3.08883 158.76 -1.13976 160.709 -1.13976 163.19C-1.13977 165.671 -3.08883 167.62 -5.56947 167.62Z" fill="url(#paint126_linear)"/>
<path d="M-5.56947 194.021C-8.0501 194.021 -9.99916 192.072 -9.99916 189.591C-9.99916 187.11 -8.05009 185.161 -5.56946 185.161C-3.08883 185.161 -1.13976 187.11 -1.13977 189.591C-1.13977 192.072 -3.08883 194.021 -5.56947 194.021Z" fill="#EDEDED"/>
<path d="M-5.56947 194.021C-8.0501 194.021 -9.99916 192.072 -9.99916 189.591C-9.99916 187.11 -8.05009 185.161 -5.56946 185.161C-3.08883 185.161 -1.13976 187.11 -1.13977 189.591C-1.13977 192.072 -3.08883 194.021 -5.56947 194.021Z" fill="url(#paint127_linear)"/>
<defs>
<linearGradient id="paint0_linear" x1="484" y1="101" x2="122.5" y2="97" gradientUnits="userSpaceOnUse">
<stop stop-color="white"/>
<stop offset="1" stop-color="white" stop-opacity="0"/>
</linearGradient>
<linearGradient id="paint1_linear" x1="484" y1="101" x2="122.5" y2="97" gradientUnits="userSpaceOnUse">
<stop stop-color="white"/>
<stop offset="1" stop-color="white" stop-opacity="0"/>
</linearGradient>
<linearGradient id="paint2_linear" x1="484" y1="101" x2="122.5" y2="97" gradientUnits="userSpaceOnUse">
<stop stop-color="white"/>
<stop offset="1" stop-color="white" stop-opacity="0"/>
</linearGradient>
<linearGradient id="paint3_linear" x1="484" y1="101" x2="122.5" y2="97" gradientUnits="userSpaceOnUse">
<stop stop-color="white"/>
<stop offset="1" stop-color="white" stop-opacity="0"/>
</linearGradient>
<linearGradient id="paint4_linear" x1="484" y1="101" x2="122.5" y2="97" gradientUnits="userSpaceOnUse">
<stop stop-color="white"/>
<stop offset="1" stop-color="white" stop-opacity="0"/>
</linearGradient>
<linearGradient id="paint5_linear" x1="484" y1="101" x2="122.5" y2="97" gradientUnits="userSpaceOnUse">
<stop stop-color="white"/>
<stop offset="1" stop-color="white" stop-opacity="0"/>
</linearGradient>
<linearGradient id="paint6_linear" x1="484" y1="101" x2="122.5" y2="97" gradientUnits="userSpaceOnUse">
<stop stop-color="white"/>
<stop offset="1" stop-color="white" stop-opacity="0"/>
</linearGradient>
<linearGradient id="paint7_linear" x1="484" y1="101" x2="122.5" y2="97" gradientUnits="userSpaceOnUse">
<stop stop-color="white"/>
<stop offset="1" stop-color="white" stop-opacity="0"/>
</linearGradient>
<linearGradient id="paint8_linear" x1="484" y1="101" x2="122.5" y2="97" gradientUnits="userSpaceOnUse">
<stop stop-color="white"/>
<stop offset="1" stop-color="white" stop-opacity="0"/>
</linearGradient>
<linearGradient id="paint9_linear" x1="484" y1="101" x2="122.5" y2="97" gradientUnits="userSpaceOnUse">
<stop stop-color="white"/>
<stop offset="1" stop-color="white" stop-opacity="0"/>
</linearGradient>
<linearGradient id="paint10_linear" x1="484" y1="101" x2="122.5" y2="97" gradientUnits="userSpaceOnUse">
<stop stop-color="white"/>
<stop offset="1" stop-color="white" stop-opacity="0"/>
</linearGradient>
<linearGradient id="paint11_linear" x1="484" y1="101" x2="122.5" y2="97" gradientUnits="userSpaceOnUse">
<stop stop-color="white"/>
<stop offset="1" stop-color="white" stop-opacity="0"/>
</linearGradient>
<linearGradient id="paint12_linear" x1="484" y1="101" x2="122.5" y2="97" gradientUnits="userSpaceOnUse">
<stop stop-color="white"/>
<stop offset="1" stop-color="white" stop-opacity="0"/>
</linearGradient>
<linearGradient id="paint13_linear" x1="484" y1="101" x2="122.5" y2="97" gradientUnits="userSpaceOnUse">
<stop stop-color="white"/>
<stop offset="1" stop-color="white" stop-opacity="0"/>
</linearGradient>
<linearGradient id="paint14_linear" x1="484" y1="101" x2="122.5" y2="97" gradientUnits="userSpaceOnUse">
<stop stop-color="white"/>
<stop offset="1" stop-color="white" stop-opacity="0"/>
</linearGradient>
<linearGradient id="paint15_linear" x1="484" y1="101" x2="122.5" y2="97" gradientUnits="userSpaceOnUse">
<stop stop-color="white"/>
<stop offset="1" stop-color="white" stop-opacity="0"/>
</linearGradient>
<linearGradient id="paint16_linear" x1="484" y1="101" x2="122.5" y2="97" gradientUnits="userSpaceOnUse">
<stop stop-color="white"/>
<stop offset="1" stop-color="white" stop-opacity="0"/>
</linearGradient>
<linearGradient id="paint17_linear" x1="484" y1="101" x2="122.5" y2="97" gradientUnits="userSpaceOnUse">
<stop stop-color="white"/>
<stop offset="1" stop-color="white" stop-opacity="0"/>
</linearGradient>
<linearGradient id="paint18_linear" x1="484" y1="101" x2="122.5" y2="97" gradientUnits="userSpaceOnUse">
<stop stop-color="white"/>
<stop offset="1" stop-color="white" stop-opacity="0"/>
</linearGradient>
<linearGradient id="paint19_linear" x1="484" y1="101" x2="122.5" y2="97" gradientUnits="userSpaceOnUse">
<stop stop-color="white"/>
<stop offset="1" stop-color="white" stop-opacity="0"/>
</linearGradient>
<linearGradient id="paint20_linear" x1="484" y1="101" x2="122.5" y2="97" gradientUnits="userSpaceOnUse">
<stop stop-color="white"/>
<stop offset="1" stop-color="white" stop-opacity="0"/>
</linearGradient>
<linearGradient id="paint21_linear" x1="484" y1="101" x2="122.5" y2="97" gradientUnits="userSpaceOnUse">
<stop stop-color="white"/>
<stop offset="1" stop-color="white" stop-opacity="0"/>
</linearGradient>
<linearGradient id="paint22_linear" x1="484" y1="101" x2="122.5" y2="97" gradientUnits="userSpaceOnUse">
<stop stop-color="white"/>
<stop offset="1" stop-color="white" stop-opacity="0"/>
</linearGradient>
<linearGradient id="paint23_linear" x1="484" y1="101" x2="122.5" y2="97" gradientUnits="userSpaceOnUse">
<stop stop-color="white"/>
<stop offset="1" stop-color="white" stop-opacity="0"/>
</linearGradient>
<linearGradient id="paint24_linear" x1="484" y1="101" x2="122.5" y2="97" gradientUnits="userSpaceOnUse">
<stop stop-color="white"/>
<stop offset="1" stop-color="white" stop-opacity="0"/>
</linearGradient>
<linearGradient id="paint25_linear" x1="484" y1="101" x2="122.5" y2="97" gradientUnits="userSpaceOnUse">
<stop stop-color="white"/>
<stop offset="1" stop-color="white" stop-opacity="0"/>
</linearGradient>
<linearGradient id="paint26_linear" x1="484" y1="101" x2="122.5" y2="97" gradientUnits="userSpaceOnUse">
<stop stop-color="white"/>
<stop offset="1" stop-color="white" stop-opacity="0"/>
</linearGradient>
<linearGradient id="paint27_linear" x1="484" y1="101" x2="122.5" y2="97" gradientUnits="userSpaceOnUse">
<stop stop-color="white"/>
<stop offset="1" stop-color="white" stop-opacity="0"/>
</linearGradient>
<linearGradient id="paint28_linear" x1="484" y1="101" x2="122.5" y2="97" gradientUnits="userSpaceOnUse">
<stop stop-color="white"/>
<stop offset="1" stop-color="white" stop-opacity="0"/>
</linearGradient>
<linearGradient id="paint29_linear" x1="484" y1="101" x2="122.5" y2="97" gradientUnits="userSpaceOnUse">
<stop stop-color="white"/>
<stop offset="1" stop-color="white" stop-opacity="0"/>
</linearGradient>
<linearGradient id="paint30_linear" x1="484" y1="101" x2="122.5" y2="97" gradientUnits="userSpaceOnUse">
<stop stop-color="white"/>
<stop offset="1" stop-color="white" stop-opacity="0"/>
</linearGradient>
<linearGradient id="paint31_linear" x1="484" y1="101" x2="122.5" y2="97" gradientUnits="userSpaceOnUse">
<stop stop-color="white"/>
<stop offset="1" stop-color="white" stop-opacity="0"/>
</linearGradient>
<linearGradient id="paint32_linear" x1="484" y1="101" x2="122.5" y2="97" gradientUnits="userSpaceOnUse">
<stop stop-color="white"/>
<stop offset="1" stop-color="white" stop-opacity="0"/>
</linearGradient>
<linearGradient id="paint33_linear" x1="484" y1="101" x2="122.5" y2="97" gradientUnits="userSpaceOnUse">
<stop stop-color="white"/>
<stop offset="1" stop-color="white" stop-opacity="0"/>
</linearGradient>
<linearGradient id="paint34_linear" x1="484" y1="101" x2="122.5" y2="97" gradientUnits="userSpaceOnUse">
<stop stop-color="white"/>
<stop offset="1" stop-color="white" stop-opacity="0"/>
</linearGradient>
<linearGradient id="paint35_linear" x1="484" y1="101" x2="122.5" y2="97" gradientUnits="userSpaceOnUse">
<stop stop-color="white"/>
<stop offset="1" stop-color="white" stop-opacity="0"/>
</linearGradient>
<linearGradient id="paint36_linear" x1="484" y1="101" x2="122.5" y2="97" gradientUnits="userSpaceOnUse">
<stop stop-color="white"/>
<stop offset="1" stop-color="white" stop-opacity="0"/>
</linearGradient>
<linearGradient id="paint37_linear" x1="484" y1="101" x2="122.5" y2="97" gradientUnits="userSpaceOnUse">
<stop stop-color="white"/>
<stop offset="1" stop-color="white" stop-opacity="0"/>
</linearGradient>
<linearGradient id="paint38_linear" x1="484" y1="101" x2="122.5" y2="97" gradientUnits="userSpaceOnUse">
<stop stop-color="white"/>
<stop offset="1" stop-color="white" stop-opacity="0"/>
</linearGradient>
<linearGradient id="paint39_linear" x1="484" y1="101" x2="122.5" y2="97" gradientUnits="userSpaceOnUse">
<stop stop-color="white"/>
<stop offset="1" stop-color="white" stop-opacity="0"/>
</linearGradient>
<linearGradient id="paint40_linear" x1="484" y1="101" x2="122.5" y2="97" gradientUnits="userSpaceOnUse">
<stop stop-color="white"/>
<stop offset="1" stop-color="white" stop-opacity="0"/>
</linearGradient>
<linearGradient id="paint41_linear" x1="484" y1="101" x2="122.5" y2="97" gradientUnits="userSpaceOnUse">
<stop stop-color="white"/>
<stop offset="1" stop-color="white" stop-opacity="0"/>
</linearGradient>
<linearGradient id="paint42_linear" x1="484" y1="101" x2="122.5" y2="97" gradientUnits="userSpaceOnUse">
<stop stop-color="white"/>
<stop offset="1" stop-color="white" stop-opacity="0"/>
</linearGradient>
<linearGradient id="paint43_linear" x1="484" y1="101" x2="122.5" y2="97" gradientUnits="userSpaceOnUse">
<stop stop-color="white"/>
<stop offset="1" stop-color="white" stop-opacity="0"/>
</linearGradient>
<linearGradient id="paint44_linear" x1="484" y1="101" x2="122.5" y2="97" gradientUnits="userSpaceOnUse">
<stop stop-color="white"/>
<stop offset="1" stop-color="white" stop-opacity="0"/>
</linearGradient>
<linearGradient id="paint45_linear" x1="484" y1="101" x2="122.5" y2="97" gradientUnits="userSpaceOnUse">
<stop stop-color="white"/>
<stop offset="1" stop-color="white" stop-opacity="0"/>
</linearGradient>
<linearGradient id="paint46_linear" x1="484" y1="101" x2="122.5" y2="97" gradientUnits="userSpaceOnUse">
<stop stop-color="white"/>
<stop offset="1" stop-color="white" stop-opacity="0"/>
</linearGradient>
<linearGradient id="paint47_linear" x1="484" y1="101" x2="122.5" y2="97" gradientUnits="userSpaceOnUse">
<stop stop-color="white"/>
<stop offset="1" stop-color="white" stop-opacity="0"/>
</linearGradient>
<linearGradient id="paint48_linear" x1="484" y1="101" x2="122.5" y2="97" gradientUnits="userSpaceOnUse">
<stop stop-color="white"/>
<stop offset="1" stop-color="white" stop-opacity="0"/>
</linearGradient>
<linearGradient id="paint49_linear" x1="484" y1="101" x2="122.5" y2="97" gradientUnits="userSpaceOnUse">
<stop stop-color="white"/>
<stop offset="1" stop-color="white" stop-opacity="0"/>
</linearGradient>
<linearGradient id="paint50_linear" x1="484" y1="101" x2="122.5" y2="97" gradientUnits="userSpaceOnUse">
<stop stop-color="white"/>
<stop offset="1" stop-color="white" stop-opacity="0"/>
</linearGradient>
<linearGradient id="paint51_linear" x1="484" y1="101" x2="122.5" y2="97" gradientUnits="userSpaceOnUse">
<stop stop-color="white"/>
<stop offset="1" stop-color="white" stop-opacity="0"/>
</linearGradient>
<linearGradient id="paint52_linear" x1="484" y1="101" x2="122.5" y2="97" gradientUnits="userSpaceOnUse">
<stop stop-color="white"/>
<stop offset="1" stop-color="white" stop-opacity="0"/>
</linearGradient>
<linearGradient id="paint53_linear" x1="484" y1="101" x2="122.5" y2="97" gradientUnits="userSpaceOnUse">
<stop stop-color="white"/>
<stop offset="1" stop-color="white" stop-opacity="0"/>
</linearGradient>
<linearGradient id="paint54_linear" x1="484" y1="101" x2="122.5" y2="97" gradientUnits="userSpaceOnUse">
<stop stop-color="white"/>
<stop offset="1" stop-color="white" stop-opacity="0"/>
</linearGradient>
<linearGradient id="paint55_linear" x1="484" y1="101" x2="122.5" y2="97" gradientUnits="userSpaceOnUse">
<stop stop-color="white"/>
<stop offset="1" stop-color="white" stop-opacity="0"/>
</linearGradient>
<linearGradient id="paint56_linear" x1="484" y1="101" x2="122.5" y2="97" gradientUnits="userSpaceOnUse">
<stop stop-color="white"/>
<stop offset="1" stop-color="white" stop-opacity="0"/>
</linearGradient>
<linearGradient id="paint57_linear" x1="484" y1="101" x2="122.5" y2="97" gradientUnits="userSpaceOnUse">
<stop stop-color="white"/>
<stop offset="1" stop-color="white" stop-opacity="0"/>
</linearGradient>
<linearGradient id="paint58_linear" x1="484" y1="101" x2="122.5" y2="97" gradientUnits="userSpaceOnUse">
<stop stop-color="white"/>
<stop offset="1" stop-color="white" stop-opacity="0"/>
</linearGradient>
<linearGradient id="paint59_linear" x1="484" y1="101" x2="122.5" y2="97" gradientUnits="userSpaceOnUse">
<stop stop-color="white"/>
<stop offset="1" stop-color="white" stop-opacity="0"/>
</linearGradient>
<linearGradient id="paint60_linear" x1="484" y1="101" x2="122.5" y2="97" gradientUnits="userSpaceOnUse">
<stop stop-color="white"/>
<stop offset="1" stop-color="white" stop-opacity="0"/>
</linearGradient>
<linearGradient id="paint61_linear" x1="484" y1="101" x2="122.5" y2="97" gradientUnits="userSpaceOnUse">
<stop stop-color="white"/>
<stop offset="1" stop-color="white" stop-opacity="0"/>
</linearGradient>
<linearGradient id="paint62_linear" x1="484" y1="101" x2="122.5" y2="97" gradientUnits="userSpaceOnUse">
<stop stop-color="white"/>
<stop offset="1" stop-color="white" stop-opacity="0"/>
</linearGradient>
<linearGradient id="paint63_linear" x1="484" y1="101" x2="122.5" y2="97" gradientUnits="userSpaceOnUse">
<stop stop-color="white"/>
<stop offset="1" stop-color="white" stop-opacity="0"/>
</linearGradient>
<linearGradient id="paint64_linear" x1="484" y1="101" x2="122.5" y2="97" gradientUnits="userSpaceOnUse">
<stop stop-color="white"/>
<stop offset="1" stop-color="white" stop-opacity="0"/>
</linearGradient>
<linearGradient id="paint65_linear" x1="484" y1="101" x2="122.5" y2="97" gradientUnits="userSpaceOnUse">
<stop stop-color="white"/>
<stop offset="1" stop-color="white" stop-opacity="0"/>
</linearGradient>
<linearGradient id="paint66_linear" x1="484" y1="101" x2="122.5" y2="97" gradientUnits="userSpaceOnUse">
<stop stop-color="white"/>
<stop offset="1" stop-color="white" stop-opacity="0"/>
</linearGradient>
<linearGradient id="paint67_linear" x1="484" y1="101" x2="122.5" y2="97" gradientUnits="userSpaceOnUse">
<stop stop-color="white"/>
<stop offset="1" stop-color="white" stop-opacity="0"/>
</linearGradient>
<linearGradient id="paint68_linear" x1="484" y1="101" x2="122.5" y2="97" gradientUnits="userSpaceOnUse">
<stop stop-color="white"/>
<stop offset="1" stop-color="white" stop-opacity="0"/>
</linearGradient>
<linearGradient id="paint69_linear" x1="484" y1="101" x2="122.5" y2="97" gradientUnits="userSpaceOnUse">
<stop stop-color="white"/>
<stop offset="1" stop-color="white" stop-opacity="0"/>
</linearGradient>
<linearGradient id="paint70_linear" x1="484" y1="101" x2="122.5" y2="97" gradientUnits="userSpaceOnUse">
<stop stop-color="white"/>
<stop offset="1" stop-color="white" stop-opacity="0"/>
</linearGradient>
<linearGradient id="paint71_linear" x1="484" y1="101" x2="122.5" y2="97" gradientUnits="userSpaceOnUse">
<stop stop-color="white"/>
<stop offset="1" stop-color="white" stop-opacity="0"/>
</linearGradient>
<linearGradient id="paint72_linear" x1="484" y1="101" x2="122.5" y2="97" gradientUnits="userSpaceOnUse">
<stop stop-color="white"/>
<stop offset="1" stop-color="white" stop-opacity="0"/>
</linearGradient>
<linearGradient id="paint73_linear" x1="484" y1="101" x2="122.5" y2="97" gradientUnits="userSpaceOnUse">
<stop stop-color="white"/>
<stop offset="1" stop-color="white" stop-opacity="0"/>
</linearGradient>
<linearGradient id="paint74_linear" x1="484" y1="101" x2="122.5" y2="97" gradientUnits="userSpaceOnUse">
<stop stop-color="white"/>
<stop offset="1" stop-color="white" stop-opacity="0"/>
</linearGradient>
<linearGradient id="paint75_linear" x1="484" y1="101" x2="122.5" y2="97" gradientUnits="userSpaceOnUse">
<stop stop-color="white"/>
<stop offset="1" stop-color="white" stop-opacity="0"/>
</linearGradient>
<linearGradient id="paint76_linear" x1="484" y1="101" x2="122.5" y2="97" gradientUnits="userSpaceOnUse">
<stop stop-color="white"/>
<stop offset="1" stop-color="white" stop-opacity="0"/>
</linearGradient>
<linearGradient id="paint77_linear" x1="484" y1="101" x2="122.5" y2="97" gradientUnits="userSpaceOnUse">
<stop stop-color="white"/>
<stop offset="1" stop-color="white" stop-opacity="0"/>
</linearGradient>
<linearGradient id="paint78_linear" x1="484" y1="101" x2="122.5" y2="97" gradientUnits="userSpaceOnUse">
<stop stop-color="white"/>
<stop offset="1" stop-color="white" stop-opacity="0"/>
</linearGradient>
<linearGradient id="paint79_linear" x1="484" y1="101" x2="122.5" y2="97" gradientUnits="userSpaceOnUse">
<stop stop-color="white"/>
<stop offset="1" stop-color="white" stop-opacity="0"/>
</linearGradient>
<linearGradient id="paint80_linear" x1="484" y1="101" x2="122.5" y2="97" gradientUnits="userSpaceOnUse">
<stop stop-color="white"/>
<stop offset="1" stop-color="white" stop-opacity="0"/>
</linearGradient>
<linearGradient id="paint81_linear" x1="484" y1="101" x2="122.5" y2="97" gradientUnits="userSpaceOnUse">
<stop stop-color="white"/>
<stop offset="1" stop-color="white" stop-opacity="0"/>
</linearGradient>
<linearGradient id="paint82_linear" x1="484" y1="101" x2="122.5" y2="97" gradientUnits="userSpaceOnUse">
<stop stop-color="white"/>
<stop offset="1" stop-color="white" stop-opacity="0"/>
</linearGradient>
<linearGradient id="paint83_linear" x1="484" y1="101" x2="122.5" y2="97" gradientUnits="userSpaceOnUse">
<stop stop-color="white"/>
<stop offset="1" stop-color="white" stop-opacity="0"/>
</linearGradient>
<linearGradient id="paint84_linear" x1="484" y1="101" x2="122.5" y2="97" gradientUnits="userSpaceOnUse">
<stop stop-color="white"/>
<stop offset="1" stop-color="white" stop-opacity="0"/>
</linearGradient>
<linearGradient id="paint85_linear" x1="484" y1="101" x2="122.5" y2="97" gradientUnits="userSpaceOnUse">
<stop stop-color="white"/>
<stop offset="1" stop-color="white" stop-opacity="0"/>
</linearGradient>
<linearGradient id="paint86_linear" x1="484" y1="101" x2="122.5" y2="97" gradientUnits="userSpaceOnUse">
<stop stop-color="white"/>
<stop offset="1" stop-color="white" stop-opacity="0"/>
</linearGradient>
<linearGradient id="paint87_linear" x1="484" y1="101" x2="122.5" y2="97" gradientUnits="userSpaceOnUse">
<stop stop-color="white"/>
<stop offset="1" stop-color="white" stop-opacity="0"/>
</linearGradient>
<linearGradient id="paint88_linear" x1="484" y1="101" x2="122.5" y2="97" gradientUnits="userSpaceOnUse">
<stop stop-color="white"/>
<stop offset="1" stop-color="white" stop-opacity="0"/>
</linearGradient>
<linearGradient id="paint89_linear" x1="484" y1="101" x2="122.5" y2="97" gradientUnits="userSpaceOnUse">
<stop stop-color="white"/>
<stop offset="1" stop-color="white" stop-opacity="0"/>
</linearGradient>
<linearGradient id="paint90_linear" x1="484" y1="101" x2="122.5" y2="97" gradientUnits="userSpaceOnUse">
<stop stop-color="white"/>
<stop offset="1" stop-color="white" stop-opacity="0"/>
</linearGradient>
<linearGradient id="paint91_linear" x1="484" y1="101" x2="122.5" y2="97" gradientUnits="userSpaceOnUse">
<stop stop-color="white"/>
<stop offset="1" stop-color="white" stop-opacity="0"/>
</linearGradient>
<linearGradient id="paint92_linear" x1="484" y1="101" x2="122.5" y2="97" gradientUnits="userSpaceOnUse">
<stop stop-color="white"/>
<stop offset="1" stop-color="white" stop-opacity="0"/>
</linearGradient>
<linearGradient id="paint93_linear" x1="484" y1="101" x2="122.5" y2="97" gradientUnits="userSpaceOnUse">
<stop stop-color="white"/>
<stop offset="1" stop-color="white" stop-opacity="0"/>
</linearGradient>
<linearGradient id="paint94_linear" x1="484" y1="101" x2="122.5" y2="97" gradientUnits="userSpaceOnUse">
<stop stop-color="white"/>
<stop offset="1" stop-color="white" stop-opacity="0"/>
</linearGradient>
<linearGradient id="paint95_linear" x1="484" y1="101" x2="122.5" y2="97" gradientUnits="userSpaceOnUse">
<stop stop-color="white"/>
<stop offset="1" stop-color="white" stop-opacity="0"/>
</linearGradient>
<linearGradient id="paint96_linear" x1="484" y1="101" x2="122.5" y2="97" gradientUnits="userSpaceOnUse">
<stop stop-color="white"/>
<stop offset="1" stop-color="white" stop-opacity="0"/>
</linearGradient>
<linearGradient id="paint97_linear" x1="484" y1="101" x2="122.5" y2="97" gradientUnits="userSpaceOnUse">
<stop stop-color="white"/>
<stop offset="1" stop-color="white" stop-opacity="0"/>
</linearGradient>
<linearGradient id="paint98_linear" x1="484" y1="101" x2="122.5" y2="97" gradientUnits="userSpaceOnUse">
<stop stop-color="white"/>
<stop offset="1" stop-color="white" stop-opacity="0"/>
</linearGradient>
<linearGradient id="paint99_linear" x1="484" y1="101" x2="122.5" y2="97" gradientUnits="userSpaceOnUse">
<stop stop-color="white"/>
<stop offset="1" stop-color="white" stop-opacity="0"/>
</linearGradient>
<linearGradient id="paint100_linear" x1="484" y1="101" x2="122.5" y2="97" gradientUnits="userSpaceOnUse">
<stop stop-color="white"/>
<stop offset="1" stop-color="white" stop-opacity="0"/>
</linearGradient>
<linearGradient id="paint101_linear" x1="484" y1="101" x2="122.5" y2="97" gradientUnits="userSpaceOnUse">
<stop stop-color="white"/>
<stop offset="1" stop-color="white" stop-opacity="0"/>
</linearGradient>
<linearGradient id="paint102_linear" x1="484" y1="101" x2="122.5" y2="97" gradientUnits="userSpaceOnUse">
<stop stop-color="white"/>
<stop offset="1" stop-color="white" stop-opacity="0"/>
</linearGradient>
<linearGradient id="paint103_linear" x1="484" y1="101" x2="122.5" y2="97" gradientUnits="userSpaceOnUse">
<stop stop-color="white"/>
<stop offset="1" stop-color="white" stop-opacity="0"/>
</linearGradient>
<linearGradient id="paint104_linear" x1="484" y1="101" x2="122.5" y2="97" gradientUnits="userSpaceOnUse">
<stop stop-color="white"/>
<stop offset="1" stop-color="white" stop-opacity="0"/>
</linearGradient>
<linearGradient id="paint105_linear" x1="484" y1="101" x2="122.5" y2="97" gradientUnits="userSpaceOnUse">
<stop stop-color="white"/>
<stop offset="1" stop-color="white" stop-opacity="0"/>
</linearGradient>
<linearGradient id="paint106_linear" x1="484" y1="101" x2="122.5" y2="97" gradientUnits="userSpaceOnUse">
<stop stop-color="white"/>
<stop offset="1" stop-color="white" stop-opacity="0"/>
</linearGradient>
<linearGradient id="paint107_linear" x1="484" y1="101" x2="122.5" y2="97" gradientUnits="userSpaceOnUse">
<stop stop-color="white"/>
<stop offset="1" stop-color="white" stop-opacity="0"/>
</linearGradient>
<linearGradient id="paint108_linear" x1="484" y1="101" x2="122.5" y2="97" gradientUnits="userSpaceOnUse">
<stop stop-color="white"/>
<stop offset="1" stop-color="white" stop-opacity="0"/>
</linearGradient>
<linearGradient id="paint109_linear" x1="484" y1="101" x2="122.5" y2="97" gradientUnits="userSpaceOnUse">
<stop stop-color="white"/>
<stop offset="1" stop-color="white" stop-opacity="0"/>
</linearGradient>
<linearGradient id="paint110_linear" x1="484" y1="101" x2="122.5" y2="97" gradientUnits="userSpaceOnUse">
<stop stop-color="white"/>
<stop offset="1" stop-color="white" stop-opacity="0"/>
</linearGradient>
<linearGradient id="paint111_linear" x1="484" y1="101" x2="122.5" y2="97" gradientUnits="userSpaceOnUse">
<stop stop-color="white"/>
<stop offset="1" stop-color="white" stop-opacity="0"/>
</linearGradient>
<linearGradient id="paint112_linear" x1="484" y1="101" x2="122.5" y2="97" gradientUnits="userSpaceOnUse">
<stop stop-color="white"/>
<stop offset="1" stop-color="white" stop-opacity="0"/>
</linearGradient>
<linearGradient id="paint113_linear" x1="484" y1="101" x2="122.5" y2="97" gradientUnits="userSpaceOnUse">
<stop stop-color="white"/>
<stop offset="1" stop-color="white" stop-opacity="0"/>
</linearGradient>
<linearGradient id="paint114_linear" x1="484" y1="101" x2="122.5" y2="97" gradientUnits="userSpaceOnUse">
<stop stop-color="white"/>
<stop offset="1" stop-color="white" stop-opacity="0"/>
</linearGradient>
<linearGradient id="paint115_linear" x1="484" y1="101" x2="122.5" y2="97" gradientUnits="userSpaceOnUse">
<stop stop-color="white"/>
<stop offset="1" stop-color="white" stop-opacity="0"/>
</linearGradient>
<linearGradient id="paint116_linear" x1="484" y1="101" x2="122.5" y2="97" gradientUnits="userSpaceOnUse">
<stop stop-color="white"/>
<stop offset="1" stop-color="white" stop-opacity="0"/>
</linearGradient>
<linearGradient id="paint117_linear" x1="484" y1="101" x2="122.5" y2="97" gradientUnits="userSpaceOnUse">
<stop stop-color="white"/>
<stop offset="1" stop-color="white" stop-opacity="0"/>
</linearGradient>
<linearGradient id="paint118_linear" x1="484" y1="101" x2="122.5" y2="97" gradientUnits="userSpaceOnUse">
<stop stop-color="white"/>
<stop offset="1" stop-color="white" stop-opacity="0"/>
</linearGradient>
<linearGradient id="paint119_linear" x1="484" y1="101" x2="122.5" y2="97" gradientUnits="userSpaceOnUse">
<stop stop-color="white"/>
<stop offset="1" stop-color="white" stop-opacity="0"/>
</linearGradient>
<linearGradient id="paint120_linear" x1="484" y1="101" x2="122.5" y2="97" gradientUnits="userSpaceOnUse">
<stop stop-color="white"/>
<stop offset="1" stop-color="white" stop-opacity="0"/>
</linearGradient>
<linearGradient id="paint121_linear" x1="484" y1="101" x2="122.5" y2="97" gradientUnits="userSpaceOnUse">
<stop stop-color="white"/>
<stop offset="1" stop-color="white" stop-opacity="0"/>
</linearGradient>
<linearGradient id="paint122_linear" x1="484" y1="101" x2="122.5" y2="97" gradientUnits="userSpaceOnUse">
<stop stop-color="white"/>
<stop offset="1" stop-color="white" stop-opacity="0"/>
</linearGradient>
<linearGradient id="paint123_linear" x1="484" y1="101" x2="122.5" y2="97" gradientUnits="userSpaceOnUse">
<stop stop-color="white"/>
<stop offset="1" stop-color="white" stop-opacity="0"/>
</linearGradient>
<linearGradient id="paint124_linear" x1="484" y1="101" x2="122.5" y2="97" gradientUnits="userSpaceOnUse">
<stop stop-color="white"/>
<stop offset="1" stop-color="white" stop-opacity="0"/>
</linearGradient>
<linearGradient id="paint125_linear" x1="484" y1="101" x2="122.5" y2="97" gradientUnits="userSpaceOnUse">
<stop stop-color="white"/>
<stop offset="1" stop-color="white" stop-opacity="0"/>
</linearGradient>
<linearGradient id="paint126_linear" x1="484" y1="101" x2="122.5" y2="97" gradientUnits="userSpaceOnUse">
<stop stop-color="white"/>
<stop offset="1" stop-color="white" stop-opacity="0"/>
</linearGradient>
<linearGradient id="paint127_linear" x1="484" y1="101" x2="122.5" y2="97" gradientUnits="userSpaceOnUse">
<stop stop-color="white"/>
<stop offset="1" stop-color="white" stop-opacity="0"/>
</linearGradient>
</defs>
</svg>
