<svg width="24" height="24" viewBox="0 0 24 24" fill="none" xmlns="http://www.w3.org/2000/svg">
<path d="M22.0742 15.7533C20.6048 15.7533 19.1621 15.5234 17.7949 15.0716C17.125 14.8431 16.3014 15.0528 15.8925 15.4727L13.194 17.5098C10.0644 15.8393 8.13667 13.9121 6.48892 10.8061L8.4661 8.17781C8.97979 7.66481 9.16404 6.91544 8.94329 6.21231C8.48954 4.83794 8.25904 3.39587 8.25904 1.92587C8.2591 0.863937 7.39517 0 6.3333 0H1.92581C0.863935 0 0 0.863937 0 1.92581C0 14.0977 9.90235 24 22.0742 24C23.1361 24 24 23.1361 24 22.0742V17.679C23.9999 16.6172 23.136 15.7533 22.0742 15.7533Z" fill="#FD9902"/>
</svg>
