<svg width="156" height="409" viewBox="0 0 156 409" fill="none" xmlns="http://www.w3.org/2000/svg">
<g opacity="0.06">
<path d="M145.984 403.812C145.984 401.331 147.933 399.382 150.414 399.382C153.072 399.205 155.021 401.331 155.021 403.812C155.021 406.293 153.072 408.242 150.591 408.242C148.111 408.242 145.984 406.293 145.984 403.812Z" fill="black"/>
<path d="M119.583 403.812C119.583 401.332 121.533 399.383 124.013 399.383C126.494 399.383 128.443 401.332 128.443 403.812C128.443 406.293 126.494 408.242 124.013 408.242C121.533 408.242 119.583 406.293 119.583 403.812Z" fill="black"/>
<path d="M93.1826 403.812C93.1826 401.332 95.1317 399.383 97.6123 399.383C100.093 399.383 102.042 401.332 102.042 403.812C102.042 406.293 100.093 408.242 97.6123 408.242C95.1317 408.242 93.1826 406.293 93.1826 403.812Z" fill="black"/>
<path d="M66.7812 403.812C66.7812 401.332 68.7303 399.383 71.2109 399.383C73.6916 399.383 75.6406 401.332 75.6406 403.812C75.6406 406.293 73.6916 408.242 71.2109 408.242C68.7303 408.242 66.7812 406.293 66.7812 403.812Z" fill="black"/>
<path d="M40.2031 403.812C40.2031 401.332 42.1522 399.383 44.6328 399.383C47.1134 399.383 49.0625 401.332 49.0625 403.812C49.0625 406.293 47.2906 408.242 44.81 408.242C42.3294 408.242 40.2031 406.293 40.2031 403.812Z" fill="black"/>
<path d="M13.8022 403.812C13.8022 401.332 15.7513 399.383 18.2319 399.383C20.7126 399.383 22.6616 401.332 22.6616 403.812C22.6616 406.293 20.8897 408.242 18.2319 408.242C15.7513 408.242 13.8022 406.293 13.8022 403.812Z" fill="black"/>
<path d="M145.984 377.057C145.984 374.576 147.933 372.627 150.414 372.627C153.072 372.627 155.021 374.576 155.021 377.057C155.021 379.537 153.072 381.664 150.591 381.664C148.111 381.664 145.984 379.537 145.984 377.057Z" fill="black"/>
<path d="M119.583 377.057C119.583 374.576 121.533 372.627 124.013 372.627C126.494 372.627 128.443 374.576 128.443 377.057C128.443 379.538 126.494 381.487 124.013 381.487C121.533 381.664 119.583 379.538 119.583 377.057Z" fill="black"/>
<path d="M93.1826 377.057C93.1826 374.577 95.1317 372.627 97.6123 372.627C100.093 372.627 102.042 374.577 102.042 377.057C102.042 379.538 100.093 381.664 97.6123 381.664C95.1317 381.664 93.1826 379.538 93.1826 377.057Z" fill="black"/>
<path d="M66.7812 377.057C66.7812 374.576 68.7303 372.627 71.2109 372.627C73.6916 372.627 75.6406 374.576 75.6406 377.057C75.6406 379.538 73.6916 381.487 71.2109 381.487C68.7303 381.487 66.7812 379.538 66.7812 377.057Z" fill="black"/>
<path d="M40.2031 377.057C40.2031 374.576 42.1522 372.627 44.6328 372.627C47.1134 372.627 49.0625 374.576 49.0625 377.057C49.0625 379.538 47.1134 381.487 44.6328 381.487C42.3294 381.664 40.2031 379.538 40.2031 377.057Z" fill="black"/>
<path d="M13.8022 377.057C13.8022 374.576 15.7513 372.627 18.2319 372.627C20.7126 372.627 22.6616 374.576 22.6616 377.057C22.6616 379.538 20.7126 381.487 18.2319 381.487C15.7513 381.664 13.8022 379.538 13.8022 377.057Z" fill="black"/>
<path d="M145.984 350.479C145.984 347.998 147.933 346.049 150.414 346.049C153.072 346.049 155.021 347.998 155.021 350.479C155.021 352.959 153.072 355.085 150.591 355.085C148.111 355.085 145.984 352.959 145.984 350.479Z" fill="black"/>
<path d="M119.583 350.479C119.583 347.998 121.533 346.049 124.013 346.049C126.494 346.049 128.443 347.998 128.443 350.479C128.443 352.96 126.494 354.909 124.013 354.909C121.533 355.086 119.583 352.96 119.583 350.479Z" fill="black"/>
<path d="M93.1826 350.479C93.1826 347.998 95.1317 346.049 97.6123 346.049C100.093 346.049 102.042 347.998 102.042 350.479C102.042 352.96 100.093 354.909 97.6123 354.909C95.1317 355.086 93.1826 352.96 93.1826 350.479Z" fill="black"/>
<path d="M66.7812 350.479C66.7812 347.998 68.7303 346.049 71.2109 346.049C73.6916 346.049 75.6406 347.998 75.6406 350.479C75.6406 352.959 73.6916 354.908 71.2109 354.908C68.7303 354.908 66.7812 352.959 66.7812 350.479Z" fill="black"/>
<path d="M40.2031 350.479C40.2031 347.998 42.1522 346.049 44.6328 346.049C47.1134 346.049 49.0625 347.998 49.0625 350.479C49.0625 352.96 47.1134 354.909 44.6328 354.909C42.3294 355.086 40.2031 352.96 40.2031 350.479Z" fill="black"/>
<path d="M13.8022 350.479C13.8022 347.998 15.7513 346.049 18.2319 346.049C20.7126 346.049 22.6616 347.998 22.6616 350.479C22.6616 352.96 20.7126 354.909 18.2319 354.909C15.7513 355.086 13.8022 352.96 13.8022 350.479Z" fill="black"/>
<path d="M145.984 323.9C145.984 321.419 147.933 319.47 150.414 319.47C153.072 319.293 155.021 321.419 155.021 323.9C155.021 326.381 153.072 328.33 150.591 328.33C148.111 328.33 145.984 326.381 145.984 323.9Z" fill="black"/>
<path d="M119.583 323.9C119.583 321.42 121.533 319.471 124.013 319.471C126.494 319.471 128.443 321.42 128.443 323.9C128.443 326.381 126.494 328.33 124.013 328.33C121.533 328.33 119.583 326.381 119.583 323.9Z" fill="black"/>
<path d="M93.1826 323.9C93.1826 321.42 95.1317 319.471 97.6123 319.471C100.093 319.471 102.042 321.42 102.042 323.9C102.042 326.381 100.093 328.33 97.6123 328.33C95.1317 328.33 93.1826 326.381 93.1826 323.9Z" fill="black"/>
<path d="M66.7812 323.9C66.7812 321.42 68.7303 319.471 71.2109 319.471C73.6916 319.471 75.6406 321.42 75.6406 323.9C75.6406 326.381 73.6916 328.33 71.2109 328.33C68.7303 328.33 66.7812 326.381 66.7812 323.9Z" fill="black"/>
<path d="M40.2031 323.9C40.2031 321.42 42.1522 319.471 44.6328 319.471C47.1134 319.471 49.0625 321.42 49.0625 323.9C49.0625 326.381 47.1134 328.33 44.6328 328.33C42.3294 328.33 40.2031 326.381 40.2031 323.9Z" fill="black"/>
<path d="M13.8022 323.9C13.8022 321.42 15.7513 319.471 18.2319 319.471C20.7126 319.471 22.6616 321.42 22.6616 323.9C22.6616 326.381 20.7126 328.33 18.2319 328.33C15.7513 328.33 13.8022 326.381 13.8022 323.9Z" fill="black"/>
<path d="M145.984 297.322C145.984 294.842 147.933 292.893 150.414 292.893C153.072 292.715 155.021 294.842 155.021 297.322C155.021 299.803 153.072 301.752 150.591 301.752C148.111 301.752 145.984 299.803 145.984 297.322Z" fill="black"/>
<path d="M119.583 297.322C119.583 294.842 121.533 292.893 124.013 292.893C126.494 292.893 128.443 294.842 128.443 297.322C128.443 299.803 126.494 301.752 124.013 301.752C121.533 301.752 119.583 299.803 119.583 297.322Z" fill="black"/>
<path d="M93.1826 297.322C93.1826 294.842 95.1317 292.893 97.6123 292.893C100.093 292.893 102.042 294.842 102.042 297.322C102.042 299.803 100.093 301.752 97.6123 301.752C95.1317 301.752 93.1826 299.803 93.1826 297.322Z" fill="black"/>
<path d="M66.7812 297.322C66.7812 294.842 68.7303 292.893 71.2109 292.893C73.6916 292.893 75.6406 294.842 75.6406 297.322C75.6406 299.803 73.6916 301.752 71.2109 301.752C68.7303 301.752 66.7812 299.803 66.7812 297.322Z" fill="black"/>
<path d="M40.2031 297.322C40.2031 294.842 42.1522 292.893 44.6328 292.893C47.1134 292.893 49.0625 294.842 49.0625 297.322C49.0625 299.803 47.1134 301.752 44.6328 301.752C42.3294 301.752 40.2031 299.803 40.2031 297.322Z" fill="black"/>
<path d="M13.8022 297.322C13.8022 294.842 15.7513 292.893 18.2319 292.893C20.7126 292.893 22.6616 294.842 22.6616 297.322C22.6616 299.803 20.7126 301.752 18.2319 301.752C15.7513 301.752 13.8022 299.803 13.8022 297.322Z" fill="black"/>
<path d="M145.984 270.567C145.984 268.086 147.933 266.137 150.414 266.137C152.895 266.137 154.844 268.086 154.844 270.567C154.844 273.047 152.895 274.996 150.414 274.996C148.111 275.174 145.984 273.047 145.984 270.567Z" fill="black"/>
<path d="M119.583 270.567C119.583 268.087 121.533 266.138 124.013 266.138C126.494 266.138 128.443 268.087 128.443 270.567C128.443 273.048 126.494 274.997 124.013 274.997C121.533 275.174 119.583 273.048 119.583 270.567Z" fill="black"/>
<path d="M93.1821 270.567C93.1821 268.087 95.1312 266.138 97.6118 266.138C100.092 266.138 102.042 268.087 102.042 270.567C102.042 273.048 100.092 274.997 97.6118 274.997C95.1312 275.174 93.1821 273.048 93.1821 270.567Z" fill="black"/>
<path d="M66.7812 270.567C66.7812 268.087 68.7303 266.138 71.2109 266.138C73.6916 266.138 75.6406 268.087 75.6406 270.567C75.6406 273.048 73.6916 274.997 71.2109 274.997C68.7303 274.997 66.7812 273.048 66.7812 270.567Z" fill="black"/>
<path d="M40.2031 270.567C40.2031 268.087 42.1522 266.138 44.6328 266.138C47.1134 266.138 49.0625 268.087 49.0625 270.567C49.0625 273.048 47.1134 274.997 44.6328 274.997C42.3294 275.174 40.2031 273.048 40.2031 270.567Z" fill="black"/>
<path d="M13.8022 270.567C13.8022 268.087 15.7513 266.138 18.2319 266.138C20.7126 266.138 22.6616 268.087 22.6616 270.567C22.6616 273.048 20.7126 274.997 18.2319 274.997C15.7513 275.174 13.8022 273.048 13.8022 270.567Z" fill="black"/>
<path d="M145.984 243.987C145.984 241.507 147.933 239.558 150.414 239.558C152.895 239.558 154.844 241.507 154.844 243.987C154.844 246.468 152.895 248.417 150.414 248.417C148.111 248.594 145.984 246.468 145.984 243.987Z" fill="black"/>
<path d="M119.583 243.988C119.583 241.508 121.533 239.558 124.013 239.558C126.494 239.558 128.443 241.508 128.443 243.988C128.443 246.469 126.494 248.418 124.013 248.418C121.533 248.595 119.583 246.469 119.583 243.988Z" fill="black"/>
<path d="M93.1821 243.988C93.1821 241.508 95.1312 239.558 97.6118 239.558C100.092 239.558 102.042 241.508 102.042 243.988C102.042 246.469 100.092 248.418 97.6118 248.418C95.1312 248.595 93.1821 246.469 93.1821 243.988Z" fill="black"/>
<path d="M66.7812 243.988C66.7812 241.508 68.7303 239.559 71.2109 239.559C73.6916 239.559 75.6406 241.508 75.6406 243.988C75.6406 246.469 73.6916 248.418 71.2109 248.418C68.7303 248.418 66.7812 246.469 66.7812 243.988Z" fill="black"/>
<path d="M40.2031 243.988C40.2031 241.508 42.1522 239.558 44.6328 239.558C47.1134 239.558 49.0625 241.508 49.0625 243.988C49.0625 246.469 47.1134 248.418 44.6328 248.418C42.3294 248.595 40.2031 246.469 40.2031 243.988Z" fill="black"/>
<path d="M13.8022 243.988C13.8022 241.508 15.7513 239.558 18.2319 239.558C20.7126 239.558 22.6616 241.508 22.6616 243.988C22.6616 246.469 20.7126 248.418 18.2319 248.418C15.7513 248.595 13.8022 246.469 13.8022 243.988Z" fill="black"/>
<path d="M145.984 217.41C145.984 214.93 147.933 212.98 150.414 212.98C152.895 212.98 154.844 214.93 154.844 217.41C154.844 219.891 152.895 221.84 150.414 221.84C148.111 221.84 145.984 219.891 145.984 217.41Z" fill="black"/>
<path d="M119.583 217.41C119.583 214.93 121.533 212.98 124.013 212.98C126.494 212.98 128.443 214.93 128.443 217.41C128.443 219.891 126.494 221.84 124.013 221.84C121.533 221.84 119.583 219.891 119.583 217.41Z" fill="black"/>
<path d="M93.1826 217.41C93.1826 214.93 95.1317 212.98 97.6123 212.98C100.093 212.98 102.042 214.93 102.042 217.41C102.042 219.891 100.093 221.84 97.6123 221.84C95.1317 221.84 93.1826 219.891 93.1826 217.41Z" fill="black"/>
<path d="M66.7812 217.41C66.7812 214.93 68.7303 212.98 71.2109 212.98C73.6916 212.98 75.6406 214.93 75.6406 217.41C75.6406 219.891 73.6916 221.84 71.2109 221.84C68.7303 221.84 66.7812 219.891 66.7812 217.41Z" fill="black"/>
<path d="M40.2031 217.41C40.2031 214.93 42.1522 212.98 44.6328 212.98C47.1134 212.98 49.0625 214.93 49.0625 217.41C49.0625 219.891 47.1134 221.84 44.6328 221.84C42.3294 221.84 40.2031 219.891 40.2031 217.41Z" fill="black"/>
<path d="M13.8022 217.41C13.8022 214.93 15.7513 212.98 18.2319 212.98C20.7126 212.98 22.6616 214.93 22.6616 217.41C22.6616 219.891 20.7126 221.84 18.2319 221.84C15.7513 221.84 13.8022 219.891 13.8022 217.41Z" fill="black"/>
<path d="M145.984 190.832C145.984 188.351 147.933 186.402 150.414 186.402C152.895 186.402 154.844 188.351 154.844 190.832C154.844 193.312 152.895 195.261 150.414 195.261C148.111 195.261 145.984 193.312 145.984 190.832Z" fill="black"/>
<path d="M119.583 190.833C119.583 188.352 121.533 186.403 124.013 186.403C126.494 186.403 128.443 188.352 128.443 190.833C128.443 193.313 126.494 195.262 124.013 195.262C121.533 195.262 119.583 193.313 119.583 190.833Z" fill="black"/>
<path d="M93.1821 190.833C93.1821 188.352 95.1312 186.403 97.6118 186.403C100.092 186.403 102.042 188.352 102.042 190.833C102.042 193.313 100.092 195.262 97.6118 195.262C95.1312 195.262 93.1821 193.313 93.1821 190.833Z" fill="black"/>
<path d="M66.7812 190.833C66.7812 188.352 68.7303 186.403 71.2109 186.403C73.6916 186.403 75.6406 188.352 75.6406 190.833C75.6406 193.313 73.6916 195.262 71.2109 195.262C68.7303 195.262 66.7812 193.313 66.7812 190.833Z" fill="black"/>
<path d="M40.2031 190.833C40.2031 188.352 42.1522 186.403 44.6328 186.403C47.1134 186.403 49.0625 188.352 49.0625 190.833C49.0625 193.313 47.1134 195.262 44.6328 195.262C42.3294 195.262 40.2031 193.313 40.2031 190.833Z" fill="black"/>
<path d="M13.8022 190.833C13.8022 188.352 15.7513 186.403 18.2319 186.403C20.7126 186.403 22.6616 188.352 22.6616 190.833C22.6616 193.313 20.7126 195.262 18.2319 195.262C15.7513 195.262 13.8022 193.313 13.8022 190.833Z" fill="black"/>
<path d="M145.984 164.077C145.984 161.596 147.933 159.647 150.414 159.647C152.895 159.647 154.844 161.596 154.844 164.077C154.844 166.558 152.895 168.507 150.414 168.507C148.111 168.684 145.984 166.558 145.984 164.077Z" fill="black"/>
<path d="M119.583 164.078C119.583 161.597 121.533 159.648 124.013 159.648C126.494 159.648 128.443 161.597 128.443 164.078C128.443 166.558 126.494 168.507 124.013 168.507C121.533 168.684 119.583 166.558 119.583 164.078Z" fill="black"/>
<path d="M93.1821 164.078C93.1821 161.597 95.1312 159.648 97.6118 159.648C100.092 159.648 102.042 161.597 102.042 164.078C102.042 166.558 100.092 168.507 97.6118 168.507C95.1312 168.684 93.1821 166.558 93.1821 164.078Z" fill="black"/>
<path d="M66.7812 164.078C66.7812 161.597 68.7303 159.648 71.2109 159.648C73.6916 159.648 75.6406 161.597 75.6406 164.078C75.6406 166.558 73.6916 168.507 71.2109 168.507C68.7303 168.507 66.7812 166.558 66.7812 164.078Z" fill="black"/>
<path d="M40.2031 164.078C40.2031 161.597 42.1522 159.648 44.6328 159.648C47.1134 159.648 49.0625 161.597 49.0625 164.078C49.0625 166.558 47.1134 168.507 44.6328 168.507C42.3294 168.684 40.2031 166.558 40.2031 164.078Z" fill="black"/>
<path d="M13.8022 164.078C13.8022 161.597 15.7513 159.648 18.2319 159.648C20.7126 159.648 22.6616 161.597 22.6616 164.078C22.6616 166.558 20.7126 168.507 18.2319 168.507C15.7513 168.684 13.8022 166.558 13.8022 164.078Z" fill="black"/>
<path d="M145.984 137.498C145.984 135.018 147.933 133.069 150.414 133.069C152.895 133.069 154.844 135.018 154.844 137.498C154.844 139.979 152.895 141.928 150.414 141.928C148.111 142.105 145.984 139.979 145.984 137.498Z" fill="black"/>
<path d="M119.583 137.499C119.583 135.019 121.533 133.07 124.013 133.07C126.494 133.07 128.443 135.019 128.443 137.499C128.443 139.98 126.494 141.929 124.013 141.929C121.533 142.106 119.583 139.98 119.583 137.499Z" fill="black"/>
<path d="M93.1821 137.499C93.1821 135.019 95.1312 133.07 97.6118 133.07C100.092 133.07 102.042 135.019 102.042 137.499C102.042 139.98 100.092 141.929 97.6118 141.929C95.1312 142.106 93.1821 139.98 93.1821 137.499Z" fill="black"/>
<path d="M66.7812 137.5C66.7812 135.019 68.7303 133.07 71.2109 133.07C73.6916 133.07 75.6406 135.019 75.6406 137.5C75.6406 139.98 73.6916 141.929 71.2109 141.929C68.7303 141.929 66.7812 139.98 66.7812 137.5Z" fill="black"/>
<path d="M40.2031 137.499C40.2031 135.019 42.1522 133.07 44.6328 133.07C47.1134 133.07 49.0625 135.019 49.0625 137.499C49.0625 139.98 47.1134 141.929 44.6328 141.929C42.3294 142.106 40.2031 139.98 40.2031 137.499Z" fill="black"/>
<path d="M13.8022 137.499C13.8022 135.019 15.7513 133.07 18.2319 133.07C20.7126 133.07 22.6616 135.019 22.6616 137.499C22.6616 139.98 20.7126 141.929 18.2319 141.929C15.7513 142.106 13.8022 139.98 13.8022 137.499Z" fill="black"/>
<path d="M145.984 110.921C145.984 108.44 147.933 106.491 150.414 106.491C152.895 106.491 154.844 108.44 154.844 110.921C154.844 113.402 152.895 115.351 150.414 115.351C148.111 115.351 145.984 113.402 145.984 110.921Z" fill="black"/>
<path d="M119.583 110.921C119.583 108.441 121.533 106.492 124.013 106.492C126.494 106.492 128.443 108.441 128.443 110.921C128.443 113.402 126.494 115.351 124.013 115.351C121.533 115.351 119.583 113.402 119.583 110.921Z" fill="black"/>
<path d="M93.1821 110.921C93.1821 108.441 95.1312 106.492 97.6118 106.492C100.092 106.492 102.042 108.441 102.042 110.921C102.042 113.402 100.092 115.351 97.6118 115.351C95.1312 115.351 93.1821 113.402 93.1821 110.921Z" fill="black"/>
<path d="M66.7812 110.921C66.7812 108.441 68.7303 106.492 71.2109 106.492C73.6916 106.492 75.6406 108.441 75.6406 110.921C75.6406 113.402 73.6916 115.351 71.2109 115.351C68.7303 115.351 66.7812 113.402 66.7812 110.921Z" fill="black"/>
<path d="M40.2031 110.921C40.2031 108.441 42.1522 106.492 44.6328 106.492C47.1134 106.492 49.0625 108.441 49.0625 110.921C49.0625 113.402 47.1134 115.351 44.6328 115.351C42.3294 115.351 40.2031 113.402 40.2031 110.921Z" fill="black"/>
<path d="M13.8022 110.921C13.8022 108.441 15.7513 106.492 18.2319 106.492C20.7126 106.492 22.6616 108.441 22.6616 110.921C22.6616 113.402 20.7126 115.351 18.2319 115.351C15.7513 115.351 13.8022 113.402 13.8022 110.921Z" fill="black"/>
<path d="M145.984 84.3418C145.984 81.8612 147.933 79.9121 150.414 79.9121C152.895 79.9121 154.844 81.8612 154.844 84.3418C154.844 86.8224 152.895 88.7715 150.414 88.7715C148.111 88.7715 145.984 86.8224 145.984 84.3418Z" fill="black"/>
<path d="M119.583 84.3423C119.583 81.8616 121.533 79.9126 124.013 79.9126C126.494 79.9126 128.443 81.8616 128.443 84.3423C128.443 86.8229 126.494 88.772 124.013 88.772C121.533 88.772 119.583 86.8229 119.583 84.3423Z" fill="black"/>
<path d="M93.1821 84.3423C93.1821 81.8616 95.1312 79.9126 97.6118 79.9126C100.092 79.9126 102.042 81.8616 102.042 84.3423C102.042 86.8229 100.092 88.772 97.6118 88.772C95.1312 88.772 93.1821 86.8229 93.1821 84.3423Z" fill="black"/>
<path d="M66.7812 84.3423C66.7812 81.8616 68.7303 79.9126 71.2109 79.9126C73.6916 79.9126 75.6406 81.8616 75.6406 84.3423C75.6406 86.8229 73.6916 88.772 71.2109 88.772C68.7303 88.772 66.7812 86.8229 66.7812 84.3423Z" fill="black"/>
<path d="M40.2031 84.3423C40.2031 81.8616 42.1522 79.9126 44.6328 79.9126C47.1134 79.9126 49.0625 81.8616 49.0625 84.3423C49.0625 86.8229 47.1134 88.772 44.6328 88.772C42.3294 88.772 40.2031 86.8229 40.2031 84.3423Z" fill="black"/>
<path d="M13.8022 84.3423C13.8022 81.8616 15.7513 79.9126 18.2319 79.9126C20.7126 79.9126 22.6616 81.8616 22.6616 84.3423C22.6616 86.8229 20.7126 88.772 18.2319 88.772C15.7513 88.772 13.8022 86.8229 13.8022 84.3423Z" fill="black"/>
<path d="M145.984 57.5868C145.984 55.1062 147.933 53.1571 150.414 53.1571C152.895 53.1571 154.844 55.1062 154.844 57.5868C154.844 60.0675 152.895 62.0165 150.414 62.0165C148.111 62.1937 145.984 60.0675 145.984 57.5868Z" fill="black"/>
<path d="M119.583 57.5878C119.583 55.1072 121.533 53.1581 124.013 53.1581C126.494 53.1581 128.443 55.1072 128.443 57.5878C128.443 60.0684 126.494 62.0175 124.013 62.0175C121.533 62.1947 119.583 60.0684 119.583 57.5878Z" fill="black"/>
<path d="M93.1826 57.5878C93.1826 55.1072 95.1317 53.1581 97.6123 53.1581C100.093 53.1581 102.042 55.1072 102.042 57.5878C102.042 60.0684 100.093 62.0175 97.6123 62.0175C95.1317 62.1947 93.1826 60.0684 93.1826 57.5878Z" fill="black"/>
<path d="M66.7812 57.5879C66.7812 55.1072 68.7303 53.1582 71.2109 53.1582C73.6916 53.1582 75.6406 55.1072 75.6406 57.5879C75.6406 60.0685 73.6916 62.0176 71.2109 62.0176C68.7303 62.0176 66.7812 60.0685 66.7812 57.5879Z" fill="black"/>
<path d="M40.2031 57.5878C40.2031 55.1072 42.1522 53.1581 44.6328 53.1581C47.1134 53.1581 49.0625 55.1072 49.0625 57.5878C49.0625 60.0684 47.1134 62.0175 44.6328 62.0175C42.3294 62.1947 40.2031 60.0684 40.2031 57.5878Z" fill="black"/>
<path d="M13.8022 57.5878C13.8022 55.1072 15.7513 53.1581 18.2319 53.1581C20.7126 53.1581 22.6616 55.1072 22.6616 57.5878C22.6616 60.0684 20.7126 62.0175 18.2319 62.0175C15.7513 62.1947 13.8022 60.0684 13.8022 57.5878Z" fill="black"/>
<path d="M145.984 31.0092C145.984 28.5286 147.933 26.5795 150.414 26.5795C152.895 26.5795 154.844 28.5286 154.844 31.0092C154.844 33.4898 152.895 35.4389 150.414 35.4389C148.111 35.6161 145.984 33.4898 145.984 31.0092Z" fill="black"/>
<path d="M119.583 31.0087C119.583 28.5281 121.533 26.579 124.013 26.579C126.494 26.579 128.443 28.5281 128.443 31.0087C128.443 33.4893 126.494 35.4384 124.013 35.4384C121.533 35.6156 119.583 33.4893 119.583 31.0087Z" fill="black"/>
<path d="M93.1826 31.0087C93.1826 28.5281 95.1317 26.579 97.6123 26.579C100.093 26.579 102.042 28.5281 102.042 31.0087C102.042 33.4893 100.093 35.4384 97.6123 35.4384C95.1317 35.6156 93.1826 33.4893 93.1826 31.0087Z" fill="black"/>
<path d="M66.7812 31.0088C66.7812 28.5281 68.7303 26.5791 71.2109 26.5791C73.6916 26.5791 75.6406 28.5281 75.6406 31.0088C75.6406 33.4894 73.6916 35.4385 71.2109 35.4385C68.7303 35.4385 66.7812 33.4894 66.7812 31.0088Z" fill="black"/>
<path d="M40.2031 31.0087C40.2031 28.5281 42.1522 26.579 44.6328 26.579C47.1134 26.579 49.0625 28.5281 49.0625 31.0087C49.0625 33.4893 47.1134 35.4384 44.6328 35.4384C42.3294 35.6156 40.2031 33.4893 40.2031 31.0087Z" fill="black"/>
<path d="M13.8022 31.0087C13.8022 28.5281 15.7513 26.579 18.2319 26.579C20.7126 26.579 22.6616 28.5281 22.6616 31.0087C22.6616 33.4893 20.7126 35.4384 18.2319 35.4384C15.7513 35.6156 13.8022 33.4893 13.8022 31.0087Z" fill="black"/>
<path d="M145.984 4.42968C145.984 1.94904 147.933 -2.29385e-05 150.414 -2.29205e-05C152.895 -2.29024e-05 154.844 1.94904 154.844 4.42968C154.844 6.91031 152.895 8.85937 150.414 8.85937C148.111 8.85937 145.984 6.91031 145.984 4.42968Z" fill="black"/>
<path d="M119.583 4.43065C119.583 1.95002 121.533 0.000953624 124.013 0.000953642C126.494 0.00095366 128.443 1.95002 128.443 4.43065C128.443 6.91128 126.494 8.86035 124.013 8.86035C121.533 8.86035 119.583 6.91128 119.583 4.43065Z" fill="black"/>
<path d="M93.1821 4.43065C93.1821 1.95002 95.1312 0.000953624 97.6118 0.000953642C100.092 0.00095366 102.042 1.95002 102.042 4.43065C102.042 6.91128 100.092 8.86035 97.6118 8.86035C95.1312 8.86035 93.1821 6.91128 93.1821 4.43065Z" fill="black"/>
<path d="M66.7812 4.43065C66.7812 1.95002 68.7303 0.000953624 71.2109 0.000953642C73.6916 0.00095366 75.6406 1.95002 75.6406 4.43065C75.6406 6.91128 73.6916 8.86035 71.2109 8.86035C68.7303 8.86035 66.7812 6.91128 66.7812 4.43065Z" fill="black"/>
<path d="M40.2031 4.43065C40.2031 1.95002 42.1522 0.000953624 44.6328 0.000953642C47.1134 0.00095366 49.0625 1.95002 49.0625 4.43065C49.0625 6.91128 47.1134 8.86035 44.6328 8.86035C42.3294 8.86035 40.2031 6.91128 40.2031 4.43065Z" fill="black"/>
<path d="M13.8022 4.43065C13.8022 1.95002 15.7513 0.000953624 18.2319 0.000953642C20.7126 0.00095366 22.6616 1.95002 22.6616 4.43065C22.6616 6.91128 20.7126 8.86035 18.2319 8.86035C15.7513 8.86035 13.8022 6.91128 13.8022 4.43065Z" fill="black"/>
</g>
</svg>
