<svg width="65" height="65" viewBox="0 0 65 65" fill="none" xmlns="http://www.w3.org/2000/svg">
<path d="M32.5134 37.9033C27.8637 37.9033 23.3827 39.5901 19.8941 42.6522L17.8589 44.4381L21.4327 48.5085L23.468 46.7226C25.9674 44.5287 29.1809 43.32 32.5154 43.32C35.8518 43.32 39.0581 44.5234 41.5489 46.7094L43.5841 48.4953L47.158 44.4262L45.1221 42.6383C41.6421 39.5848 37.165 37.9033 32.5134 37.9033Z" fill="#FD9902"/>
<path d="M32.5 0C14.5791 0 0 14.5791 0 32.5C0 50.4209 14.5791 65 32.5 65C50.4196 65 65 50.4209 65 32.5C65 14.5791 50.4196 0 32.5 0ZM32.5 59.5833C17.5665 59.5833 5.41667 47.4335 5.41667 32.5C5.41667 17.5665 17.5665 5.41667 32.5 5.41667C47.4335 5.41667 59.5833 17.5665 59.5833 32.5C59.5833 47.4335 47.4335 59.5833 32.5 59.5833Z" fill="#FD9902"/>
<path d="M18.9585 24.375H24.3752V29.7917H18.9585V24.375Z" fill="#FD9902"/>
<path d="M40.625 24.375H46.0417V29.7917H40.625V24.375Z" fill="#FD9902"/>
</svg>
