<svg width="409" height="506" viewBox="0 0 409 506" fill="none" xmlns="http://www.w3.org/2000/svg">
<g opacity="0.07" clip-path="url(#clip0)">
<path d="M396.234 114.818C393.753 114.818 391.804 112.869 391.804 110.388C391.804 107.908 393.753 105.958 396.234 105.958C398.714 105.958 400.663 107.908 400.663 110.388C400.841 112.692 398.714 114.818 396.234 114.818Z" fill="#323232"/>
<path d="M396.234 141.219C393.753 141.219 391.804 139.27 391.804 136.789C391.804 134.308 393.753 132.359 396.234 132.359C398.714 132.359 400.663 134.308 400.663 136.789C400.841 139.27 398.714 141.219 396.234 141.219Z" fill="#323232"/>
<path d="M396.234 167.62C393.753 167.62 391.804 165.671 391.804 163.19C391.804 160.71 393.753 158.761 396.234 158.761C398.714 158.761 400.663 160.71 400.663 163.19C400.841 165.671 398.714 167.62 396.234 167.62Z" fill="#323232"/>
<path d="M396.234 194.021C393.753 194.021 391.804 192.072 391.804 189.591C391.804 187.111 393.753 185.162 396.234 185.162C398.714 185.162 400.663 187.111 400.663 189.591C400.841 192.072 398.714 194.021 396.234 194.021Z" fill="#323232"/>
<path d="M396.234 220.599C393.753 220.599 391.804 218.65 391.804 216.169C391.804 213.689 393.753 211.74 396.234 211.74C398.714 211.74 400.663 213.689 400.663 216.169C400.841 218.473 398.714 220.599 396.234 220.599Z" fill="#323232"/>
<path d="M396.234 247C393.753 247 391.804 245.051 391.804 242.57C391.804 240.09 393.753 238.141 396.234 238.141C398.715 238.141 400.664 240.09 400.664 242.57C400.664 245.051 398.715 247 396.234 247Z" fill="#323232"/>
<path d="M369.655 114.818C367.175 114.818 365.225 112.869 365.225 110.388C365.225 107.908 367.175 105.958 369.655 105.958C372.136 105.958 374.085 107.908 374.085 110.388C374.262 112.692 372.136 114.818 369.655 114.818Z" fill="#323232"/>
<path d="M369.655 141.219C367.175 141.219 365.225 139.27 365.225 136.789C365.225 134.308 367.175 132.359 369.655 132.359C372.136 132.359 374.085 134.308 374.085 136.789C374.262 139.27 372.136 141.219 369.655 141.219Z" fill="#323232"/>
<path d="M369.655 167.62C367.175 167.62 365.225 165.671 365.225 163.19C365.225 160.71 367.175 158.761 369.655 158.761C372.136 158.761 374.085 160.71 374.085 163.19C374.262 165.671 372.136 167.62 369.655 167.62Z" fill="#323232"/>
<path d="M369.655 194.021C367.175 194.021 365.225 192.072 365.225 189.591C365.225 187.111 367.175 185.162 369.655 185.162C372.136 185.162 374.085 187.111 374.085 189.591C374.262 192.072 372.136 194.021 369.655 194.021Z" fill="#323232"/>
<path d="M369.655 220.599C367.175 220.599 365.225 218.65 365.225 216.169C365.225 213.689 367.175 211.74 369.655 211.74C372.136 211.74 374.085 213.689 374.085 216.169C374.262 218.473 372.136 220.599 369.655 220.599Z" fill="#323232"/>
<path d="M369.655 247C367.175 247 365.226 245.051 365.226 242.57C365.226 240.09 367.175 238.141 369.655 238.141C372.136 238.141 374.085 240.09 374.085 242.57C374.085 245.051 372.136 247 369.655 247Z" fill="#323232"/>
<path d="M343.077 114.818C340.597 114.818 338.647 112.869 338.647 110.388C338.647 107.908 340.597 105.958 343.077 105.958C345.558 105.958 347.507 107.908 347.507 110.388C347.507 112.692 345.558 114.818 343.077 114.818Z" fill="#323232"/>
<path d="M343.077 141.219C340.597 141.219 338.647 139.27 338.647 136.789C338.647 134.308 340.597 132.359 343.077 132.359C345.558 132.359 347.507 134.308 347.507 136.789C347.507 139.27 345.558 141.219 343.077 141.219Z" fill="#323232"/>
<path d="M343.077 167.62C340.597 167.62 338.647 165.671 338.647 163.19C338.647 160.71 340.597 158.761 343.077 158.761C345.558 158.761 347.507 160.71 347.507 163.19C347.507 165.671 345.558 167.62 343.077 167.62Z" fill="#323232"/>
<path d="M343.077 194.021C340.597 194.021 338.647 192.072 338.647 189.591C338.647 187.111 340.597 185.162 343.077 185.162C345.558 185.162 347.507 187.111 347.507 189.591C347.507 192.072 345.558 194.021 343.077 194.021Z" fill="#323232"/>
<path d="M343.077 220.599C340.597 220.599 338.647 218.65 338.647 216.169C338.647 213.689 340.597 211.74 343.077 211.74C345.558 211.74 347.507 213.689 347.507 216.169C347.507 218.473 345.558 220.599 343.077 220.599Z" fill="#323232"/>
<path d="M343.077 247C340.597 247 338.647 245.051 338.647 242.57C338.647 240.09 340.597 238.141 343.077 238.141C345.558 238.141 347.507 240.09 347.507 242.57C347.507 245.051 345.558 247 343.077 247Z" fill="#323232"/>
<path d="M316.499 114.818C314.018 114.818 312.069 112.869 312.069 110.388C312.069 107.908 314.018 105.958 316.499 105.958C318.979 105.958 320.928 107.908 320.928 110.388C320.928 112.692 318.979 114.818 316.499 114.818Z" fill="#323232"/>
<path d="M316.499 141.219C314.018 141.219 312.069 139.27 312.069 136.789C312.069 134.308 314.018 132.359 316.499 132.359C318.979 132.359 320.928 134.308 320.928 136.789C320.928 139.27 318.979 141.219 316.499 141.219Z" fill="#323232"/>
<path d="M316.499 167.62C314.018 167.62 312.069 165.671 312.069 163.19C312.069 160.71 314.018 158.761 316.499 158.761C318.979 158.761 320.928 160.71 320.928 163.19C320.928 165.671 318.979 167.62 316.499 167.62Z" fill="#323232"/>
<path d="M316.499 194.021C314.018 194.021 312.069 192.072 312.069 189.591C312.069 187.111 314.018 185.162 316.499 185.162C318.979 185.162 320.928 187.111 320.928 189.591C320.928 192.072 318.979 194.021 316.499 194.021Z" fill="#323232"/>
<path d="M316.499 220.599C314.018 220.599 312.069 218.65 312.069 216.169C312.069 213.689 314.018 211.74 316.499 211.74C318.979 211.74 320.928 213.689 320.928 216.169C320.928 218.473 318.979 220.599 316.499 220.599Z" fill="#323232"/>
<path d="M316.499 247C314.018 247 312.069 245.051 312.069 242.57C312.069 240.09 314.018 238.141 316.499 238.141C318.979 238.141 320.928 240.09 320.928 242.57C320.928 245.051 318.979 247 316.499 247Z" fill="#323232"/>
<path d="M289.744 114.818C287.263 114.818 285.314 112.869 285.314 110.388C285.314 107.908 287.263 105.958 289.744 105.958C292.224 105.958 294.173 107.908 294.173 110.388C294.35 112.692 292.224 114.818 289.744 114.818Z" fill="#323232"/>
<path d="M289.744 141.219C287.263 141.219 285.314 139.27 285.314 136.789C285.314 134.308 287.263 132.359 289.744 132.359C292.224 132.359 294.173 134.308 294.173 136.789C294.35 139.27 292.224 141.219 289.744 141.219Z" fill="#323232"/>
<path d="M289.744 167.62C287.263 167.62 285.314 165.671 285.314 163.19C285.314 160.71 287.263 158.761 289.744 158.761C292.224 158.761 294.173 160.71 294.173 163.19C294.35 165.671 292.224 167.62 289.744 167.62Z" fill="#323232"/>
<path d="M289.744 194.021C287.263 194.021 285.314 192.072 285.314 189.591C285.314 187.111 287.263 185.162 289.744 185.162C292.224 185.162 294.173 187.111 294.173 189.591C294.35 192.072 292.224 194.021 289.744 194.021Z" fill="#323232"/>
<path d="M289.744 220.599C287.263 220.599 285.314 218.65 285.314 216.169C285.314 213.689 287.263 211.74 289.744 211.74C292.224 211.74 294.173 213.689 294.173 216.169C294.35 218.473 292.224 220.599 289.744 220.599Z" fill="#323232"/>
<path d="M289.744 247C287.263 247 285.314 245.051 285.314 242.57C285.314 240.09 287.263 238.141 289.744 238.141C292.224 238.141 294.173 240.09 294.173 242.57C294.173 245.051 292.224 247 289.744 247Z" fill="#323232"/>
<path d="M263.164 114.818C260.684 114.818 258.735 112.869 258.735 110.388C258.735 107.908 260.684 105.958 263.164 105.958C265.645 105.958 267.594 107.908 267.594 110.388C267.771 112.692 265.645 114.818 263.164 114.818Z" fill="#323232"/>
<path d="M263.164 141.219C260.684 141.219 258.735 139.27 258.735 136.789C258.735 134.308 260.684 132.359 263.164 132.359C265.645 132.359 267.594 134.308 267.594 136.789C267.771 139.27 265.645 141.219 263.164 141.219Z" fill="#323232"/>
<path d="M263.164 167.62C260.684 167.62 258.735 165.671 258.735 163.19C258.735 160.71 260.684 158.761 263.164 158.761C265.645 158.761 267.594 160.71 267.594 163.19C267.771 165.671 265.645 167.62 263.164 167.62Z" fill="#323232"/>
<path d="M263.164 194.021C260.684 194.021 258.735 192.072 258.735 189.591C258.735 187.111 260.684 185.162 263.164 185.162C265.645 185.162 267.594 187.111 267.594 189.591C267.771 192.072 265.645 194.021 263.164 194.021Z" fill="#323232"/>
<path d="M263.164 220.599C260.684 220.599 258.735 218.65 258.735 216.169C258.735 213.689 260.684 211.74 263.164 211.74C265.645 211.74 267.594 213.689 267.594 216.169C267.771 218.473 265.645 220.599 263.164 220.599Z" fill="#323232"/>
<path d="M263.165 247C260.684 247 258.735 245.051 258.735 242.57C258.735 240.09 260.684 238.141 263.165 238.141C265.645 238.141 267.594 240.09 267.594 242.57C267.594 245.051 265.645 247 263.165 247Z" fill="#323232"/>
<path d="M236.586 114.818C234.106 114.818 232.157 112.869 232.157 110.388C232.157 107.908 234.106 105.958 236.586 105.958C239.067 105.958 241.016 107.908 241.016 110.388C241.016 112.692 239.067 114.818 236.586 114.818Z" fill="#323232"/>
<path d="M236.586 141.219C234.106 141.219 232.157 139.27 232.157 136.789C232.157 134.308 234.106 132.359 236.586 132.359C239.067 132.359 241.016 134.308 241.016 136.789C241.016 139.27 239.067 141.219 236.586 141.219Z" fill="#323232"/>
<path d="M236.586 167.62C234.106 167.62 232.157 165.671 232.157 163.19C232.157 160.71 234.106 158.761 236.586 158.761C239.067 158.761 241.016 160.71 241.016 163.19C241.016 165.671 239.067 167.62 236.586 167.62Z" fill="#323232"/>
<path d="M236.586 194.021C234.106 194.021 232.157 192.072 232.157 189.591C232.157 187.111 234.106 185.162 236.586 185.162C239.067 185.162 241.016 187.111 241.016 189.591C241.016 192.072 239.067 194.021 236.586 194.021Z" fill="#323232"/>
<path d="M236.586 220.599C234.106 220.599 232.157 218.65 232.157 216.169C232.157 213.689 234.106 211.74 236.586 211.74C239.067 211.74 241.016 213.689 241.016 216.169C241.016 218.473 239.067 220.599 236.586 220.599Z" fill="#323232"/>
<path d="M236.586 247C234.106 247 232.157 245.051 232.157 242.57C232.157 240.09 234.106 238.141 236.586 238.141C239.067 238.141 241.016 240.09 241.016 242.57C241.016 245.051 239.067 247 236.586 247Z" fill="#323232"/>
<path d="M210.009 114.818C207.528 114.818 205.579 112.869 205.579 110.388C205.579 107.908 207.528 105.958 210.009 105.958C212.489 105.958 214.438 107.908 214.438 110.388C214.438 112.692 212.489 114.818 210.009 114.818Z" fill="#323232"/>
<path d="M210.009 141.219C207.528 141.219 205.579 139.27 205.579 136.789C205.579 134.308 207.528 132.359 210.009 132.359C212.489 132.359 214.438 134.308 214.438 136.789C214.438 139.27 212.489 141.219 210.009 141.219Z" fill="#323232"/>
<path d="M210.009 167.62C207.528 167.62 205.579 165.671 205.579 163.19C205.579 160.71 207.528 158.761 210.009 158.761C212.489 158.761 214.438 160.71 214.438 163.19C214.438 165.671 212.489 167.62 210.009 167.62Z" fill="#323232"/>
<path d="M210.009 194.021C207.528 194.021 205.579 192.072 205.579 189.591C205.579 187.111 207.528 185.162 210.009 185.162C212.489 185.162 214.438 187.111 214.438 189.591C214.438 192.072 212.489 194.021 210.009 194.021Z" fill="#323232"/>
<path d="M210.009 220.599C207.528 220.599 205.579 218.65 205.579 216.169C205.579 213.689 207.528 211.74 210.009 211.74C212.489 211.74 214.438 213.689 214.438 216.169C214.438 218.473 212.489 220.599 210.009 220.599Z" fill="#323232"/>
<path d="M210.009 247C207.528 247 205.579 245.051 205.579 242.57C205.579 240.09 207.528 238.141 210.009 238.141C212.489 238.141 214.438 240.09 214.438 242.57C214.438 245.051 212.489 247 210.009 247Z" fill="#323232"/>
<path d="M183.254 114.818C180.774 114.818 178.825 112.869 178.825 110.388C178.825 107.908 180.774 105.958 183.254 105.958C185.735 105.958 187.684 107.908 187.684 110.388C187.861 112.692 185.735 114.818 183.254 114.818Z" fill="#323232"/>
<path d="M183.254 141.219C180.774 141.219 178.825 139.27 178.825 136.789C178.825 134.308 180.774 132.359 183.254 132.359C185.735 132.359 187.684 134.308 187.684 136.789C187.861 139.27 185.735 141.219 183.254 141.219Z" fill="#323232"/>
<path d="M183.254 167.62C180.774 167.62 178.825 165.671 178.825 163.19C178.825 160.71 180.774 158.761 183.254 158.761C185.735 158.761 187.684 160.71 187.684 163.19C187.861 165.671 185.735 167.62 183.254 167.62Z" fill="#323232"/>
<path d="M183.254 194.021C180.774 194.021 178.825 192.072 178.825 189.591C178.825 187.111 180.774 185.162 183.254 185.162C185.735 185.162 187.684 187.111 187.684 189.591C187.861 192.072 185.735 194.021 183.254 194.021Z" fill="#323232"/>
<path d="M183.254 220.599C180.774 220.599 178.825 218.65 178.825 216.169C178.825 213.689 180.774 211.74 183.254 211.74C185.735 211.74 187.684 213.689 187.684 216.169C187.861 218.473 185.735 220.599 183.254 220.599Z" fill="#323232"/>
<path d="M183.254 247C180.774 247 178.825 245.051 178.825 242.57C178.825 240.09 180.774 238.141 183.254 238.141C185.735 238.141 187.684 240.09 187.684 242.57C187.684 245.051 185.735 247 183.254 247Z" fill="#323232"/>
<path d="M156.676 114.818C154.195 114.818 152.246 112.869 152.246 110.388C152.246 107.908 154.195 105.958 156.676 105.958C159.156 105.958 161.105 107.908 161.105 110.388C161.283 112.692 159.156 114.818 156.676 114.818Z" fill="#323232"/>
<path d="M156.676 141.219C154.195 141.219 152.246 139.27 152.246 136.789C152.246 134.308 154.195 132.359 156.676 132.359C159.156 132.359 161.105 134.308 161.105 136.789C161.283 139.27 159.156 141.219 156.676 141.219Z" fill="#323232"/>
<path d="M156.676 167.62C154.195 167.62 152.246 165.671 152.246 163.19C152.246 160.71 154.195 158.761 156.676 158.761C159.156 158.761 161.105 160.71 161.105 163.19C161.283 165.671 159.156 167.62 156.676 167.62Z" fill="#323232"/>
<path d="M156.676 194.021C154.195 194.021 152.246 192.072 152.246 189.591C152.246 187.111 154.195 185.162 156.676 185.162C159.156 185.162 161.105 187.111 161.105 189.591C161.283 192.072 159.156 194.021 156.676 194.021Z" fill="#323232"/>
<path d="M156.676 220.599C154.195 220.599 152.246 218.65 152.246 216.169C152.246 213.689 154.195 211.74 156.676 211.74C159.156 211.74 161.105 213.689 161.105 216.169C161.283 218.473 159.156 220.599 156.676 220.599Z" fill="#323232"/>
<path d="M156.676 247C154.195 247 152.246 245.051 152.246 242.57C152.246 240.09 154.195 238.141 156.676 238.141C159.156 238.141 161.105 240.09 161.105 242.57C161.105 245.051 159.156 247 156.676 247Z" fill="#323232"/>
<path d="M130.098 114.818C127.617 114.818 125.668 112.869 125.668 110.388C125.668 107.908 127.617 105.958 130.098 105.958C132.578 105.958 134.527 107.908 134.527 110.388C134.527 112.692 132.578 114.818 130.098 114.818Z" fill="#323232"/>
<path d="M130.098 141.219C127.617 141.219 125.668 139.27 125.668 136.789C125.668 134.308 127.617 132.359 130.098 132.359C132.578 132.359 134.527 134.308 134.527 136.789C134.527 139.27 132.578 141.219 130.098 141.219Z" fill="#323232"/>
<path d="M130.098 167.62C127.617 167.62 125.668 165.671 125.668 163.19C125.668 160.71 127.617 158.761 130.098 158.761C132.578 158.761 134.527 160.71 134.527 163.19C134.527 165.671 132.578 167.62 130.098 167.62Z" fill="#323232"/>
<path d="M130.098 194.021C127.617 194.021 125.668 192.072 125.668 189.591C125.668 187.111 127.617 185.162 130.098 185.162C132.578 185.162 134.527 187.111 134.527 189.591C134.527 192.072 132.578 194.021 130.098 194.021Z" fill="#323232"/>
<path d="M130.098 220.599C127.617 220.599 125.668 218.65 125.668 216.169C125.668 213.689 127.617 211.74 130.098 211.74C132.578 211.74 134.527 213.689 134.527 216.169C134.527 218.473 132.578 220.599 130.098 220.599Z" fill="#323232"/>
<path d="M130.098 247C127.617 247 125.668 245.051 125.668 242.57C125.668 240.09 127.617 238.141 130.098 238.141C132.578 238.141 134.527 240.09 134.527 242.57C134.527 245.051 132.578 247 130.098 247Z" fill="#323232"/>
<path d="M103.519 114.818C101.038 114.818 99.0888 112.869 99.0888 110.388C99.0888 107.908 101.038 105.958 103.519 105.958C105.999 105.958 107.948 107.908 107.948 110.388C107.948 112.692 105.999 114.818 103.519 114.818Z" fill="#323232"/>
<path d="M103.519 141.219C101.038 141.219 99.0888 139.27 99.0888 136.789C99.0888 134.308 101.038 132.359 103.519 132.359C105.999 132.359 107.948 134.308 107.948 136.789C107.948 139.27 105.999 141.219 103.519 141.219Z" fill="#323232"/>
<path d="M103.519 167.62C101.038 167.62 99.0888 165.671 99.0888 163.19C99.0888 160.71 101.038 158.761 103.519 158.761C105.999 158.761 107.948 160.71 107.948 163.19C107.948 165.671 105.999 167.62 103.519 167.62Z" fill="#323232"/>
<path d="M103.519 194.021C101.038 194.021 99.0888 192.072 99.0888 189.591C99.0888 187.111 101.038 185.162 103.519 185.162C105.999 185.162 107.948 187.111 107.948 189.591C107.948 192.072 105.999 194.021 103.519 194.021Z" fill="#323232"/>
<path d="M103.519 220.599C101.038 220.599 99.0888 218.65 99.0888 216.169C99.0888 213.689 101.038 211.74 103.519 211.74C105.999 211.74 107.948 213.689 107.948 216.169C107.948 218.473 105.999 220.599 103.519 220.599Z" fill="#323232"/>
<path d="M103.519 247C101.038 247 99.0888 245.051 99.0888 242.57C99.0888 240.09 101.038 238.141 103.519 238.141C105.999 238.141 107.948 240.09 107.948 242.57C107.948 245.051 105.999 247 103.519 247Z" fill="#323232"/>
<path d="M76.7641 114.818C74.2834 114.818 72.3344 112.869 72.3344 110.388C72.3344 107.908 74.2834 105.958 76.7641 105.958C79.2447 105.958 81.1938 107.908 81.1938 110.388C81.371 112.692 79.2447 114.818 76.7641 114.818Z" fill="#323232"/>
<path d="M76.7641 141.219C74.2834 141.219 72.3344 139.27 72.3344 136.789C72.3344 134.308 74.2834 132.359 76.7641 132.359C79.2447 132.359 81.1938 134.308 81.1938 136.789C81.371 139.27 79.2447 141.219 76.7641 141.219Z" fill="#323232"/>
<path d="M76.7641 167.62C74.2834 167.62 72.3344 165.671 72.3344 163.19C72.3344 160.71 74.2834 158.761 76.7641 158.761C79.2447 158.761 81.1938 160.71 81.1938 163.19C81.371 165.671 79.2447 167.62 76.7641 167.62Z" fill="#323232"/>
<path d="M76.7641 194.021C74.2834 194.021 72.3344 192.072 72.3344 189.591C72.3344 187.111 74.2834 185.162 76.7641 185.162C79.2447 185.162 81.1938 187.111 81.1938 189.591C81.371 192.072 79.2447 194.021 76.7641 194.021Z" fill="#323232"/>
<path d="M76.7641 220.599C74.2834 220.599 72.3344 218.65 72.3344 216.169C72.3344 213.689 74.2834 211.74 76.7641 211.74C79.2447 211.74 81.1938 213.689 81.1938 216.169C81.371 218.473 79.2447 220.599 76.7641 220.599Z" fill="#323232"/>
<path d="M76.7641 247C74.2835 247 72.3344 245.051 72.3344 242.57C72.3344 240.09 74.2835 238.141 76.7641 238.141C79.2448 238.141 81.1938 240.09 81.1938 242.57C81.1938 245.051 79.2448 247 76.7641 247Z" fill="#323232"/>
<path d="M50.185 114.818C47.7043 114.818 45.7553 112.869 45.7553 110.388C45.7553 107.908 47.7043 105.958 50.185 105.958C52.6656 105.958 54.6147 107.908 54.6147 110.388C54.7919 112.692 52.6656 114.818 50.185 114.818Z" fill="#323232"/>
<path d="M50.185 141.219C47.7043 141.219 45.7553 139.27 45.7553 136.789C45.7553 134.308 47.7043 132.359 50.185 132.359C52.6656 132.359 54.6147 134.308 54.6147 136.789C54.7919 139.27 52.6656 141.219 50.185 141.219Z" fill="#323232"/>
<path d="M50.185 167.62C47.7043 167.62 45.7553 165.671 45.7553 163.19C45.7553 160.71 47.7043 158.761 50.185 158.761C52.6656 158.761 54.6147 160.71 54.6147 163.19C54.7919 165.671 52.6656 167.62 50.185 167.62Z" fill="#323232"/>
<path d="M50.185 194.021C47.7043 194.021 45.7553 192.072 45.7553 189.591C45.7553 187.111 47.7043 185.162 50.185 185.162C52.6656 185.162 54.6147 187.111 54.6147 189.591C54.7919 192.072 52.6656 194.021 50.185 194.021Z" fill="#323232"/>
<path d="M50.185 220.599C47.7043 220.599 45.7553 218.65 45.7553 216.169C45.7553 213.689 47.7043 211.74 50.185 211.74C52.6656 211.74 54.6147 213.689 54.6147 216.169C54.7919 218.473 52.6656 220.599 50.185 220.599Z" fill="#323232"/>
<path d="M50.185 247C47.7044 247 45.7553 245.051 45.7553 242.57C45.7553 240.09 47.7044 238.141 50.185 238.141C52.6657 238.141 54.6147 240.09 54.6147 242.57C54.6147 245.051 52.6657 247 50.185 247Z" fill="#323232"/>
<path d="M23.6069 114.818C21.1263 114.818 19.1772 112.869 19.1772 110.388C19.1772 107.908 21.1263 105.958 23.6069 105.958C26.0876 105.958 28.0366 107.908 28.0366 110.388C28.0366 112.692 26.0876 114.818 23.6069 114.818Z" fill="#323232"/>
<path d="M23.6069 141.219C21.1263 141.219 19.1772 139.27 19.1772 136.789C19.1772 134.308 21.1263 132.359 23.6069 132.359C26.0876 132.359 28.0366 134.308 28.0366 136.789C28.0366 139.27 26.0876 141.219 23.6069 141.219Z" fill="#323232"/>
<path d="M23.6069 167.62C21.1263 167.62 19.1772 165.671 19.1772 163.19C19.1772 160.71 21.1263 158.761 23.6069 158.761C26.0876 158.761 28.0366 160.71 28.0366 163.19C28.0366 165.671 26.0876 167.62 23.6069 167.62Z" fill="#323232"/>
<path d="M23.6069 194.021C21.1263 194.021 19.1772 192.072 19.1772 189.591C19.1772 187.111 21.1263 185.162 23.6069 185.162C26.0876 185.162 28.0366 187.111 28.0366 189.591C28.0366 192.072 26.0876 194.021 23.6069 194.021Z" fill="#323232"/>
<path d="M23.6069 220.599C21.1263 220.599 19.1772 218.65 19.1772 216.169C19.1772 213.689 21.1263 211.74 23.6069 211.74C26.0876 211.74 28.0366 213.689 28.0366 216.169C28.0366 218.473 26.0876 220.599 23.6069 220.599Z" fill="#323232"/>
<path d="M23.6069 247C21.1263 247 19.1772 245.051 19.1772 242.57C19.1772 240.09 21.1263 238.141 23.6069 238.141C26.0876 238.141 28.0366 240.09 28.0366 242.57C28.0366 245.051 26.0876 247 23.6069 247Z" fill="#323232"/>
</g>
<g opacity="0.07" clip-path="url(#clip1)">
<path d="M396.233 268.037C393.753 268.037 391.804 266.088 391.804 263.607C391.804 260.949 393.753 259 396.233 259C398.714 259 400.84 260.949 400.84 263.43C400.84 265.91 398.714 268.037 396.233 268.037Z" fill="#323232"/>
<path d="M396.234 294.438C393.753 294.438 391.804 292.488 391.804 290.008C391.804 287.527 393.753 285.578 396.234 285.578C398.714 285.578 400.663 287.527 400.663 290.008C400.841 292.488 398.714 294.438 396.234 294.438Z" fill="#323232"/>
<path d="M396.234 320.839C393.753 320.839 391.804 318.89 391.804 316.409C391.804 313.928 393.753 311.979 396.234 311.979C398.715 311.979 400.841 313.928 400.841 316.409C400.841 318.89 398.715 320.839 396.234 320.839Z" fill="#323232"/>
<path d="M396.234 347.24C393.753 347.24 391.804 345.29 391.804 342.81C391.804 340.329 393.753 338.38 396.234 338.38C398.715 338.38 400.664 340.329 400.664 342.81C400.664 345.29 398.715 347.24 396.234 347.24Z" fill="#323232"/>
<path d="M396.234 373.818C393.753 373.818 391.804 371.869 391.804 369.388C391.804 366.908 393.753 364.958 396.234 364.958C398.714 364.958 400.663 366.908 400.663 369.388C400.841 371.692 398.714 373.818 396.234 373.818Z" fill="#323232"/>
<path d="M396.234 400.219C393.753 400.219 391.804 398.27 391.804 395.789C391.804 393.308 393.753 391.359 396.234 391.359C398.714 391.359 400.663 393.308 400.663 395.789C400.841 398.27 398.714 400.219 396.234 400.219Z" fill="#323232"/>
<path d="M396.234 426.62C393.753 426.62 391.804 424.671 391.804 422.19C391.804 419.71 393.753 417.76 396.234 417.76C398.714 417.76 400.663 419.71 400.663 422.19C400.841 424.671 398.714 426.62 396.234 426.62Z" fill="#323232"/>
<path d="M396.234 453.021C393.753 453.021 391.804 451.072 391.804 448.591C391.804 446.11 393.753 444.161 396.234 444.161C398.714 444.161 400.663 446.11 400.663 448.591C400.841 451.072 398.714 453.021 396.234 453.021Z" fill="#323232"/>
<path d="M396.234 479.599C393.753 479.599 391.804 477.65 391.804 475.169C391.804 472.689 393.753 470.74 396.234 470.74C398.714 470.74 400.663 472.689 400.663 475.169C400.841 477.473 398.714 479.599 396.234 479.599Z" fill="#323232"/>
<path d="M396.234 506C393.753 506 391.804 504.051 391.804 501.57C391.804 499.09 393.753 497.141 396.234 497.141C398.715 497.141 400.664 499.09 400.664 501.57C400.664 504.051 398.715 506 396.234 506Z" fill="#323232"/>
<path d="M369.655 268.037C367.174 268.037 365.225 266.088 365.225 263.607C365.225 260.949 367.174 259 369.655 259C372.135 259 374.262 260.949 374.262 263.43C374.262 265.91 372.135 268.037 369.655 268.037Z" fill="#323232"/>
<path d="M369.655 294.438C367.175 294.438 365.225 292.488 365.225 290.008C365.225 287.527 367.175 285.578 369.655 285.578C372.136 285.578 374.085 287.527 374.085 290.008C374.262 292.488 372.136 294.438 369.655 294.438Z" fill="#323232"/>
<path d="M369.655 320.839C367.175 320.839 365.225 318.89 365.225 316.409C365.225 313.928 367.175 311.979 369.655 311.979C372.136 311.979 374.085 313.928 374.085 316.409C374.262 318.89 372.136 320.839 369.655 320.839Z" fill="#323232"/>
<path d="M369.655 347.24C367.175 347.24 365.226 345.29 365.226 342.81C365.226 340.329 367.175 338.38 369.655 338.38C372.136 338.38 374.085 340.329 374.085 342.81C374.085 345.29 372.136 347.24 369.655 347.24Z" fill="#323232"/>
<path d="M369.655 373.818C367.175 373.818 365.225 371.869 365.225 369.388C365.225 366.908 367.175 364.958 369.655 364.958C372.136 364.958 374.085 366.908 374.085 369.388C374.262 371.692 372.136 373.818 369.655 373.818Z" fill="#323232"/>
<path d="M369.655 400.219C367.175 400.219 365.225 398.27 365.225 395.789C365.225 393.308 367.175 391.359 369.655 391.359C372.136 391.359 374.085 393.308 374.085 395.789C374.262 398.27 372.136 400.219 369.655 400.219Z" fill="#323232"/>
<path d="M369.655 426.62C367.175 426.62 365.225 424.671 365.225 422.19C365.225 419.71 367.175 417.76 369.655 417.76C372.136 417.76 374.085 419.71 374.085 422.19C374.262 424.671 372.136 426.62 369.655 426.62Z" fill="#323232"/>
<path d="M369.655 453.021C367.175 453.021 365.225 451.072 365.225 448.591C365.225 446.11 367.175 444.161 369.655 444.161C372.136 444.161 374.085 446.11 374.085 448.591C374.262 451.072 372.136 453.021 369.655 453.021Z" fill="#323232"/>
<path d="M369.655 479.599C367.175 479.599 365.225 477.65 365.225 475.169C365.225 472.689 367.175 470.74 369.655 470.74C372.136 470.74 374.085 472.689 374.085 475.169C374.262 477.473 372.136 479.599 369.655 479.599Z" fill="#323232"/>
<path d="M369.655 506C367.175 506 365.226 504.051 365.226 501.57C365.226 499.09 367.175 497.141 369.655 497.141C372.136 497.141 374.085 499.09 374.085 501.57C374.085 504.051 372.136 506 369.655 506Z" fill="#323232"/>
<path d="M343.077 268.037C340.596 268.037 338.647 266.088 338.647 263.607C338.47 260.949 340.596 259 343.077 259C345.557 259 347.506 260.949 347.506 263.43C347.506 265.91 345.557 268.037 343.077 268.037Z" fill="#323232"/>
<path d="M343.077 294.438C340.597 294.438 338.647 292.488 338.647 290.008C338.647 287.527 340.597 285.578 343.077 285.578C345.558 285.578 347.507 287.527 347.507 290.008C347.507 292.488 345.558 294.438 343.077 294.438Z" fill="#323232"/>
<path d="M343.077 320.839C340.597 320.839 338.647 318.89 338.647 316.409C338.647 313.928 340.597 311.979 343.077 311.979C345.558 311.979 347.507 313.928 347.507 316.409C347.507 318.89 345.558 320.839 343.077 320.839Z" fill="#323232"/>
<path d="M343.077 347.24C340.597 347.24 338.647 345.29 338.647 342.81C338.647 340.329 340.597 338.38 343.077 338.38C345.558 338.38 347.507 340.329 347.507 342.81C347.507 345.29 345.558 347.24 343.077 347.24Z" fill="#323232"/>
<path d="M343.077 373.818C340.597 373.818 338.647 371.869 338.647 369.388C338.647 366.908 340.597 364.958 343.077 364.958C345.558 364.958 347.507 366.908 347.507 369.388C347.507 371.692 345.558 373.818 343.077 373.818Z" fill="#323232"/>
<path d="M343.077 400.219C340.597 400.219 338.647 398.27 338.647 395.789C338.647 393.308 340.597 391.359 343.077 391.359C345.558 391.359 347.507 393.308 347.507 395.789C347.507 398.27 345.558 400.219 343.077 400.219Z" fill="#323232"/>
<path d="M343.077 426.62C340.597 426.62 338.647 424.671 338.647 422.19C338.647 419.71 340.597 417.76 343.077 417.76C345.558 417.76 347.507 419.71 347.507 422.19C347.507 424.671 345.558 426.62 343.077 426.62Z" fill="#323232"/>
<path d="M343.077 453.021C340.597 453.021 338.647 451.072 338.647 448.591C338.647 446.11 340.597 444.161 343.077 444.161C345.558 444.161 347.507 446.11 347.507 448.591C347.507 451.072 345.558 453.021 343.077 453.021Z" fill="#323232"/>
<path d="M343.077 479.599C340.597 479.599 338.647 477.65 338.647 475.169C338.647 472.689 340.597 470.74 343.077 470.74C345.558 470.74 347.507 472.689 347.507 475.169C347.507 477.473 345.558 479.599 343.077 479.599Z" fill="#323232"/>
<path d="M343.077 506C340.597 506 338.647 504.051 338.647 501.57C338.647 499.09 340.597 497.141 343.077 497.141C345.558 497.141 347.507 499.09 347.507 501.57C347.507 504.051 345.558 506 343.077 506Z" fill="#323232"/>
<path d="M316.499 268.037C314.018 268.037 312.069 266.088 312.069 263.607C311.892 260.949 314.018 259 316.499 259C318.979 259 320.928 260.949 320.928 263.43C320.928 265.91 318.979 268.037 316.499 268.037Z" fill="#323232"/>
<path d="M316.499 294.438C314.018 294.438 312.069 292.488 312.069 290.008C312.069 287.527 314.018 285.578 316.499 285.578C318.979 285.578 320.928 287.527 320.928 290.008C320.928 292.488 318.979 294.438 316.499 294.438Z" fill="#323232"/>
<path d="M316.499 320.839C314.018 320.839 312.069 318.89 312.069 316.409C312.069 313.928 314.018 311.979 316.499 311.979C318.979 311.979 320.928 313.928 320.928 316.409C320.928 318.89 318.979 320.839 316.499 320.839Z" fill="#323232"/>
<path d="M316.499 347.24C314.018 347.24 312.069 345.29 312.069 342.81C312.069 340.329 314.018 338.38 316.499 338.38C318.979 338.38 320.928 340.329 320.928 342.81C320.928 345.29 318.979 347.24 316.499 347.24Z" fill="#323232"/>
<path d="M316.499 373.818C314.018 373.818 312.069 371.869 312.069 369.388C312.069 366.908 314.018 364.958 316.499 364.958C318.979 364.958 320.928 366.908 320.928 369.388C320.928 371.692 318.979 373.818 316.499 373.818Z" fill="#323232"/>
<path d="M316.499 400.219C314.018 400.219 312.069 398.27 312.069 395.789C312.069 393.308 314.018 391.359 316.499 391.359C318.979 391.359 320.928 393.308 320.928 395.789C320.928 398.27 318.979 400.219 316.499 400.219Z" fill="#323232"/>
<path d="M316.499 426.62C314.018 426.62 312.069 424.671 312.069 422.19C312.069 419.71 314.018 417.76 316.499 417.76C318.979 417.76 320.928 419.71 320.928 422.19C320.928 424.671 318.979 426.62 316.499 426.62Z" fill="#323232"/>
<path d="M316.499 453.021C314.018 453.021 312.069 451.072 312.069 448.591C312.069 446.11 314.018 444.161 316.499 444.161C318.979 444.161 320.928 446.11 320.928 448.591C320.928 451.072 318.979 453.021 316.499 453.021Z" fill="#323232"/>
<path d="M316.499 479.599C314.018 479.599 312.069 477.65 312.069 475.169C312.069 472.689 314.018 470.74 316.499 470.74C318.979 470.74 320.928 472.689 320.928 475.169C320.928 477.473 318.979 479.599 316.499 479.599Z" fill="#323232"/>
<path d="M316.499 506C314.018 506 312.069 504.051 312.069 501.57C312.069 499.09 314.018 497.141 316.499 497.141C318.979 497.141 320.928 499.09 320.928 501.57C320.928 504.051 318.979 506 316.499 506Z" fill="#323232"/>
<path d="M289.743 268.037C287.262 268.037 285.313 266.088 285.313 263.607C285.313 261.126 287.262 259.177 289.743 259.177C292.224 259.177 294.173 261.126 294.173 263.607C294.35 265.91 292.224 268.037 289.743 268.037Z" fill="#323232"/>
<path d="M289.744 294.438C287.263 294.438 285.314 292.489 285.314 290.008C285.314 287.527 287.263 285.578 289.744 285.578C292.224 285.578 294.173 287.527 294.173 290.008C294.35 292.489 292.224 294.438 289.744 294.438Z" fill="#323232"/>
<path d="M289.744 320.839C287.263 320.839 285.314 318.89 285.314 316.409C285.314 313.928 287.263 311.979 289.744 311.979C292.224 311.979 294.173 313.928 294.173 316.409C294.35 318.89 292.224 320.839 289.744 320.839Z" fill="#323232"/>
<path d="M289.744 347.24C287.263 347.24 285.314 345.291 285.314 342.81C285.314 340.329 287.263 338.38 289.744 338.38C292.224 338.38 294.173 340.329 294.173 342.81C294.173 345.291 292.224 347.24 289.744 347.24Z" fill="#323232"/>
<path d="M289.744 373.818C287.263 373.818 285.314 371.869 285.314 369.388C285.314 366.908 287.263 364.958 289.744 364.958C292.224 364.958 294.173 366.908 294.173 369.388C294.35 371.692 292.224 373.818 289.744 373.818Z" fill="#323232"/>
<path d="M289.744 400.219C287.263 400.219 285.314 398.27 285.314 395.789C285.314 393.308 287.263 391.359 289.744 391.359C292.224 391.359 294.173 393.308 294.173 395.789C294.35 398.27 292.224 400.219 289.744 400.219Z" fill="#323232"/>
<path d="M289.744 426.62C287.263 426.62 285.314 424.671 285.314 422.19C285.314 419.71 287.263 417.76 289.744 417.76C292.224 417.76 294.173 419.71 294.173 422.19C294.35 424.671 292.224 426.62 289.744 426.62Z" fill="#323232"/>
<path d="M289.744 453.021C287.263 453.021 285.314 451.072 285.314 448.591C285.314 446.111 287.263 444.162 289.744 444.162C292.224 444.162 294.173 446.111 294.173 448.591C294.35 451.072 292.224 453.021 289.744 453.021Z" fill="#323232"/>
<path d="M289.744 479.599C287.263 479.599 285.314 477.65 285.314 475.169C285.314 472.689 287.263 470.74 289.744 470.74C292.224 470.74 294.173 472.689 294.173 475.169C294.35 477.473 292.224 479.599 289.744 479.599Z" fill="#323232"/>
<path d="M289.744 506C287.263 506 285.314 504.051 285.314 501.57C285.314 499.09 287.263 497.141 289.744 497.141C292.224 497.141 294.173 499.09 294.173 501.57C294.173 504.051 292.224 506 289.744 506Z" fill="#323232"/>
<path d="M263.163 268.037C260.683 268.037 258.734 266.088 258.734 263.607C258.734 261.126 260.683 259.177 263.163 259.177C265.644 259.177 267.593 261.126 267.593 263.607C267.77 265.91 265.644 268.037 263.163 268.037Z" fill="#323232"/>
<path d="M263.164 294.438C260.684 294.438 258.735 292.489 258.735 290.008C258.735 287.527 260.684 285.578 263.164 285.578C265.645 285.578 267.594 287.527 267.594 290.008C267.771 292.489 265.645 294.438 263.164 294.438Z" fill="#323232"/>
<path d="M263.164 320.839C260.684 320.839 258.735 318.89 258.735 316.409C258.735 313.928 260.684 311.979 263.164 311.979C265.645 311.979 267.594 313.928 267.594 316.409C267.771 318.89 265.645 320.839 263.164 320.839Z" fill="#323232"/>
<path d="M263.165 347.24C260.684 347.24 258.735 345.291 258.735 342.81C258.735 340.329 260.684 338.38 263.165 338.38C265.645 338.38 267.594 340.329 267.594 342.81C267.594 345.291 265.645 347.24 263.165 347.24Z" fill="#323232"/>
<path d="M263.164 373.818C260.684 373.818 258.735 371.869 258.735 369.388C258.735 366.908 260.684 364.958 263.164 364.958C265.645 364.958 267.594 366.908 267.594 369.388C267.771 371.692 265.645 373.818 263.164 373.818Z" fill="#323232"/>
<path d="M263.164 400.219C260.684 400.219 258.735 398.27 258.735 395.789C258.735 393.308 260.684 391.359 263.164 391.359C265.645 391.359 267.594 393.308 267.594 395.789C267.771 398.27 265.645 400.219 263.164 400.219Z" fill="#323232"/>
<path d="M263.164 426.62C260.684 426.62 258.735 424.671 258.735 422.19C258.735 419.71 260.684 417.76 263.164 417.76C265.645 417.76 267.594 419.71 267.594 422.19C267.771 424.671 265.645 426.62 263.164 426.62Z" fill="#323232"/>
<path d="M263.164 453.021C260.684 453.021 258.735 451.072 258.735 448.591C258.735 446.11 260.684 444.161 263.164 444.161C265.645 444.161 267.594 446.11 267.594 448.591C267.771 451.072 265.645 453.021 263.164 453.021Z" fill="#323232"/>
<path d="M263.164 479.599C260.684 479.599 258.735 477.65 258.735 475.169C258.735 472.689 260.684 470.74 263.164 470.74C265.645 470.74 267.594 472.689 267.594 475.169C267.771 477.473 265.645 479.599 263.164 479.599Z" fill="#323232"/>
<path d="M263.165 506C260.684 506 258.735 504.051 258.735 501.57C258.735 499.09 260.684 497.141 263.165 497.141C265.645 497.141 267.594 499.09 267.594 501.57C267.594 504.051 265.645 506 263.165 506Z" fill="#323232"/>
<path d="M236.586 268.037C234.106 268.037 232.157 266.088 232.157 263.607C232.157 261.126 234.106 259.177 236.586 259.177C239.067 259.177 241.016 261.126 241.016 263.607C241.016 265.91 239.067 268.037 236.586 268.037Z" fill="#323232"/>
<path d="M236.586 294.438C234.106 294.438 232.157 292.489 232.157 290.008C232.157 287.527 234.106 285.578 236.586 285.578C239.067 285.578 241.016 287.527 241.016 290.008C241.016 292.489 239.067 294.438 236.586 294.438Z" fill="#323232"/>
<path d="M236.586 320.839C234.106 320.839 232.157 318.89 232.157 316.409C232.157 313.928 234.106 311.979 236.586 311.979C239.067 311.979 241.016 313.928 241.016 316.409C241.016 318.89 239.067 320.839 236.586 320.839Z" fill="#323232"/>
<path d="M236.586 347.24C234.106 347.24 232.157 345.291 232.157 342.81C232.157 340.329 234.106 338.38 236.586 338.38C239.067 338.38 241.016 340.329 241.016 342.81C241.016 345.291 239.067 347.24 236.586 347.24Z" fill="#323232"/>
<path d="M236.586 373.818C234.106 373.818 232.157 371.869 232.157 369.388C232.157 366.908 234.106 364.958 236.586 364.958C239.067 364.958 241.016 366.908 241.016 369.388C241.016 371.692 239.067 373.818 236.586 373.818Z" fill="#323232"/>
<path d="M236.586 400.219C234.106 400.219 232.157 398.27 232.157 395.789C232.157 393.308 234.106 391.359 236.586 391.359C239.067 391.359 241.016 393.308 241.016 395.789C241.016 398.27 239.067 400.219 236.586 400.219Z" fill="#323232"/>
<path d="M236.586 426.62C234.106 426.62 232.157 424.671 232.157 422.19C232.157 419.71 234.106 417.76 236.586 417.76C239.067 417.76 241.016 419.71 241.016 422.19C241.016 424.671 239.067 426.62 236.586 426.62Z" fill="#323232"/>
<path d="M236.586 453.021C234.106 453.021 232.157 451.072 232.157 448.591C232.157 446.111 234.106 444.162 236.586 444.162C239.067 444.162 241.016 446.111 241.016 448.591C241.016 451.072 239.067 453.021 236.586 453.021Z" fill="#323232"/>
<path d="M236.586 479.599C234.106 479.599 232.157 477.65 232.157 475.169C232.157 472.689 234.106 470.74 236.586 470.74C239.067 470.74 241.016 472.689 241.016 475.169C241.016 477.473 239.067 479.599 236.586 479.599Z" fill="#323232"/>
<path d="M236.586 506C234.106 506 232.157 504.051 232.157 501.57C232.157 499.09 234.106 497.141 236.586 497.141C239.067 497.141 241.016 499.09 241.016 501.57C241.016 504.051 239.067 506 236.586 506Z" fill="#323232"/>
<path d="M210.008 268.037C207.527 268.037 205.578 266.088 205.578 263.607C205.578 261.126 207.527 259.177 210.008 259.177C212.488 259.177 214.437 261.126 214.437 263.607C214.437 265.91 212.488 268.037 210.008 268.037Z" fill="#323232"/>
<path d="M210.009 294.438C207.528 294.438 205.579 292.489 205.579 290.008C205.579 287.527 207.528 285.578 210.009 285.578C212.489 285.578 214.438 287.527 214.438 290.008C214.438 292.489 212.489 294.438 210.009 294.438Z" fill="#323232"/>
<path d="M210.009 320.839C207.528 320.839 205.579 318.89 205.579 316.409C205.579 313.928 207.528 311.979 210.009 311.979C212.489 311.979 214.438 313.928 214.438 316.409C214.438 318.89 212.489 320.839 210.009 320.839Z" fill="#323232"/>
<path d="M210.009 347.24C207.528 347.24 205.579 345.291 205.579 342.81C205.579 340.329 207.528 338.38 210.009 338.38C212.489 338.38 214.438 340.329 214.438 342.81C214.438 345.291 212.489 347.24 210.009 347.24Z" fill="#323232"/>
<path d="M210.009 373.818C207.528 373.818 205.579 371.869 205.579 369.388C205.579 366.908 207.528 364.958 210.009 364.958C212.489 364.958 214.438 366.908 214.438 369.388C214.438 371.692 212.489 373.818 210.009 373.818Z" fill="#323232"/>
<path d="M210.009 400.219C207.528 400.219 205.579 398.27 205.579 395.789C205.579 393.308 207.528 391.359 210.009 391.359C212.489 391.359 214.438 393.308 214.438 395.789C214.438 398.27 212.489 400.219 210.009 400.219Z" fill="#323232"/>
<path d="M210.009 426.62C207.528 426.62 205.579 424.671 205.579 422.19C205.579 419.71 207.528 417.76 210.009 417.76C212.489 417.76 214.438 419.71 214.438 422.19C214.438 424.671 212.489 426.62 210.009 426.62Z" fill="#323232"/>
<path d="M210.009 453.021C207.528 453.021 205.579 451.072 205.579 448.591C205.579 446.111 207.528 444.162 210.009 444.162C212.489 444.162 214.438 446.111 214.438 448.591C214.438 451.072 212.489 453.021 210.009 453.021Z" fill="#323232"/>
<path d="M210.009 479.599C207.528 479.599 205.579 477.65 205.579 475.169C205.579 472.689 207.528 470.74 210.009 470.74C212.489 470.74 214.438 472.689 214.438 475.169C214.438 477.473 212.489 479.599 210.009 479.599Z" fill="#323232"/>
<path d="M210.009 506C207.528 506 205.579 504.051 205.579 501.57C205.579 499.09 207.528 497.141 210.009 497.141C212.489 497.141 214.438 499.09 214.438 501.57C214.438 504.051 212.489 506 210.009 506Z" fill="#323232"/>
<path d="M183.254 268.037C180.773 268.037 178.824 266.088 178.824 263.607C178.824 261.126 180.773 259.177 183.254 259.177C185.734 259.177 187.684 261.126 187.684 263.607C187.861 265.91 185.734 268.037 183.254 268.037Z" fill="#323232"/>
<path d="M183.254 294.438C180.774 294.438 178.825 292.489 178.825 290.008C178.825 287.527 180.774 285.578 183.254 285.578C185.735 285.578 187.684 287.527 187.684 290.008C187.861 292.489 185.735 294.438 183.254 294.438Z" fill="#323232"/>
<path d="M183.254 320.839C180.774 320.839 178.825 318.89 178.825 316.409C178.825 313.928 180.774 311.979 183.254 311.979C185.735 311.979 187.684 313.928 187.684 316.409C187.861 318.89 185.735 320.839 183.254 320.839Z" fill="#323232"/>
<path d="M183.254 347.24C180.774 347.24 178.825 345.291 178.825 342.81C178.825 340.329 180.774 338.38 183.254 338.38C185.735 338.38 187.684 340.329 187.684 342.81C187.684 345.291 185.735 347.24 183.254 347.24Z" fill="#323232"/>
<path d="M183.254 373.818C180.774 373.818 178.825 371.869 178.825 369.388C178.825 366.908 180.774 364.958 183.254 364.958C185.735 364.958 187.684 366.908 187.684 369.388C187.861 371.692 185.735 373.818 183.254 373.818Z" fill="#323232"/>
<path d="M183.254 400.219C180.774 400.219 178.825 398.27 178.825 395.789C178.825 393.308 180.774 391.359 183.254 391.359C185.735 391.359 187.684 393.308 187.684 395.789C187.861 398.27 185.735 400.219 183.254 400.219Z" fill="#323232"/>
<path d="M183.254 426.62C180.774 426.62 178.825 424.671 178.825 422.19C178.825 419.71 180.774 417.76 183.254 417.76C185.735 417.76 187.684 419.71 187.684 422.19C187.861 424.671 185.735 426.62 183.254 426.62Z" fill="#323232"/>
<path d="M183.254 453.021C180.774 453.021 178.825 451.072 178.825 448.591C178.825 446.11 180.774 444.161 183.254 444.161C185.735 444.161 187.684 446.11 187.684 448.591C187.861 451.072 185.735 453.021 183.254 453.021Z" fill="#323232"/>
<path d="M183.254 479.599C180.774 479.599 178.825 477.65 178.825 475.169C178.825 472.689 180.774 470.74 183.254 470.74C185.735 470.74 187.684 472.689 187.684 475.169C187.861 477.473 185.735 479.599 183.254 479.599Z" fill="#323232"/>
<path d="M183.254 506C180.774 506 178.825 504.051 178.825 501.57C178.825 499.09 180.774 497.141 183.254 497.141C185.735 497.141 187.684 499.09 187.684 501.57C187.684 504.051 185.735 506 183.254 506Z" fill="#323232"/>
<path d="M156.674 268.037C154.194 268.037 152.245 266.088 152.245 263.607C152.245 261.126 154.194 259.177 156.674 259.177C159.155 259.177 161.104 261.126 161.104 263.607C161.281 265.91 159.155 268.037 156.674 268.037Z" fill="#323232"/>
<path d="M156.676 294.438C154.195 294.438 152.246 292.489 152.246 290.008C152.246 287.527 154.195 285.578 156.676 285.578C159.156 285.578 161.105 287.527 161.105 290.008C161.283 292.489 159.156 294.438 156.676 294.438Z" fill="#323232"/>
<path d="M156.676 320.839C154.195 320.839 152.246 318.89 152.246 316.409C152.246 313.928 154.195 311.979 156.676 311.979C159.156 311.979 161.105 313.928 161.105 316.409C161.283 318.89 159.156 320.839 156.676 320.839Z" fill="#323232"/>
<path d="M156.676 347.24C154.195 347.24 152.246 345.291 152.246 342.81C152.246 340.329 154.195 338.38 156.676 338.38C159.156 338.38 161.105 340.329 161.105 342.81C161.105 345.291 159.156 347.24 156.676 347.24Z" fill="#323232"/>
<path d="M156.676 373.818C154.195 373.818 152.246 371.869 152.246 369.388C152.246 366.908 154.195 364.958 156.676 364.958C159.156 364.958 161.105 366.908 161.105 369.388C161.283 371.692 159.156 373.818 156.676 373.818Z" fill="#323232"/>
<path d="M156.676 400.219C154.195 400.219 152.246 398.27 152.246 395.789C152.246 393.308 154.195 391.359 156.676 391.359C159.156 391.359 161.105 393.308 161.105 395.789C161.283 398.27 159.156 400.219 156.676 400.219Z" fill="#323232"/>
<path d="M156.676 426.62C154.195 426.62 152.246 424.671 152.246 422.19C152.246 419.71 154.195 417.76 156.676 417.76C159.156 417.76 161.105 419.71 161.105 422.19C161.283 424.671 159.156 426.62 156.676 426.62Z" fill="#323232"/>
<path d="M156.676 453.021C154.195 453.021 152.246 451.072 152.246 448.591C152.246 446.111 154.195 444.162 156.676 444.162C159.156 444.162 161.105 446.111 161.105 448.591C161.283 451.072 159.156 453.021 156.676 453.021Z" fill="#323232"/>
<path d="M156.676 479.599C154.195 479.599 152.246 477.65 152.246 475.169C152.246 472.689 154.195 470.74 156.676 470.74C159.156 470.74 161.105 472.689 161.105 475.169C161.283 477.473 159.156 479.599 156.676 479.599Z" fill="#323232"/>
<path d="M156.676 506C154.195 506 152.246 504.051 152.246 501.57C152.246 499.09 154.195 497.141 156.676 497.141C159.156 497.141 161.105 499.09 161.105 501.57C161.105 504.051 159.156 506 156.676 506Z" fill="#323232"/>
<path d="M130.097 268.037C127.617 268.037 125.667 266.088 125.667 263.607C125.667 261.126 127.617 259.177 130.097 259.177C132.578 259.177 134.527 261.126 134.527 263.607C134.527 265.91 132.578 268.037 130.097 268.037Z" fill="#323232"/>
<path d="M130.098 294.438C127.617 294.438 125.668 292.489 125.668 290.008C125.668 287.527 127.617 285.578 130.098 285.578C132.578 285.578 134.527 287.527 134.527 290.008C134.527 292.489 132.578 294.438 130.098 294.438Z" fill="#323232"/>
<path d="M130.098 320.839C127.617 320.839 125.668 318.89 125.668 316.409C125.668 313.928 127.617 311.979 130.098 311.979C132.578 311.979 134.527 313.928 134.527 316.409C134.527 318.89 132.578 320.839 130.098 320.839Z" fill="#323232"/>
<path d="M130.098 347.24C127.617 347.24 125.668 345.291 125.668 342.81C125.668 340.329 127.617 338.38 130.098 338.38C132.578 338.38 134.527 340.329 134.527 342.81C134.527 345.291 132.578 347.24 130.098 347.24Z" fill="#323232"/>
<path d="M130.098 373.818C127.617 373.818 125.668 371.869 125.668 369.388C125.668 366.908 127.617 364.958 130.098 364.958C132.578 364.958 134.527 366.908 134.527 369.388C134.527 371.692 132.578 373.818 130.098 373.818Z" fill="#323232"/>
<path d="M130.098 400.219C127.617 400.219 125.668 398.27 125.668 395.789C125.668 393.308 127.617 391.359 130.098 391.359C132.578 391.359 134.527 393.308 134.527 395.789C134.527 398.27 132.578 400.219 130.098 400.219Z" fill="#323232"/>
<path d="M130.098 426.62C127.617 426.62 125.668 424.671 125.668 422.19C125.668 419.71 127.617 417.76 130.098 417.76C132.578 417.76 134.527 419.71 134.527 422.19C134.527 424.671 132.578 426.62 130.098 426.62Z" fill="#323232"/>
<path d="M130.098 453.021C127.617 453.021 125.668 451.072 125.668 448.591C125.668 446.111 127.617 444.162 130.098 444.162C132.578 444.162 134.527 446.111 134.527 448.591C134.527 451.072 132.578 453.021 130.098 453.021Z" fill="#323232"/>
<path d="M130.098 479.599C127.617 479.599 125.668 477.65 125.668 475.169C125.668 472.689 127.617 470.74 130.098 470.74C132.578 470.74 134.527 472.689 134.527 475.169C134.527 477.473 132.578 479.599 130.098 479.599Z" fill="#323232"/>
<path d="M130.098 506C127.617 506 125.668 504.051 125.668 501.57C125.668 499.09 127.617 497.141 130.098 497.141C132.578 497.141 134.527 499.09 134.527 501.57C134.527 504.051 132.578 506 130.098 506Z" fill="#323232"/>
<path d="M103.518 268.037C101.037 268.037 99.0884 266.088 99.0884 263.607C99.0884 261.126 101.037 259.177 103.518 259.177C105.999 259.177 107.948 261.126 107.948 263.607C107.948 265.91 105.999 268.037 103.518 268.037Z" fill="#323232"/>
<path d="M103.519 294.438C101.038 294.438 99.0888 292.489 99.0888 290.008C99.0888 287.527 101.038 285.578 103.519 285.578C105.999 285.578 107.948 287.527 107.948 290.008C107.948 292.489 105.999 294.438 103.519 294.438Z" fill="#323232"/>
<path d="M103.519 320.839C101.038 320.839 99.0888 318.89 99.0888 316.409C99.0888 313.928 101.038 311.979 103.519 311.979C105.999 311.979 107.948 313.928 107.948 316.409C107.948 318.89 105.999 320.839 103.519 320.839Z" fill="#323232"/>
<path d="M103.519 347.24C101.038 347.24 99.0888 345.291 99.0888 342.81C99.0888 340.329 101.038 338.38 103.519 338.38C105.999 338.38 107.948 340.329 107.948 342.81C107.948 345.291 105.999 347.24 103.519 347.24Z" fill="#323232"/>
<path d="M103.519 373.818C101.038 373.818 99.0888 371.869 99.0888 369.388C99.0888 366.908 101.038 364.958 103.519 364.958C105.999 364.958 107.948 366.908 107.948 369.388C107.948 371.692 105.999 373.818 103.519 373.818Z" fill="#323232"/>
<path d="M103.519 400.219C101.038 400.219 99.0888 398.27 99.0888 395.789C99.0888 393.308 101.038 391.359 103.519 391.359C105.999 391.359 107.948 393.308 107.948 395.789C107.948 398.27 105.999 400.219 103.519 400.219Z" fill="#323232"/>
<path d="M103.519 426.62C101.038 426.62 99.0888 424.671 99.0888 422.19C99.0888 419.71 101.038 417.76 103.519 417.76C105.999 417.76 107.948 419.71 107.948 422.19C107.948 424.671 105.999 426.62 103.519 426.62Z" fill="#323232"/>
<path d="M103.519 453.021C101.038 453.021 99.0888 451.072 99.0888 448.591C99.0888 446.111 101.038 444.162 103.519 444.162C105.999 444.162 107.948 446.111 107.948 448.591C107.948 451.072 105.999 453.021 103.519 453.021Z" fill="#323232"/>
<path d="M103.519 479.599C101.038 479.599 99.0888 477.65 99.0888 475.169C99.0888 472.689 101.038 470.74 103.519 470.74C105.999 470.74 107.948 472.689 107.948 475.169C107.948 477.473 105.999 479.599 103.519 479.599Z" fill="#323232"/>
<path d="M103.519 506C101.038 506 99.0888 504.051 99.0888 501.57C99.0888 499.09 101.038 497.141 103.519 497.141C105.999 497.141 107.948 499.09 107.948 501.57C107.948 504.051 105.999 506 103.519 506Z" fill="#323232"/>
<path d="M76.7631 268.037C74.2825 268.037 72.3334 266.088 72.3334 263.607C72.3334 261.126 74.2825 259.177 76.7631 259.177C79.2437 259.177 81.1928 261.126 81.1928 263.607C81.37 265.91 79.2437 268.037 76.7631 268.037Z" fill="#323232"/>
<path d="M76.7641 294.438C74.2834 294.438 72.3344 292.489 72.3344 290.008C72.3344 287.527 74.2834 285.578 76.7641 285.578C79.2447 285.578 81.1938 287.527 81.1938 290.008C81.371 292.489 79.2447 294.438 76.7641 294.438Z" fill="#323232"/>
<path d="M76.7641 320.839C74.2834 320.839 72.3344 318.89 72.3344 316.409C72.3344 313.928 74.2834 311.979 76.7641 311.979C79.2447 311.979 81.1938 313.928 81.1938 316.409C81.371 318.89 79.2447 320.839 76.7641 320.839Z" fill="#323232"/>
<path d="M76.7641 347.24C74.2835 347.24 72.3344 345.291 72.3344 342.81C72.3344 340.329 74.2835 338.38 76.7641 338.38C79.2448 338.38 81.1938 340.329 81.1938 342.81C81.1938 345.291 79.2448 347.24 76.7641 347.24Z" fill="#323232"/>
<path d="M76.7641 373.818C74.2834 373.818 72.3344 371.869 72.3344 369.388C72.3344 366.908 74.2834 364.958 76.7641 364.958C79.2447 364.958 81.1938 366.908 81.1938 369.388C81.371 371.692 79.2447 373.818 76.7641 373.818Z" fill="#323232"/>
<path d="M76.7641 400.219C74.2834 400.219 72.3344 398.27 72.3344 395.789C72.3344 393.308 74.2834 391.359 76.7641 391.359C79.2447 391.359 81.1938 393.308 81.1938 395.789C81.371 398.27 79.2447 400.219 76.7641 400.219Z" fill="#323232"/>
<path d="M76.7641 426.62C74.2834 426.62 72.3344 424.671 72.3344 422.19C72.3344 419.71 74.2834 417.76 76.7641 417.76C79.2447 417.76 81.1938 419.71 81.1938 422.19C81.371 424.671 79.2447 426.62 76.7641 426.62Z" fill="#323232"/>
<path d="M76.7641 453.021C74.2834 453.021 72.3344 451.072 72.3344 448.591C72.3344 446.111 74.2834 444.162 76.7641 444.162C79.2447 444.162 81.1938 446.111 81.1938 448.591C81.371 451.072 79.2447 453.021 76.7641 453.021Z" fill="#323232"/>
<path d="M76.7641 479.599C74.2834 479.599 72.3344 477.65 72.3344 475.169C72.3344 472.689 74.2834 470.74 76.7641 470.74C79.2447 470.74 81.1938 472.689 81.1938 475.169C81.371 477.473 79.2447 479.599 76.7641 479.599Z" fill="#323232"/>
<path d="M76.7641 506C74.2835 506 72.3344 504.051 72.3344 501.57C72.3344 499.09 74.2835 497.141 76.7641 497.141C79.2448 497.141 81.1938 499.09 81.1938 501.57C81.1938 504.051 79.2448 506 76.7641 506Z" fill="#323232"/>
<path d="M50.1859 268.037C47.7053 268.037 45.7562 266.088 45.7562 263.607C45.7562 261.126 47.7053 259.177 50.1859 259.177C52.6666 259.177 54.6156 261.126 54.6156 263.607C54.7928 265.91 52.6666 268.037 50.1859 268.037Z" fill="#323232"/>
<path d="M50.1855 294.438C47.7048 294.438 45.7558 292.489 45.7558 290.008C45.7558 287.527 47.7048 285.578 50.1855 285.578C52.6661 285.578 54.6152 287.527 54.6152 290.008C54.7923 292.489 52.6661 294.438 50.1855 294.438Z" fill="#323232"/>
<path d="M50.1855 320.839C47.7048 320.839 45.7558 318.89 45.7558 316.409C45.7558 313.928 47.7048 311.979 50.1855 311.979C52.6661 311.979 54.6152 313.928 54.6152 316.409C54.7923 318.89 52.6661 320.839 50.1855 320.839Z" fill="#323232"/>
<path d="M50.185 347.24C47.7044 347.24 45.7553 345.291 45.7553 342.81C45.7553 340.329 47.7044 338.38 50.185 338.38C52.6657 338.38 54.6147 340.329 54.6147 342.81C54.6147 345.291 52.6657 347.24 50.185 347.24Z" fill="#323232"/>
<path d="M50.1855 373.818C47.7048 373.818 45.7558 371.869 45.7558 369.388C45.7558 366.908 47.7048 364.958 50.1855 364.958C52.6661 364.958 54.6152 366.908 54.6152 369.388C54.7923 371.692 52.6661 373.818 50.1855 373.818Z" fill="#323232"/>
<path d="M50.1855 400.219C47.7048 400.219 45.7558 398.27 45.7558 395.789C45.7558 393.308 47.7048 391.359 50.1855 391.359C52.6661 391.359 54.6152 393.308 54.6152 395.789C54.7923 398.27 52.6661 400.219 50.1855 400.219Z" fill="#323232"/>
<path d="M50.1855 426.62C47.7048 426.62 45.7558 424.671 45.7558 422.19C45.7558 419.71 47.7048 417.76 50.1855 417.76C52.6661 417.76 54.6152 419.71 54.6152 422.19C54.7923 424.671 52.6661 426.62 50.1855 426.62Z" fill="#323232"/>
<path d="M50.1855 453.021C47.7048 453.021 45.7558 451.072 45.7558 448.591C45.7558 446.11 47.7048 444.161 50.1855 444.161C52.6661 444.161 54.6152 446.11 54.6152 448.591C54.7923 451.072 52.6661 453.021 50.1855 453.021Z" fill="#323232"/>
<path d="M50.1855 479.599C47.7048 479.599 45.7558 477.65 45.7558 475.169C45.7558 472.689 47.7048 470.74 50.1855 470.74C52.6661 470.74 54.6152 472.689 54.6152 475.169C54.7923 477.473 52.6661 479.599 50.1855 479.599Z" fill="#323232"/>
<path d="M50.185 506C47.7044 506 45.7553 504.051 45.7553 501.57C45.7553 499.09 47.7044 497.141 50.185 497.141C52.6657 497.141 54.6147 499.09 54.6147 501.57C54.6147 504.051 52.6657 506 50.185 506Z" fill="#323232"/>
<path d="M23.6059 268.037C21.1253 268.037 19.1762 266.088 19.1762 263.607C19.1762 261.126 21.1253 259.177 23.6059 259.177C26.0866 259.177 28.0356 261.126 28.0356 263.607C28.0356 265.91 26.0866 268.037 23.6059 268.037Z" fill="#323232"/>
<path d="M23.6069 294.438C21.1263 294.438 19.1772 292.489 19.1772 290.008C19.1772 287.527 21.1263 285.578 23.6069 285.578C26.0876 285.578 28.0366 287.527 28.0366 290.008C28.0366 292.489 26.0876 294.438 23.6069 294.438Z" fill="#323232"/>
<path d="M23.6069 320.839C21.1263 320.839 19.1772 318.89 19.1772 316.409C19.1772 313.928 21.1263 311.979 23.6069 311.979C26.0876 311.979 28.0366 313.928 28.0366 316.409C28.0366 318.89 26.0876 320.839 23.6069 320.839Z" fill="#323232"/>
<path d="M23.6069 347.24C21.1263 347.24 19.1772 345.291 19.1772 342.81C19.1772 340.329 21.1263 338.38 23.6069 338.38C26.0876 338.38 28.0366 340.329 28.0366 342.81C28.0366 345.291 26.0876 347.24 23.6069 347.24Z" fill="#323232"/>
<path d="M23.6069 373.818C21.1263 373.818 19.1772 371.869 19.1772 369.388C19.1772 366.908 21.1263 364.958 23.6069 364.958C26.0876 364.958 28.0366 366.908 28.0366 369.388C28.0366 371.692 26.0876 373.818 23.6069 373.818Z" fill="#323232"/>
<path d="M23.6069 400.219C21.1263 400.219 19.1772 398.27 19.1772 395.789C19.1772 393.308 21.1263 391.359 23.6069 391.359C26.0876 391.359 28.0366 393.308 28.0366 395.789C28.0366 398.27 26.0876 400.219 23.6069 400.219Z" fill="#323232"/>
<path d="M23.6069 426.62C21.1263 426.62 19.1772 424.671 19.1772 422.19C19.1772 419.71 21.1263 417.76 23.6069 417.76C26.0876 417.76 28.0366 419.71 28.0366 422.19C28.0366 424.671 26.0876 426.62 23.6069 426.62Z" fill="#323232"/>
<path d="M23.6069 453.021C21.1263 453.021 19.1772 451.072 19.1772 448.591C19.1772 446.111 21.1263 444.162 23.6069 444.162C26.0876 444.162 28.0366 446.111 28.0366 448.591C28.0366 451.072 26.0876 453.021 23.6069 453.021Z" fill="#323232"/>
<path d="M23.6069 479.599C21.1263 479.599 19.1772 477.65 19.1772 475.169C19.1772 472.689 21.1263 470.74 23.6069 470.74C26.0876 470.74 28.0366 472.689 28.0366 475.169C28.0366 477.473 26.0876 479.599 23.6069 479.599Z" fill="#323232"/>
<path d="M23.6069 506C21.1263 506 19.1772 504.051 19.1772 501.57C19.1772 499.09 21.1263 497.141 23.6069 497.141C26.0876 497.141 28.0366 499.09 28.0366 501.57C28.0366 504.051 26.0876 506 23.6069 506Z" fill="#323232"/>
</g>
<defs>
<clipPath id="clip0">
<rect width="247" height="408.418" fill="white" transform="translate(408.418) rotate(90)"/>
</clipPath>
<clipPath id="clip1">
<rect width="247" height="408.418" fill="white" transform="translate(408.418 259) rotate(90)"/>
</clipPath>
</defs>
</svg>
