<svg width="106" height="106" viewBox="0 0 106 106" fill="none" xmlns="http://www.w3.org/2000/svg">
<path d="M53 1C24.2815 1 1 24.2815 1 53C1 81.7185 24.2815 105 53 105C81.7185 105 105 81.7185 105 53C104.968 24.2951 81.7049 1.03216 53 1ZM53 101.533C26.196 101.533 4.46667 79.804 4.46667 53C4.46667 26.196 26.196 4.46667 53 4.46667C79.804 4.46667 101.533 26.196 101.533 53C101.503 79.7913 79.7913 101.503 53 101.533Z" fill="url(#paint0_linear)"/>
<path d="M75.7881 59.3409L61.0759 56.7409C60.3311 56.6097 59.588 56.9754 59.2385 57.6457L55.6711 64.4817C49.359 61.6862 44.3147 56.6394 41.5217 50.3256L48.351 46.7582C49.0213 46.4086 49.3869 45.6655 49.2557 44.9207L46.6557 30.2102C46.5745 29.7473 46.3087 29.3377 45.9194 29.0744C42.1997 26.5658 37.3992 26.3136 33.4374 28.4194C29.4756 30.5259 27 34.6468 27 39.1334C27.0245 61.1411 44.8589 78.9755 66.8667 79C71.354 78.9992 75.4749 76.5219 77.5807 72.5593C79.6855 68.5958 79.4316 63.7944 76.9197 60.0756C76.6573 59.6879 76.2494 59.4222 75.7881 59.3409ZM66.8667 75.5334C46.7734 75.5105 30.4895 59.2267 30.4667 39.1334C30.4658 36.0543 32.0993 33.2063 34.7568 31.6507C37.4144 30.096 40.6982 30.0681 43.382 31.578L45.6232 44.2758L38.5163 47.9854C37.7377 48.3916 37.3856 49.315 37.6962 50.1368C40.865 58.5191 47.4801 65.1384 55.8615 68.3106C56.6833 68.6212 57.6067 68.2691 58.013 67.4905L61.7242 60.3836L74.4221 62.6256C75.9286 65.3086 75.8981 68.589 74.3442 71.2449C72.7895 73.8999 69.944 75.5325 66.8667 75.5334Z" fill="url(#paint1_linear)"/>
<path fill-rule="evenodd" clip-rule="evenodd" d="M0.5 53C0.5 24.0054 24.0054 0.5 53 0.5C81.9807 0.532471 105.468 24.0188 105.5 52.9994C105.5 81.9941 81.9946 105.5 53 105.5C24.0054 105.5 0.5 81.9946 0.5 53ZM52.9997 1.5C24.5575 1.50014 1.5 24.5577 1.5 53C1.5 81.4423 24.5577 104.5 53 104.5C81.4422 104.5 104.5 81.4426 104.5 53.0006C104.468 24.5714 81.4288 1.53201 52.9997 1.5ZM53 4.96667C26.4721 4.96667 4.96667 26.4721 4.96667 53C4.96667 79.5277 26.4718 101.033 52.9994 101.033C79.5151 101.003 101.003 79.5151 101.033 52.9994C101.033 26.4718 79.5277 4.96667 53 4.96667ZM3.96667 53C3.96667 25.9198 25.9198 3.96667 53 3.96667C80.0802 3.96667 102.033 25.9198 102.033 53C102.003 80.067 80.0676 102.003 53.0006 102.033C25.9204 102.033 3.96667 80.0802 3.96667 53ZM33.2027 27.9778C37.3277 25.7854 42.326 26.048 46.199 28.6599C46.7005 28.999 47.0435 29.5271 47.1482 30.1238L49.7481 44.8337C49.917 45.7929 49.4461 46.751 48.5822 47.2015L42.1721 50.5499C44.885 56.409 49.5893 61.1157 55.4466 63.831L58.7951 57.4145C59.2457 56.5505 60.2034 56.0795 61.1626 56.2485L75.8748 58.8485C76.4703 58.9534 76.9959 59.2962 77.3337 59.7953C79.9492 63.6674 80.2138 68.667 78.0223 72.7938C75.8298 76.9197 71.539 79.4992 66.8668 79.5C44.5833 79.4752 26.5249 61.4174 26.5 39.1339C26.5 34.4625 29.0777 30.1712 33.2027 27.9778ZM33.672 28.8609C29.8737 30.8806 27.5002 34.8314 27.5 39.1328C27.5242 60.8648 45.1351 78.4757 66.8671 78.5C71.1694 78.499 75.1202 76.1239 77.1391 72.3248C79.1572 68.5247 78.9138 63.9214 76.5056 60.3558C76.3186 60.0796 76.0284 59.8909 75.7013 59.8333L60.9892 57.2333C60.4588 57.1399 59.9304 57.4002 59.6818 57.8769L55.8974 65.1287L55.4686 64.9388C49.0428 62.093 43.9077 56.9553 41.0645 50.5278L40.8749 50.0993L48.1195 46.315C48.5961 46.0664 48.8567 45.5378 48.7633 45.0075L46.1634 30.2973C46.1056 29.9682 45.9167 29.6764 45.6398 29.489C42.0733 27.0837 37.4706 26.8419 33.672 28.8609ZM42.9315 31.902C40.4419 30.5934 37.4462 30.6567 35.0094 32.0823C32.5052 33.5481 30.966 36.2317 30.9667 39.1328C30.9892 58.9503 47.0496 75.0108 66.8671 75.0334C69.7667 75.0324 72.4477 73.494 73.9127 70.9922C75.3375 68.5569 75.403 65.5646 74.0977 63.0761L61.9979 60.9397L58.4562 67.7217C57.9329 68.7248 56.7432 69.1784 55.6847 68.7783C47.1691 65.5554 40.448 58.83 37.2285 50.3136C36.8285 49.2551 37.282 48.0655 38.285 47.5421L45.0671 44.002L42.9315 31.902ZM34.5044 31.2192C37.3152 29.5747 40.7885 29.5452 43.6272 31.1422L43.8333 31.2582L46.1792 44.5496L38.7477 48.4286C38.1935 48.7178 37.9428 49.3749 38.1639 49.96C41.282 58.2082 47.7912 64.7216 56.0385 67.8429C56.6236 68.064 57.2805 67.8133 57.5697 67.2592L61.4505 59.8276L74.7421 62.1744L74.858 62.3808C76.4516 65.2187 76.4192 68.6885 74.7758 71.4974C73.1314 74.3055 70.1217 76.0325 66.8668 76.0334C46.4978 76.0102 29.9898 59.5029 29.9667 39.1339C29.9658 35.8772 31.6936 32.8644 34.5044 31.2192Z" fill="url(#paint2_linear)"/>
<defs>
<linearGradient id="paint0_linear" x1="35.9664" y1="88.4865" x2="89.3739" y2="39.4869" gradientUnits="userSpaceOnUse">
<stop stop-color="#974B9B"/>
<stop offset="1" stop-color="#88B8FF"/>
</linearGradient>
<linearGradient id="paint1_linear" x1="35.9664" y1="88.4865" x2="89.3739" y2="39.4869" gradientUnits="userSpaceOnUse">
<stop stop-color="#974B9B"/>
<stop offset="1" stop-color="#88B8FF"/>
</linearGradient>
<linearGradient id="paint2_linear" x1="35.9664" y1="88.4865" x2="89.3739" y2="39.4869" gradientUnits="userSpaceOnUse">
<stop stop-color="#974B9B"/>
<stop offset="1" stop-color="#88B8FF"/>
</linearGradient>
</defs>
</svg>
