<svg width="106" height="106" viewBox="0 0 106 106" fill="none" xmlns="http://www.w3.org/2000/svg">
<path d="M71.6328 66.043C70.4896 66.043 69.5625 66.9698 69.5625 68.1133V82.3984C69.5625 88.1063 64.9188 92.75 59.2109 92.75H36.8582C35.7152 92.75 34.7887 93.676 34.7879 94.8189L34.785 98.9351L29.8436 93.9938C29.5237 93.2595 28.7916 92.75 27.9449 92.75H14.4922C8.78434 92.75 4.14062 88.1063 4.14062 82.3984V50.5156C4.14062 44.8078 8.78434 40.1641 14.4922 40.1641H35.4023C36.5456 40.1641 37.4727 39.2372 37.4727 38.0938C37.4727 36.9503 36.5456 36.0234 35.4023 36.0234H14.4922C6.5012 36.0234 0 42.5246 0 50.5156V82.3984C0 90.3894 6.5012 96.8906 14.4922 96.8906H26.8847L35.3876 105.394C35.7837 105.79 36.3131 106 36.852 106C37.1184 106 37.3874 105.948 37.643 105.843C38.4167 105.523 38.9213 104.768 38.9219 103.931L38.9268 96.8906H59.2109C67.2019 96.8906 73.7031 90.3894 73.7031 82.3984V68.1133C73.7031 66.9698 72.776 66.043 71.6328 66.043Z" fill="url(#paint0_linear)"/>
<path d="M75.909 0H70.6693C54.077 0 40.5781 13.4988 40.5781 30.0912C40.5781 46.6835 54.077 60.1821 70.6691 60.1821H75.9088C78.4986 60.1821 81.0618 59.8531 83.5462 59.2031L91.2865 66.939C91.6825 67.3346 92.2117 67.545 92.7504 67.545C93.0173 67.545 93.2864 67.4934 93.5425 67.3872C94.316 67.0667 94.8203 66.3119 94.8203 65.4747V53.4967C98.0974 50.8427 100.82 47.4903 102.73 43.7451C104.9 39.4914 106 34.8976 106 30.0912C106 13.4988 92.5011 0 75.909 0ZM91.5043 50.8334C90.9853 51.2245 90.6797 51.8369 90.6797 52.4872V60.4786L85.6134 55.415C85.2192 55.0212 84.6905 54.809 84.1497 54.809C83.9468 54.809 83.7419 54.8391 83.5419 54.9005C81.0776 55.6579 78.5096 56.0417 75.909 56.0417H70.6693C56.3599 56.0417 44.7188 44.4003 44.7188 30.0912C44.7188 15.782 56.3601 4.14062 70.6693 4.14062H75.909C90.2182 4.14062 101.859 15.782 101.859 30.0912C101.859 38.3167 98.0852 45.8771 91.5043 50.8334Z" fill="url(#paint1_linear)"/>
<path d="M82.6124 22.6536C82.3136 18.3194 78.8197 14.8255 74.4853 14.5267C72.0283 14.358 69.6835 15.1868 67.8887 16.8623C66.1186 18.5146 65.1035 20.8503 65.1035 23.2707C65.1035 24.4141 66.0306 25.341 67.1738 25.341C68.3171 25.341 69.2441 24.4141 69.2441 23.2707C69.2441 21.9749 69.7663 20.7739 70.7141 19.8893C71.661 19.0055 72.8987 18.568 74.2009 18.6579C76.484 18.8152 78.3243 20.6555 78.4817 22.9384C78.6407 25.2441 77.1279 27.2817 74.8849 27.7836C73.0676 28.1902 71.7985 29.7694 71.7985 31.6238V36.5977C71.7985 37.7412 72.7256 38.668 73.8688 38.668C75.0122 38.668 75.9391 37.7412 75.9389 36.5977V31.7892C80.1106 30.7814 82.9094 26.9642 82.6124 22.6536Z" fill="url(#paint2_linear)"/>
<path d="M75.3309 43.3234C74.9458 42.9383 74.4117 42.7168 73.8672 42.7168C73.3227 42.7168 72.7886 42.9383 72.4035 43.3234C72.0184 43.7085 71.7969 44.2426 71.7969 44.7871C71.7969 45.3337 72.0186 45.8678 72.4035 46.2529C72.7886 46.638 73.3227 46.8574 73.8672 46.8574C74.4117 46.8574 74.9458 46.638 75.3309 46.2529C75.716 45.8657 75.9375 45.3337 75.9375 44.7871C75.9375 44.2426 75.7158 43.7085 75.3309 43.3234Z" fill="url(#paint3_linear)"/>
<path d="M56.9336 64.1797H13.25C12.1068 64.1797 11.1797 65.1066 11.1797 66.25C11.1797 67.3934 12.1068 68.3203 13.25 68.3203H56.9336C58.077 68.3203 59.0039 67.3934 59.0039 66.25C59.0039 65.1066 58.0768 64.1797 56.9336 64.1797Z" fill="url(#paint4_linear)"/>
<path d="M58.3971 76.38C58.0122 75.995 57.4781 75.7734 56.9336 75.7734C56.3891 75.7734 55.855 75.995 55.4699 76.38C55.0846 76.7651 54.8633 77.2993 54.8633 77.8438C54.8633 78.3882 55.0848 78.9224 55.4699 79.3075C55.855 79.6925 56.3891 79.9141 56.9336 79.9141C57.4781 79.9141 58.0122 79.6925 58.3971 79.3075C58.7824 78.9224 59.0039 78.3903 59.0039 77.8438C59.0039 77.2993 58.7822 76.7651 58.3971 76.38Z" fill="url(#paint5_linear)"/>
<path d="M48.7904 75.7734H13.25C12.1068 75.7734 11.1797 76.7003 11.1797 77.8438C11.1797 78.9872 12.1068 79.9141 13.25 79.9141H48.7904C49.9339 79.9141 50.8607 78.9872 50.8607 77.8438C50.8607 76.7003 49.9337 75.7734 48.7904 75.7734Z" fill="url(#paint6_linear)"/>
<path d="M43.4766 52.5859H13.25C12.1068 52.5859 11.1797 53.5128 11.1797 54.6562C11.1797 55.7997 12.1068 56.7266 13.25 56.7266H43.4766C44.62 56.7266 45.5469 55.7997 45.5469 54.6562C45.5469 53.5128 44.6198 52.5859 43.4766 52.5859Z" fill="url(#paint7_linear)"/>
<defs>
<linearGradient id="paint0_linear" x1="35.8042" y1="88.8244" x2="89.7204" y2="39.3583" gradientUnits="userSpaceOnUse">
<stop stop-color="#974B9B"/>
<stop offset="1" stop-color="#88B8FF"/>
</linearGradient>
<linearGradient id="paint1_linear" x1="35.8042" y1="88.8244" x2="89.7204" y2="39.3583" gradientUnits="userSpaceOnUse">
<stop stop-color="#974B9B"/>
<stop offset="1" stop-color="#88B8FF"/>
</linearGradient>
<linearGradient id="paint2_linear" x1="35.8042" y1="88.8244" x2="89.7204" y2="39.3583" gradientUnits="userSpaceOnUse">
<stop stop-color="#974B9B"/>
<stop offset="1" stop-color="#88B8FF"/>
</linearGradient>
<linearGradient id="paint3_linear" x1="35.8042" y1="88.8244" x2="89.7204" y2="39.3583" gradientUnits="userSpaceOnUse">
<stop stop-color="#974B9B"/>
<stop offset="1" stop-color="#88B8FF"/>
</linearGradient>
<linearGradient id="paint4_linear" x1="35.8042" y1="88.8244" x2="89.7204" y2="39.3583" gradientUnits="userSpaceOnUse">
<stop stop-color="#974B9B"/>
<stop offset="1" stop-color="#88B8FF"/>
</linearGradient>
<linearGradient id="paint5_linear" x1="35.8042" y1="88.8244" x2="89.7204" y2="39.3583" gradientUnits="userSpaceOnUse">
<stop stop-color="#974B9B"/>
<stop offset="1" stop-color="#88B8FF"/>
</linearGradient>
<linearGradient id="paint6_linear" x1="35.8042" y1="88.8244" x2="89.7204" y2="39.3583" gradientUnits="userSpaceOnUse">
<stop stop-color="#974B9B"/>
<stop offset="1" stop-color="#88B8FF"/>
</linearGradient>
<linearGradient id="paint7_linear" x1="35.8042" y1="88.8244" x2="89.7204" y2="39.3583" gradientUnits="userSpaceOnUse">
<stop stop-color="#974B9B"/>
<stop offset="1" stop-color="#88B8FF"/>
</linearGradient>
</defs>
</svg>
