<svg width="130" height="130" viewBox="0 0 130 130" fill="none" xmlns="http://www.w3.org/2000/svg">
<circle cx="65" cy="65" r="65" fill="#242135"/>
<path d="M109.651 48.6944H84.7318V23.4146C84.7318 19.3253 81.4046 16 77.3172 16H19.4146C15.3272 16 12 19.3251 12 23.4146V60.6348C12 64.7241 15.3272 68.0515 19.4146 68.0515H26.821V77.8774C26.821 82.5355 32.4906 84.8388 35.7864 81.5897L45.2928 72.2207V92.6902C45.2928 96.7428 48.5892 100.039 52.6418 100.039H83.9246L97.4364 113.356C100.721 116.594 106.343 114.293 106.343 109.667V100.039H109.651C113.704 100.039 117 96.7425 117 92.69V56.0413C117 51.991 113.704 48.6944 109.651 48.6944ZM45.2926 56.0413V63.589L32.9672 75.7362V64.978C32.9672 63.2795 31.5925 61.9049 29.8941 61.9049H19.4146C18.7159 61.9049 18.1464 61.3354 18.1464 60.6346V23.4146C18.1464 22.7159 18.7159 22.1464 19.4146 22.1464H77.3172C78.0159 22.1464 78.5854 22.7159 78.5854 23.4146V48.6946H52.6416C48.5892 48.6944 45.2926 51.991 45.2926 56.0413ZM110.854 92.69C110.854 93.3538 110.315 93.8926 109.651 93.8926H103.269C101.573 93.8926 100.196 95.2674 100.196 96.9657V107.447L87.3398 94.7754C86.7662 94.21 85.9916 93.8924 85.1823 93.8924H52.6416C51.9777 93.8924 51.439 93.3536 51.439 92.6898C51.439 91.3305 51.439 57.5408 51.439 56.0411C51.439 55.3793 51.9777 54.8406 52.6416 54.8406H109.651C110.315 54.8406 110.854 55.3793 110.854 56.0411V92.69Z" fill="url(#paint0_linear)"/>
<path d="M69.8781 34.8543C69.8781 33.1571 68.5023 31.7812 66.805 31.7812H29.9271C28.2299 31.7812 26.854 33.1571 26.854 34.8543C26.854 36.5516 28.2299 37.9274 29.9271 37.9274H66.805C68.5023 37.9276 69.8781 36.5516 69.8781 34.8543Z" fill="url(#paint1_linear)"/>
<path d="M37.7465 46.1227H29.9271C28.2299 46.1227 26.854 47.4985 26.854 49.1958C26.854 50.893 28.2299 52.2689 29.9271 52.2689H37.7465C39.4437 52.2689 40.8196 50.893 40.8196 49.1958C40.8196 47.4985 39.4437 46.1227 37.7465 46.1227Z" fill="url(#paint2_linear)"/>
<path d="M65.3702 71.293C63.673 71.293 62.2971 72.6689 62.2971 74.3661C62.2971 76.0633 63.673 77.4392 65.3702 77.4392C67.0674 77.4392 68.4433 76.0633 68.4433 74.3661C68.4433 72.6689 67.0674 71.293 65.3702 71.293Z" fill="url(#paint3_linear)"/>
<path d="M81.1465 71.293C79.4493 71.293 78.0735 72.6689 78.0735 74.3661C78.0735 76.0633 79.4493 77.4392 81.1465 77.4392C82.8438 77.4392 84.2196 76.0633 84.2196 74.3661C84.2196 72.6689 82.8438 71.293 81.1465 71.293Z" fill="url(#paint4_linear)"/>
<path d="M96.9217 71.293C95.2245 71.293 93.8486 72.6689 93.8486 74.3661C93.8486 76.0633 95.2245 77.4392 96.9217 77.4392C98.619 77.4392 99.9948 76.0633 99.9948 74.3661C99.9948 72.6689 98.619 71.293 96.9217 71.293Z" fill="url(#paint5_linear)"/>
<defs>
<linearGradient id="paint0_linear" x1="40.2832" y1="91.043" x2="89.9582" y2="41.906" gradientUnits="userSpaceOnUse">
<stop stop-color="#F29C40"/>
<stop offset="1" stop-color="#D35135"/>
</linearGradient>
<linearGradient id="paint1_linear" x1="40.2832" y1="91.043" x2="89.9582" y2="41.906" gradientUnits="userSpaceOnUse">
<stop stop-color="#F29C40"/>
<stop offset="1" stop-color="#D35135"/>
</linearGradient>
<linearGradient id="paint2_linear" x1="40.2832" y1="91.043" x2="89.9582" y2="41.906" gradientUnits="userSpaceOnUse">
<stop stop-color="#F29C40"/>
<stop offset="1" stop-color="#D35135"/>
</linearGradient>
<linearGradient id="paint3_linear" x1="40.2832" y1="91.043" x2="89.9582" y2="41.906" gradientUnits="userSpaceOnUse">
<stop stop-color="#F29C40"/>
<stop offset="1" stop-color="#D35135"/>
</linearGradient>
<linearGradient id="paint4_linear" x1="40.2832" y1="91.043" x2="89.9582" y2="41.906" gradientUnits="userSpaceOnUse">
<stop stop-color="#F29C40"/>
<stop offset="1" stop-color="#D35135"/>
</linearGradient>
<linearGradient id="paint5_linear" x1="40.2832" y1="91.043" x2="89.9582" y2="41.906" gradientUnits="userSpaceOnUse">
<stop stop-color="#F29C40"/>
<stop offset="1" stop-color="#D35135"/>
</linearGradient>
</defs>
</svg>
