<svg width="102" height="124" viewBox="0 0 102 124" fill="none" xmlns="http://www.w3.org/2000/svg">
<path d="M54.4885 101.227C54.4885 101.314 54.4709 101.398 54.437 101.474C54.4006 101.555 54.349 101.627 54.2875 101.682C53.4883 102.397 52.7809 103.211 52.1851 104.099C51.6276 104.929 51.8494 106.054 52.6799 106.612C52.9896 106.819 53.3403 106.919 53.6871 106.919C54.2706 106.919 54.8433 106.638 55.1926 106.117C55.6208 105.479 56.1291 104.895 56.7036 104.38C57.1468 103.983 57.4963 103.504 57.7416 102.957C57.9831 102.419 58.1107 101.821 58.1107 101.227C58.1107 98.8878 56.2076 96.9847 53.8683 96.9847H30.1356C29.0286 96.9847 28.1281 96.084 28.1281 94.9772V71.3993C28.1281 70.2242 27.6714 69.1203 26.8419 68.2908C26.0109 67.4598 24.9061 67.0021 23.731 67.0021C22.4932 67.0021 21.3028 67.532 20.4656 68.4557C18.7293 70.3692 16.2549 71.4668 13.6766 71.4668C11.099 71.4668 8.71268 70.4259 6.95803 68.5361C5.2046 66.648 4.34507 64.1835 4.53689 61.5977C4.87353 57.0857 8.53322 53.4585 13.049 53.1601C15.8732 52.9739 18.576 54.0649 20.4646 56.1499C20.8756 56.6052 21.3694 56.9649 21.9366 57.2211C22.7031 57.5653 23.5518 57.6806 24.3897 57.5556C26.5207 57.2374 28.1279 55.3326 28.1279 53.1243V29.6297C28.1279 28.5226 29.0283 27.6222 30.1354 27.6222H53.7133C56.1378 27.6222 58.1105 25.6496 58.1105 23.225V22.8412C58.1105 21.6072 57.5815 20.4178 56.6561 19.5745C54.7431 17.841 53.6457 15.3668 53.6457 12.7865C53.6457 10.2084 54.6869 7.82214 56.5769 6.06774C58.4653 4.31503 60.9293 3.45647 63.5156 3.64925C68.0268 3.98371 71.6538 7.64365 71.9527 12.1617C72.1384 14.9846 71.0479 17.6881 68.96 19.5796C68.0372 20.4164 67.5081 21.605 67.5081 22.8409V23.2248C67.5081 25.6493 69.4807 27.6219 71.9052 27.6219H77.5695C78.5697 27.6219 79.3806 26.8111 79.3806 25.8109C79.3806 24.8106 78.57 23.9998 77.5695 23.9998H71.9052C71.478 23.9998 71.1302 23.652 71.1302 23.2248V22.8409C71.1302 22.6251 71.2259 22.4144 71.3925 22.2633C74.3043 19.6254 75.826 15.8567 75.5668 11.9231C75.15 5.61412 70.0842 0.504205 63.7844 0.0372678C60.1829 -0.232287 56.7479 0.967268 54.1131 3.41288C51.5142 5.82506 50.0238 9.2416 50.0238 12.7863C50.0238 16.3869 51.5547 19.8392 54.2204 22.2551C54.3909 22.4103 54.4885 22.6237 54.4885 22.8409V23.2248C54.4885 23.6522 54.1408 23.9998 53.7135 23.9998H30.1356C27.0315 23.9998 24.5062 26.5251 24.5062 29.6292V53.1238C24.5062 53.5452 24.2202 53.9182 23.8547 53.9729C23.7012 53.9959 23.5547 53.9768 23.4239 53.9182C23.3188 53.8707 23.2275 53.8048 23.1514 53.7203C20.5138 50.8085 16.7463 49.2875 12.8112 49.5457C6.50514 49.9623 1.39523 55.0279 0.925385 61.3289C0.65801 64.9312 1.85781 68.3659 4.30414 71.0006C6.71633 73.5988 10.1326 75.0888 13.6768 75.0888C17.2745 75.0888 20.7266 73.5581 23.1485 70.889C23.3013 70.7204 23.5137 70.624 23.7312 70.624C24.0114 70.624 24.196 70.7669 24.281 70.8519C24.3653 70.936 24.5062 71.1191 24.5062 71.3993V94.9772C24.5062 98.0813 27.0315 100.607 30.1356 100.607H53.8683C54.2103 100.607 54.4885 100.885 54.4885 101.227Z" fill="url(#paint0_linear)"/>
<path d="M96.692 48.4808C99.2536 47.9288 101.113 45.6174 101.113 42.9844V29.6294C101.113 26.5253 98.5874 24 95.4833 24H85.9958C84.9956 24 84.1847 24.8108 84.1847 25.8111C84.1847 26.8113 84.9953 27.6222 85.9958 27.6222H95.4833C96.5901 27.6222 97.4908 28.5226 97.4908 29.6296V42.9846C97.4908 43.9228 96.834 44.7453 95.9291 44.9405C88.6434 46.5101 83.3555 53.0661 83.3555 60.5289C83.3555 67.9909 88.6434 74.5457 95.9291 76.1151C96.8342 76.3101 97.4908 77.1325 97.4908 78.0708V94.9774C97.4908 96.0844 96.5903 96.9849 95.4833 96.9849H71.7508C70.6181 96.9849 69.5527 97.4262 68.7511 98.2276C67.9497 99.029 67.5082 100.094 67.5082 101.228C67.5082 102.43 68.0226 103.58 68.9199 104.385C70.8601 106.123 71.9729 108.611 71.9729 111.212C71.9729 113.753 70.9041 116.203 69.0403 117.933C67.1524 119.686 64.6908 120.544 62.1038 120.351C58.0188 120.046 54.611 117.019 53.8166 112.989C53.6236 112.008 52.6713 111.368 51.6897 111.562C50.7086 111.755 50.0697 112.708 50.263 113.689C51.371 119.313 56.1293 123.538 61.8342 123.963C62.1665 123.988 62.4968 124 62.8255 124C66.0616 124 69.1124 122.808 71.5043 120.588C74.1037 118.175 75.5948 114.758 75.5948 111.212C75.5948 107.583 74.0427 104.111 71.3372 101.688C71.2057 101.57 71.1301 101.402 71.1301 101.228C71.1301 101.004 71.2439 100.857 71.312 100.789C71.3798 100.721 71.5275 100.607 71.7508 100.607H95.4833C98.5874 100.607 101.113 98.0815 101.113 94.9774V78.0708C101.113 75.4377 99.2534 73.126 96.6915 72.5741C91.0626 71.3617 86.9774 66.2959 86.9774 60.5287C86.9774 54.7605 91.0629 49.6937 96.692 48.4808Z" fill="url(#paint1_linear)"/>
<defs>
<linearGradient id="paint0_linear" x1="27.4013" y1="89.5945" x2="77.9846" y2="55.5249" gradientUnits="userSpaceOnUse">
<stop stop-color="#974B9B"/>
<stop offset="1" stop-color="#88B8FF"/>
</linearGradient>
<linearGradient id="paint1_linear" x1="67.4159" y1="107.797" x2="106.554" y2="89.5257" gradientUnits="userSpaceOnUse">
<stop stop-color="#974B9B"/>
<stop offset="1" stop-color="#88B8FF"/>
</linearGradient>
</defs>
</svg>
