<svg width="98" height="98" viewBox="0 0 98 98" fill="none" xmlns="http://www.w3.org/2000/svg">
<path d="M97.1438 39.8468C96.97 38.9315 96.17 38.2692 95.2384 38.2692H50.0344C48.9632 38.2692 48.095 39.1374 48.095 40.2085V58.8258C48.095 59.8969 48.9632 60.7652 50.0344 60.7652H72.2312C69.9818 65.196 66.4765 68.9382 62.1496 71.4759C58.182 73.8049 53.6349 75.0358 49 75.0358C38.2014 75.0358 28.4018 68.2449 24.6141 58.1354C23.5192 55.2236 22.9642 52.15 22.9642 48.9998C22.9642 46.1031 23.4371 43.2559 24.3691 40.5385C27.9811 30.0267 37.8797 22.964 49.0002 22.964C53.8864 22.964 58.6467 24.3249 62.7654 26.8995C63.4705 27.3403 64.3783 27.2825 65.0217 26.7555L80.2672 14.2741C80.7153 13.9072 80.9759 13.3592 80.9781 12.7804C80.9802 12.2012 80.7231 11.6517 80.2775 11.2817C71.5155 4.00671 60.4076 0 49 0C21.9813 0 0 21.9813 0 49C0 57.1051 2.01972 65.1354 5.84095 72.2225C14.4142 88.1227 30.9519 98 49 98C60.2937 98 71.3153 94.0655 80.0344 86.9216C88.6328 79.8765 94.6328 70.0415 96.9281 59.2295C97.6392 55.8897 98 52.4478 98 48.9998C98 45.9195 97.7119 42.84 97.1438 39.8468ZM49 3.87866C58.7131 3.87866 68.1898 7.03246 75.941 12.8035L63.6144 22.8953C59.1662 20.3987 54.1433 19.0855 49 19.0855C37.1454 19.0855 26.504 26.0739 21.7141 36.7301L9.68439 26.8815C17.4331 13.1624 32.1518 3.87866 49 3.87866ZM3.87866 49C3.87866 42.3802 5.31191 36.0891 7.88364 30.42L20.2904 40.5774C19.4917 43.3051 19.0855 46.1316 19.0855 49C19.0855 52.1448 19.5688 55.2251 20.5214 58.176L8.19257 68.2683C5.36722 62.2817 3.87866 55.6701 3.87866 49ZM49 94.1213C32.9123 94.1213 18.1279 85.5976 10.0364 71.7712L22.0328 61.9511C24.2347 66.5422 27.5619 70.4873 31.7732 73.4588C36.8315 77.028 42.7885 78.9147 48.9998 78.9147C53.8661 78.9147 58.6488 77.7285 62.9187 75.4809L75.3321 85.6432C67.6983 91.1279 58.4532 94.1213 49 94.1213ZM93.1346 58.4229C91.1 68.0061 85.902 76.7549 78.4511 83.1836L66.4084 73.3247C71.2161 69.8763 74.9359 65.0544 77.015 59.5061C77.2382 58.9106 77.1551 58.2434 76.793 57.7209C76.4306 57.1983 75.835 56.8865 75.1991 56.8865H51.9737V42.1477H93.6032C93.9474 44.4024 94.1213 46.7004 94.1213 48.9998C94.1213 52.1772 93.7894 55.3472 93.1346 58.4229Z" fill="url(#paint0_linear)"/>
<defs>
<linearGradient id="paint0_linear" x1="33.102" y1="82.1207" x2="82.949" y2="36.3878" gradientUnits="userSpaceOnUse">
<stop stop-color="#974B9B"/>
<stop offset="1" stop-color="#88B8FF"/>
</linearGradient>
</defs>
</svg>
