<svg width="130" height="130" viewBox="0 0 130 130" fill="none" xmlns="http://www.w3.org/2000/svg">
<circle cx="65" cy="65" r="65" fill="#242135"/>
<path d="M69.2587 20C46.7945 20 28.5173 38.2763 28.5173 60.7413C28.5173 68.3374 30.6121 75.6698 34.5991 82.1059L3 113.705L16.295 127L47.8941 95.4009C54.3302 99.3871 61.6626 101.483 69.2587 101.483C91.7237 101.483 110 83.2055 110 60.7413C110 38.2763 91.7237 20 69.2587 20ZM11.8639 113.705L30.3541 95.2148L34.7852 99.6459L16.295 118.136L11.8639 113.705ZM69.2587 95.2148C56.0355 95.2148 48.4419 87.9681 47.1496 87.2815L39.2172 95.214L34.786 90.7828L42.7193 82.8504C42.0711 81.6308 34.786 73.9098 34.786 60.7413C34.786 41.7327 50.2501 26.2679 69.2587 26.2679C88.2673 26.2679 103.732 41.7327 103.732 60.7413C103.732 79.7499 88.2673 95.2148 69.2587 95.2148Z" fill="url(#paint0_linear)"/>
<path d="M71.2364 57.627H65.7636C62.6457 57.627 60.1092 55.0906 60.1092 51.9728C60.1092 48.8549 62.6458 46.3184 65.7636 46.3184H76.7091C78.1199 46.3184 79.2638 45.1746 79.2638 43.7638C79.2638 42.3529 78.1199 41.2091 76.7091 41.2091H71.0547V35.5547C71.0547 34.1438 69.9109 33 68.5 33C67.0891 33 65.9453 34.1438 65.9453 35.5547V41.2091H65.7638C59.8285 41.2091 55 46.0378 55 51.9728C55 57.9079 59.8287 62.7364 65.7638 62.7364H71.2366C74.3543 62.7364 76.8908 65.2731 76.8908 68.3908C76.8908 71.5085 74.3543 74.0452 71.2366 74.0452H60.2911C58.8802 74.0452 57.7364 75.189 57.7364 76.5999C57.7364 78.0107 58.8802 79.1546 60.2911 79.1546H65.9453V84.8091C65.9453 86.22 67.0891 87.3638 68.5 87.3638C69.9109 87.3638 71.0547 86.22 71.0547 84.8091V79.1546H71.2364C77.1715 79.1546 82 74.3259 82 68.3908C82 62.4557 77.1715 57.627 71.2364 57.627Z" fill="url(#paint1_linear)"/>
<defs>
<linearGradient id="paint0_linear" x1="31.8219" y1="101.215" x2="85.4502" y2="51.2653" gradientUnits="userSpaceOnUse">
<stop stop-color="#F29C40"/>
<stop offset="1" stop-color="#D35135"/>
</linearGradient>
<linearGradient id="paint1_linear" x1="62.2728" y1="74.2631" x2="83.0901" y2="64.6333" gradientUnits="userSpaceOnUse">
<stop stop-color="#F29C40"/>
<stop offset="1" stop-color="#D35135"/>
</linearGradient>
</defs>
</svg>
