<svg width="107" height="130" viewBox="0 0 107 130" fill="none" xmlns="http://www.w3.org/2000/svg">
<path d="M39.7165 102.056L0 74.2707V39.69H31.3884L31.6783 37.9518C32.8116 31.0778 37.1074 25.31 43.4589 22.1758L45.7517 21.0434L44.1704 19.0154C42.5628 16.9348 41.6931 14.4327 41.6931 11.799C41.6931 5.29376 46.9904 0 53.5 0C60.0096 0 65.3069 5.29376 65.3069 11.799C65.3069 14.4327 64.4635 16.9348 62.8296 19.0154L61.2483 21.0434L63.5411 22.1758C69.8663 25.31 74.1621 31.0515 75.3217 37.9518L75.6116 39.69H107V74.2707L67.2835 102.056V122.336L39.6901 130V102.056H39.7165ZM43.4589 125.075L63.5148 119.518V100.134L103.231 72.3481V63.2881H3.76872V72.3481L43.4852 100.134V125.075H43.4589ZM3.76872 59.5219H103.258V43.4299H3.76872V59.5219ZM53.5 23.5981C45.0401 23.5981 37.7135 29.1288 35.6842 37.0827L35.0254 39.69H71.9746L71.3158 37.0827C69.2865 29.1288 61.9599 23.5981 53.5 23.5981ZM53.5 3.76621C49.0724 3.76621 45.4618 7.37439 45.4618 11.799C45.4618 16.2237 49.0724 19.8318 53.5 19.8318C57.9276 19.8318 61.5382 16.2237 61.5382 11.799C61.5382 7.37439 57.9276 3.76621 53.5 3.76621Z" fill="url(#paint0_linear)"/>
<defs>
<linearGradient id="paint0_linear" x1="36.1419" y1="108.936" x2="99.977" y2="60.731" gradientUnits="userSpaceOnUse">
<stop stop-color="#974B9B"/>
<stop offset="1" stop-color="#88B8FF"/>
</linearGradient>
</defs>
</svg>
