<svg width="129" height="98" viewBox="0 0 129 98" fill="none" xmlns="http://www.w3.org/2000/svg">
<path d="M8.94739 98C6.68512 98 4.49911 97.1309 2.8469 95.5717L2.82148 95.5462C1.04217 93.8592 0 91.4564 0 89.0026V27.0944C0 24.6406 0.965911 22.3657 2.69438 20.6531L2.7198 20.6275C4.39744 18.9917 6.60887 18.097 8.94739 18.097H83.0938L83.1955 17.6625C85.7882 7.25926 95.066 0 105.742 0C118.553 0 129 10.4799 129 23.3881C129 29.1904 126.865 34.7627 122.976 39.0569C119.138 43.3255 113.876 46.035 108.207 46.6228L107.699 46.674V89.0026C107.699 91.482 106.682 93.8592 104.878 95.5462L104.852 95.5717C103.175 97.1309 101.014 97.9744 98.7517 97.9744H8.94739V98ZM7.34601 94.0381L8.89655 94.0636C8.92197 94.0636 8.94739 94.0636 8.97281 94.0636H98.8534L100.404 94.0381L63.7501 62.7261L57.8784 68.2984C57.5226 68.6562 57.0396 68.8352 56.5312 68.8352H51.1933C50.6849 68.8352 50.202 68.6307 49.8461 68.2984L43.9744 62.7261L7.34601 94.0381ZM66.6225 59.9911L103.302 91.3542L103.556 90.5107C103.708 90.025 103.785 89.5394 103.785 89.0282V46.674L103.276 46.6228C97.8621 46.035 92.7783 43.53 88.9655 39.5425L88.5588 39.1335L66.6225 59.9911ZM4.04158 25.9953C3.96532 26.3532 3.91448 26.7366 3.91448 27.0944V89.0026C3.91448 89.5138 3.99074 89.9995 4.14325 90.4851L4.39744 91.3286L41.0767 59.9656L4.27034 24.9984L4.04158 25.9953ZM8.94739 22.0589C8.74404 22.0589 8.54069 22.0845 8.31192 22.1101L7.11724 22.2379L51.9813 64.8732H55.7687L86.1695 35.9896L85.9153 35.5806C83.6784 31.9254 82.4837 27.7079 82.4837 23.3881C82.4837 23.1581 82.4837 22.9025 82.4837 22.6724L82.5092 22.0845H8.94739V22.0589ZM105.742 3.96192C95.0914 3.96192 86.4236 12.6781 86.4236 23.3881C86.4236 34.0981 95.0914 42.8143 105.742 42.8143C116.392 42.8143 125.06 34.0981 125.06 23.3881C125.06 12.6781 116.392 3.96192 105.742 3.96192Z" fill="url(#paint0_linear)"/>
<path d="M106.607 15.1831H103.888C102.49 15.1831 101.346 16.3333 101.346 17.7392C101.346 19.145 102.49 20.2953 103.888 20.2953H104.066V30.5196C104.066 31.9254 105.209 33.0756 106.607 33.0756C108.005 33.0756 109.149 31.9254 109.149 30.5196V17.7392C109.149 16.3333 108.005 15.1831 106.607 15.1831Z" fill="url(#paint1_linear)"/>
<path d="M106.607 32.5133C105.514 32.5133 104.649 31.6187 104.649 30.5451V19.7329H103.887C102.794 19.7329 101.93 18.8383 101.93 17.7648C101.93 16.6912 102.819 15.7966 103.887 15.7966H106.607C107.7 15.7966 108.564 16.6912 108.564 17.7648V30.5451C108.564 31.6187 107.674 32.5133 106.607 32.5133Z" fill="url(#paint2_linear)"/>
<defs>
<linearGradient id="paint0_linear" x1="43.573" y1="82.1207" x2="92.7273" y2="22.7579" gradientUnits="userSpaceOnUse">
<stop stop-color="#974B9B"/>
<stop offset="1" stop-color="#88B8FF"/>
</linearGradient>
<linearGradient id="paint1_linear" x1="103.982" y1="30.1765" x2="110.283" y2="27.655" gradientUnits="userSpaceOnUse">
<stop stop-color="#974B9B"/>
<stop offset="1" stop-color="#88B8FF"/>
</linearGradient>
<linearGradient id="paint2_linear" x1="104.171" y1="29.8046" x2="109.658" y2="27.8066" gradientUnits="userSpaceOnUse">
<stop stop-color="#974B9B"/>
<stop offset="1" stop-color="#88B8FF"/>
</linearGradient>
</defs>
</svg>
