<svg width="22" height="22" viewBox="0 0 22 22" fill="none" xmlns="http://www.w3.org/2000/svg">
<path d="M15.5428 21.0638C14.8629 21.0638 14.1887 20.9436 13.5294 20.7041C10.6251 19.6491 7.92931 17.9307 5.73333 15.7348C3.53735 13.5388 1.81899 10.843 0.763995 7.93868C0.424972 7.00533 0.324923 6.04186 0.466727 5.07494C0.599564 4.16923 0.950394 3.28998 1.48133 2.5322C2.01461 1.7711 2.72557 1.13806 3.53731 0.701537C4.40295 0.236053 5.34778 0 6.34564 0C6.65599 0 6.92421 0.216842 6.98925 0.52028L8.02241 5.34168C8.06918 5.56001 8.00209 5.78717 7.84424 5.94506L6.07886 7.7104C7.74423 11.0215 10.4465 13.7238 13.7576 15.3892L15.523 13.6238C15.6809 13.4659 15.9081 13.3989 16.1263 13.4456L20.9477 14.4788C21.2512 14.5438 21.468 14.812 21.468 15.1224C21.468 16.1202 21.232 17.0651 20.7665 17.9308C20.3299 18.7425 19.6969 19.4535 18.9358 19.9867C18.1781 20.5177 17.2988 20.8685 16.393 21.0013C16.1092 21.043 15.8255 21.0638 15.5428 21.0638ZM5.81972 1.34523C4.50349 1.49053 3.33524 2.18043 2.55945 3.28767C1.68706 4.53273 1.48363 6.06412 2.00132 7.48924C4.02962 13.0728 8.39529 17.4385 13.9789 19.4668C15.4039 19.9845 16.9353 19.7811 18.1804 18.9087C19.2877 18.1329 19.9776 16.9646 20.1229 15.6484L16.2007 14.8079L14.357 16.6516C14.1608 16.8478 13.8627 16.8999 13.6117 16.7819C9.69572 14.9422 6.52591 11.7724 4.68619 7.8564C4.56825 7.60533 4.62033 7.30724 4.81652 7.1111L6.66019 5.26743L5.81972 1.34523Z" fill="url(#paint0_linear)"/>
<defs>
<linearGradient id="paint0_linear" x1="7.5191" y1="17.6508" x2="18.2331" y2="7.82114" gradientUnits="userSpaceOnUse">
<stop stop-color="#974B9B"/>
<stop offset="1" stop-color="#88B8FF"/>
</linearGradient>
</defs>
</svg>
