<svg width="130" height="130" viewBox="0 0 130 130" fill="none" xmlns="http://www.w3.org/2000/svg">
<circle cx="65" cy="65" r="65" fill="#242135"/>
<path d="M85.5569 47.9694V41.0276C85.5569 40.3643 85.3145 39.7238 84.8751 39.2269C84.4358 38.7299 83.8299 38.4107 83.1716 38.3294L77.4264 37.6199L75.6278 33.2767L79.1871 28.7123C79.5949 28.1892 79.7975 27.5352 79.7567 26.8732C79.7159 26.2113 79.4345 25.587 78.9655 25.1181L68.2591 14.4128C67.7902 13.9438 67.166 13.6624 66.504 13.6216C65.842 13.5808 65.188 13.7834 64.665 14.1913L60.1005 17.7494L55.7574 15.9509L55.0478 10.2056C54.9665 9.54731 54.6473 8.94144 54.1504 8.50211C53.6534 8.06277 53.013 7.82028 52.3497 7.82031H37.2073C36.5439 7.82028 35.9035 8.06277 35.4065 8.50211C34.9096 8.94144 34.5904 9.54731 34.5091 10.2056L33.7995 15.9509L29.4564 17.7494L24.8919 14.1901C24.3689 13.7823 23.7149 13.5797 23.0529 13.6205C22.3909 13.6613 21.7667 13.9427 21.2978 14.4117L10.5925 25.1181C10.1235 25.587 9.84213 26.2113 9.80133 26.8732C9.76052 27.5352 9.96311 28.1892 10.371 28.7123L13.9302 33.2767L12.1317 37.6199L6.38645 38.3294C5.72793 38.4105 5.12179 38.7295 4.68222 39.2265C4.24265 39.7235 4.00001 40.3641 4 41.0276V56.17C3.99997 56.8333 4.24246 57.4737 4.68179 57.9707C5.12113 58.4676 5.727 58.7868 6.38531 58.8681L12.1305 59.5777L13.9291 63.9208L10.3698 68.4853C9.96198 69.0083 9.75939 69.6624 9.80019 70.3243C9.841 70.9863 10.1224 71.6105 10.5914 72.0795L21.2978 82.7859C21.7667 83.2548 22.3909 83.5362 23.0529 83.577C23.7149 83.6179 24.3689 83.4153 24.8919 83.0074L29.4564 79.4481L33.7995 81.2467L34.5091 86.9919C34.5904 87.6502 34.9096 88.2561 35.4065 88.6954C35.9035 89.1348 36.5439 89.3773 37.2073 89.3772H44.1491C46.3919 107.735 62.0731 122 81.026 122C101.513 122 118.18 105.333 118.18 84.8463C118.18 65.8934 103.914 50.2113 85.5569 47.9694ZM39.0015 79.0079C38.9425 78.5307 38.7579 78.0776 38.4667 77.6949C38.1754 77.3122 37.7879 77.0136 37.3436 76.8295L30.0737 73.8187C29.6295 73.6347 29.1445 73.5718 28.6681 73.6365C28.1917 73.7011 27.7409 73.8909 27.3618 74.1866L23.4425 77.2422L16.1341 69.9338L19.1898 66.0146C19.4854 65.6354 19.6752 65.1847 19.7399 64.7083C19.8045 64.2318 19.7416 63.7468 19.5577 63.3026L16.5469 56.0327C16.3627 55.5884 16.0641 55.2009 15.6814 54.9097C15.2987 54.6184 14.8456 54.4339 14.3684 54.3748L9.43713 53.7665V43.431L14.3693 42.8218C14.8466 42.7628 15.2996 42.5782 15.6823 42.287C16.065 41.9957 16.3636 41.6082 16.5478 41.164L19.5586 33.8941C19.7425 33.4499 19.8054 32.9648 19.7408 32.4884C19.6761 32.012 19.4863 31.5612 19.1907 31.1821L16.135 27.2628L23.4434 19.9544L27.3627 23.0101C27.7418 23.3057 28.1926 23.4955 28.669 23.5602C29.1454 23.6248 29.6305 23.5619 30.0747 23.378L37.3445 20.3672C37.7888 20.183 38.1763 19.8844 38.4676 19.5017C38.7588 19.119 38.9434 18.666 39.0024 18.1887L39.6107 13.2574H49.9462L50.5554 18.1896C50.6145 18.6669 50.799 19.1199 51.0903 19.5026C51.3815 19.8853 51.769 20.184 52.2133 20.3681L59.4832 23.3789C59.9274 23.5628 60.4124 23.6257 60.8888 23.5611C61.3653 23.4965 61.816 23.3066 62.1952 23.011L66.1144 19.9553L73.4228 27.2637L70.3672 31.183C70.0715 31.5621 69.8817 32.0129 69.8171 32.4893C69.7524 32.9657 69.8153 33.4508 69.9993 33.895L73.0101 41.1649C73.1942 41.6091 73.4928 41.9966 73.8755 42.2879C74.2582 42.5791 74.7113 42.7637 75.1885 42.8227L80.1198 43.431V47.7041C74.9779 47.8238 69.9177 49.0169 65.264 51.207C65.4965 49.4017 65.49 47.5735 65.2447 45.7699C64.7065 41.8356 63.0472 38.1394 60.4649 35.1227C57.8827 32.106 54.4866 29.8965 50.6824 28.7579C46.8782 27.6193 42.8267 27.5999 39.0117 28.7019C35.1968 29.8039 31.7797 31.9808 29.1685 34.9725C26.5574 37.9642 24.8627 41.6443 24.2868 45.5733C23.7109 49.5022 24.2781 53.5139 25.9207 57.1292C27.5633 60.7445 30.2119 63.8105 33.5501 65.961C36.8882 68.1116 40.7749 69.2558 44.7458 69.2569C45.6284 69.2565 46.51 69.2001 47.3853 69.0881C45.1962 73.7408 44.0036 78.7996 43.8838 83.9401H39.6107L39.0015 79.0079ZM51.576 62.2226C48.7156 63.6346 45.4856 64.1181 42.3371 63.6054C39.1886 63.0928 36.2788 61.6096 34.0141 59.3632C32.5762 57.9549 31.4319 56.2756 30.6472 54.4223C29.8625 52.569 29.4531 50.5785 29.4426 48.5659C29.4321 46.5534 29.8208 44.5587 30.5862 42.6974C31.3515 40.836 32.4783 39.1448 33.9014 37.7217C35.3245 36.2986 37.0157 35.1718 38.8771 34.4065C40.7384 33.6411 42.7331 33.2525 44.7456 33.2629C46.7582 33.2734 48.7487 33.6828 50.602 34.4675C52.4553 35.2522 54.1346 36.3965 55.5428 37.8344C57.7891 40.0993 59.2721 43.0091 59.7847 46.1575C60.2973 49.3059 59.814 52.5358 58.4023 55.3963C55.8421 57.368 53.5476 59.6624 51.576 62.2226ZM81.026 116.563C63.5366 116.563 49.3094 102.336 49.3094 84.8463C49.3094 67.3569 63.5366 53.1297 81.026 53.1297C98.5154 53.1297 112.743 67.3569 112.743 84.8463C112.743 102.336 98.5154 116.563 81.026 116.563Z" fill="url(#paint0_linear)"/>
<path d="M102.774 78.503H98.2431V75.7845C98.2431 71.2181 96.4291 66.8387 93.2002 63.6098C89.9713 60.3809 85.5919 58.5669 81.0255 58.5669C76.4592 58.5669 72.0798 60.3809 68.8509 63.6098C65.622 66.8387 63.808 71.2181 63.808 75.7845V78.503H59.277C58.0758 78.5044 56.9241 78.9822 56.0747 79.8316C55.2253 80.6811 54.7475 81.8327 54.7461 83.034V92.5489C54.7474 93.6301 55.1774 94.6666 55.9419 95.431C56.7063 96.1955 57.7428 96.6255 58.8239 96.6268H63.808V97.533C63.8104 99.6953 64.6704 101.768 66.1994 103.297C67.7283 104.826 69.8014 105.686 71.9637 105.689H84.6503C85.3713 105.689 86.0628 105.402 86.5726 104.892C87.0824 104.383 87.3689 103.691 87.3689 102.97C87.3689 102.249 87.0824 101.558 86.5726 101.048C86.0628 100.538 85.3713 100.252 84.6503 100.252H71.9637C71.2429 100.251 70.5519 99.9641 70.0422 99.4544C69.5326 98.9448 69.2459 98.2537 69.2451 97.533V75.7845C69.2451 72.6601 70.4862 69.6637 72.6955 67.4544C74.9048 65.2452 77.9012 64.004 81.0255 64.004C84.1499 64.004 87.1463 65.2452 89.3556 67.4544C91.5648 69.6637 92.806 72.6601 92.806 75.7845V93.9082C92.806 94.6292 93.0924 95.3207 93.6022 95.8305C94.1121 96.3404 94.8035 96.6268 95.5246 96.6268H103.227C104.308 96.6255 105.345 96.1955 106.109 95.431C106.874 94.6666 107.304 93.6301 107.305 92.5489V83.034C107.304 81.8327 106.826 80.6811 105.976 79.8316C105.127 78.9822 103.975 78.5044 102.774 78.503ZM60.1832 83.9402H63.808V91.1897H60.1832V83.9402ZM101.868 91.1897H98.2431V83.9402H101.868V91.1897Z" fill="url(#paint1_linear)"/>
<defs>
<linearGradient id="paint0_linear" x1="34.7558" y1="94.4847" x2="91.9826" y2="41.1835" gradientUnits="userSpaceOnUse">
<stop stop-color="#F29C40"/>
<stop offset="1" stop-color="#D35135"/>
</linearGradient>
<linearGradient id="paint1_linear" x1="68.9035" y1="94.3332" x2="92.5634" y2="69.7536" gradientUnits="userSpaceOnUse">
<stop stop-color="#F29C40"/>
<stop offset="1" stop-color="#D35135"/>
</linearGradient>
</defs>
</svg>
