<svg width="114" height="115" viewBox="0 0 114 115" fill="none" xmlns="http://www.w3.org/2000/svg">
<path d="M111.963 49.2657C110.77 47.4654 108.963 46.2247 106.862 45.7545C108.217 43.1618 108.162 39.9269 106.435 37.3202C105.207 35.4645 103.354 34.266 101.337 33.8124C101.697 33.1263 101.962 32.3858 102.121 31.6049C102.562 29.4334 102.132 27.2207 100.908 25.3738C99.7154 23.5725 97.908 22.3319 95.8067 21.8625C97.1623 19.2698 97.107 16.0349 95.3803 13.4274C92.8561 9.61514 87.6988 8.56667 83.8857 11.0918L75.6296 16.5596C71.2286 14.3276 66.5478 12.7439 61.6898 11.8419C60.1543 9.51073 58.3689 7.3436 56.3702 5.40634L52.9545 2.09598C50.4531 -0.3291 46.5304 -0.693214 43.6262 1.23088C40.1904 3.50593 39.2463 8.15254 41.5214 11.5884C41.6109 11.7244 41.6986 11.8612 41.7855 11.9981C30.5892 14.2635 20.3853 20.2051 12.8328 28.9114C4.63717 38.3599 0.123047 50.4607 0.123047 62.9845C0.123047 65.385 0.287117 67.7899 0.611748 70.1307C3.11316 88.3285 15.2351 104.011 32.2457 111.059C38.5541 113.673 45.2476 115 52.1377 115C63.0497 115 73.4949 111.658 82.3451 105.337C91.0031 99.151 97.4808 90.615 101.079 80.6514C101.415 79.7232 100.933 78.6975 100.005 78.3623C99.0758 78.0272 98.051 78.508 97.7159 79.4371C94.3652 88.7154 88.3314 96.6645 80.2657 102.426C72.0262 108.313 62.2995 111.424 52.1377 111.424C46.8839 111.424 41.7539 110.595 36.8441 108.959L51.3928 99.3247C51.3937 99.3238 51.3946 99.3238 51.3954 99.323C51.3963 99.323 51.3963 99.3221 51.3972 99.3212L63.4884 91.3142H63.4893C64.5746 90.5948 65.316 89.4963 65.5757 88.2197C65.8354 86.9431 65.5827 85.6411 64.8632 84.5558L64.7036 84.3136L67.0523 82.758C68.7281 81.6481 70.7434 81.2129 72.7281 81.5314C75.6015 81.9929 78.5197 81.3612 80.9448 79.7547L100.426 66.8537C100.293 68.5436 100.073 70.2237 99.7672 71.8759C99.5865 72.8471 100.228 73.7806 101.199 73.9605C101.309 73.9816 101.419 73.9912 101.527 73.9912C102.372 73.9912 103.123 73.3893 103.283 72.5286C103.779 69.8623 104.064 67.131 104.137 64.3962L109.627 60.7603C111.474 59.5372 112.735 57.6675 113.175 55.4969C113.617 53.3254 113.186 51.1126 111.963 49.2657ZM72.1578 18.8583L66.6943 22.4767L65.6187 19.5787C65.1694 18.3696 64.6544 17.1843 64.0841 16.0244C66.8558 16.7272 69.5546 17.6748 72.1578 18.8583ZM15.5342 31.2549C22.7928 22.8873 32.68 17.2624 43.4964 15.312C45.2318 19.5164 45.6477 24.2139 44.6107 28.6912L40.2509 47.5259C39.5657 46.7942 38.676 46.2897 37.6741 46.0861C36.3966 45.8255 35.0955 46.0791 34.0101 46.7985L21.661 54.9757C21.6601 54.9757 21.6601 54.9757 21.6592 54.9766C21.6592 54.9766 21.6584 54.9766 21.6584 54.9775L3.84753 66.7721C3.75014 65.5157 3.69925 64.2497 3.69925 62.9845C3.69925 51.3223 7.90278 40.0532 15.5342 31.2549ZM62.0714 87.5064C62.0021 87.8468 61.8038 88.1407 61.5134 88.3329H61.5143L50.8945 95.3651L31.1841 65.9702C30.634 65.1498 29.5232 64.9314 28.7029 65.4815C27.8834 66.0316 27.664 67.1415 28.2142 67.9619L47.9122 97.3401L32.752 107.38C17.6873 100.791 6.90696 86.8756 4.31517 70.6835L22.1471 58.9134L24.1993 61.9755C24.5449 62.4896 25.11 62.7678 25.6864 62.7678C26.0286 62.7678 26.3752 62.6704 26.6805 62.4651C27.5008 61.9149 27.7202 60.8042 27.1701 59.9838L25.1319 56.9437L35.9851 49.7799C36.2738 49.5877 36.6203 49.5211 36.9608 49.5904C37.3012 49.6597 37.5951 49.858 37.7873 50.1475L61.8819 86.5307C62.0732 86.8194 62.1407 87.166 62.0714 87.5064ZM109.671 54.7845C109.42 56.0198 108.703 57.0832 107.652 57.779L101.376 61.9351C101.375 61.936 101.373 61.9378 101.37 61.9386L78.9698 76.7734C77.294 77.8833 75.2786 78.3193 73.294 78C70.4214 77.5393 67.5033 78.1702 65.0773 79.7767L62.7286 81.3323L42.9945 51.5338L48.0956 29.4983C49.409 23.8217 48.7168 17.8423 46.2145 12.6333C46.1917 12.5789 46.1671 12.5263 46.139 12.4745C45.6582 11.4901 45.1125 10.5346 44.5027 9.61338C43.3165 7.82177 43.8087 5.39932 45.6012 4.21222C47.1156 3.20938 49.1616 3.39889 50.4654 4.6632L53.8811 7.97443C57.5757 11.5568 60.4755 15.9998 62.2653 20.8237L64.1254 25.8344C64.1289 25.8441 64.1324 25.852 64.1359 25.8607C64.1403 25.8721 64.1455 25.8844 64.1499 25.8958C64.1631 25.9265 64.1754 25.9546 64.1885 25.9783C64.2245 26.0537 64.264 26.1283 64.3114 26.1994C64.8571 27.0233 65.9661 27.2487 66.7891 26.703L85.8607 14.074C88.0296 12.6377 90.9627 13.2335 92.399 15.4023C93.8352 17.5712 93.2395 20.5043 91.0706 21.9406L89.415 23.0373C89.415 23.0373 89.4141 23.0373 89.4132 23.0382L85.7203 25.4843C85.7151 25.4878 85.7116 25.4913 85.7063 25.494C85.6852 25.5089 85.6651 25.5229 85.6484 25.537C84.8851 26.0976 84.6877 27.1636 85.2167 27.9621C85.7616 28.7859 86.8715 29.0114 87.6953 28.4657L91.3909 26.0178C92.4411 25.3238 93.6984 25.079 94.9328 25.3299C96.1673 25.5808 97.2316 26.2977 97.9265 27.3488C98.6222 28.399 98.8679 29.658 98.617 30.8925C98.366 32.1279 97.6492 33.1912 96.5981 33.887L91.2478 37.4307C90.424 37.9756 90.1985 39.0846 90.7442 39.9085C91.0882 40.4279 91.6567 40.7095 92.2366 40.7095C92.5753 40.7095 92.9184 40.613 93.2219 40.4121L94.0502 39.8637L96.9157 37.966C99.0855 36.5297 102.018 37.1254 103.454 39.2943C104.89 41.4641 104.294 44.3963 102.126 45.8334L99.4531 47.6031C99.4391 47.6119 99.425 47.6215 99.411 47.6312L96.7753 49.3763C95.9515 49.9211 95.726 51.031 96.2717 51.8549C96.6157 52.3743 97.1842 52.6559 97.7641 52.6559C98.1028 52.6559 98.4459 52.5594 98.7494 52.3585L99.5777 51.8101C99.5777 51.8101 99.5777 51.8093 99.5786 51.8093L102.444 49.9124C103.494 49.2166 104.752 48.9709 105.988 49.2228C107.223 49.4728 108.287 50.1905 108.982 51.2407C109.677 52.291 109.922 53.55 109.671 54.7845Z" fill="url(#paint0_linear)"/>
<defs>
<linearGradient id="paint0_linear" x1="38.3663" y1="96.3661" x2="96.775" y2="43.6072" gradientUnits="userSpaceOnUse">
<stop stop-color="#974B9B"/>
<stop offset="1" stop-color="#88B8FF"/>
</linearGradient>
</defs>
</svg>
