<svg width="53" height="54" viewBox="0 0 53 54" fill="none" xmlns="http://www.w3.org/2000/svg">
<path fill-rule="evenodd" clip-rule="evenodd" d="M52.702 4.55807C52.5877 2.46215 50.9208 0.795454 48.8249 0.681064C44.5957 0.450016 36.3201 0.674777 28.4067 4.76778C24.3727 6.85443 20.1062 10.3922 16.7014 14.474C16.677 14.5033 16.6529 14.5327 16.6289 14.5621L16.577 14.6252L8.85002 15.2221C7.57812 15.3204 6.44525 15.9871 5.7418 17.051L0.470159 25.0245C-0.0633527 25.8315 -0.148166 26.8413 0.243131 27.7258C0.634531 28.6104 1.43877 29.2269 2.3946 29.375L8.90464 30.3833L8.9006 30.4055L8.90058 30.4056C8.87895 30.5247 8.85733 30.6437 8.83745 30.7628C8.62072 32.0592 9.05025 33.3921 9.9866 34.3284L19.0546 43.3965C19.8309 44.1728 20.8799 44.6007 21.9547 44.6007C22.1761 44.6007 22.3987 44.5825 22.6202 44.5455C22.7392 44.5256 22.8582 44.504 22.9771 44.4824L22.9998 44.4783L24.0081 50.9885C24.1562 51.9443 24.7726 52.7486 25.657 53.1399C26.025 53.3027 26.4145 53.3831 26.8022 53.3831C27.3466 53.383 27.8872 53.2245 28.3584 52.913L36.3319 47.6413C37.396 46.9377 38.0625 45.8048 38.1606 44.533L38.7575 36.8061C38.7788 36.7885 38.8002 36.771 38.8216 36.7536C38.8507 36.7297 38.8799 36.7059 38.9089 36.6817C42.9908 33.2769 46.5286 29.0105 48.6152 24.9763C52.7084 17.0627 52.9327 8.7869 52.702 4.55807ZM34.6269 45.0622L26.9997 50.105L26.017 43.7604C29.2405 42.8126 32.4294 41.2947 35.4673 39.2611L35.0785 44.2948C35.0542 44.6088 34.8896 44.8886 34.6269 45.0622ZM21.2406 41.2104L12.1726 32.1423C11.9412 31.9108 11.8343 31.5857 11.8867 31.2725C12.1563 29.6604 12.5752 28.1259 13.0938 26.6802L26.6998 40.2863C24.9636 40.9082 23.4084 41.2792 22.1104 41.4962C21.7967 41.5484 21.472 41.4417 21.2406 41.2104ZM9.08818 18.3046L14.1218 17.9158C12.0881 20.9537 10.5701 24.1425 9.62231 27.366L3.27787 26.3834L8.32073 18.7562C8.49448 18.4934 8.77427 18.3288 9.08818 18.3046ZM36.9288 34.3075C34.4315 36.3905 32.0073 37.8972 29.7729 38.9874L14.3951 23.6095C15.8232 20.6927 17.5661 18.2638 19.0755 16.4543C22.2264 12.6769 26.1452 9.41821 29.8272 7.51377C37.0899 3.75713 44.7418 3.55484 48.6566 3.76795C49.1747 3.79619 49.5869 4.2083 49.6151 4.72656C49.8285 8.64139 49.6258 16.2932 45.8692 23.5559C43.9648 27.2378 40.7062 31.1566 36.9288 34.3075ZM36.1435 24.9652C38.1224 24.965 40.102 24.2117 41.6086 22.7052C43.0684 21.2454 43.8723 19.3045 43.8723 17.2401C43.8723 15.1757 43.0683 13.2348 41.6086 11.775C38.5951 8.76139 33.6917 8.7616 30.6784 11.775C29.2186 13.2348 28.4146 15.1757 28.4146 17.2401C28.4146 19.3045 29.2187 21.2454 30.6784 22.7052C32.1853 24.212 34.1639 24.9654 36.1435 24.9652ZM32.8643 13.961C33.7683 13.0569 34.9558 12.6049 36.1433 12.6049C37.3309 12.6049 38.5184 13.0569 39.4224 13.961C40.2982 14.8369 40.7805 16.0014 40.7805 17.24C40.7805 18.4786 40.2982 19.6432 39.4224 20.5191C37.6144 22.3271 34.6723 22.327 32.8642 20.5191C31.9884 19.6432 31.506 18.4787 31.506 17.2401C31.506 16.0015 31.9885 14.8369 32.8643 13.961ZM2.67053 43.6491C2.36879 43.951 1.97316 44.1019 1.57754 44.1019C1.18191 44.1019 0.786287 43.9509 0.484544 43.6491C-0.119148 43.0454 -0.119148 42.0667 0.484544 41.463L5.53132 36.4161C6.13501 35.8124 7.11382 35.8124 7.71741 36.4161C8.3211 37.0198 8.3211 37.9985 7.71741 38.6022L2.67053 43.6491ZM12.3423 41.0411C11.7387 40.4374 10.7599 40.4374 10.1562 41.0411L0.453198 50.7442C-0.150494 51.3479 -0.150494 52.3266 0.453198 52.9303C0.755044 53.2321 1.15057 53.383 1.54619 53.383C1.94182 53.383 2.33744 53.2321 2.63919 52.9302L12.3422 43.2272C12.946 42.6235 12.946 41.6448 12.3423 41.0411ZM9.73453 50.713L14.7814 45.6661C15.385 45.0624 16.3638 45.0624 16.9674 45.6661C17.5711 46.2698 17.5711 47.2485 16.9674 47.8522L11.9205 52.899C11.6188 53.201 11.223 53.3519 10.8275 53.3519C10.432 53.3519 10.0364 53.2009 9.73453 52.899C9.13083 52.2954 9.13083 51.3167 9.73453 50.713Z" fill="url(#paint0_linear)"/>
<defs>
<linearGradient id="paint0_linear" x1="14.2126" y1="40.668" x2="40.6579" y2="16.0368" gradientUnits="userSpaceOnUse">
<stop stop-color="#F29C40"/>
<stop offset="1" stop-color="#D35135"/>
</linearGradient>
</defs>
</svg>
