<svg width="25" height="25" viewBox="0 0 25 25" fill="none" xmlns="http://www.w3.org/2000/svg">
<path d="M20.9843 1.68457H3.99127C2.21457 1.68457 0.769043 3.12982 0.769043 4.9068V15.3062C0.769043 17.0792 2.20828 18.5221 3.97983 18.5284V23.2475L10.7617 18.5284H20.9843C22.761 18.5284 24.2065 17.0829 24.2065 15.3062V4.9068C24.2065 3.12982 22.761 1.68457 20.9843 1.68457ZM22.8333 15.3062C22.8333 16.3256 22.0038 17.1551 20.9843 17.1551H10.3309L5.35312 20.619V17.1551H3.99127C2.97174 17.1551 2.14233 16.3256 2.14233 15.3062V4.9068C2.14233 3.88713 2.97174 3.05786 3.99127 3.05786H20.9843C22.0038 3.05786 22.8333 3.88713 22.8333 4.9068V15.3062Z" fill="#394D69"/>
<path d="M7.04196 6.53711H17.9336V7.9104H7.04196V6.53711Z" fill="#394D69"/>
<path d="M7.04196 9.4668H17.9336V10.8401H7.04196V9.4668Z" fill="#394D69"/>
<path d="M7.04196 12.3965H17.9336V13.7698H7.04196V12.3965Z" fill="#394D69"/>
</svg>
