<svg width="23" height="23" viewBox="0 0 23 23" fill="none" xmlns="http://www.w3.org/2000/svg">
<path d="M7.66026 15.1964C5.21278 11.3559 5.52045 11.835 5.44992 11.7349C4.55885 10.4781 4.08789 8.99884 4.08789 7.45703C4.08789 3.36824 7.40587 0 11.5 0C15.5808 0 18.9121 3.36159 18.9121 7.45703C18.9121 8.99785 18.4313 10.5158 17.511 11.7896L15.3398 15.1964C17.6612 15.5532 21.6074 16.6162 21.6074 18.957C21.6074 19.8103 21.0505 21.0264 18.3972 21.9739C16.5445 22.6356 14.0951 23 11.5 23C6.64731 23 1.39258 21.6311 1.39258 18.957C1.39258 16.6158 5.3342 15.5539 7.66026 15.1964ZM16.3853 11.0483C16.3927 11.0367 16.4004 11.0254 16.4085 11.0143C17.1743 9.96075 17.5645 8.71219 17.5645 7.45703C17.5645 4.08708 14.8509 1.34766 11.5 1.34766C8.15606 1.34766 5.43555 4.08829 5.43555 7.45703C5.43555 8.71422 5.81833 9.92041 6.54269 10.9462C6.6076 11.0318 6.26894 10.5057 11.5 18.714L16.3853 11.0483ZM11.5 21.6523C16.8005 21.6523 20.2598 20.0943 20.2598 18.957C20.2598 18.1926 18.4823 16.9358 14.5435 16.4459L12.0683 20.3299C11.9445 20.5241 11.7303 20.6416 11.5 20.6416C11.2698 20.6416 11.0555 20.524 10.9318 20.3299L8.45659 16.4459C4.51775 16.9358 2.74023 18.1926 2.74023 18.957C2.74023 20.0847 6.16836 21.6523 11.5 21.6523Z" fill="#394D69"/>
<path d="M11.5 4.08789C13.3577 4.08789 14.8691 5.59929 14.8691 7.45703C14.8691 9.31478 13.3577 10.8262 11.5 10.8262C9.64226 10.8262 8.13086 9.31478 8.13086 7.45703C8.13086 5.59929 9.64226 4.08789 11.5 4.08789ZM11.5 9.47852C12.6146 9.47852 13.5215 8.57168 13.5215 7.45703C13.5215 6.34238 12.6146 5.43555 11.5 5.43555C10.3854 5.43555 9.47852 6.34238 9.47852 7.45703C9.47852 8.57168 10.3854 9.47852 11.5 9.47852Z" fill="#394D69"/>
</svg>
