<svg width="22" height="22" viewBox="0 0 22 22" fill="none" xmlns="http://www.w3.org/2000/svg">
<path d="M15.1385 21.0638C14.4586 21.0638 13.7844 20.9436 13.1251 20.7041C10.2208 19.6491 7.52501 17.9307 5.32904 15.7348C3.13306 13.5388 1.4147 10.843 0.359698 7.93868C0.0206748 7.00533 -0.0793744 6.04186 0.0624304 5.07494C0.195267 4.16923 0.546097 3.28998 1.07703 2.5322C1.61031 1.7711 2.32127 1.13806 3.13302 0.701537C3.99865 0.236053 4.94349 0 5.94134 0C6.25169 0 6.51992 0.216842 6.58496 0.52028L7.61811 5.34168C7.66489 5.56001 7.59779 5.78717 7.43994 5.94506L5.67456 7.7104C7.33993 11.0215 10.0422 13.7238 13.3533 15.3892L15.1187 13.6238C15.2766 13.4659 15.5038 13.3989 15.722 13.4456L20.5435 14.4788C20.8469 14.5438 21.0637 14.812 21.0637 15.1224C21.0637 16.1202 20.8277 17.0651 20.3622 17.9308C19.9256 18.7425 19.2926 19.4535 18.5315 19.9867C17.7738 20.5177 16.8945 20.8685 15.9887 21.0013C15.7049 21.043 15.4212 21.0638 15.1385 21.0638ZM5.41543 1.34523C4.0992 1.49053 2.93094 2.18043 2.15515 3.28767C1.28277 4.53273 1.07934 6.06412 1.59702 7.48924C3.62532 13.0728 7.99099 17.4385 13.5746 19.4668C14.9997 19.9845 16.531 19.7811 17.7761 18.9087C18.8834 18.1329 19.5733 16.9646 19.7186 15.6484L15.7964 14.8079L13.9527 16.6516C13.7565 16.8478 13.4584 16.8999 13.2074 16.7819C9.29142 14.9422 6.12161 11.7724 4.28189 7.8564C4.16395 7.60533 4.21603 7.30724 4.41222 7.1111L6.25589 5.26743L5.41543 1.34523Z" fill="#394D69"/>
</svg>
