<svg width="63" height="64" viewBox="0 0 63 64" fill="none" xmlns="http://www.w3.org/2000/svg">
<path d="M6.89062 61.0326H10.8281C11.3722 61.0326 11.8125 60.5918 11.8125 60.0482V53.1576H35.4375V60.0482C35.4375 60.5918 35.8778 61.0326 36.4219 61.0326H45.2812H51.1875H60.0469C60.591 61.0326 61.0312 60.5918 61.0312 60.0482V45.2826C61.0312 45.0216 60.9274 44.7712 60.7429 44.5866L59.0625 42.9063V34.4545V2.95447C59.0625 2.41085 58.6222 1.97009 58.0781 1.97009H6.89062C4.17686 1.97009 1.96875 4.1782 1.96875 6.89197V56.1107C1.96875 58.8245 4.17686 61.0326 6.89062 61.0326ZM46.2656 59.0638V49.2201H50.2031V59.0638H46.2656ZM59.0625 59.0638H52.1719V48.2357C52.1719 47.6921 51.7316 47.2513 51.1875 47.2513H45.2812C44.7372 47.2513 44.2969 47.6921 44.2969 48.2357V59.0638H37.4062V45.6902L48.2344 34.8621L52.4603 39.088C52.7429 39.3701 53.1659 39.4542 53.5331 39.3014C53.9013 39.149 54.1406 38.79 54.1406 38.392V35.4388H57.0938V43.3138C57.0938 43.5748 57.1976 43.8253 57.3821 44.0098L59.0625 45.6902V59.0638ZM6.89062 3.93884H57.0938V33.4701H53.1562C52.6122 33.4701 52.1719 33.9108 52.1719 34.4545V36.0156L48.9304 32.7741C48.5458 32.3896 47.9229 32.3896 47.5384 32.7741L35.7259 44.5866C35.5413 44.7712 35.4375 45.0216 35.4375 45.2826V51.1888H11.8125V10.8295C11.8125 10.2858 11.3722 9.84509 10.8281 9.84509H6.89062C5.26217 9.84509 3.9375 8.52042 3.9375 6.89197C3.9375 5.26352 5.26217 3.93884 6.89062 3.93884ZM3.9375 10.8271C4.76038 11.4461 5.7832 11.8138 6.89062 11.8138H9.84375V59.0638H6.89062C5.26217 59.0638 3.9375 57.7392 3.9375 56.1107V10.8271Z" fill="#2CD4D4"/>
<path d="M15.75 42.3295H21.6562C22.2003 42.3295 22.6406 41.8887 22.6406 41.3451C22.6406 40.0618 23.4635 38.9668 24.6094 38.5607V41.3451C24.6094 41.8887 25.0497 42.3295 25.5938 42.3295H32.4844C33.0285 42.3295 33.4688 41.8887 33.4688 41.3451V28.5482H53.1562C53.7003 28.5482 54.1406 28.1075 54.1406 27.5638V7.87634C54.1406 7.33272 53.7003 6.89197 53.1562 6.89197H15.75C15.2059 6.89197 14.7656 7.33272 14.7656 7.87634V41.3451C14.7656 41.8887 15.2059 42.3295 15.75 42.3295ZM52.1719 26.5795H40.3594V24.6107H43.3125C43.8566 24.6107 44.2969 24.17 44.2969 23.6263C44.2969 21.2495 42.6031 19.2606 40.3594 18.8035V8.86072H52.1719V26.5795ZM27.5625 8.86072V18.7045H26.5781V20.6732H28.5469C29.091 20.6732 29.5312 20.2325 29.5312 19.6888V8.86072H38.3906V19.6888C38.3906 20.2325 38.8309 20.6732 39.375 20.6732C40.6583 20.6732 41.7533 21.4961 42.1599 22.642H39.375C38.8309 22.642 38.3906 23.0827 38.3906 23.6263V26.5795H32.4844C31.9403 26.5795 31.5 27.0202 31.5 27.5638V40.3607H26.5781V37.4076C26.5781 36.864 26.1378 36.4232 25.5938 36.4232C23.2164 36.4232 21.2285 38.117 20.7709 40.3607H16.7344V20.6732H23.625V18.7045H16.7344V8.86072H27.5625Z" fill="#2CD4D4"/>
<path d="M13.7812 47.2513H15.75V49.2201H13.7812V47.2513Z" fill="#2CD4D4"/>
<path d="M17.7188 47.2513H19.6875V49.2201H17.7188V47.2513Z" fill="#2CD4D4"/>
<path d="M21.6562 47.2513H23.625V49.2201H21.6562V47.2513Z" fill="#2CD4D4"/>
</svg>
