<svg width="62" height="84" viewBox="0 0 62 84" fill="none" xmlns="http://www.w3.org/2000/svg">
<path d="M25.8362 42L60.8264 2.78742C61.2656 2.29523 61.3746 1.59124 61.105 0.989297C60.8356 0.387352 60.2374 0 59.5781 0H37.6577C37.1809 0 36.7266 0.203438 36.4092 0.559289L0.424515 40.8859C-0.141993 41.5208 -0.141993 42.4792 0.424515 43.114L36.4092 83.4407C36.7266 83.7964 37.1808 84 37.6577 84H59.5781C60.2378 84 60.8358 83.6126 61.1052 83.0107C61.3747 82.4088 61.2658 81.7048 60.8266 81.2126L25.8362 42ZM38.4073 80.6535L3.91576 42L38.4073 3.34655H55.8424L22.3451 40.8859C21.7786 41.5208 21.7786 42.4792 22.3451 43.114L55.8424 80.6533H38.4073V80.6535Z" fill="#4CC2C2"/>
</svg>
