<svg width="23" height="18" viewBox="0 0 23 18" fill="none" xmlns="http://www.w3.org/2000/svg">
<path d="M20.4933 0.677002H1.9747C0.887196 0.677002 -3.05176e-05 1.56326 -3.05176e-05 2.65174V15.8166C-3.05176e-05 16.9014 0.883246 17.7914 1.9747 17.7914H20.4933C21.5781 17.7914 22.4681 16.9081 22.4681 15.8166V2.65174C22.4681 1.56695 21.5848 0.677002 20.4933 0.677002ZM20.2206 1.99349L11.2759 10.9383L2.25376 1.99349H20.2206ZM1.31646 15.544V2.91806L7.65663 9.20386L1.31646 15.544ZM2.24735 16.4749L8.59151 10.1307L10.8145 12.3346C11.0718 12.5897 11.4871 12.5889 11.7434 12.3326L13.9109 10.1651L20.2207 16.4749H2.24735ZM21.1516 15.544L14.8418 9.23418L21.1516 2.92434V15.544Z" fill="#2CD4D4"/>
</svg>
