<svg width="22" height="22" viewBox="0 0 22 22" fill="none" xmlns="http://www.w3.org/2000/svg">
<g clip-path="url(#clip0)">
<rect width="21.0638" height="21.0638" fill="white"/>
<path d="M15.1389 21.0638C14.459 21.0638 13.7848 20.9436 13.1256 20.7041C10.2213 19.6491 7.52545 17.9307 5.32947 15.7348C3.13349 13.5388 1.41513 10.843 0.360135 7.93868C0.0211115 7.00533 -0.0789376 6.04186 0.0628672 5.07494C0.195704 4.16923 0.546534 3.28998 1.07747 2.5322C1.61075 1.7711 2.32171 1.13806 3.13345 0.701537C3.99909 0.236053 4.94392 0 5.94178 0C6.25213 0 6.52035 0.216842 6.58539 0.52028L7.61855 5.34168C7.66532 5.56001 7.59823 5.78717 7.44038 5.94506L5.675 7.7104C7.34037 11.0215 10.0427 13.7238 13.3538 15.3892L15.1191 13.6238C15.277 13.4659 15.5042 13.3989 15.7225 13.4456L20.5439 14.4788C20.8474 14.5438 21.0642 14.812 21.0642 15.1224C21.0642 16.1202 20.8281 17.0651 20.3626 17.9308C19.9261 18.7425 19.293 19.4535 18.5319 19.9867C17.7742 20.5177 16.8949 20.8685 15.9892 21.0013C15.7054 21.043 15.4216 21.0638 15.1389 21.0638ZM5.41586 1.34523C4.09963 1.49053 2.93138 2.18043 2.15559 3.28767C1.2832 4.53273 1.07977 6.06412 1.59746 7.48924C3.62576 13.0728 7.99143 17.4385 13.575 19.4668C15.0001 19.9845 16.5315 19.7811 17.7766 18.9087C18.8838 18.1329 19.5737 16.9646 19.719 15.6484L15.7968 14.8079L13.9532 16.6516C13.757 16.8478 13.4589 16.8999 13.2078 16.7819C9.29186 14.9422 6.12205 11.7724 4.28233 7.8564C4.16439 7.60533 4.21647 7.30724 4.41266 7.1111L6.25633 5.26743L5.41586 1.34523Z" fill="#2CD4D4"/>
</g>
<defs>
<clipPath id="clip0">
<rect width="21.0638" height="21.0638" fill="white"/>
</clipPath>
</defs>
</svg>
