<svg width="28" height="22" viewBox="0 0 28 22" fill="none" xmlns="http://www.w3.org/2000/svg">
<path d="M27.9451 11.9882L23.6383 2.50232C23.5403 2.28357 23.323 2.1425 23.0831 2.1425H16.6168C16.3109 0.947004 15.2338 0.111084 13.9999 0.111084C12.7661 0.111084 11.689 0.947004 11.383 2.1425H4.91682C4.68067 2.13774 4.46383 2.27118 4.3616 2.48397L0.0547513 11.9639C0.0218673 12.0496 0.00351901 12.1404 -5.53361e-05 12.2322C-0.00339139 14.9477 2.19507 17.1517 4.91062 17.155C7.62617 17.1583 9.83011 14.9599 9.83345 12.2443C9.83416 12.1581 9.81534 12.0725 9.77864 11.9944L5.86235 3.36255H11.3585C11.5727 4.38981 12.3665 5.19809 13.3899 5.43043V18.0641H10.6691C9.61565 18.0743 8.76424 18.926 8.75376 19.9794V21.2605C8.75376 21.596 9.04661 21.8462 9.38808 21.8462H18.5508C18.8863 21.8462 19.1851 21.596 19.1851 21.2605V19.9794C19.1746 18.926 18.3232 18.0743 17.2698 18.0641H14.61V5.43043C15.6313 5.19404 16.4231 4.38767 16.6414 3.36255H22.1375L18.2212 11.9944C18.185 12.0728 18.1664 12.1581 18.1664 12.2443C18.1664 14.9599 20.3678 17.1612 23.0831 17.1612C25.7986 17.1612 27.9999 14.9599 27.9999 12.2443C28.0007 12.1559 27.9818 12.0685 27.9451 11.9882ZM4.91682 4.25304L8.27789 11.6588H1.5555L4.91682 4.25304ZM4.91682 15.9655C3.08675 15.9655 1.5617 14.5869 1.26884 12.8789H8.5586C8.27193 14.5869 6.74688 15.9655 4.91682 15.9655ZM17.9651 19.9794V20.6262H9.9738V19.9794C9.98214 19.5989 10.2888 19.2925 10.6691 19.2841H17.2698C17.6503 19.2925 17.9567 19.5989 17.9651 19.9794ZM13.9999 4.28354C13.1848 4.28354 12.5237 3.62276 12.5237 2.80733C12.5237 1.99214 13.1848 1.33113 13.9999 1.33113C14.8154 1.33113 15.4761 1.99214 15.4761 2.80733C15.4754 3.62228 14.8149 4.28282 13.9999 4.28354ZM26.4444 11.6588H19.722L23.0831 4.25304L26.4444 11.6588ZM23.0831 15.9655C21.253 15.9655 19.728 14.5869 19.4353 12.8789H26.7251C26.4382 14.5869 24.9131 15.9655 23.0831 15.9655Z" fill="#2CD4D4"/>
</svg>
