<svg width="62" height="84" viewBox="0 0 62 84" fill="none" xmlns="http://www.w3.org/2000/svg">
<path d="M35.4152 42L0.424923 2.78742C-0.0142746 2.29523 -0.123211 1.59124 0.146343 0.989297C0.415733 0.387352 1.01391 0 1.67327 0H23.5937C24.0704 0 24.5247 0.203438 24.8422 0.559289L60.8268 40.8859C61.3933 41.5208 61.3933 42.4792 60.8268 43.114L24.8422 83.4407C24.5247 83.7964 24.0706 84 23.5937 84H1.67327C1.01358 84 0.415569 83.6126 0.146179 83.0107C-0.123375 82.4088 -0.0144386 81.7048 0.424755 81.2126L35.4152 42ZM22.8441 80.6535L57.3356 42L22.8441 3.34655H5.40897L38.9063 40.8859C39.4728 41.5208 39.4728 42.4792 38.9063 43.114L5.40897 80.6533H22.8441V80.6535Z" fill="#4CC2C2"/>
</svg>
