<svg width="63" height="63" viewBox="0 0 63 63" fill="none" xmlns="http://www.w3.org/2000/svg">
<path d="M59.85 12.5998H46.2V8.39984C46.1964 5.50157 43.8483 3.15343 40.95 3.14984H22.05C19.1517 3.15343 16.8036 5.50157 16.8 8.39984V12.5998H3.15C1.41042 12.5998 0 14.0103 0 15.7498V39.1226C0.00666503 40.4546 0.845947 41.6394 2.1 42.087V56.6998C2.1 58.4394 3.51042 59.8498 5.25 59.8498H57.75C59.4896 59.8498 60.9 58.4394 60.9 56.6998V42.088C62.154 41.6399 62.9938 40.4546 63 39.1226V15.7498C63 14.0103 61.5896 12.5998 59.85 12.5998ZM18.9 8.39984C18.9 6.66027 20.3104 5.24984 22.05 5.24984H40.95C42.6896 5.24984 44.1 6.66027 44.1 8.39984V12.5998H42V8.39984C42 7.81998 41.5299 7.34984 40.95 7.34984H22.05C21.4701 7.34984 21 7.81998 21 8.39984V12.5998H18.9V8.39984ZM39.9 12.5998H23.1V9.44984H39.9V12.5998ZM58.8 56.6998C58.8 57.2797 58.3299 57.7498 57.75 57.7498H5.25C4.67014 57.7498 4.2 57.2797 4.2 56.6998V42.4479L27.3 45.6338V48.2998C27.3 50.0394 28.7104 51.4498 30.45 51.4498H32.55C34.2896 51.4498 35.7 50.0394 35.7 48.2998V45.6338L58.8 42.4479V56.6998ZM33.6 48.2998C33.6 48.8797 33.1299 49.3498 32.55 49.3498H30.45C29.8701 49.3498 29.4 48.8797 29.4 48.2998V41.9998C29.4 41.42 29.8701 40.9498 30.45 40.9498H32.55C33.1299 40.9498 33.6 41.42 33.6 41.9998V48.2998ZM60.9 39.1226C60.9005 39.646 60.5155 40.09 59.9971 40.1634L59.7059 40.2034L35.7 43.5138V41.9998C35.7 40.2603 34.2896 38.8498 32.55 38.8498H30.45C28.7104 38.8498 27.3 40.2603 27.3 41.9998V43.5138L3.00388 40.1634C2.48555 40.0906 2.09949 39.6466 2.1 39.1226V15.7498C2.1 15.17 2.57014 14.6998 3.15 14.6998H59.85C60.4299 14.6998 60.9 15.17 60.9 15.7498V39.1226Z" fill="#007DC6"/>
</svg>
