<svg width="46" height="46" viewBox="0 0 46 46" fill="none" xmlns="http://www.w3.org/2000/svg">
<path d="M32.7501 36.4034L32.4855 39.0858L35.0964 39.3435C31.6257 41.9149 27.4402 43.3047 23.041 43.3047C17.6174 43.3047 12.5185 41.1926 8.68345 37.3576C4.84838 33.5225 2.73633 28.4236 2.73633 23C2.73633 17.5764 4.84838 12.4775 8.68345 8.64243C12.5185 4.80736 17.6174 2.69531 23.041 2.69531C24.1627 2.69531 25.2878 2.7874 26.3851 2.96916L26.8255 0.310051C25.5831 0.104309 24.3099 0 23.041 0C16.8975 0 11.1217 2.39245 6.7775 6.73648C2.43337 11.0807 0.0410156 16.8565 0.0410156 23C0.0410156 29.1435 2.43337 34.9193 6.7775 39.2635C11.1217 43.6076 16.8975 46 23.041 46C28.0172 46 32.7519 44.43 36.6801 41.5249L36.4445 43.9118L39.1267 44.1765L39.825 37.1017L32.7501 36.4034Z" fill="white"/>
<path d="M30.5098 1.24072L29.6348 3.79004C30.6893 4.15202 31.7218 4.60555 32.7037 5.13805L33.9887 2.76878C32.8758 2.16521 31.7053 1.65113 30.5098 1.24072Z" fill="white"/>
<path d="M45.3378 17.3486L42.7246 18.009C42.9974 19.0884 43.1821 20.2011 43.2736 21.316L45.9598 21.0957C45.8562 19.8327 45.647 18.572 45.3378 17.3486Z" fill="white"/>
<path d="M37.1667 4.84863L35.5098 6.97452C36.3903 7.66083 37.2206 8.42531 37.9773 9.24702L39.9597 7.42095C39.1031 6.49098 38.1633 5.62551 37.1667 4.84863Z" fill="white"/>
<path d="M42.294 10.416L40.0391 11.8926C40.6512 12.8274 41.189 13.8188 41.6374 14.8392L44.1049 13.7549C43.5968 12.5985 42.9875 11.4752 42.294 10.416Z" fill="white"/>
<path d="M41.6423 31.1514C41.1942 32.1724 40.6568 33.1642 40.0449 34.0996L42.3005 35.5751C42.9936 34.5155 43.6026 33.3915 44.1104 32.2345L41.6423 31.1514Z" fill="white"/>
<path d="M43.2758 24.6719C43.1849 25.7872 43.0007 26.9003 42.7285 27.9802L45.3421 28.6391C45.6507 27.4152 45.8593 26.154 45.9622 24.8907L43.2758 24.6719Z" fill="white"/>
<path d="M9.89315 26.161C10.0509 25.7654 10.2785 25.3973 10.5689 25.0746L12.3651 23.0788C13.313 22.0257 13.835 20.6654 13.835 19.2485C13.835 17.3474 12.2883 15.8008 10.3872 15.8008C8.48611 15.8008 6.93945 17.3474 6.93945 19.2485V20.2752H9.63476V19.2485C9.63476 18.8336 9.97231 18.4961 10.3872 18.4961C10.8021 18.4961 11.1396 18.8336 11.1396 19.2485C11.1396 19.9985 10.8634 20.7184 10.3617 21.2758L8.56553 23.2715C7.51706 24.4366 6.93954 25.9413 6.93954 27.5087V28.8563H13.964V26.161H9.89315Z" fill="#2FBDA0"/>
<path d="M21.7373 22.9877V15.8008H18.5035L14.4219 22.6578V25.683H19.042V28.7442H21.7373V25.683H22.8631V22.9877H21.7373ZM19.0419 22.9877H17.3622L19.0419 20.1657V22.9877Z" fill="#2FBDA0"/>
<path d="M32.8086 15.8008V18.4961H36.5284L34.636 28.4935L37.2843 28.9949L39.7817 15.8008H32.8086Z" fill="#2FBDA0"/>
<path d="M27.2211 15.7515L25.1133 28.5264L27.7728 28.9652L29.8806 16.1903L27.2211 15.7515Z" fill="#2FBDA0"/>
</svg>
