<svg width="88" height="116" viewBox="0 0 88 116" fill="none" xmlns="http://www.w3.org/2000/svg">
<path d="M24.217 55.9451C23.7958 55.5237 23.2113 55.2812 22.6152 55.2812C22.0194 55.2812 21.4348 55.5237 21.0137 55.9451C20.5923 56.3665 20.3496 56.951 20.3496 57.5469C20.3496 58.1427 20.592 58.7273 21.0137 59.1487C21.4348 59.5701 22.0194 59.8125 22.6152 59.8125C23.2113 59.8125 23.7958 59.5701 24.217 59.1487C24.6384 58.7273 24.8809 58.1427 24.8809 57.5469C24.8809 56.951 24.6387 56.3665 24.217 55.9451Z" fill="#FAAB62"/>
<path d="M24.217 72.2576C23.7958 71.8362 23.2113 71.5938 22.6152 71.5938C22.0194 71.5938 21.4348 71.8362 21.0137 72.2576C20.5923 72.679 20.3496 73.2613 20.3496 73.8594C20.3496 74.4552 20.592 75.0398 21.0137 75.4612C21.4348 75.8826 22.0194 76.125 22.6152 76.125C23.2113 76.125 23.7958 75.8826 24.217 75.4612C24.6384 75.0398 24.8809 74.4552 24.8809 73.8594C24.8809 73.2635 24.6387 72.679 24.217 72.2576Z" fill="white"/>
<path d="M24.217 88.5701C23.7958 88.1487 23.2113 87.9062 22.6152 87.9062C22.0194 87.9062 21.4348 88.1487 21.0137 88.5701C20.5923 88.9915 20.3496 89.576 20.3496 90.1719C20.3496 90.7677 20.592 91.3523 21.0137 91.7737C21.4348 92.1951 22.0194 92.4375 22.6152 92.4375C23.2113 92.4375 23.7958 92.1951 24.217 91.7737C24.6384 91.3523 24.8809 90.7677 24.8809 90.1719C24.8809 89.576 24.6387 88.9915 24.217 88.5701Z" fill="#FAAB62"/>
<path d="M67.6509 55.2812H32.4648C31.2138 55.2812 30.1992 56.2956 30.1992 57.5469C30.1992 58.7982 31.2138 59.8125 32.4648 59.8125H67.6509C68.902 59.8125 69.9165 58.7982 69.9165 57.5469C69.9165 56.2956 68.9022 55.2812 67.6509 55.2812Z" fill="white"/>
<path d="M67.6509 71.5938H32.4648C31.2138 71.5938 30.1992 72.6081 30.1992 73.8594C30.1992 75.1107 31.2138 76.125 32.4648 76.125H67.6509C68.902 76.125 69.9165 75.1107 69.9165 73.8594C69.9165 72.6081 68.9022 71.5938 67.6509 71.5938Z" fill="#FAAB62"/>
<path d="M67.6509 87.9062H32.4648C31.2138 87.9062 30.1992 88.9206 30.1992 90.1719C30.1992 91.4232 31.2138 92.4375 32.4648 92.4375H67.6509C68.902 92.4375 69.9165 91.4232 69.9165 90.1719C69.9165 88.9206 68.9022 87.9062 67.6509 87.9062Z" fill="white"/>
<path d="M87.4785 45.6555C87.4781 45.6469 87.4767 45.6383 87.476 45.6297C87.4733 45.5939 87.4692 45.5617 87.464 45.5325C87.4115 45.0257 87.1937 44.5395 86.8181 44.1636L63.2556 20.6011C62.8453 20.191 62.3043 19.9642 61.7476 19.9411C61.7186 19.9389 61.6882 19.9375 61.6536 19.9375H46.2852V15.8594C46.2852 7.11452 39.1709 0 30.4258 0C21.6807 0 14.5664 7.11452 14.5664 15.8594V19.9375H9.58203C4.58497 19.9375 0.519531 24.0029 0.519531 29V106.938C0.519531 111.935 4.58497 116 9.58203 116H78.4192C83.4163 116 87.4817 111.935 87.4817 106.938V45.7656C87.4817 45.726 87.4803 45.6895 87.4785 45.6555ZM63.9192 27.6728L79.746 43.5H69.0166C66.2059 43.5 63.919 41.2133 63.919 38.4023V27.6728H63.9192ZM30.4256 4.53125C36.6719 4.53125 41.7537 9.61305 41.7537 15.8594V36.6025C41.7537 40.4058 38.6595 43.5 34.8562 43.5C31.0529 43.5 27.9587 40.4058 27.9587 36.6025V15.6915C27.9587 14.3589 29.0428 13.2747 30.3753 13.2747C31.7079 13.2747 32.792 14.3589 32.792 15.6915V36.3254C32.792 37.5767 33.8065 38.5911 35.0576 38.5911C36.3087 38.5911 37.3233 37.5767 37.3233 36.3254V15.6915C37.3233 11.8603 34.2064 8.7435 30.3753 8.7435C26.5443 8.7435 23.4275 11.8603 23.4275 15.6915V19.9375H19.0977V15.8594H19.0974C19.0974 9.61305 24.1792 4.53125 30.4256 4.53125ZM82.95 106.938C82.9504 109.436 80.9177 111.469 78.4192 111.469H9.58181C7.08327 111.469 5.05056 109.436 5.05056 106.938V29C5.05056 26.5015 7.08327 24.4688 9.58181 24.4688H23.4273V36.6025C23.4273 42.9044 28.5541 48.0312 34.856 48.0312C41.1578 48.0312 46.2847 42.9044 46.2847 36.6025V24.4688H59.3875V38.4023C59.3875 43.7118 63.7069 48.0312 69.0164 48.0312H82.95V106.938Z" fill="white"/>
</svg>
