<svg width="34" height="34" viewBox="0 0 34 34" fill="none" xmlns="http://www.w3.org/2000/svg">
<circle cx="17" cy="17" r="16" stroke="white" stroke-width="2"/>
<path d="M17.5463 18.7556L23.7763 11.9383C23.9206 11.7806 24 11.5702 24 11.3457C24 11.1213 23.9206 10.9108 23.7763 10.7531L23.3176 10.2511C23.0188 9.9244 22.533 9.9244 22.2345 10.2511L17.0029 15.9758L11.7655 10.2447C11.6213 10.0871 11.429 10 11.224 10C11.0188 10 10.8266 10.0871 10.6822 10.2447L10.2237 10.7468C10.0794 10.9046 10 11.1149 10 11.3394C10 11.5638 10.0794 11.7743 10.2237 11.932L16.4594 18.7556C16.6041 18.9137 16.7972 19.0005 17.0026 19C17.2087 19.0005 17.4017 18.9137 17.5463 18.7556Z" fill="white"/>
<path d="M16.4537 16.2444L10.2237 23.0617C10.0794 23.2194 10 23.4298 10 23.6543C10 23.8787 10.0794 24.0892 10.2237 24.2469L10.6824 24.7489C10.9812 25.0756 11.467 25.0756 11.7655 24.7489L16.9971 19.0242L22.2345 24.7553C22.3787 24.9129 22.571 25 22.776 25C22.9812 25 23.1734 24.9129 23.3178 24.7553L23.7763 24.2532C23.9206 24.0954 24 23.8851 24 23.6606C24 23.4362 23.9206 23.2257 23.7763 23.068L17.5406 16.2444C17.3959 16.0863 17.2028 15.9995 16.9974 16C16.7913 15.9995 16.5983 16.0863 16.4537 16.2444Z" fill="white"/>
</svg>
