<svg width="102" height="102" viewBox="0 0 102 102" fill="none" xmlns="http://www.w3.org/2000/svg">
<path d="M39.1341 43.5413C38.9514 45.8322 37.774 48.2078 36.0655 49.742C35.4832 50.2648 35.2326 51.0722 35.4238 51.8372L36.2908 55.3094C36.4821 56.0702 37.0727 56.6651 37.8377 56.8563L45.4495 58.7561C46.4992 59.0153 47.4767 59.5211 48.3565 60.2606C49.2576 61.0128 50.5963 60.8981 51.3527 59.9928C52.1008 59.0918 51.9817 57.753 51.085 56.9966C49.708 55.8449 48.1611 55.05 46.4823 54.6251L40.1031 53.0355L39.8353 51.9645C41.4886 50.1371 42.6658 47.8038 43.1503 45.3813C44.2851 44.7948 45.1138 43.677 45.2796 42.3383L45.7386 38.6493C45.8788 37.5315 45.5346 36.3968 44.7909 35.5511C44.5614 35.2875 44.2978 35.058 44.0131 34.8668L44.1237 32.61L44.5104 32.2189C45.6069 31.0587 47.0901 28.5683 44.7441 24.9855C43.6306 23.2856 41.3398 21.2498 36.7371 21.2498C35.3814 21.2498 32.3256 21.2498 29.359 23.1154C20.6125 23.4214 19.5839 28.1348 19.5839 31.692C19.5839 32.3933 19.7114 33.7065 19.8304 34.803C19.5158 35.0028 19.2311 35.2493 18.9761 35.5339C18.2197 36.3882 17.871 37.5271 18.0157 38.6491L18.4747 42.3466C18.649 43.7322 19.5287 44.8797 20.8249 45.4449C21.3008 47.7654 22.4144 50.0052 23.9655 51.7902L23.6554 53.0397L17.2762 54.6293C12.1124 55.9212 8.5 60.5453 8.5 65.8748C8.5 67.0478 9.45207 67.9998 10.6251 67.9998H40.6172C41.7902 67.9998 42.7423 67.0478 42.7423 65.8748C42.7423 64.7018 41.7904 63.7501 40.6174 63.7501L13.0689 63.7459C13.7956 61.3192 15.7549 59.3896 18.3133 58.7521L25.9293 56.8523C26.6901 56.6611 27.2849 56.0704 27.4762 55.3054L28.3814 51.6802C28.5685 50.9365 28.3346 50.146 27.7694 49.6189C26.1161 48.0592 25.024 45.7853 24.8411 43.533C24.7519 42.4279 23.8084 41.8203 22.6991 41.8203L22.1509 38.433C22.7629 38.433 23.3408 38.1694 23.7446 37.7148C24.1484 37.2516 24.3353 36.648 24.2588 36.0404C24.0972 34.7568 23.838 32.4407 23.838 31.6884C23.838 29.4912 23.838 27.413 30.0515 27.3492C30.485 27.3451 30.9099 27.209 31.2669 26.9498C33.2904 25.5001 35.6194 25.5001 36.7371 25.5001C40.0011 25.5001 40.8894 26.8602 41.1996 27.3148C42.0624 28.6408 41.7096 29.0147 41.4715 29.2697L40.5493 30.1919C40.1754 30.5658 39.9542 31.0631 39.9287 31.5902L39.6992 36.2185C39.6737 36.7964 39.7417 37.196 40.1413 37.621C40.5366 38.0417 40.9487 38.1224 41.5269 38.131L41.2506 41.582C40.1413 41.582 39.2233 42.4321 39.1341 43.5413Z" fill="#FAAB62"/>
<path d="M61.6251 34.0001H74.3751C75.5481 34.0001 76.5001 33.0481 76.5001 31.8751C76.5001 30.7021 75.5481 29.75 74.3751 29.75H61.6251C60.4521 29.75 59.5 30.7021 59.5 31.8751C59.5 33.0481 60.4521 34.0001 61.6251 34.0001Z" fill="white"/>
<path d="M91.3751 0H10.6249C4.76432 0 0 4.76432 0 10.6249V65.8749C0 71.7357 4.76432 76.5 10.6249 76.5H42.0664C43.2436 76.5 44.1915 75.5479 44.1915 74.3749C44.1915 73.2019 43.2394 72.2499 42.0664 72.2499H10.6249C7.11012 72.2499 4.24993 69.3897 4.24993 65.8749V16.9999H97.7499V58.6924C97.7499 59.8654 98.7019 60.8175 99.8749 60.8175C101.048 60.8175 102 59.8654 102 58.6924V10.6249C102 4.76432 97.2357 0 91.3751 0ZM97.7501 12.75H4.24993V10.6249C4.24993 7.11012 7.11012 4.24993 10.6249 4.24993H91.3749C94.8897 4.24993 97.7499 7.11012 97.7499 10.6249V12.75H97.7501Z" fill="white"/>
<path d="M91.3751 34.0001C92.5481 34.0001 93.5002 33.0481 93.5002 31.8751C93.5002 30.7021 92.5481 29.75 91.3751 29.75H82.8751C81.7021 29.75 80.75 30.7021 80.75 31.8751C80.75 33.0481 81.7021 34.0001 82.8751 34.0001H91.3751Z" fill="#FAAB62"/>
<path d="M102 68C102 66.2236 100.678 64.9824 98.787 64.9824C97.7201 64.9824 95.8927 65.5307 94.3203 66.4359C92.242 62.0499 88.8419 58.1612 86.4067 56.9499C84.796 56.1467 79.3091 55.25 74.3749 55.25C69.4406 55.25 63.9539 56.1467 62.3389 56.9499C59.9122 58.1612 56.5121 62.0499 54.4297 66.4359C52.8529 65.5307 51.0254 64.9824 49.9586 64.9824C49.1512 64.9824 48.4583 65.1906 47.9017 65.6114C47.1622 66.1682 46.75 67.0181 46.75 67.9998C46.75 71.3148 49.3213 73.614 49.6187 73.8648C49.8482 74.0602 50.1118 74.1836 50.3837 74.2686C49.3679 77.0864 48.8751 80.2143 48.8751 82.8749C48.8751 86.0496 49.1683 91.4642 51.0001 94.2309V97.7499C51.0001 100.134 52.8658 102 55.2501 102H59.5C61.8843 102 63.7499 100.134 63.7499 97.7499V96.3092C66.3169 96.9509 70.3204 97.7499 74.3749 97.7499C78.4294 97.7499 82.4329 96.9509 84.9998 96.3092V97.7499C84.9998 100.134 86.8655 102 89.2497 102H93.4997C95.8839 102 97.7496 100.134 97.7496 97.7499V94.2309C99.5814 91.4642 99.8747 86.0496 99.8747 82.8749C99.8747 80.2143 99.3816 77.0864 98.366 74.2686C98.6379 74.1879 98.9015 74.0646 99.131 73.8648C99.4286 73.6144 102 71.315 102 68ZM64.2303 60.758C65.0249 60.3924 69.5598 59.4999 74.3751 59.4999C79.1904 59.4999 83.725 60.3924 84.5071 60.7494C86.1178 61.5569 89.858 65.7943 91.3453 70.4139C87.3504 70.9749 77.9068 72.2499 74.3751 72.2499C70.8433 72.2499 61.3956 70.9749 57.4006 70.4139C58.888 65.7943 62.6279 61.5571 64.2303 60.758ZM52.2281 70.4862C52.0921 70.3502 51.8839 70.1293 51.6374 69.7681C51.9179 69.8998 52.1857 70.0486 52.4365 70.1974C52.3684 70.295 52.2963 70.3842 52.2281 70.4862ZM59.5 97.7501H55.2501V95.6251H59.5V97.7501ZM93.4999 97.7501H89.2499V95.6251H93.4999V97.7501ZM94.4774 91.3751H87.1249C86.8996 91.3751 86.6744 91.4134 86.4533 91.4813C86.3937 91.5026 80.3078 93.5 74.3749 93.5C68.4419 93.5 62.3558 91.5024 62.2964 91.4855C62.2241 91.4642 62.152 91.4813 62.0797 91.4686C61.9309 91.4345 61.7864 91.3751 61.6249 91.3751H54.2639C53.7071 90.1043 53.1206 87.1762 53.1206 82.8794C53.1206 82.2037 53.1716 81.4855 53.2481 80.7588C56.1041 80.8395 59.4998 81.8043 59.4998 82.8753C59.4998 84.0483 60.4519 85.0003 61.6249 85.0003C62.7979 85.0003 63.7499 84.0481 63.7499 82.8751C63.7499 77.6816 56.7374 76.7254 54.0813 76.5469C54.3193 75.7691 54.604 75.0382 54.9269 74.3497C54.9311 74.3497 54.9355 74.3539 54.9397 74.3539C55.5348 74.4431 69.5639 76.5001 74.3749 76.5001C79.1858 76.5001 93.2152 74.4431 93.8101 74.3539C93.8143 74.3539 93.8143 74.3497 93.8186 74.3497C94.1416 75.0382 94.4264 75.7691 94.6643 76.5469C92.0081 76.7254 84.9998 77.6858 84.9998 82.8751C84.9998 84.0481 85.9519 85.0001 87.1249 85.0001C88.2979 85.0001 89.2499 84.0481 89.2499 82.8751C89.2499 81.7828 92.6245 80.8478 95.4974 80.7586C95.5739 81.4853 95.6249 82.2035 95.6249 82.8751C95.6249 87.176 95.0343 90.1043 94.4774 91.3751ZM96.5174 70.4821C96.4495 70.3842 96.3814 70.2908 96.3093 70.1974C96.5601 70.0486 96.832 69.8956 97.1083 69.7639C96.8999 70.0783 96.6874 70.3121 96.5174 70.4821Z" fill="white"/>
<path d="M61.6251 46.7501H91.375C92.548 46.7501 93.5001 45.7981 93.5001 44.6251C93.5001 43.4521 92.548 42.5 91.375 42.5H61.6251C60.4521 42.5 59.5 43.4521 59.5 44.6251C59.5 45.7981 60.4521 46.7501 61.6251 46.7501Z" fill="white"/>
<path d="M78.6251 80.75H70.1251C68.9521 80.75 68 81.7021 68 82.8751C68 84.0481 68.9521 85.0001 70.1251 85.0001H78.6251C79.7981 85.0001 80.7502 84.0481 80.7502 82.8751C80.75 81.7021 79.7981 80.75 78.6251 80.75Z" fill="#FAAB62"/>
</svg>
