<svg width="28" height="22" viewBox="0 0 28 22" fill="none" xmlns="http://www.w3.org/2000/svg">
<path d="M27.9999 19.624V21.0209C27.9999 21.5274 27.5894 21.9381 27.0827 21.9381H16.1402C15.6335 21.9381 15.223 21.5274 15.223 21.0209V19.624C15.223 19.1175 15.6335 18.7068 16.1402 18.7068H27.0827C27.5894 18.7068 27.9999 19.1175 27.9999 19.624ZM26.4442 12.5225L26.076 11.6274C25.8646 11.1135 25.3741 10.7789 24.8206 10.7669C24.8091 10.7093 24.7923 10.6519 24.7691 10.5955L24.4781 9.88815C24.6596 9.7886 24.8034 9.63035 24.8839 9.43737C24.9776 9.21284 24.9782 8.96031 24.8857 8.73529L23.4242 5.18243C23.2449 4.7467 22.7687 4.52351 22.3258 4.64935L22.0347 3.94189C22.0117 3.886 21.9834 3.83292 21.9503 3.78327C22.3213 3.39793 22.4526 2.81508 22.2364 2.28922L21.8682 1.39415C21.5351 0.584693 20.7544 0.0616455 19.8791 0.0616455C19.5978 0.0616455 19.3227 0.116188 19.0614 0.223684L14.3583 2.15836C13.2618 2.60938 12.7366 3.86839 13.1877 4.96499L13.556 5.86042C13.7677 6.37454 14.2591 6.70914 14.8129 6.72051C14.8244 6.77799 14.8412 6.83522 14.8643 6.89135L15.155 7.59796C14.9716 7.69739 14.8264 7.85673 14.7453 8.05106C14.6669 8.23915 14.6547 8.44656 14.7068 8.64125L14.4801 8.73456C14.255 8.82701 14.076 9.00519 13.9824 9.22972C13.919 9.38198 13.8993 9.54707 13.9214 9.70789L10.4593 11.1321C10.3864 11.0691 10.3039 11.0169 10.2132 10.9791C9.98872 10.8854 9.7363 10.8848 9.51128 10.9774L0.568474 14.6564C0.100091 14.8491 -0.123461 15.385 0.0691507 15.8535L0.782242 17.587C0.874818 17.812 1.053 17.9909 1.27753 18.0846C1.39053 18.1317 1.5105 18.1553 1.63059 18.1553C1.74921 18.1553 1.86772 18.1323 1.97961 18.0863L10.9227 14.4075C11.2534 14.2715 11.4611 13.9643 11.4874 13.6306L14.9494 12.2065C15.0468 12.3362 15.1769 12.4397 15.3293 12.5033C15.4423 12.5503 15.5622 12.5739 15.6823 12.5739C15.8009 12.5739 15.9194 12.551 16.0313 12.505L16.2586 12.4114C16.4242 12.7019 16.7311 12.8747 17.0542 12.8747C17.1386 12.8747 17.2241 12.8626 17.3082 12.8381L17.599 13.545C17.622 13.6007 17.6501 13.6536 17.683 13.703C17.3113 14.0883 17.1796 14.6718 17.3959 15.198L17.7642 16.0932C18.0974 16.9026 18.878 17.4257 19.7533 17.4257C20.0345 17.4257 20.3096 17.3711 20.571 17.2636L25.2741 15.329C26.3703 14.8782 26.8954 13.6191 26.4442 12.5225Z" fill="#FBB576"/>
</svg>
