<svg width="48" height="48" viewBox="0 0 48 48" fill="none" xmlns="http://www.w3.org/2000/svg">
<path d="M21.9688 48C17.835 48 14.4688 44.636 14.4688 40.5C14.4688 39.672 15.1407 39 15.9688 39C16.7968 39 17.4688 39.672 17.4688 40.5C17.4688 42.9822 19.4888 45 21.9688 45C24.4487 45 26.4688 42.9822 26.4688 40.5C26.4688 39.672 27.1408 39 27.9688 39C28.7968 39 29.4688 39.672 29.4688 40.5C29.4688 44.636 26.1029 48 21.9688 48Z" fill="#2FBDA0"/>
<path d="M38.4686 42H5.46863C3.5387 42 1.96875 40.4301 1.96875 38.5001C1.96875 37.4758 2.41479 36.5061 3.19263 35.84C3.2428 35.796 3.29663 35.7561 3.35266 35.7198C6.28857 33.1578 7.96875 29.4719 7.96875 25.5798V19.9999C7.96875 12.2802 14.2507 6 21.9686 6C22.2887 6 22.6348 6.00586 22.9548 6.06006C23.7726 6.19592 24.3248 6.97009 24.1886 7.78601C24.0527 8.60193 23.2646 9.15417 22.4626 9.01794C22.3026 8.99194 22.1268 9 21.9686 9C15.9049 9 10.9688 13.934 10.9688 19.9999V25.5798C10.9688 30.412 8.85059 34.9841 5.16284 38.1218C5.13281 38.146 5.10681 38.168 5.07458 38.1899C5.02075 38.2581 4.96875 38.3621 4.96875 38.5001C4.96875 38.7719 5.1969 39 5.46863 39H38.4686C38.7407 39 38.9689 38.7719 38.9689 38.5001C38.9689 38.3599 38.9169 38.2581 38.8608 38.1899C38.8308 38.168 38.8048 38.146 38.7748 38.1218C35.0848 34.9819 32.9689 30.412 32.9689 25.5798V23.4001C32.9689 22.5721 33.6409 21.9001 34.4689 21.9001C35.2969 21.9001 35.9689 22.5721 35.9689 23.4001V25.5798C35.9689 29.4741 37.6509 33.1619 40.5908 35.7261C40.6447 35.762 40.6967 35.8 40.7446 35.8422C41.5228 36.5061 41.9689 37.4758 41.9689 38.5001C41.9689 40.4301 40.3989 42 38.4686 42Z" fill="white"/>
<path d="M35.9689 19.9999C30.4548 19.9999 25.9688 15.5142 25.9688 10.0001C25.9688 4.48608 30.4548 0 35.9689 0C41.4829 0 45.9686 4.48608 45.9686 10.0001C45.9686 15.5142 41.4829 19.9999 35.9689 19.9999ZM35.9689 3C32.1086 3 28.9688 6.13989 28.9688 10.0001C28.9688 13.86 32.1086 16.9999 35.9689 16.9999C39.8287 16.9999 42.9686 13.86 42.9686 10.0001C42.9686 6.13989 39.8287 3 35.9689 3Z" fill="#2FBDA0"/>
</svg>
