<svg width="48" height="48" viewBox="0 0 48 48" fill="none" xmlns="http://www.w3.org/2000/svg">
<path d="M1.40624 47.9998H26.9072C27.684 47.9998 28.3135 47.3703 28.3135 46.5936V43.5936C28.3135 41.7604 27.1376 40.197 25.501 39.6166V37.7866C25.501 35.5604 23.6897 33.7495 21.4635 33.7495H6.84995C4.62376 33.7495 2.81249 35.5604 2.81249 37.7866V39.6166C1.1759 40.197 0 41.7604 0 43.5936V46.5936C0 47.3703 0.629514 47.9998 1.40624 47.9998ZM6.84995 36.562H21.4635C22.1388 36.562 22.6885 37.1113 22.6885 37.7866V39.3749H5.62534V37.7866C5.62534 37.1113 6.17466 36.562 6.84995 36.562ZM2.81249 43.5936C2.81249 42.818 3.44347 42.1874 4.21873 42.1874H24.0944C24.87 42.1874 25.501 42.818 25.501 43.5936V45.1873H2.81249V43.5936Z" fill="#2FBDA0"/>
<path d="M16.2003 29.2762C17.5952 31.1288 20.2444 31.5126 22.1084 30.1093C23.3498 29.1747 23.9274 27.682 23.7582 26.2399C24.9674 26.0341 26.136 25.6976 27.247 25.2438L40.4137 42.7322C41.809 44.5859 44.4585 44.9679 46.3218 43.5653C48.1799 42.166 48.5538 39.5157 47.1546 37.6572L33.9882 20.1689C34.7309 19.2266 35.3773 18.1972 35.9094 17.0924C37.2647 17.6607 38.8566 17.5 40.0842 16.5756C41.9427 15.1764 42.3166 12.5261 40.9173 10.6676L34.1505 1.6797C32.7512 -0.178809 30.1009 -0.552343 28.2424 0.846944C27.0009 1.78151 26.4234 3.27381 26.5926 4.71595C21.2936 5.61865 16.7756 9.01964 14.4422 13.862C13.0894 13.2948 11.5044 13.4486 10.2666 14.3802C8.40373 15.7828 8.03093 18.4254 9.43351 20.2883L16.2003 29.2762ZM32.0338 22.2493L33.9117 24.7436L31.6646 26.4351L29.7867 23.9412C30.5825 23.4421 31.3339 22.8759 32.0338 22.2493ZM44.6299 41.3182C44.0103 41.7848 43.127 41.6603 42.6604 41.0406L33.3561 28.6822L35.6032 26.9906L44.9075 39.3487C45.374 39.9684 45.2492 40.8517 44.6299 41.3182ZM29.9343 3.09401C30.5557 2.62599 31.4387 2.75416 31.9038 3.37159L38.6702 12.3595C39.1368 12.9787 39.0123 13.8624 38.3926 14.3286C37.7719 14.7962 36.8912 14.6721 36.4235 14.051L29.6567 5.06311C29.1901 4.44349 29.3147 3.56019 29.9343 3.09401ZM27.8766 7.37463C28.4856 8.18395 33.0903 14.3004 33.7095 15.1225C31.7902 19.788 27.4902 23.0264 22.4746 23.5812L16.6416 15.833C18.5631 11.162 22.8562 7.93017 27.8766 7.37463ZM11.9585 16.6273C12.5778 16.1607 13.4593 16.2827 13.9276 16.9049L20.6945 25.8927C20.6945 25.8927 20.6945 25.8927 20.6945 25.8931C21.1606 26.5124 21.0361 27.3957 20.4169 27.8622C19.7972 28.3284 18.9139 28.2039 18.4474 27.5846L11.6806 18.5968C11.2133 17.9757 11.3374 17.0949 11.9585 16.6273Z" fill="white"/>
</svg>
