<svg width="109" height="109" viewBox="0 0 109 109" fill="none" xmlns="http://www.w3.org/2000/svg">
<g clip-path="url(#clip0)">
<path d="M64.481 64.5146H44.5383C43.2862 64.5146 42.2617 65.5391 42.2617 66.7912C42.2617 68.0433 43.2862 69.0678 44.5383 69.0678H64.481C65.7331 69.0678 66.7575 68.0433 66.7575 66.7912C66.7575 65.5391 65.7331 64.5146 64.481 64.5146Z" fill="white"/>
<path d="M73.9753 73.8484H35.0461C33.794 73.8484 32.7695 74.8728 32.7695 76.125C32.7695 77.3771 33.794 78.4015 35.0461 78.4015H73.9753C75.2274 78.4015 76.2519 77.3771 76.2519 76.125C76.2519 74.8728 75.2274 73.8484 73.9753 73.8484Z" fill="#FAAB62"/>
<path d="M73.9753 83.4102H35.0461C33.794 83.4102 32.7695 84.4346 32.7695 85.6867C32.7695 86.9388 33.794 87.9633 35.0461 87.9633H73.9753C75.2274 87.9633 76.2519 86.9388 76.2519 85.6867C76.2519 84.4346 75.2274 83.4102 73.9753 83.4102Z" fill="white"/>
<path d="M87.9297 0.15622C87.0646 -0.185265 86.0857 0.0423916 85.4483 0.748126L80.5992 6.05252L75.7501 0.770892C74.9078 -0.162499 73.4736 -0.20803 72.5402 0.634298C72.4946 0.679829 72.4491 0.72536 72.4036 0.770892L67.5545 6.05252L62.7054 0.748126C61.8631 -0.185265 60.4061 -0.230796 59.4955 0.611532C59.4499 0.657064 59.4044 0.702595 59.3589 0.748126L54.5098 6.02975L49.6607 0.748126C48.8184 -0.185265 47.3614 -0.230796 46.4508 0.611532C46.4052 0.657064 46.3597 0.702595 46.3142 0.748126L41.4651 6.02975L36.616 0.748126C35.7737 -0.185265 34.3167 -0.230796 33.4061 0.611532C33.3605 0.657064 33.315 0.702595 33.2695 0.748126L28.4204 6.02975L23.5485 0.748126C22.9339 0.0651572 21.955 -0.185265 21.0899 0.15622C20.2248 0.497704 19.6556 1.34003 19.6784 2.27342V106.722C19.6556 107.951 20.6345 108.976 21.8639 108.999C22.5241 109.021 23.1388 108.748 23.5713 108.27L28.4204 102.966L33.2695 108.247C34.1118 109.181 35.546 109.226 36.4794 108.384C36.525 108.338 36.5705 108.293 36.616 108.247L41.4651 102.966L46.3142 108.247C47.1565 109.181 48.6135 109.226 49.5241 108.384C49.5697 108.338 49.6152 108.293 49.6607 108.247L54.5098 102.966L59.3589 108.247C60.2012 109.181 61.6582 109.226 62.5688 108.384C62.6144 108.338 62.6599 108.293 62.7054 108.247L67.5545 102.966L72.4036 108.247C73.2459 109.181 74.7029 109.226 75.6135 108.384C75.6591 108.338 75.7046 108.293 75.7501 108.247L80.5992 102.966L85.4483 108.247C85.8808 108.726 86.4955 108.976 87.1329 108.976C87.4061 108.976 87.6565 108.93 87.907 108.817C88.7721 108.475 89.3412 107.633 89.3184 106.699V2.25066C89.364 1.34003 88.7948 0.497704 87.9297 0.15622ZM80.622 97.2972C79.9845 97.2972 79.3699 97.5704 78.9373 98.0484L74.0882 103.353L69.2392 98.0712C68.3968 97.1378 66.9398 97.0923 66.0292 97.9346C65.9837 97.9801 65.9381 98.0257 65.8926 98.0712L61.0435 103.353L56.1945 98.0712C55.3521 97.1378 53.8951 97.0923 52.9845 97.9346C52.939 97.9801 52.8934 98.0257 52.8479 98.0712L47.9988 103.353L43.1498 98.0712C42.3074 97.1378 40.8504 97.0923 39.9398 97.9346C39.8943 97.9801 39.8487 98.0257 39.8032 98.0712L34.9314 103.353L30.0823 98.0484C29.6497 97.5704 29.0351 97.2972 28.3976 97.2972C27.7602 97.2972 27.1683 97.5704 26.7585 98.0484L24.2315 100.871V8.12419L26.7585 10.9244C27.1683 11.4024 27.7602 11.6756 28.3976 11.6756C29.0351 11.6756 29.6497 11.4024 30.0823 10.9244L34.9314 5.61997L39.7804 10.9016C40.6228 11.835 42.0798 11.8805 42.9904 11.0382C43.0359 10.9927 43.0815 10.9471 43.127 10.9016L47.9761 5.61997L52.8251 10.9016C53.6675 11.835 55.1245 11.8805 56.0351 11.0382C56.0806 10.9927 56.1262 10.9471 56.1717 10.9016L61.0208 5.61997L65.8699 10.9016C66.7122 11.835 68.1692 11.8805 69.0798 11.0382C69.1253 10.9927 69.1709 10.9471 69.2164 10.9016L74.0655 5.61997L78.9146 10.9244C79.3471 11.4024 79.9618 11.6756 80.5992 11.6756C81.2366 11.6756 81.8286 11.4024 82.2383 10.9244L84.7881 8.10142V100.849L82.2611 98.0484C81.8513 97.5704 81.2594 97.2972 80.622 97.2972Z" fill="white"/>
<path d="M61.5674 38.9488C60.5885 35.8755 57.72 33.8038 54.5101 33.8038C52.9165 33.8038 51.6416 32.5289 51.6416 30.9353C51.6416 29.3417 52.9165 28.0896 54.4873 28.0668C56.0581 28.0441 57.3558 29.3417 57.3558 30.9353C57.3558 30.9353 57.3558 30.9353 57.3558 30.9581C57.3558 32.2102 58.3802 33.2346 59.6323 33.2346C60.8844 33.2346 61.9089 32.2102 61.9089 30.9581C61.9089 27.7481 59.8372 24.8797 56.7639 23.9007V22.4665C56.7639 21.2144 55.7394 20.1899 54.4873 20.1899C53.2352 20.1899 52.2107 21.2144 52.2107 22.4665V23.9007C48.3178 25.1528 46.1779 29.3417 47.43 33.2346C48.4089 36.2852 51.2774 38.3797 54.4873 38.3797C56.0581 38.3569 57.3558 39.6318 57.3785 41.2254C57.4013 42.819 56.1264 44.0938 54.5328 44.1166C54.5328 44.0938 54.5328 44.0938 54.5101 44.0938C52.9392 44.0938 51.6416 42.819 51.6416 41.2254C51.6416 39.9733 50.6172 38.9488 49.365 38.9488C48.1129 38.9488 47.0885 39.9733 47.0885 41.2254C47.0885 44.4353 49.1602 47.281 52.2335 48.2827V49.7397C52.2335 50.9918 53.258 52.0163 54.5101 52.0163C55.7622 52.0163 56.7866 50.9918 56.7866 49.7397V48.2827C60.6796 47.0306 62.8195 42.8417 61.5674 38.9488Z" fill="#FAAB62"/>
</g>
<defs>
<clipPath id="clip0">
<rect width="109" height="109" fill="white"/>
</clipPath>
</defs>
</svg>
