<svg width="39" height="48" viewBox="0 0 39 48" fill="none" xmlns="http://www.w3.org/2000/svg">
<path d="M19.5 48C19.2298 48 18.9597 47.924 18.7216 47.772L8.86258 41.479C6.28143 39.8316 4.13724 37.5236 2.6617 34.8047C1.18616 32.0858 0.40625 29.0056 0.40625 25.897V5.25C0.40625 4.53947 0.894334 3.92644 1.57547 3.7815L19.2005 0.0315C19.398 -0.0105 19.602 -0.0105 19.7995 0.0315L37.4245 3.7815C38.1056 3.92644 38.5938 4.53947 38.5938 5.25V25.897C38.5938 29.0056 37.8138 32.0858 36.3383 34.8047C34.8628 37.5235 32.7186 39.8316 30.1374 41.479L20.2784 47.772C20.0403 47.924 19.7702 48 19.5 48ZM3.34375 6.46969V25.897C3.34375 31.233 5.98888 36.107 10.4195 38.935L19.5 44.7311L28.5805 38.935C33.0111 36.107 35.6562 31.233 35.6562 25.897V6.46969L19.5 3.03225L3.34375 6.46969Z" fill="white"/>
<path d="M25.375 27C25.375 23.6916 22.7395 21 19.5 21C17.8802 21 16.5625 19.6542 16.5625 18C16.5625 16.3458 17.8802 15 19.5 15C20.9409 15 22.1589 16.0505 22.3962 17.4977C22.5301 18.3148 23.2869 18.8665 24.0873 18.7295C24.8873 18.5927 25.4272 17.8194 25.2933 17.0024C24.9016 14.613 23.1767 12.765 20.9688 12.189V11.25C20.9688 10.4216 20.3111 9.75 19.5 9.75C18.6889 9.75 18.0312 10.4216 18.0312 11.25V12.1898C15.5002 12.8576 13.625 15.2093 13.625 18C13.625 21.3084 16.2605 24 19.5 24C21.1198 24 22.4375 25.3458 22.4375 27C22.4375 28.6542 21.1198 30 19.5 30C18.0591 30 16.8411 28.9495 16.6038 27.5023C16.47 26.6853 15.7132 26.1337 14.9127 26.2705C14.1127 26.4073 13.5728 27.1806 13.7067 27.9976C14.0984 30.387 15.8233 32.235 18.0312 32.811V33.75C18.0312 34.5784 18.6889 35.25 19.5 35.25C20.3111 35.25 20.9688 34.5784 20.9688 33.75V32.8102C23.4998 32.1424 25.375 29.7906 25.375 27Z" fill="#2FBDA0"/>
</svg>
