<svg width="125" height="103" viewBox="0 0 125 103" fill="none" xmlns="http://www.w3.org/2000/svg">
<path d="M112.523 48.0436C112.523 41.7633 107.788 36.5714 101.701 35.8422V4.32119C101.701 2.39126 100.449 0.756977 98.5854 0.25478C96.7224 -0.246929 94.8188 0.536274 93.8491 2.20449C87.1907 13.6601 76.7034 21.4901 62.6785 25.4777C52.0732 28.4928 43.3218 28.0558 43.2373 28.0507C43.1089 28.0434 42.9812 28.0495 42.8547 28.0622H20.4302C9.16504 28.0622 0 37.2272 0 48.4923C0 59.1029 8.13159 67.8471 18.4897 68.8278L25.2534 96.6408C26.1489 100.323 29.4214 102.895 33.2114 102.895H37.9058C40.4348 102.895 42.7817 101.755 44.3447 99.7665C45.9077 97.778 46.4612 95.2279 45.8638 92.7704L40.0642 68.9223H42.8506C42.9775 68.9352 43.1057 68.9413 43.2351 68.934C43.322 68.9291 52.0732 68.4916 62.6785 71.507C76.7031 75.4945 87.1904 83.3246 93.8491 94.7799C94.6233 96.1122 95.9927 96.88 97.4614 96.88C97.8325 96.88 98.2097 96.8309 98.5854 96.7299C100.449 96.2277 101.701 94.5936 101.701 92.6637V61.1422C107.788 60.4132 112.523 55.2213 112.523 48.9411V48.0436ZM40.3477 90.7523L41.1189 93.9242C41.3604 94.9166 41.137 95.9464 40.5056 96.7494C39.8748 97.5524 38.927 98.0128 37.9058 98.0128H33.2114C31.6809 98.0128 30.3596 96.9743 29.998 95.4872L23.5378 68.9225H35.0391L36.7634 76.0136H35.5964C34.248 76.0136 33.155 77.1066 33.155 78.455C33.155 79.8034 34.248 80.8964 35.5964 80.8964H37.9507L39.1602 85.8695H38.395C37.0466 85.8695 35.9536 86.9625 35.9536 88.3109C35.9536 89.6593 37.0466 90.7523 38.395 90.7523H40.3477ZM40.6575 53.6793H25.4851C24.1367 53.6793 23.0437 54.7724 23.0437 56.1207C23.0437 57.4691 24.1367 58.5621 25.4851 58.5621H40.6575V64.0397H37.0908C37.0461 64.0373 37.0017 64.0341 36.9563 64.0341H20.4302C20.407 64.0341 20.384 64.0375 20.3608 64.038C11.8201 64.0001 4.88281 57.0419 4.88281 48.4923C4.88281 39.9196 11.8574 32.945 20.4302 32.945H40.6575V53.6793ZM96.8176 38.1928V58.7919V90.2785C89.5012 78.9 78.1523 70.7929 63.8489 66.7638C55.9292 64.5329 49.0886 64.0873 45.5403 64.0294V56.1207V32.9552C49.0891 32.8974 55.9299 32.4516 63.8489 30.2208C78.1521 26.1915 89.5012 18.0846 96.8176 6.7062V38.1928ZM107.64 48.9411C107.64 52.5236 105.085 55.5204 101.7 56.204V40.7807C105.084 41.4643 107.64 44.4611 107.64 48.0436V48.9411Z" fill="white"/>
<path d="M113.255 34.2484C113.841 34.2484 114.43 34.0382 114.898 33.6121L121.939 27.1991C122.936 26.2911 123.008 24.7472 122.101 23.7501C121.193 22.7533 119.649 22.6812 118.652 23.5889L111.61 30.0018C110.613 30.9097 110.541 32.4537 111.449 33.4508C111.931 33.9798 112.591 34.2484 113.255 34.2484Z" fill="#FAAB62"/>
<path d="M114.898 63.3726C113.901 62.4649 112.357 62.5369 111.449 63.5338C110.541 64.5306 110.613 66.0748 111.61 66.9827L118.652 73.3956C119.12 73.8219 119.708 74.0321 120.295 74.0321C120.958 74.0321 121.619 73.7635 122.101 73.2345C123.008 72.2376 122.936 70.6934 121.939 69.7855L114.898 63.3726Z" fill="#FAAB62"/>
<path d="M122.557 46.051H117.15C115.802 46.051 114.709 47.144 114.709 48.4924C114.709 49.8408 115.802 50.9338 117.15 50.9338H122.557C123.906 50.9338 124.999 49.8408 124.999 48.4924C124.999 47.144 123.906 46.051 122.557 46.051Z" fill="#FAAB62"/>
<path d="M17.6816 55.1877C17.6206 55.0388 17.5449 54.8972 17.457 54.7654C17.3667 54.6311 17.2666 54.5066 17.1543 54.3943C17.0396 54.282 16.915 54.1794 16.7808 54.0916C16.6489 54.0037 16.5073 53.928 16.3608 53.8669C16.2119 53.8059 16.0581 53.7595 15.9043 53.7278C15.5894 53.6643 15.2646 53.6643 14.9497 53.7278C14.7935 53.7595 14.6396 53.8059 14.4932 53.8669C14.3467 53.928 14.2026 54.0037 14.0708 54.0916C13.9365 54.1794 13.812 54.282 13.6997 54.3943C13.5874 54.5066 13.4849 54.6311 13.397 54.7654C13.3091 54.8972 13.2334 55.0388 13.1724 55.1877C13.1113 55.3342 13.0649 55.488 13.0332 55.6443C13.0015 55.8005 12.9844 55.9617 12.9844 56.1204C12.9844 56.2791 13.0015 56.4402 13.0332 56.5989C13.0649 56.7527 13.1113 56.9065 13.1724 57.0554C13.2334 57.2019 13.3091 57.3435 13.397 57.4753C13.4849 57.6096 13.5874 57.7341 13.6997 57.8464C13.812 57.9587 13.9365 58.0613 14.0708 58.1516C14.2026 58.2395 14.3467 58.3152 14.4932 58.3762C14.6396 58.4373 14.7935 58.4836 14.9497 58.5154C15.1084 58.5471 15.2671 58.5618 15.4258 58.5618C15.5869 58.5618 15.7456 58.5471 15.9043 58.5154C16.0605 58.4836 16.2119 58.4373 16.3608 58.3762C16.5073 58.3152 16.6489 58.2395 16.7808 58.1516C16.915 58.0613 17.0396 57.9587 17.1543 57.8464C17.2666 57.7341 17.3667 57.6096 17.457 57.4753C17.5449 57.3435 17.6206 57.2019 17.6816 57.0554C17.7427 56.9065 17.7891 56.7527 17.8208 56.5989C17.8525 56.4402 17.8672 56.2791 17.8672 56.1204C17.8672 55.9617 17.8525 55.8005 17.8208 55.6443C17.7891 55.488 17.7427 55.3342 17.6816 55.1877Z" fill="#FAAB62"/>
</svg>
