<svg width="18" height="20" viewBox="0 0 18 20" fill="none" xmlns="http://www.w3.org/2000/svg">
<path d="M8.78906 0C5.2748 0 2.34375 2.83086 2.34375 6.44531C2.34375 7.82039 2.75695 9.04656 3.54996 10.1955L8.29582 17.601C8.52605 17.961 9.05254 17.9603 9.28231 17.601L14.0488 10.1704C14.8247 9.07344 15.2344 7.78543 15.2344 6.44531C15.2344 2.89137 12.343 0 8.78906 0ZM8.78906 9.375C7.17371 9.375 5.85938 8.06066 5.85938 6.44531C5.85938 4.82996 7.17371 3.51562 8.78906 3.51562C10.4044 3.51562 11.7188 4.82996 11.7188 6.44531C11.7188 8.06066 10.4044 9.375 8.78906 9.375Z" fill="#FAAB62"/>
<path d="M13.3697 13.4646L10.4193 18.0774C9.65555 19.2681 7.91832 19.2642 7.15828 18.0785L4.20305 13.4658C1.60289 14.067 0 15.1683 0 16.4844C0 18.768 4.52844 20 8.78906 20C13.0497 20 17.5781 18.768 17.5781 16.4844C17.5781 15.1674 15.973 14.0655 13.3697 13.4646Z" fill="#FAAB62"/>
</svg>
