<svg width="17" height="17" viewBox="0 0 17 17" fill="none" xmlns="http://www.w3.org/2000/svg">
<path d="M16.5542 12.4763L14.1768 10.1039C13.3278 9.25659 11.8843 9.59554 11.5447 10.697C11.29 11.4596 10.4409 11.8832 9.67676 11.7137C7.97862 11.2901 5.68613 9.08713 5.2616 7.30783C5.00688 6.54524 5.51632 5.69796 6.28048 5.44381C7.38427 5.10489 7.7239 3.66451 6.87483 2.81722L4.49744 0.444825C3.81818 -0.148275 2.7993 -0.148275 2.20495 0.444825L0.591722 2.05467C-1.02151 3.74924 0.761536 8.23985 4.75216 12.2221C8.74278 16.2043 13.2428 18.0684 14.941 16.3738L16.5542 14.7639C17.1486 14.0861 17.1486 13.0694 16.5542 12.4763Z" fill="#FAAB62"/>
</svg>
