<svg width="424" height="468" viewBox="0 0 424 468" fill="none" xmlns="http://www.w3.org/2000/svg">
<g opacity="0.04">
<path d="M168.723 69.0914C165.459 69.0914 162.739 69.0914 160.155 69.0914C132.274 69.0914 104.392 69.0914 76.5107 69.0914C55.0216 69.0914 33.5324 69.0914 11.9073 69.0914C3.20286 69.0914 -1.8294 75.6198 0.618729 83.3722C2.52283 89.0844 6.73905 91.1245 12.7234 91.1245C63.046 90.9885 113.369 91.1245 163.555 90.9885C165.323 90.9885 166.955 90.5805 168.723 90.4445C168.723 83.3722 168.723 76.8438 168.723 69.0914ZM23.3319 63.5151C72.0224 63.5151 120.169 63.5151 168.451 63.5151C168.451 59.1629 168.451 55.2187 168.451 50.3224C126.289 50.3224 84.5351 50.3224 43.1889 50.3224C42.5089 43.6581 41.9649 37.9458 41.1488 31.2814C83.583 31.2814 126.017 31.2814 168.859 31.2814C168.723 28.6973 168.587 27.0652 168.451 25.1611C119.761 25.1611 71.4784 25.1611 22.9239 25.1611C32.5804 42.842 32.5804 46.3782 23.3319 63.5151ZM168.587 129.751C166.683 129.615 165.187 129.479 163.691 129.479C114.049 129.479 64.406 129.479 14.7635 129.479C12.9954 129.479 10.6832 129.207 9.45919 130.159C7.55509 131.655 5.24297 134.239 5.37898 136.279C5.51498 138.319 7.96311 140.767 10.0032 142.127C11.4993 143.079 13.9474 142.535 15.9875 142.535C64.542 142.535 112.961 142.535 161.515 142.535C163.963 142.535 166.275 142.535 168.723 142.535C168.587 137.775 168.587 133.967 168.587 129.751ZM25.916 96.8368C31.3563 105.541 31.3563 113.702 26.1881 122.134C74.1985 122.134 121.257 122.134 168.587 122.134C168.587 119.55 168.587 117.51 168.587 114.518C125.609 114.518 82.767 114.518 39.9248 114.518C39.6528 110.03 39.3807 106.357 38.9727 102.005C41.8289 102.005 44.277 102.005 46.7251 102.005C66.7182 102.005 86.5752 102.005 106.568 102.005C125.609 102.005 144.65 102.005 163.691 102.005C166.955 102.005 170.628 102.277 167.907 96.9729C120.985 96.8369 74.1985 96.8368 25.916 96.8368Z" fill="#00295D"/>
<path d="M423.329 0C423.329 30.7376 423.329 61.6112 423.329 93.1648C364.029 93.1648 305.274 93.1648 245.975 93.1648C245.975 127.303 245.975 160.76 245.975 194.898C299.698 194.898 353.013 194.898 406.736 194.898C406.736 224.412 406.736 253.109 406.736 282.487C353.421 282.487 299.97 282.487 245.703 282.487C245.703 343.962 245.703 404.757 245.703 466.232C225.438 466.232 206.125 466.232 185.996 466.232C185.996 463.376 185.996 460.792 185.996 458.072C185.996 308.056 185.996 158.04 185.996 8.02442C185.996 5.30428 186.404 2.58413 186.676 0C265.56 0 344.444 0 423.329 0Z" fill="#00295D"/>
<path d="M137.714 467.864C137.714 365.179 137.714 262.493 137.714 159.944C137.714 151.648 138.938 150.288 147.37 149.744C149.682 149.608 151.858 149.608 154.171 149.744C162.059 150.424 163.419 151.92 163.419 159.944C163.419 260.997 163.419 362.051 163.419 463.104C163.419 464.736 163.555 466.232 163.555 467.864C154.987 467.864 146.282 467.864 137.714 467.864Z" fill="#00295D"/>
<path d="M42.5089 467.864C42.5089 364.771 42.5089 261.541 42.3729 158.448C42.3729 152.464 44.9571 150.288 50.1253 149.88C52.8455 149.608 55.5656 149.608 58.2858 149.744C66.7182 150.288 68.2143 151.92 68.2143 160.624C68.2143 261.269 68.2143 361.915 68.2143 462.56C68.2143 464.328 68.3503 466.232 68.3503 468C59.7818 467.864 51.0774 467.864 42.5089 467.864Z" fill="#00295D"/>
<path d="M90.111 467.864C90.111 365.043 90.111 262.086 89.975 159.264C89.975 152.6 92.5591 150.288 98.4074 149.88C100.72 149.744 102.896 149.608 105.208 149.744C114.184 150.152 115.816 151.784 115.816 160.624C115.816 261.406 115.816 362.323 115.816 463.104C115.816 464.736 115.952 466.232 115.952 467.864C107.384 467.864 98.6794 467.864 90.111 467.864Z" fill="#00295D"/>
<path d="M168.723 69.0917C168.723 76.8441 168.723 83.3724 168.723 90.4448C166.955 90.7168 165.187 90.9888 163.555 90.9888C113.233 90.9888 62.91 90.9888 12.7234 91.1248C6.73904 91.1248 2.52282 89.2207 0.618725 83.3724C-1.8294 75.62 3.33887 69.0917 11.9073 69.0917C33.3964 68.9557 54.8855 69.0917 76.5107 69.0917C104.392 69.0917 132.274 69.0917 160.155 69.0917C162.739 69.0917 165.459 69.0917 168.723 69.0917Z" fill="#00295D"/>
<path d="M23.3318 63.5151C32.7163 46.3782 32.7163 42.842 23.0598 25.1611C71.6143 25.1611 119.897 25.1611 168.587 25.1611C168.723 27.0652 168.859 28.6973 168.995 31.2814C126.153 31.2814 83.719 31.2814 41.2848 31.2814C41.9648 37.8098 42.6448 43.6581 43.3249 50.3224C84.671 50.3224 126.425 50.3224 168.587 50.3224C168.587 55.2187 168.587 59.1629 168.587 63.5151C120.169 63.5151 72.0224 63.5151 23.3318 63.5151Z" fill="#00295D"/>
<path d="M168.587 129.751C168.587 133.831 168.587 137.639 168.587 142.399C166.139 142.399 163.827 142.399 161.379 142.399C112.824 142.399 64.406 142.399 15.8515 142.399C13.8114 142.399 11.3632 142.943 9.86715 141.991C7.82705 140.631 5.37892 138.183 5.24291 136.143C5.10691 134.103 7.41903 131.655 9.32312 130.023C10.4112 129.071 12.7233 129.343 14.6274 129.343C64.27 129.343 113.913 129.343 163.555 129.343C165.051 129.479 166.683 129.751 168.587 129.751Z" fill="#00295D"/>
<path d="M25.916 96.8369C74.0625 96.8369 120.985 96.8369 167.771 96.8369C170.492 102.141 166.819 101.869 163.555 101.869C144.514 101.869 125.473 101.869 106.432 101.869C86.4392 101.869 66.5821 101.869 46.5891 101.869C44.141 101.869 41.6928 101.869 38.8367 101.869C39.1087 106.221 39.3807 109.894 39.7887 114.382C82.631 114.382 125.337 114.382 168.451 114.382C168.451 117.238 168.451 119.414 168.451 121.998C121.121 121.998 74.0625 121.998 26.052 121.998C31.3563 113.702 31.3563 105.541 25.916 96.8369Z" fill="#00295D"/>
</g>
</svg>
