<svg width="21" height="21" viewBox="0 0 21 21" fill="none" xmlns="http://www.w3.org/2000/svg">
<path d="M20.4493 15.4119L17.5125 12.4813C16.4637 11.4346 14.6806 11.8533 14.2611 13.2139C13.9465 14.1559 12.8976 14.6793 11.9536 14.4699C9.85594 13.9466 7.02405 11.2253 6.49962 9.02732C6.18497 8.0853 6.81428 7.03865 7.75824 6.7247C9.12175 6.30604 9.54129 4.52674 8.49244 3.4801L5.55566 0.549489C4.71658 -0.183163 3.45796 -0.183163 2.72376 0.549489L0.730951 2.53812C-1.26186 4.63141 0.940721 10.1786 5.87031 15.0979C10.7999 20.0171 16.3588 22.3198 18.4565 20.2264L20.4493 18.2378C21.1836 17.4005 21.1836 16.1445 20.4493 15.4119Z" fill="#00295D"/>
</svg>
