<svg width="25" height="21" viewBox="0 0 25 21" fill="none" xmlns="http://www.w3.org/2000/svg">
<path d="M12.5 14.5833C12.2864 14.5833 12.0823 14.4958 11.9354 14.3417L6.46664 8.6125C5.99268 8.11667 6.34476 7.29167 7.03122 7.29167H9.89581V1.30208C9.89581 0.584375 10.4802 0 11.1979 0H13.8021C14.5198 0 15.1041 0.584375 15.1041 1.30208V7.29167H17.9687C18.6552 7.29167 19.0073 8.11667 18.5333 8.6125L13.0646 14.3417C12.9177 14.4958 12.7135 14.5833 12.5 14.5833Z" fill="white"/>
<path d="M23.1771 20.8334H1.82292C0.817708 20.8334 0 20.0157 0 19.0105V18.4897C0 17.4845 0.817708 16.6667 1.82292 16.6667H23.1771C24.1823 16.6667 25 17.4845 25 18.4897V19.0105C25 20.0157 24.1823 20.8334 23.1771 20.8334Z" fill="white"/>
</svg>
