<svg width="71" height="92" viewBox="0 0 71 92" fill="none" xmlns="http://www.w3.org/2000/svg">
<g filter="url(#filter0_d)">
<path d="M57 23.0354C57 16.2045 51.4625 10.667 44.6316 10.667H14.9474V73.3337H44.6316C51.4625 73.3337 57 67.7961 57 60.9652V23.0354Z" fill="#1C65C3"/>
</g>
<path d="M42.647 42.9365L32.7998 53.6166C32.572 53.8638 32.268 54 31.9438 54C31.6196 54 31.3156 53.8638 31.0879 53.6166L30.3627 52.8303C29.8908 52.3179 29.8908 51.4851 30.3627 50.9735L38.6316 42.005L30.3535 33.0265C30.1258 32.7793 30 32.4497 30 32.0983C30 31.7465 30.1258 31.417 30.3535 31.1695L31.0787 30.3834C31.3066 30.1362 31.6105 30 31.9347 30C32.2588 30 32.5629 30.1362 32.7906 30.3834L42.647 41.0733C42.8753 41.3213 43.0007 41.6524 43 42.0044C43.0007 42.3578 42.8753 42.6887 42.647 42.9365Z" fill="white"/>
<defs>
<filter id="filter0_d" x="0.947266" y="0.666992" width="70.0526" height="90.6667" filterUnits="userSpaceOnUse" color-interpolation-filters="sRGB">
<feFlood flood-opacity="0" result="BackgroundImageFix"/>
<feColorMatrix in="SourceAlpha" type="matrix" values="0 0 0 0 0 0 0 0 0 0 0 0 0 0 0 0 0 0 127 0"/>
<feOffset dy="4"/>
<feGaussianBlur stdDeviation="7"/>
<feColorMatrix type="matrix" values="0 0 0 0 0 0 0 0 0 0 0 0 0 0 0 0 0 0 0.25 0"/>
<feBlend mode="normal" in2="BackgroundImageFix" result="effect1_dropShadow"/>
<feBlend mode="normal" in="SourceGraphic" in2="effect1_dropShadow" result="shape"/>
</filter>
</defs>
</svg>
