<svg width="44" height="53" viewBox="0 0 44 53" fill="none" xmlns="http://www.w3.org/2000/svg">
<path d="M10.6869 34.0984C10.6869 33.2183 10.0762 32.6934 8.99854 32.6934C8.5585 32.6934 8.26049 32.7368 8.10461 32.7783V35.6024C8.28918 35.6439 8.51607 35.6578 8.82881 35.6578C9.97744 35.6578 10.6869 35.0775 10.6869 34.0984Z" fill="white"/>
<path d="M17.3578 32.7231C16.8752 32.7231 16.5634 32.7648 16.3789 32.808V39.0624C16.5635 39.1057 16.8615 39.1057 17.1309 39.1057C19.0886 39.1196 20.3654 38.042 20.3654 35.7586C20.3793 33.7729 19.2158 32.7231 17.3578 32.7231Z" fill="white"/>
<path d="M29.7519 0H8.46491C5.35508 0 2.82402 2.53282 2.82402 5.64089V26.4999H2.27307C1.01792 26.4999 0 27.5169 0 28.7731V42.5584C0 43.8145 1.01781 44.8313 2.27307 44.8313H2.82402V47.3591C2.82402 50.4706 5.35508 53 8.46491 53H37.5101C40.618 53 43.1494 50.4705 43.1494 47.3591V13.3505L29.7519 0ZM5.9632 31.2609C6.62936 31.1483 7.56571 31.0634 8.88494 31.0634C10.2181 31.0634 11.1683 31.3179 11.8068 31.8291C12.4167 32.3108 12.8282 33.1059 12.8282 34.0416C12.8282 34.9771 12.5164 35.7724 11.9489 36.3111C11.2109 37.0059 10.1194 37.3177 8.84262 37.3177C8.55846 37.3177 8.30376 37.3037 8.10457 37.2761V40.6944H5.9632V31.2609ZM37.5101 49.5454H8.46491C7.26078 49.5454 6.28023 48.5649 6.28023 47.3591V44.8313H33.3563C34.6117 44.8313 35.6295 43.8145 35.6295 42.5584V28.7731C35.6295 27.5169 34.6117 26.4999 33.3563 26.4999H6.28023V5.64089C6.28023 4.43851 7.26089 3.45797 8.46491 3.45797L28.4595 3.43708V10.8278C28.4595 12.9865 30.2111 14.7398 32.3715 14.7398L39.6115 14.719L39.6929 47.359C39.6929 48.5649 38.7141 49.5454 37.5101 49.5454ZM14.209 40.651V31.2609C15.0033 31.1345 16.0384 31.0634 17.1309 31.0634C18.9464 31.0634 20.1238 31.3892 21.0463 32.0838C22.039 32.8218 22.6626 33.9983 22.6626 35.6873C22.6626 37.5168 21.9965 38.7799 21.0739 39.5594C20.0673 40.3961 18.535 40.793 16.663 40.793C15.542 40.793 14.7478 40.7219 14.209 40.651ZM29.6897 35.0915V36.8499H26.2567V40.6944H24.0867V31.1345H29.9304V32.9067H26.2567V35.0915H29.6897Z" fill="white"/>
</svg>
