<svg width="100" height="98" viewBox="0 0 100 98" fill="none" xmlns="http://www.w3.org/2000/svg">
<path d="M33.5366 21.3879C35.2726 24.289 37.9043 26.5475 41.0353 27.823C39.8686 28.878 38.8729 30.1078 38.0841 31.4687L36.6462 33.9499C36.482 34.2333 36.4055 34.5591 36.4264 34.886C36.4473 35.2129 36.5646 35.5262 36.7636 35.7864C36.9626 36.0466 37.2342 36.242 37.5442 36.3478C37.8542 36.4536 38.1886 36.4651 38.5052 36.3809L42.668 35.2729C44.6138 34.7524 46.4369 33.8505 48.0313 32.6195V36.7134C48.0313 37.1526 48.2058 37.5739 48.5164 37.8845C48.827 38.1951 49.2483 38.3696 49.6876 38.3696C50.1268 38.3696 50.5481 38.1951 50.8587 37.8845C51.1693 37.5739 51.3438 37.1526 51.3438 36.7134V32.6073C52.9566 33.8458 54.8015 34.7482 56.7693 35.261L60.9391 36.3424C61.2561 36.4244 61.5904 36.4106 61.8996 36.3027C62.2088 36.1948 62.479 35.9977 62.6762 35.7363C62.8734 35.4748 62.9887 35.1608 63.0075 34.8338C63.0262 34.5069 62.9477 34.1817 62.7817 33.8994L61.3279 31.4275C60.5336 30.0767 59.5349 28.8572 58.3673 27.8121C61.4863 26.5345 64.1074 24.2808 65.8381 21.3885L66.5656 20.1757C66.7021 19.9481 66.7819 19.6911 66.7984 19.4262C66.8148 19.1613 66.7673 18.8963 66.6599 18.6536C66.5526 18.4109 66.3884 18.1976 66.1814 18.0315C65.9743 17.8655 65.7304 17.7517 65.4702 17.6996C61.8496 16.9864 58.0936 17.5696 54.8598 19.3472C54.995 17.1983 54.6241 15.0477 53.7768 13.0683L51.2096 7.07747C51.082 6.77944 50.8697 6.52542 50.5991 6.34691C50.3284 6.1684 50.0114 6.07324 49.6871 6.07324C49.3629 6.07324 49.0458 6.1684 48.7752 6.34691C48.5046 6.52542 48.2923 6.77944 48.1646 7.07747L45.5974 13.0683C44.7504 15.0478 44.3795 17.1983 44.5145 19.3472C41.2806 17.5698 37.5247 16.9866 33.9041 17.6996C33.6439 17.7517 33.4 17.8655 33.1929 18.0315C32.9858 18.1976 32.8217 18.4109 32.7144 18.6536C32.607 18.8963 32.5595 19.1613 32.5759 19.4262C32.5923 19.6911 32.6722 19.9481 32.8087 20.1757L33.5366 21.3879ZM46.0386 24.6861C46.306 24.9763 46.6681 25.1616 47.0599 25.2085C47.4517 25.2554 47.8474 25.1609 48.1757 24.942C48.504 24.7231 48.7434 24.3942 48.8507 24.0145C48.958 23.6348 48.9262 23.2292 48.7611 22.8708C48.1483 21.5413 47.8212 20.098 47.8007 18.6342C47.7803 17.1704 48.067 15.7186 48.6425 14.3724L49.6876 11.9338L50.7326 14.3724C51.3081 15.7186 51.5948 17.1704 51.5744 18.6342C51.5539 20.098 51.2268 21.5413 50.614 22.8708C50.4489 23.2292 50.4171 23.6348 50.5244 24.0145C50.6317 24.3942 50.8711 24.7231 51.1994 24.942C51.5277 25.1609 51.9234 25.2554 52.3152 25.2085C52.707 25.1616 53.0691 24.9763 53.3365 24.6861C54.4831 23.4481 55.8702 22.457 57.413 21.7735C58.9558 21.09 60.6219 20.7285 62.3092 20.7111C60.3784 23.3065 57.5021 25.0359 54.3043 25.5242C53.9601 25.5771 53.6414 25.7373 53.3934 25.9818C53.1454 26.2263 52.9808 26.5428 52.923 26.8863C52.8652 27.2297 52.9171 27.5826 53.0714 27.8949C53.2257 28.2071 53.4745 28.4628 53.7824 28.6255C55.3748 29.466 56.7553 30.6575 57.8195 32.11L57.6024 32.0537C54.9626 31.3654 52.6388 29.7923 51.019 27.5972C50.865 27.3882 50.6642 27.2184 50.4325 27.1013C50.2009 26.9843 49.945 26.9233 49.6855 26.9233H49.6826C49.4225 26.9237 49.1663 26.9854 48.9345 27.1033C48.7027 27.2212 48.502 27.392 48.3485 27.6019C46.7441 29.7933 44.4394 31.3711 41.816 32.0738L41.5991 32.1316C42.6532 30.6733 44.0248 29.4735 45.6103 28.6226C45.9163 28.4582 46.1629 28.2017 46.3152 27.8895C46.4674 27.5773 46.5177 27.2251 46.4587 26.8827C46.3998 26.5404 46.2348 26.2252 45.9869 25.9818C45.7391 25.7384 45.421 25.5791 45.0776 25.5264C41.8771 25.04 38.9979 23.3103 37.0655 20.7132C38.7527 20.7304 40.4187 21.0916 41.9616 21.7747C43.5044 22.4578 44.8917 23.4485 46.0386 24.6861Z" fill="#57A9FF"/>
<path d="M97.7188 51.3438H81.1562C80.717 51.3438 80.2957 51.5182 79.9851 51.8289C79.6745 52.1395 79.5 52.5607 79.5 53H66.6305C64.3162 51.9124 61.791 51.347 59.2339 51.3438H51.6773C50.2989 51.3452 48.9358 51.6328 47.6742 52.1883C46.4127 52.7437 45.2802 53.555 44.3484 54.5707L44.2701 54.6562H19.875C19.875 54.217 19.7005 53.7957 19.3899 53.4851C19.0793 53.1745 18.658 53 18.2188 53H1.65625C1.21699 53 0.795711 53.1745 0.485104 53.4851C0.174497 53.7957 0 54.217 0 54.6562V87.7812C0 88.2205 0.174497 88.6418 0.485104 88.9524C0.795711 89.263 1.21699 89.4375 1.65625 89.4375H18.2188C18.658 89.4375 19.0793 89.263 19.3899 88.9524C19.7005 88.6418 19.875 88.2205 19.875 87.7812H32.4847L38.5109 95.7474C39.0347 96.4387 39.7302 96.981 40.5283 97.3204C41.3265 97.6599 42.1995 97.7846 43.0608 97.6823C43.9221 97.58 44.7416 97.2541 45.438 96.7372C46.1344 96.2202 46.6835 95.53 47.0307 94.7352C47.3681 94.8592 47.7178 94.9465 48.0739 94.9957C49.1486 95.1453 50.2426 94.9387 51.1887 94.4073C52.1347 93.8759 52.8804 93.0491 53.3118 92.0535C53.8669 92.2586 54.4539 92.3638 55.0457 92.3641C56.0124 92.3639 56.9581 92.0813 57.7664 91.551C58.5747 91.0206 59.2104 90.2657 59.5954 89.3789C60.2341 89.6158 60.9146 89.7189 61.5948 89.6817C62.275 89.6445 62.9403 89.4678 63.5493 89.1627C64.1583 88.8575 64.6981 88.4304 65.1351 87.9078C65.5721 87.3853 65.897 86.7784 66.0896 86.125H79.5V87.7812C79.5 88.2205 79.6745 88.6418 79.9851 88.9524C80.2957 89.263 80.717 89.4375 81.1562 89.4375H97.7188C98.158 89.4375 98.5793 89.263 98.8899 88.9524C99.2005 88.6418 99.375 88.2205 99.375 87.7812V53C99.375 52.5607 99.2005 52.1395 98.8899 51.8289C98.5793 51.5182 98.158 51.3438 97.7188 51.3438ZM3.3125 86.125V56.3125H16.5625V86.125H3.3125ZM62.9623 84.9497C62.9174 85.2742 62.7772 85.5781 62.5595 85.8229C62.3419 86.0678 62.0565 86.2425 61.7394 86.3251C61.4224 86.4078 61.088 86.3945 60.7785 86.2871C60.469 86.1796 60.1984 85.9828 60.0008 85.7215L52.6646 76.0231C52.398 75.6773 52.0057 75.4507 51.5729 75.3927C51.1401 75.3347 50.7019 75.45 50.3537 75.7134C50.0054 75.9768 49.7753 76.3671 49.7134 76.7993C49.6514 77.2315 49.7627 77.6708 50.0229 78.0214L56.3593 86.3979C56.4901 86.5716 56.5854 86.7695 56.6398 86.9801C56.6942 87.1907 56.7065 87.41 56.6762 87.6253C56.6458 87.8407 56.5733 88.048 56.4628 88.2354C56.3524 88.4227 56.2061 88.5865 56.0323 88.7173C55.8585 88.8482 55.6607 88.9435 55.4501 88.9979C55.2395 89.0522 55.0202 89.0646 54.8048 89.0342C54.5894 89.0038 54.3821 88.9314 54.1948 88.8209C54.0074 88.7104 53.8436 88.5641 53.7128 88.3903L47.3155 80.1375C47.1819 79.9659 47.0157 79.8223 46.8266 79.7149C46.6374 79.6075 46.429 79.5384 46.2132 79.5116C45.9973 79.4848 45.7783 79.5007 45.5686 79.5585C45.3589 79.6163 45.1627 79.7149 44.9911 79.8485C44.8195 79.9822 44.6759 80.1483 44.5685 80.3375C44.4611 80.5266 44.3921 80.7351 44.3652 80.9509C44.3384 81.1668 44.3544 81.3858 44.4122 81.5955C44.47 81.8051 44.5685 82.0014 44.7022 82.173L50.1533 89.1857C50.3786 89.5465 50.4565 89.9802 50.3708 90.3969C50.2851 90.8135 50.0423 91.1812 49.6929 91.4237C49.3434 91.6663 48.914 91.765 48.4937 91.6996C48.0734 91.6342 47.6944 91.4095 47.4352 91.0722L42.9366 85.1248C42.67 84.779 42.2777 84.5524 41.8449 84.4944C41.4121 84.4364 40.9739 84.5517 40.6257 84.8151C40.2775 85.0785 40.0473 85.4688 39.9854 85.901C39.9234 86.3333 40.0347 86.7725 40.2949 87.1231L43.795 91.7507C44.0599 92.1011 44.1747 92.5424 44.1142 92.9775C44.0537 93.4125 43.8228 93.8058 43.4724 94.0707C43.122 94.3355 42.6807 94.4504 42.2456 94.3899C41.8105 94.3294 41.4173 94.0985 41.1524 93.7481L34.6295 85.1248C34.4751 84.9207 34.2755 84.7551 34.0463 84.6411C33.8171 84.5271 33.5646 84.4677 33.3086 84.4677H19.875V57.9688H41.2367L37.8722 61.6436C37.8548 61.6626 37.8379 61.6821 37.8215 61.7017C37.3031 62.3237 36.9166 63.0447 36.6857 63.8207C36.4547 64.5968 36.384 65.4117 36.4779 66.2159C36.5718 67.0202 36.8283 67.7969 37.2319 68.4988C37.6355 69.2008 38.1776 69.8133 38.8254 70.2991C39.9772 71.1556 41.398 71.5706 42.8297 71.4688C44.2614 71.3671 45.6092 70.7554 46.6284 69.7447L49.726 66.6473L62.6427 83.723C62.7744 83.8962 62.8705 84.0938 62.9254 84.3043C62.9802 84.5149 62.9928 84.7342 62.9623 84.9497ZM65.9111 82.8125C65.7511 82.4295 56.0672 69.5397 56.0672 69.5397C58.0456 69.4248 59.9703 68.8515 61.6892 67.8652C63.4081 66.8789 64.8742 65.5064 65.9717 63.8563C66.2126 63.4908 66.299 63.0448 66.2121 62.6158C66.1251 62.1868 65.8719 61.8097 65.5077 61.5668C65.1435 61.324 64.6979 61.2352 64.2685 61.3199C63.839 61.4046 63.4605 61.6558 63.2157 62.0187C62.3493 63.3216 61.1739 64.3898 59.7944 65.1281C58.4149 65.8663 56.8741 66.2518 55.3094 66.25H53.5797L51.5715 63.5946C51.4171 63.3905 51.2174 63.2249 50.9883 63.1109C50.7591 62.9969 50.5066 62.9375 50.2506 62.9375H49.4386C48.9995 62.9375 48.5782 63.112 48.2677 63.4226L44.2861 67.4023C43.8325 67.8522 43.2326 68.1246 42.5953 68.1698C41.9581 68.2151 41.3257 68.0304 40.8131 67.6491C40.5271 67.4346 40.2873 67.1646 40.1081 66.8552C39.9289 66.5458 39.814 66.2034 39.7702 65.8486C39.7265 65.4938 39.7547 65.1337 39.8534 64.7901C39.9521 64.4464 40.1191 64.1262 40.3444 63.8486L46.7909 56.8075C47.4122 56.1304 48.1672 55.5896 49.0083 55.2193C49.8494 54.849 50.7581 54.6572 51.6771 54.6562H59.2337C61.4118 54.6588 63.5597 55.1658 65.509 56.1376C65.7391 56.2527 65.9928 56.3126 66.25 56.3125H79.5V82.8125H65.9111ZM96.0625 86.125H82.8125V54.6562H96.0625V86.125Z" fill="#0062C8"/>
<path d="M30.2266 44.7187H65.8589L75.4467 49.5125C75.6992 49.6388 75.9798 49.6984 76.2619 49.6858C76.5439 49.6731 76.818 49.5885 77.0582 49.4401C77.2984 49.2917 77.4966 49.0843 77.6341 48.8378C77.7716 48.5912 77.8437 48.3136 77.8438 48.0312V8.69531C77.8412 6.38996 76.9242 4.17977 75.2941 2.54964C73.664 0.919513 71.4538 0.00257547 69.1484 0H30.2266C27.9212 0.00257547 25.711 0.919513 24.0809 2.54964C22.4508 4.17977 21.5338 6.38996 21.5312 8.69531V36.0234C21.5338 38.3288 22.4508 40.539 24.0809 42.1691C25.711 43.7992 27.9212 44.7162 30.2266 44.7187ZM24.8438 8.69531C24.8453 7.26819 25.413 5.89997 26.4221 4.89084C27.4312 3.88172 28.7994 3.31409 30.2266 3.3125H69.1484C70.5756 3.31409 71.9438 3.88172 72.9529 4.89084C73.962 5.89997 74.5297 7.26819 74.5312 8.69531V45.3514L66.9908 41.5812C66.7608 41.4661 66.5072 41.4062 66.25 41.4062H30.2266C28.7994 41.4047 27.4312 40.837 26.4221 39.8279C25.413 38.8188 24.8453 37.4506 24.8438 36.0234V8.69531Z" fill="#0062C8"/>
<path d="M91.0938 57.9688H87.7812V61.2812H91.0938V57.9688Z" fill="#57A9FF"/>
<path d="M11.5938 79.5H8.28125V82.8125H11.5938V79.5Z" fill="#57A9FF"/>
</svg>
