<svg width="102" height="84" viewBox="0 0 102 84" fill="none" xmlns="http://www.w3.org/2000/svg">
<path d="M101.379 53.3717C99.8846 46.9048 95.8158 41.3152 90.1542 37.9047L89.0445 33.0972C88.6385 31.3319 87.5661 29.8288 86.0254 28.8652C84.4848 27.9018 82.6656 27.5949 80.8999 28.002L72.9082 29.8463L72.0123 25.9596L72.306 25.8918C74.6665 25.3426 76.1429 22.9749 75.5973 20.6145L74.0513 13.9176C73.7919 12.7751 73.1012 11.8009 72.1062 11.1747C71.1093 10.5476 69.9299 10.3456 68.7796 10.6082L64.3235 11.6371L64.3203 11.6379C64.1988 11.6662 64.0802 11.7005 63.9637 11.7381L58.8404 8.50581V5.05972C58.8404 2.63324 56.8673 0.65918 54.442 0.65918H47.5636C45.1385 0.65918 43.1652 2.63324 43.1652 5.05972V8.50562L38.0419 11.7379C37.9252 11.7003 37.8069 11.666 37.6853 11.6377L37.6821 11.6369L33.2212 10.607C32.0753 10.3452 30.8964 10.5472 29.8995 11.1745C28.9044 11.8005 28.2137 12.7747 27.9559 13.9102L26.4088 20.6137C25.8629 22.9747 27.3393 25.3424 29.7032 25.8924L29.9881 25.9582L29.0922 29.8447L21.1054 28.0014C19.3407 27.5948 17.5212 27.9014 15.9805 28.8648C14.4397 29.8286 13.3673 31.3315 12.9615 33.0956L11.8517 37.9045C6.18348 41.3183 2.11463 46.9084 0.626669 53.3731C-2.39867 66.5173 5.82369 79.6793 18.9556 82.7134L18.9566 82.7136L18.9578 82.7138C20.7972 83.1378 22.635 83.341 24.4471 83.341C35.5748 83.341 45.6668 75.6716 48.2738 64.3685C49.762 57.9075 48.5515 51.0986 44.9548 45.544L46.0597 40.735C46.4661 38.9725 46.1601 37.1527 45.1979 35.6107C44.2345 34.0666 42.7323 32.9924 40.9687 32.586L32.9746 30.741L33.8705 26.8546L34.156 26.9206C34.4871 26.9977 34.8214 27.0357 35.1535 27.0357C35.9667 27.0357 36.7669 26.8072 37.4762 26.3636C38.4754 25.7384 39.1695 24.7639 39.4293 23.6243L40.976 16.9174C41.1567 16.1395 41.1163 15.3613 40.8983 14.6473L44.256 12.5288C45.0628 13.4498 46.2458 14.0331 47.5632 14.0331H54.442C55.7593 14.0331 56.9424 13.4498 57.7493 12.5288L61.1065 14.6469C60.8885 15.3601 60.8481 16.1369 61.0284 16.913L62.5713 23.6275C62.8363 24.7682 63.5312 25.7398 64.5279 26.3632C65.2383 26.8074 66.0394 27.0357 66.8522 27.0357C67.1833 27.0357 67.5164 26.9979 67.8463 26.9212L68.1296 26.8559L69.0255 30.7422L61.0374 32.5858C59.2715 32.9928 57.768 34.068 56.8042 35.6129C55.8411 37.1565 55.5367 38.9771 55.9455 40.7336L57.0508 45.544C53.4541 51.0986 52.2437 57.9075 53.732 64.3691C56.3388 75.6724 66.4296 83.3413 77.5588 83.3407C79.3701 83.3407 81.2097 83.1374 83.048 82.7138L83.0497 82.7136L83.051 82.7132C87.5518 81.6731 91.6465 79.3958 94.8928 76.1279C95.6684 75.3471 95.6642 74.0856 94.8832 73.3101C94.1027 72.5345 92.8409 72.5389 92.0657 73.3194C89.8185 75.582 87.0834 77.2749 84.0728 78.2858L82.7171 72.4108C89.3633 69.8746 93.3094 62.7401 91.6704 55.6099C89.8733 47.8252 82.08 42.9503 74.2968 44.7447C66.5207 46.5432 61.6504 54.3419 63.4407 62.1307C64.9865 68.8253 70.965 73.3674 77.5566 73.3674C77.9805 73.3674 78.4071 73.348 78.8352 73.3097L80.1905 79.1833C69.8787 80.5286 60.0014 73.8205 57.6154 63.4738C56.3125 57.8184 57.4797 51.8445 60.8178 47.0835C61.142 46.6213 61.2549 46.0436 61.1284 45.4936L59.8281 39.8355C59.6596 39.1118 59.7865 38.3611 60.1851 37.722C60.5849 37.0813 61.2055 36.6361 61.9333 36.4684L81.7956 31.8841C82.5223 31.7168 83.2746 31.8439 83.9123 32.2429C84.5504 32.642 84.9938 33.2625 85.1616 33.9915L86.4662 39.6441C86.5936 40.1949 86.9488 40.6659 87.4436 40.9396C92.5245 43.749 96.1885 48.6069 97.4962 54.2672C97.8151 55.6509 97.9899 57.0646 98.016 58.4693C98.0363 59.5694 98.9535 60.4399 100.045 60.4246C101.145 60.4041 102.02 59.4959 102 58.3958C101.969 56.7154 101.76 55.0252 101.379 53.3717ZM40.0734 36.4689C40.7989 36.6361 41.4183 37.0806 41.8175 37.7202C42.217 38.3605 42.3447 39.1132 42.1767 39.8413L40.8778 45.494C40.7513 46.044 40.8643 46.6219 41.1884 47.0839C44.5265 51.8449 45.6937 57.819 44.391 63.4736C42.0046 73.8213 32.1259 80.5294 21.8146 79.1835L23.1665 73.3099C23.5942 73.3479 24.0205 73.3674 24.4443 73.3674C31.0384 73.3674 37.0199 68.8247 38.5659 62.1291C40.3557 54.3421 35.4854 46.5436 27.7073 44.7445C19.9252 42.9531 12.1325 47.827 10.335 55.6121C8.69662 62.7401 12.6408 69.8746 19.2841 72.411L17.9316 78.287C8.07287 74.976 2.12798 64.6152 4.50984 54.2668C5.81193 48.6097 9.47577 43.7522 14.5622 40.9398C15.0571 40.6661 15.4123 40.1951 15.5396 39.6443L16.8445 33.9903C17.012 33.2627 17.4555 32.6422 18.0936 32.2431C18.7317 31.8441 19.4837 31.7168 20.2097 31.8841L40.0734 36.4689ZM14.2184 56.5068C15.5213 50.8631 21.1715 47.3296 26.8112 48.6275C32.4497 49.9318 35.9806 55.5882 34.6829 61.2348C33.3796 66.8785 27.7288 70.4126 22.0879 69.1137C16.4506 67.8087 12.9205 62.1528 14.2184 56.5068ZM37.0941 16.0191L35.5455 22.7338C35.5154 22.8663 35.4296 22.9438 35.363 22.9854C35.2969 23.0269 35.1903 23.0703 35.056 23.0386L30.6033 22.0107C30.3834 21.9595 30.2405 21.7309 30.2915 21.5106L31.8405 14.7993C31.8705 14.6663 31.9556 14.589 32.0215 14.5473C32.0652 14.52 32.1449 14.481 32.2445 14.481C32.2716 14.481 32.2999 14.484 32.3295 14.4905L36.7833 15.5189C36.999 15.5699 37.1445 15.8018 37.0941 16.0191ZM54.8558 9.6328C54.8558 9.85413 54.6626 10.0486 54.4424 10.0486H47.5636C47.3433 10.0486 47.1502 9.85433 47.1502 9.6328V5.05972C47.1502 4.83441 47.3395 4.64395 47.5636 4.64395H54.4424C54.6665 4.64395 54.8558 4.83441 54.8558 5.05972V9.6328ZM66.641 22.9848C66.5852 22.9498 66.4864 22.8697 66.4539 22.7306L64.9112 16.0164C64.8614 15.802 65.007 15.5699 65.2225 15.5193L69.6713 14.4921C69.8146 14.4589 69.9289 14.5129 69.9841 14.5475C70.05 14.589 70.1351 14.6665 70.1668 14.8065L71.7143 21.5112C71.7651 21.7307 71.6223 21.9592 71.4057 22.0096L66.9466 23.0392C66.8151 23.0697 66.7081 23.0265 66.641 22.9848ZM79.912 69.1137C74.2745 70.413 68.6262 66.8787 67.3237 61.2366C66.0254 55.588 69.5564 49.9316 75.1933 48.6279C75.983 48.4458 76.7727 48.3585 77.5508 48.3585C82.3311 48.3585 86.6669 51.6522 87.7871 56.505C89.0858 62.1536 85.553 67.8097 79.912 69.1137Z" fill="#0056BC"/>
<path fill-rule="evenodd" clip-rule="evenodd" d="M68.7301 31.083L72.6129 30.1871L72.0107 26.2327C74.3712 25.6834 75.8476 23.3157 75.302 20.9554L73.756 14.2584C73.4967 13.1159 72.806 12.1417 71.8109 11.5156C70.814 10.8884 69.6346 10.6864 68.4843 10.949L64.0282 11.978L64.025 11.9788C63.9035 12.007 63.7849 12.0413 63.6684 12.079L58.5451 8.84664V5.40055C58.5451 2.97406 56.572 1 54.1467 1H47.2683C44.8432 1 42.87 2.97406 42.87 5.40055V8.84644L37.7466 12.0788C37.6299 12.0411 37.5116 12.0068 37.39 11.9786L37.3869 11.9778L32.9259 10.9478C31.78 10.686 30.6011 10.888 29.6042 11.5154C28.6091 12.1413 27.9184 13.1155 27.6606 14.251L26.1135 20.9546C25.5676 23.3155 27.044 25.6832 29.4079 26.2333L28.7969 30.1855L32.6793 31.0818L33.5752 27.1955L33.8607 27.2614C34.1918 27.3385 34.5261 27.3766 34.8582 27.3766C35.6714 27.3766 36.4716 27.1481 37.1809 26.7044C38.1801 26.0793 38.8742 25.1047 39.134 23.9651L40.6807 17.2582C40.8614 16.4803 40.821 15.7022 40.603 14.9882L43.9607 12.8697C44.7675 13.7906 45.9505 14.374 47.2679 14.374H54.1467C55.464 14.374 56.6471 13.7906 57.454 12.8697L60.8112 14.9878C60.5933 15.701 60.5528 16.4777 60.7331 17.2539L62.2761 23.9683C62.541 25.1091 63.2359 26.0807 64.2326 26.704C64.943 27.1483 65.7441 27.3766 66.5569 27.3766C66.888 27.3766 67.2211 27.3387 67.551 27.262L67.8343 27.1967L68.7301 31.083ZM54.3696 10.2265C54.5123 10.2311 54.6153 10.1564 54.6636 10.1116C54.7212 10.0575 54.7906 9.96535 54.7952 9.83046L54.9548 5.25682C54.9622 5.0346 54.7784 4.83749 54.5532 4.82974L47.6765 4.58923C47.533 4.58358 47.4361 4.64569 47.379 4.69866C47.3312 4.743 47.2495 4.83948 47.2446 4.98645L47.0853 9.54946C47.0784 9.77077 47.2649 9.9715 47.4848 9.97887L54.3696 10.2265ZM35.0836 23.5034C35.1394 23.4684 35.2382 23.3883 35.2707 23.2492L36.8134 16.535C36.8632 16.3206 36.7176 16.0885 36.502 16.0379L32.0533 15.0107C31.91 14.9775 31.7957 15.0315 31.7405 15.0661C31.6746 15.1076 31.5895 15.1851 31.5578 15.3251L30.0103 22.0298C29.9595 22.2494 30.1023 22.4779 30.3189 22.5283L34.778 23.5578C34.9095 23.5883 35.0165 23.5451 35.0836 23.5034ZM66.7396 23.5034C66.6838 23.4684 66.585 23.3883 66.5525 23.2492L65.0098 16.535C64.9599 16.3206 65.1056 16.0885 65.3211 16.0379L69.7699 15.0107C69.9131 14.9775 70.0275 15.0315 70.0826 15.0661C70.1486 15.1076 70.2337 15.1851 70.2653 15.3251L71.8129 22.0298C71.8637 22.2494 71.7208 22.4779 71.5043 22.5283L67.0452 23.5578C66.9137 23.5883 66.8067 23.5451 66.7396 23.5034Z" fill="#57A9FF"/>
<path d="M96.921 65.9164C96.1496 66.7011 96.1602 67.9626 96.9449 68.734C97.3328 69.1153 97.8374 69.3055 98.3415 69.3055C98.857 69.3055 99.3724 69.1065 99.7625 68.7099L99.7681 68.7041C100.539 67.9194 100.526 66.6609 99.7412 65.8895C98.9568 65.1182 97.6926 65.1317 96.921 65.9164Z" fill="#57A9FF"/>
</svg>
