<svg width="56" height="101" viewBox="0 0 56 101" fill="none" xmlns="http://www.w3.org/2000/svg">
<path d="M27.6172 70.2266C27.6172 71.3161 26.7341 72.1992 25.6445 72.1992C24.5549 72.1992 23.6719 71.3161 23.6719 70.2266C23.6719 69.137 24.5549 68.2539 25.6445 68.2539C26.7341 68.2539 27.6172 69.137 27.6172 70.2266Z" fill="#57A9FF"/>
<path d="M47.3438 27.6172C45.7217 27.6172 44.2122 28.1096 42.9569 28.9526C41.8912 25.905 38.9792 23.6719 35.5078 23.6719C33.1537 23.6719 31.0393 24.7091 29.5922 26.3496C28.0657 24.6204 25.9366 23.6719 23.6719 23.6719C21.317 23.6719 19.201 24.7106 17.7539 26.3519C16.3068 24.7106 14.1908 23.6719 11.8359 23.6719C7.48531 23.6719 3.94531 27.2119 3.94531 31.5625V42.6132C1.48797 44.4626 0 47.3869 0 50.5C0 61.0121 4.9509 70.9786 13.4141 77.3281C14.8789 78.427 15.7812 80.1669 15.7812 82.0625V99.0273C15.7812 100.117 16.6643 101 17.7539 101H49.3164C50.406 101 51.2891 100.117 51.2891 99.0273V82.38C52.5728 78.4747 53.5568 74.4393 54.2165 70.3799C54.8922 66.2134 55.2344 61.9638 55.2344 57.7495C55.2344 55.1982 55.2344 38.073 55.2344 35.5078C55.2344 31.1487 51.7036 27.6172 47.3438 27.6172ZM47.3438 31.5625C49.5229 31.5625 51.2891 33.3286 51.2891 35.5078V48.5273C51.2891 50.7027 49.5191 52.4727 47.3438 52.4727C45.1684 52.4727 43.3984 50.7027 43.3984 48.5273C43.3984 45.1746 43.3984 38.5793 43.3984 35.5078C43.3984 33.3325 45.1684 31.5625 47.3438 31.5625ZM35.5078 27.6172C37.687 27.6172 39.4531 29.3833 39.4531 31.5625V44.582C39.4531 46.7573 37.6831 48.5273 35.5078 48.5273C33.3325 48.5273 31.5625 46.7573 31.5625 44.582V31.5625C31.5625 29.3872 33.3325 27.6172 35.5078 27.6172ZM23.6719 27.6172C25.851 27.6172 27.6172 29.3833 27.6172 31.5625V40.6367H19.7266V31.5625C19.7266 29.3872 21.4966 27.6172 23.6719 27.6172ZM11.8359 27.6172C14.0113 27.6172 15.7812 29.3872 15.7812 31.5625V40.6367H9.86328C9.19828 40.6367 8.5379 40.7053 7.89062 40.8371V31.5625C7.89062 29.3872 9.66062 27.6172 11.8359 27.6172ZM19.7266 97.0547V87.9805H47.3438V97.0547H19.7266ZM50.3228 69.748C49.0513 77.5685 47.3438 81.1162 47.3438 82.0625V84.0352H19.7266V82.0625C19.7266 79.0064 18.3026 76.0629 15.7812 74.1719C8.30211 68.5606 3.94531 59.7615 3.94531 50.5C3.94531 47.2937 6.53982 44.5797 9.86328 44.5797H27.4192C26.5029 49.0768 22.5168 52.4727 17.7539 52.4727H13.8086C12.719 52.4727 11.8359 53.3557 11.8359 54.4453C11.8359 55.5349 12.719 56.418 13.8086 56.418H15.7812C19.5347 56.418 22.7896 59.0849 23.5201 62.7582C23.7312 63.8193 24.7638 64.522 25.8403 64.3078C26.9083 64.0959 27.6025 63.0572 27.3899 61.9884C26.8482 59.2645 25.381 56.9104 23.3575 55.2251C25.9381 54.0739 28.1057 52.1575 29.5621 49.761C31.01 51.4208 33.1375 52.4727 35.5078 52.4727C37.1314 52.4727 38.6417 51.9795 39.8977 51.1349C40.9773 54.208 43.9062 56.418 47.3438 56.418C48.7801 56.418 50.1278 56.0304 51.2891 55.3561V57.7495C51.2891 61.7526 50.9639 65.7904 50.3228 69.748Z" fill="#0056BC"/>
<path d="M31.5625 13.8086V1.97266C31.5625 0.883072 30.6794 0 29.5898 0C28.5003 0 27.6172 0.883072 27.6172 1.97266V13.8086C27.6172 14.8982 28.5003 15.7812 29.5898 15.7812C30.6794 15.7812 31.5625 14.8982 31.5625 13.8086Z" fill="#57A9FF"/>
<path d="M44.8348 16.3182L53.2031 7.94746C53.9729 7.1769 53.9729 5.92857 53.2024 5.158C52.4318 4.38744 51.1835 4.38744 50.4129 5.158L42.0445 13.5279C41.2747 14.2985 41.2747 15.5476 42.0453 16.3182C42.8159 17.088 44.0642 17.0887 44.8348 16.3182Z" fill="#57A9FF"/>
<path d="M18.291 15.1618C19.0616 14.3913 19.0608 13.1422 18.291 12.3724L9.92032 4.00401C9.15052 3.23421 7.90143 3.23421 7.13086 4.00478C6.36029 4.77458 6.36106 6.02367 7.13086 6.79424L15.5008 15.1626C16.2713 15.9324 17.5204 15.9324 18.291 15.1618Z" fill="#57A9FF"/>
</svg>
