<svg width="86" height="99" viewBox="0 0 86 99" fill="none" xmlns="http://www.w3.org/2000/svg">
<path d="M19.5117 98.0469C17.4219 98.0469 15.4688 97.2266 13.9844 95.7617C10.9375 92.7148 10.9375 87.7539 13.9844 84.707L29.2773 69.4141V48.9453C29.2578 47.9687 29.4336 47.0117 29.7656 46.1133L29.8047 46.0352C29.9609 45.625 30.0195 45.5078 30.625 44.2773L31.1719 43.2031L32.7344 40.0977L29.7852 41.9531C26.4648 44.0234 23.3984 44.9219 19.5313 44.9219C8.76953 44.9219 0 36.1523 0 25.3906C0 14.6289 8.75 5.85937 19.5117 5.85937C21.2891 5.85937 23.0664 6.09375 24.7656 6.58203C31.8555 8.55469 38.9062 11.0156 45.7031 13.8672L47.3828 14.5703L47.0312 12.7734C46.8945 12.0898 46.8359 11.4062 46.8359 10.7422C46.8359 4.82422 51.6602 0 57.5781 0C60.4492 0 63.1445 1.11328 65.1758 3.14453C67.2266 5.17578 68.3398 7.87109 68.3398 10.7422C68.3398 14.7461 66.1328 18.3984 62.5781 20.2539L60.957 21.1133L76.5039 29.4531L76.8359 29.3945C77.2656 29.3164 77.6953 29.2773 78.1445 29.2773C81.5039 29.2773 84.4727 31.4258 85.5469 34.6289C86.9141 38.7109 84.6875 43.1445 80.6055 44.5117L63.0273 50.3711C62.2266 50.6445 61.3867 50.7812 60.5469 50.7812C57.9297 50.7812 55.5078 49.4727 54.043 47.3047L49.7852 40.918L46.6016 47.2852L60.1953 60.8789C61.582 62.2656 62.4805 64.5898 62.4805 66.7969V90.2344C62.4805 94.5508 58.9844 98.0469 54.668 98.0469C50.3516 98.0469 46.8555 94.5508 46.8555 90.2344V72.6562H44.9023C44.9023 74.7461 44.082 76.6992 42.6172 78.1836L25.0391 95.7617C23.5547 97.2266 21.6016 98.0469 19.5117 98.0469ZM33.1836 70.2344C33.1836 70.7617 32.9883 71.25 32.6172 71.6211L16.7578 87.4805C16.0156 88.2226 15.625 89.1992 15.625 90.2344C15.625 91.2695 16.0352 92.2656 16.7773 92.9883C17.5195 93.7305 18.4961 94.1406 19.5313 94.1406C20.5664 94.1406 21.5625 93.7305 22.2852 92.9883L39.8633 75.4101C40.5859 74.6875 41.0156 73.6719 41.0156 72.6562V64.0234L33.2031 56.0156V70.2344H33.1836ZM33.6133 47.0508C32.832 48.5547 33.125 50.3711 34.3359 51.582L50.2148 67.8516C50.5664 68.2226 50.7617 68.7109 50.7617 69.2187V90.2344C50.7617 92.3828 52.5195 94.1406 54.668 94.1406C56.8164 94.1406 58.5742 92.3828 58.5742 90.2344V66.7969C58.5742 65.6445 58.0859 64.2969 57.4219 63.6523L42.832 49.0625C42.2461 48.4766 42.0898 47.5586 42.4609 46.8164L47.7734 36.2109C47.7734 36.1914 47.793 36.1719 47.793 36.1523C48.125 35.5078 48.7891 35.0977 49.5312 35.0977C50.1758 35.0977 50.7617 35.4102 51.1328 35.9375L51.1523 35.957L51.1719 35.9766L57.2656 45.1172C57.9883 46.2109 59.1992 46.8555 60.5078 46.8555H60.6445C61.1719 46.8555 61.1719 46.8555 69.0625 44.2187C71.582 43.3789 74.9023 42.2656 79.3164 40.8008C81.3672 40.1172 82.4609 37.9102 81.7773 35.8594C81.25 34.2578 79.7656 33.1836 78.0859 33.1836C77.6562 33.1836 77.2461 33.2617 76.8359 33.3789L63.4961 37.832C63.3008 37.8906 63.0859 37.9297 62.8711 37.9297C62.207 37.9297 61.6016 37.5977 61.25 37.0508L52.0117 23.2031C51.2891 22.1094 50.0781 21.4648 48.7695 21.4648C47.2852 21.4648 45.9375 22.2852 45.2734 23.6133L45.2539 23.6523V23.6719L33.6133 47.0508ZM19.5117 9.76562C10.8984 9.76562 3.88672 16.7773 3.88672 25.3906C3.88672 34.0039 10.8984 41.0156 19.5117 41.0156C25.3711 41.0156 28.5352 38.3594 34.2969 33.5547C35.1172 32.8711 36.0547 32.0898 37.0508 31.2695L37.207 31.1328L37.3047 30.9375C38.4375 28.6719 39.2969 26.9531 39.9609 25.6445C42.0117 21.5234 42.0312 21.5234 42.3047 21.0937L42.3633 21.0156C42.8711 20.2539 43.5156 19.5898 44.2383 19.0625L45.6445 18.0469L44.043 17.3828C37.4414 14.6289 30.625 12.2656 23.75 10.332C22.3633 9.96094 20.9375 9.76562 19.5117 9.76562ZM59.0039 26.582L63.7305 33.6523L71.3477 31.1133L60.2734 25.1953L59.0039 26.582ZM57.5977 3.90625C53.8281 3.90625 50.7617 6.97266 50.7617 10.7422C50.7617 14.5117 53.8281 17.5781 57.5977 17.5781C61.3672 17.5781 64.4336 14.5117 64.4336 10.7422C64.4336 6.97266 61.3672 3.90625 57.5977 3.90625Z" fill="#0060C6"/>
<path d="M29.4781 42.0358L32.3969 40.1833L36.8235 31.2328L36.6688 31.3693C35.683 32.1883 34.7552 32.9683 33.9433 33.6508L33.8815 33.7028C28.2183 38.4669 25.0886 41.0998 19.3106 41.0998C10.7861 41.0998 3.84665 34.0993 3.84665 25.4998C3.84665 16.9003 10.7861 9.89981 19.3106 9.89981C20.7217 9.89981 22.1327 10.0948 23.5052 10.4653C30.3093 12.3958 37.3814 14.5873 43.915 17.3368L45.5 17.9998L46.8724 16.9546L48.326 15.9562C48.0735 15.7144 47.4987 15.0904 47.2204 14.5288L45.558 13.8268C38.8312 10.9798 31.5168 8.46931 24.5 6.49981C22.8183 6.01231 21.0696 5.71289 19.3106 5.71289C8.65979 5.71289 0 14.7553 0 25.4998C0 36.2443 8.67913 44.9998 19.3299 44.9998C23.1572 44.9998 26.192 44.1028 29.4781 42.0358Z" fill="#57A9FF"/>
</svg>
