<svg width="13" height="23" viewBox="0 0 13 23" fill="none" xmlns="http://www.w3.org/2000/svg">
<path d="M12.647 10.6025L2.7998 0.367436C2.57204 0.130519 2.26801 0 1.94383 0C1.61965 0 1.31562 0.130519 1.08786 0.367436L0.36268 1.12101C-0.1092 1.61204 -0.1092 2.41012 0.36268 2.90041L8.63164 11.4952L0.353505 20.0996C0.125751 20.3365 0 20.6523 0 20.9891C0 21.3263 0.125751 21.6421 0.353505 21.8792L1.07869 22.6326C1.30662 22.8695 1.61047 23 1.93465 23C2.25884 23 2.56287 22.8695 2.79062 22.6326L12.647 12.3881C12.8753 12.1504 13.0007 11.8331 13 11.4958C13.0007 11.1572 12.8753 10.84 12.647 10.6025Z" fill="#711B28"/>
</svg>
