<svg width="15" height="18" viewBox="0 0 15 18" fill="none" xmlns="http://www.w3.org/2000/svg">
<path d="M13.7964 11.8149C12.878 11.8149 11.9763 11.6426 11.1218 11.3037C10.7031 11.1323 10.1884 11.2896 9.93283 11.6045L8.24623 13.1324C6.29026 11.8794 5.08542 10.4341 4.05558 8.10455L5.29131 6.13336C5.61237 5.74861 5.72752 5.18658 5.58956 4.65923C5.30596 3.62845 5.1619 2.54691 5.1619 1.44441C5.16194 0.647953 4.62198 0 3.95831 0H1.20363C0.53996 0 0 0.647953 0 1.44436C0 10.5733 6.18897 18 13.7964 18C14.46 18 15 17.352 15 16.5556V13.2593C15 12.4629 14.46 11.8149 13.7964 11.8149Z" fill="white"/>
</svg>
