<svg width="15" height="17" viewBox="0 0 15 17" fill="none" xmlns="http://www.w3.org/2000/svg">
<path d="M13.7793 11.0295C12.9132 11.0295 12.0629 10.8752 11.257 10.5719C10.8622 10.4185 10.3767 10.5592 10.1357 10.8411L8.5452 12.2087C6.70061 11.0872 5.56438 9.79352 4.59318 7.70837L5.75855 5.94399C6.06132 5.5996 6.16992 5.09654 6.03981 4.62452C5.77237 3.70188 5.63651 2.7338 5.63651 1.74697C5.63654 1.03408 5.12733 0.454102 4.50146 0.454102H1.90364C1.27777 0.454102 0.768555 1.03408 0.768555 1.74693C0.768555 9.91809 6.60509 16.5657 13.7793 16.5657C14.4052 16.5657 14.9144 15.9857 14.9144 15.2728V12.3223C14.9143 11.6095 14.4051 11.0295 13.7793 11.0295Z" fill="#E2C355"/>
</svg>
