<svg width="66" height="65" viewBox="0 0 66 65" fill="none" xmlns="http://www.w3.org/2000/svg">
<path d="M16.897 5.70697C11.7713 5.70697 7.60132 9.87695 7.60132 15.0027V27.034C7.60132 28.0695 8.44082 28.909 9.47631 28.909H24.3178C25.3532 28.909 26.1927 28.0695 26.1927 27.034V15.0027C26.1927 9.87695 22.0228 5.70697 16.897 5.70697ZM22.4428 25.159H11.3513V15.0027C11.3513 11.9447 13.839 9.45696 16.897 9.45696C19.955 9.45696 22.4428 11.9447 22.4428 15.0027V25.159Z" fill="#F5C643" stroke="#F5C643"/>
<path d="M62.8358 25.9521C61.3389 24.3793 59.3188 23.5129 57.1474 23.5129H41.6682C39.4969 23.5129 37.4768 24.3793 35.9799 25.9521C35.4321 26.5277 34.9835 27.1691 34.6388 27.8567C34.1099 27.7444 33.5619 27.6841 32.9999 27.6841C29.9669 27.6841 27.3307 29.408 26.0147 31.9265C25.2163 31.645 24.3654 31.4906 23.4888 31.4906H10.303C6.23939 31.4906 2.72403 34.79 2.46678 38.8452L1.00378 61.8921C0.970908 62.409 1.15341 62.9164 1.50778 63.2941C1.86228 63.6717 2.35703 63.8858 2.87503 63.8858H61.6105C62.6099 63.8858 63.4337 63.102 63.4832 62.1039L64.99 31.7543C65.0977 29.5859 64.3327 27.5251 62.8358 25.9521ZM32.9998 31.434C35.2758 31.434 37.1274 33.2856 37.1274 35.5616C37.1274 37.8376 35.2758 39.6892 32.9998 39.6892C30.7238 39.6892 28.8722 37.8376 28.8722 35.5616C28.8722 33.2856 30.7238 31.434 32.9998 31.434ZM22.4564 48.4119V60.136H4.87277V60.1359L6.20901 39.0827C6.34126 37.0001 8.216 35.2406 10.3029 35.2406H23.4887C24.0601 35.2406 24.6152 35.3732 25.1234 35.6076C25.1352 37.6368 25.9174 39.4864 27.1927 40.8782C24.3927 42.2309 22.4564 45.0995 22.4564 48.4119ZM39.7933 60.1359H26.2066V48.4118C26.2066 45.8692 28.2751 43.8007 30.8177 43.8007H35.1822C37.7248 43.8007 39.7933 45.8692 39.7933 48.4118V60.1359ZM61.2444 31.5685L59.826 60.1359H43.5432V48.4118C43.5432 45.0994 41.607 42.2308 38.807 40.8782C40.0919 39.4759 40.8774 37.609 40.8774 35.5617C40.8774 33.1225 39.7629 30.9389 38.0165 29.4927C38.1939 29.1486 38.4209 28.8269 38.6964 28.5372C39.4784 27.7155 40.5336 27.263 41.668 27.263H57.1473C58.2817 27.263 59.3371 27.7155 60.1189 28.5372C60.9008 29.359 61.3007 30.4356 61.2444 31.5685Z" fill="#F5C643" stroke="#F5C643"/>
<path d="M49.4069 1.07446C43.7768 1.07446 39.1963 5.65495 39.1963 11.2852C39.1963 16.9153 43.7768 21.4958 49.4069 21.4958C55.0371 21.4958 59.6176 16.9153 59.6176 11.2852C59.6176 5.65495 55.0371 1.07446 49.4069 1.07446ZM49.4069 17.7459C45.8445 17.7459 42.9463 14.8477 42.9463 11.2853C42.9463 7.72294 45.8445 4.82457 49.4069 4.82457C52.9694 4.82457 55.8676 7.72294 55.8676 11.2853C55.8676 14.8477 52.9694 17.7459 49.4069 17.7459Z" fill="#F5C643" stroke="#F5C643"/>
</svg>
