<svg width="82" height="82" viewBox="0 0 82 82" fill="none" xmlns="http://www.w3.org/2000/svg">
<circle cx="41" cy="41" r="39" fill="white" stroke="#711B28" stroke-width="4"/>
<path d="M29.4193 17.5635C25.4148 17.5635 22.157 20.8213 22.157 24.8258V34.2252C22.157 35.0342 22.8128 35.6901 23.6218 35.6901H35.2167C36.0257 35.6901 36.6815 35.0342 36.6815 34.2252V24.8258C36.6815 20.8213 33.4237 17.5635 29.4193 17.5635ZM33.7519 32.7604H25.0867V24.8258C25.0867 22.4367 27.0302 20.4932 29.4193 20.4932C31.8083 20.4932 33.7519 22.4367 33.7519 24.8258V32.7604Z" fill="#711B28" stroke="#711B28"/>
<path d="M65.3092 33.38C64.1398 32.1512 62.5616 31.4744 60.8652 31.4744H48.7721C47.0757 31.4744 45.4975 32.1512 44.328 33.38C43.9001 33.8297 43.5496 34.3308 43.2803 34.868C42.8671 34.7802 42.439 34.7331 41.9999 34.7331C39.6304 34.7331 37.5708 36.0799 36.5427 38.0475C35.919 37.8276 35.2543 37.707 34.5694 37.707H24.268C21.0933 37.707 18.3469 40.2846 18.1459 43.4527L17.003 61.4581C16.9773 61.8619 17.1198 62.2583 17.3967 62.5534C17.6737 62.8485 18.0602 63.0158 18.4649 63.0158H64.352C65.1328 63.0158 65.7763 62.4033 65.815 61.6236L66.9922 37.913C67.0763 36.2189 66.4786 34.6089 65.3092 33.38ZM41.9998 37.6627C43.778 37.6627 45.2245 39.1093 45.2245 40.8874C45.2245 42.6655 43.778 44.1121 41.9998 44.1121C40.2217 44.1121 38.7751 42.6655 38.7751 40.8874C38.7751 39.1093 40.2217 37.6627 41.9998 37.6627ZM33.7629 50.9267V60.0862H20.0256V60.0861L21.0695 43.6383C21.1729 42.0112 22.6375 40.6366 24.2679 40.6366H34.5693C35.0157 40.6366 35.4494 40.7402 35.8464 40.9234C35.8556 42.5087 36.4667 43.9537 37.463 45.041C35.2755 46.0978 33.7629 48.3389 33.7629 50.9267ZM47.3072 60.0861H36.6926V50.9266C36.6926 48.9402 38.3086 47.3242 40.2951 47.3242H43.7048C45.6912 47.3242 47.3072 48.9402 47.3072 50.9266V60.0861ZM64.066 37.7678L62.9579 60.0861H50.2369V50.9266C50.2369 48.3389 48.7242 46.0977 46.5367 45.041C47.5405 43.9455 48.1542 42.4869 48.1542 40.8875C48.1542 38.9819 47.2835 37.2759 45.9192 36.1461C46.0577 35.8773 46.2351 35.6259 46.4503 35.3996C47.0612 34.7577 47.8857 34.4041 48.7719 34.4041H60.8651C61.7513 34.4041 62.5758 34.7577 63.1867 35.3996C63.7975 36.0416 64.1099 36.8827 64.066 37.7678Z" fill="#711B28" stroke="#711B28"/>
<path d="M54.8176 13.9443C50.4191 13.9443 46.8406 17.5228 46.8406 21.9215C46.8406 26.32 50.4191 29.8985 54.8176 29.8985C59.2162 29.8985 62.7947 26.32 62.7947 21.9215C62.7947 17.5228 59.2162 13.9443 54.8176 13.9443ZM54.8176 26.9689C52.0345 26.9689 49.7703 24.7046 49.7703 21.9216C49.7703 19.1385 52.0345 16.8741 54.8176 16.8741C57.6008 16.8741 59.865 19.1385 59.865 21.9216C59.865 24.7046 57.6008 26.9689 54.8176 26.9689Z" fill="#711B28" stroke="#711B28"/>
</svg>
