<svg width="30" height="31" viewBox="0 0 30 31" fill="none" xmlns="http://www.w3.org/2000/svg">
<path d="M6.64879 18.6544L5.60451 22.6242L1.78768 22.7064C0.647008 20.552 0 18.087 0 15.4676C0 12.9347 0.604936 10.5461 1.67723 8.44287H1.67805L5.0761 9.07725L6.56465 12.5167C6.2531 13.4416 6.08329 14.4345 6.08329 15.4676C6.08341 16.5889 6.28286 17.6632 6.64879 18.6544Z" fill="#FBBB00"/>
<path d="M29.7376 12.614C29.9099 13.538 29.9997 14.4923 29.9997 15.4676C29.9997 16.5611 29.8868 17.6279 29.6717 18.6568C28.9415 22.1583 27.0334 25.2158 24.3903 27.3794L24.3894 27.3786L20.1094 27.1562L19.5037 23.3056C21.2575 22.2582 22.6282 20.6191 23.3502 18.6568H15.3291V12.614H23.4672H29.7376Z" fill="#518EF8"/>
<path d="M24.3898 27.3788L24.3906 27.3797C21.82 29.4837 18.5545 30.7426 14.9998 30.7426C9.28729 30.7426 4.3207 27.4913 1.78711 22.7066L6.64822 18.6545C7.91499 22.0972 11.1763 24.548 14.9998 24.548C16.6432 24.548 18.1828 24.0956 19.504 23.3058L24.3898 27.3788Z" fill="#28B446"/>
<path d="M24.576 3.70919L19.7166 7.76037C18.3492 6.89006 16.733 6.3873 15.0014 6.3873C11.0914 6.3873 7.76901 8.95044 6.5657 12.5166L1.67904 8.44273H1.67822C4.17473 3.54134 9.20395 0.192627 15.0014 0.192627C18.641 0.192627 21.9782 1.51283 24.576 3.70919Z" fill="#F14336"/>
</svg>
