<svg width="18" height="20" viewBox="0 0 18 20" fill="none" xmlns="http://www.w3.org/2000/svg">
<path d="M16.5556 13.1277C15.4536 13.1277 14.3716 12.9362 13.3462 12.5597C12.8437 12.3693 12.226 12.544 11.9194 12.8939L9.89547 14.5915C7.54831 13.1994 6.1025 11.5934 4.86669 9.00505L6.34958 6.81484C6.73484 6.38734 6.87303 5.76286 6.70747 5.17693C6.36716 4.03161 6.19428 2.8299 6.19428 1.6049C6.19433 0.719948 5.54638 0 4.74997 0H1.44436C0.647951 0 0 0.719948 0 1.60484C0 11.7481 7.42676 20 16.5556 20C17.352 20 18 19.2801 18 18.3952V14.7325C18 13.8477 17.352 13.1277 16.5556 13.1277Z" fill="#E2C355"/>
</svg>
