<svg width="62" height="75" viewBox="0 0 62 75" fill="none" xmlns="http://www.w3.org/2000/svg">
<path d="M31 0.185303C13.9065 0.185303 0 14.0548 0 31.1028C0 41.0651 4.79798 49.0294 13.7778 58.7409C20.1932 66.0347 28.946 73.793 29.2431 74.0892C29.7281 74.5731 30.3641 74.8149 31 74.8149C31.6359 74.8149 32.2719 74.5731 32.7569 74.089C33.0539 73.7928 41.8056 66.7375 48.2222 58.7409C59.7037 46.1112 62 41.0651 62 31.1026C62 14.0548 48.0935 0.185303 31 0.185303ZM30.9993 68.7455C24.89 62.1929 4.96946 49.3782 4.96946 31.1028C4.96946 16.7877 16.6467 5.14153 31 5.14153C45.3533 5.14153 57.0305 16.7877 57.0305 31.1028C57.0305 49.3602 37.1071 62.1903 30.9993 68.7455Z" fill="#F5C643"/>
<path d="M40.9154 22.3339H38.3753V18.1472C38.3753 15.207 35.9008 12.815 32.8592 12.815H29.141C26.0994 12.815 23.625 15.207 23.625 18.1472V22.3339H21.0848C17.0557 22.3339 13.7778 25.5026 13.7778 29.3973V39.0479C13.7778 42.9426 17.0557 46.1113 21.0848 46.1113H40.9153C44.9444 46.1113 48.2223 42.9426 48.2223 39.0479V29.3973C48.2224 25.5026 44.9445 22.3339 40.9154 22.3339ZM28.5281 27.0736H33.4721V41.3717H28.5281V27.0736ZM28.5281 18.1472C28.5281 17.8205 28.803 17.5547 29.141 17.5547H32.8592C33.1972 17.5547 33.4721 17.8205 33.4721 18.1472V22.3339H28.5281V18.1472ZM18.681 39.048V29.3975C18.681 28.1162 19.7593 27.0738 21.0848 27.0738H23.625V41.3717H21.0848C19.7593 41.3717 18.681 40.3293 18.681 39.048ZM43.3193 39.048C43.3193 40.3293 42.2409 41.3717 40.9154 41.3717H38.3753V27.0736H40.9154C42.2409 27.0736 43.3193 28.116 43.3193 29.3973V39.048Z" fill="#F5C643"/>
</svg>
