<svg width="82" height="82" viewBox="0 0 82 82" fill="none" xmlns="http://www.w3.org/2000/svg">
<circle cx="41" cy="41" r="39" fill="white" stroke="#711B28" stroke-width="4"/>
<path d="M41 12.6111C27.7664 12.6111 17 23.3488 17 36.5472C17 44.26 20.7146 50.4259 27.6667 57.9444C32.6334 63.5913 39.4098 69.5977 39.6398 69.827C40.0153 70.2016 40.5077 70.3889 41 70.3889C41.4923 70.3889 41.9847 70.2016 42.3602 69.8269C42.5901 69.5975 49.3656 64.1354 54.3333 57.9444C63.2222 48.1666 65 44.26 65 36.547C65 23.3488 54.2336 12.6111 41 12.6111ZM40.9995 65.69C36.2697 60.617 20.8473 50.6959 20.8473 36.5472C20.8473 25.4645 29.8878 16.4482 41 16.4482C52.1122 16.4482 61.1527 25.4645 61.1527 36.5472C61.1527 50.682 45.7281 60.6149 40.9995 65.69Z" fill="#711B28"/>
<path d="M48.6765 29.7584H46.7099V26.517C46.7099 24.2408 44.7942 22.3889 42.4395 22.3889H39.5608C37.2061 22.3889 35.2904 24.2408 35.2904 26.517V29.7584H33.3238C30.2045 29.7584 27.6667 32.2115 27.6667 35.2269V42.6982C27.6667 45.7135 30.2045 48.1667 33.3238 48.1667H48.6764C51.7957 48.1667 54.3334 45.7135 54.3334 42.6982V35.2269C54.3335 32.2115 51.7958 29.7584 48.6765 29.7584ZM39.0863 33.4279H42.914V44.4974H39.0863V33.4279ZM39.0863 26.517C39.0863 26.2641 39.2992 26.0584 39.5608 26.0584H42.4395C42.7011 26.0584 42.914 26.2641 42.914 26.517V29.7584H39.0863V26.517ZM31.4627 42.6984V35.227C31.4627 34.235 32.2976 33.428 33.3238 33.428H35.2904V44.4974H33.3238C32.2976 44.4974 31.4627 43.6903 31.4627 42.6984ZM50.5376 42.6984C50.5376 43.6903 49.7027 44.4974 48.6765 44.4974H46.7099V33.4279H48.6765C49.7027 33.4279 50.5376 34.2349 50.5376 35.2269V42.6984Z" fill="#711B28"/>
</svg>
