<svg width="82" height="82" viewBox="0 0 82 82" fill="none" xmlns="http://www.w3.org/2000/svg">
<circle cx="41" cy="41" r="39" fill="white" stroke="#711B28" stroke-width="4"/>
<path d="M67.3643 35.6691L44.5717 12.7263C44.5424 12.6967 44.5122 12.6681 44.4813 12.6403C41.9925 10.4056 38.2316 10.3977 35.7333 12.6218C35.7022 12.6495 35.672 12.678 35.6426 12.7073L12.6422 35.6624C11.7871 36.516 11.7857 37.901 12.6392 38.7561C13.4927 39.6112 14.8778 39.6125 15.7327 38.7592L17.4687 37.0265V55.9139C17.4687 60.7386 21.394 64.6639 26.2187 64.6639H34.0937C35.3019 64.6639 36.2812 63.6845 36.2812 62.4764V44.6482H43.9375V62.4764C43.9375 63.6845 44.9168 64.6639 46.125 64.6639H53.7812C58.606 64.6639 62.5313 60.7386 62.5313 55.9139C62.5313 54.7057 61.5519 53.7264 60.3438 53.7264C59.1356 53.7264 58.1563 54.7057 58.1563 55.9139C58.1563 58.3262 56.1936 60.2889 53.7812 60.2889H48.3125V42.4607C48.3125 41.2526 47.3332 40.2732 46.125 40.2732H34.0937C32.8856 40.2732 31.9062 41.2526 31.9062 42.4607V60.2889H26.2187C23.8064 60.2889 21.8437 58.3262 21.8437 55.9139V32.7264C21.8437 32.7045 21.8434 32.6827 21.8428 32.6611L38.6816 15.8555C39.5011 15.1595 40.7032 15.1621 41.5195 15.8615L58.1563 32.6079V44.9764C58.1563 46.1845 59.1356 47.1639 60.3438 47.1639C61.5519 47.1639 62.5313 46.1845 62.5313 44.9764V37.0117L64.2607 38.7526C64.6882 39.183 65.2502 39.3983 65.8125 39.3983C66.37 39.3983 66.9276 39.1865 67.3543 38.7627C68.2113 37.9112 68.2159 36.5262 67.3643 35.6691Z" fill="#711B28"/>
</svg>
