<svg width="68" height="66" viewBox="0 0 68 66" fill="none" xmlns="http://www.w3.org/2000/svg">
<path d="M67.2281 30.21L39.5513 2.3508C39.5158 2.31494 39.479 2.28015 39.4416 2.24641C36.4194 -0.46708 31.8527 -0.476775 28.819 2.22397C28.7813 2.25757 28.7446 2.29223 28.7089 2.32783L0.77986 30.2019C-0.258468 31.2383 -0.260195 32.9201 0.776141 33.9585C1.81261 34.9968 3.49442 34.9984 4.53261 33.9622L6.64061 31.8583V54.7929C6.64061 60.6515 11.407 65.4179 17.2656 65.4179H26.8281C28.2952 65.4179 29.4844 64.2287 29.4844 62.7616V41.1132H38.7812V62.7616C38.7812 64.2287 39.9704 65.4179 41.4375 65.4179H50.7344C56.593 65.4179 61.3594 60.6515 61.3594 54.7929C61.3594 53.3258 60.1702 52.1366 58.7031 52.1366C57.2361 52.1366 56.0469 53.3258 56.0469 54.7929C56.0469 57.7222 53.6637 60.1054 50.7344 60.1054H44.0937V38.457C44.0937 36.9899 42.9045 35.8007 41.4375 35.8007H26.8281C25.3611 35.8007 24.1719 36.9899 24.1719 38.457V60.1054H17.2656C14.3363 60.1054 11.9531 57.7222 11.9531 54.7929V26.6366C11.9531 26.6101 11.9527 26.5836 11.9519 26.5573L32.3991 6.15057C33.3942 5.30548 34.8538 5.30867 35.8452 6.15787L56.0469 26.4928V41.5116C56.0469 42.9787 57.2361 44.1679 58.7031 44.1679C60.1702 44.1679 61.3594 42.9787 61.3594 41.5116V31.8402L63.4594 33.9542C63.9786 34.4768 64.661 34.7383 65.3438 34.7383C66.0207 34.7383 66.6978 34.4811 67.2159 33.9664C68.2566 32.9325 68.2622 31.2507 67.2281 30.21Z" fill="#F5C643"/>
</svg>
