<svg width="16" height="18" viewBox="0 0 16 18" fill="none" xmlns="http://www.w3.org/2000/svg">
<path d="M7.91016 0C4.74732 0 2.10938 2.54777 2.10938 5.80078C2.10938 7.03835 2.48126 8.14191 3.19496 9.17599L7.46624 15.8409C7.67345 16.1649 8.14729 16.1643 8.35407 15.8409L12.6439 9.15332C13.3422 8.16609 13.7109 7.00689 13.7109 5.80078C13.7109 2.60223 11.1087 0 7.91016 0ZM7.91016 8.4375C6.45634 8.4375 5.27344 7.2546 5.27344 5.80078C5.27344 4.34697 6.45634 3.16406 7.91016 3.16406C9.36397 3.16406 10.5469 4.34697 10.5469 5.80078C10.5469 7.2546 9.36397 8.4375 7.91016 8.4375Z" fill="white"/>
<path d="M12.0327 12.1182L9.37733 16.2697C8.68999 17.3413 7.12649 17.3378 6.44245 16.2707L3.78274 12.1193C1.4426 12.6603 0 13.6515 0 14.8359C0 16.8912 4.07559 18 7.91016 18C11.7447 18 15.8203 16.8912 15.8203 14.8359C15.8203 13.6506 14.3757 12.6589 12.0327 12.1182Z" fill="white"/>
</svg>
