<svg width="18" height="18" viewBox="0 0 18 18" fill="none" xmlns="http://www.w3.org/2000/svg">
<g clip-path="url(#clip0)">
<path d="M3.9375 0C1.76288 0 0 1.76288 0 3.9375V14.0625C0 16.2371 1.76288 18 3.9375 18H6.00001V0H3.9375Z" fill="#73AF00"/>
<path d="M12.0004 0H6.00024V18H12.0004V0Z" fill="#F5F5F5"/>
<path d="M14.0625 0H12V18H14.0625C16.2371 18 18 16.2371 18 14.0625V3.9375C18 1.76288 16.2371 0 14.0625 0Z" fill="#FF4B55"/>
<path d="M9.53525 9.27759L9 9.54523V9.81288H9.26764L9.53525 9.27759Z" fill="#FFD250"/>
<path d="M8.99977 10.4819C8.9258 10.4819 8.86597 10.422 8.86597 10.348V9.81276C8.86597 9.73879 8.9258 9.67896 8.99977 9.67896C9.07374 9.67896 9.13358 9.73879 9.13358 9.81276V10.348C9.13358 10.422 9.07374 10.4819 8.99977 10.4819Z" fill="#00C3A0"/>
<path d="M8.99982 9.94664C8.47423 9.94664 7.96665 9.74383 7.57054 9.37557C7.51644 9.32526 7.51331 9.24057 7.56362 9.18646C7.61431 9.1325 7.69886 9.12961 7.75272 9.17954C8.09915 9.50167 8.54205 9.679 8.99982 9.679C9.45759 9.679 9.90049 9.50167 10.2469 9.17954C10.3009 9.12947 10.3854 9.13222 10.436 9.18646C10.4863 9.24057 10.4832 9.32526 10.4291 9.37557C10.033 9.74383 9.5254 9.94664 8.99982 9.94664Z" fill="#00C3A0"/>
<path d="M9.00009 10.4819C8.65704 10.4819 8.32474 10.3817 8.03906 10.1919L8.18725 9.96899C8.67026 10.2899 9.32993 10.2899 9.81294 9.96899L9.96112 10.1919C9.67544 10.3817 9.34315 10.4819 9.00009 10.4819Z" fill="#00AADC"/>
<path d="M8.78807 8.67554L8.49259 9.13275L8.44238 9.28328L9.21184 9.10487L8.78807 8.67554Z" fill="#732D37"/>
<path d="M8.18104 9.43014C7.8273 9.43014 7.40271 9.13244 7.29004 8.46911L7.55403 8.42443C7.64758 8.97603 7.98698 9.16292 8.19071 9.16239C8.25318 9.16071 8.31839 9.13912 8.32349 9.09496C8.3295 9.04216 8.33094 9.02961 8.19099 8.98232C8.11494 8.95659 8.02867 8.92744 7.96817 8.85819C7.72341 8.57866 8.05479 8.28279 8.21398 8.14061C8.24207 8.11551 8.25371 8.09421 8.25072 8.08612C8.24196 8.06327 8.18944 8.02864 8.13024 8.02864C7.96022 8.02864 7.83123 7.93259 7.79372 7.77812C7.75477 7.61816 7.82835 7.44958 7.96845 7.3772L8.09128 7.61503C8.05848 7.63201 8.04541 7.68038 8.05377 7.71487C8.05704 7.72872 8.06502 7.761 8.1302 7.761C8.29406 7.761 8.44998 7.85771 8.50068 7.99074C8.52237 8.04745 8.55503 8.19486 8.39222 8.3403C8.21644 8.49724 8.11125 8.6154 8.16954 8.68191C8.18273 8.69693 8.23933 8.71616 8.2767 8.72871C8.39718 8.76949 8.62144 8.84528 8.58927 9.12558C8.56916 9.30186 8.4118 9.4242 8.19802 9.42993C8.19243 9.43 8.18666 9.43014 8.18104 9.43014Z" fill="#AAD264"/>
<path d="M9.26764 7.93943C9.26764 7.93943 9.53529 7.40418 9 7.13653C9 7.13653 10.8734 6.86889 10.6058 9.27762L10.6057 9.27752C10.43 9.137 10.1692 8.88021 10.0761 8.67546L9.26761 8.20708V7.93943H9.26764Z" fill="#874150"/>
<path d="M9 8.47461L10.3382 9.27751C10.3382 9.27751 10.3382 9.27751 9.80293 9.54515L9 8.74225V8.47461Z" fill="#732D37"/>
<path d="M8.4646 7.67191C8.6124 7.67191 8.73224 7.79172 8.73224 7.93955L8.73196 7.93983C8.57232 8.09948 8.53273 8.34339 8.6337 8.54536L8.69417 8.66634C8.71938 8.71675 8.75256 8.7628 8.79243 8.80267L9.53514 9.54538V9.1755C9.53514 8.71471 9.42785 8.26028 9.22179 7.84814C9.08578 7.57614 8.80776 7.4043 8.50366 7.4043H8.4646V7.67191Z" fill="#783C46"/>
<path d="M8.46467 7.40405L8.19702 7.6717V7.93934C8.19702 7.93934 8.5154 7.7779 8.62269 7.72651C8.69768 7.69058 8.68404 7.60557 8.64101 7.56465C8.60751 7.5328 8.46467 7.40405 8.46467 7.40405Z" fill="#FFD250"/>
<path d="M8.99999 11.0171C7.74558 11.0171 6.7251 9.9966 6.7251 8.74219H6.99274C6.99274 9.84905 7.89313 10.7495 9.00003 10.7495C10.1069 10.7495 11.0073 9.84908 11.0073 8.74219H11.275C11.2749 9.9966 10.2544 11.0171 8.99999 11.0171Z" fill="#AAD264"/>
<path d="M7.00685 9.71804C7.10717 9.71804 7.1885 9.63671 7.1885 9.53639C7.1885 9.43606 7.10717 9.35474 7.00685 9.35474C6.90652 9.35474 6.8252 9.43606 6.8252 9.53639C6.8252 9.63671 6.90652 9.71804 7.00685 9.71804Z" fill="#FFE15A"/>
<path d="M7.40846 10.3592C7.50878 10.3592 7.59011 10.2778 7.59011 10.1775C7.59011 10.0772 7.50878 9.99585 7.40846 9.99585C7.30813 9.99585 7.22681 10.0772 7.22681 10.1775C7.22681 10.2778 7.30813 10.3592 7.40846 10.3592Z" fill="#FFE15A"/>
<path d="M8.0608 10.8445C8.16113 10.8445 8.24246 10.7632 8.24246 10.6629C8.24246 10.5625 8.16113 10.4812 8.0608 10.4812C7.96048 10.4812 7.87915 10.5625 7.87915 10.6629C7.87915 10.7632 7.96048 10.8445 8.0608 10.8445Z" fill="#FFE15A"/>
<path d="M11.012 9.71804C11.1123 9.71804 11.1936 9.63671 11.1936 9.53639C11.1936 9.43606 11.1123 9.35474 11.012 9.35474C10.9117 9.35474 10.8303 9.43606 10.8303 9.53639C10.8303 9.63671 10.9117 9.71804 11.012 9.71804Z" fill="#FFE15A"/>
<path d="M10.6104 10.3592C10.7107 10.3592 10.792 10.2778 10.792 10.1775C10.792 10.0772 10.7107 9.99585 10.6104 9.99585C10.51 9.99585 10.4287 10.0772 10.4287 10.1775C10.4287 10.2778 10.51 10.3592 10.6104 10.3592Z" fill="#FFE15A"/>
<path d="M9.95778 10.8445C10.0581 10.8445 10.1394 10.7632 10.1394 10.6629C10.1394 10.5625 10.0581 10.4812 9.95778 10.4812C9.85745 10.4812 9.77612 10.5625 9.77612 10.6629C9.77612 10.7632 9.85745 10.8445 9.95778 10.8445Z" fill="#FFE15A"/>
<path d="M9.13368 10.6159H8.86603C8.71824 10.6159 8.59839 10.496 8.59839 10.3482C8.59839 10.2004 8.7182 10.0806 8.86603 10.0806H9.13368C9.28148 10.0806 9.40133 10.2004 9.40133 10.3482C9.40133 10.496 9.28151 10.6159 9.13368 10.6159Z" fill="#FFB478"/>
<path d="M10.0761 8.67546C10.1654 8.93751 10.3549 9.17728 10.6057 9.27751L10.6058 9.27762C10.8734 6.86892 9 7.13653 9 7.13653C10.3382 7.13653 10.0761 8.67546 10.0761 8.67546Z" fill="#9B4B5A"/>
</g>
<defs>
<clipPath id="clip0">
<rect width="18" height="18" fill="white"/>
</clipPath>
</defs>
</svg>
