<svg width="45" height="79" viewBox="0 0 45 79" fill="none" xmlns="http://www.w3.org/2000/svg">
<path d="M43.7782 36.4174L9.69161 1.26206C8.90322 0.448305 7.8508 0 6.72864 0C5.60647 0 4.55405 0.448305 3.76567 1.26206L1.25543 3.85042C-0.377999 5.53702 -0.377999 8.27823 1.25543 9.96227L29.8788 39.4836L1.22367 69.0377C0.435291 69.8515 0 70.9363 0 72.093C0 73.251 0.435291 74.3358 1.22367 75.1502L3.73391 77.7379C4.52292 78.5517 5.57471 79 6.69688 79C7.81905 79 8.87147 78.5517 9.65985 77.7379L43.7782 42.5505C44.5684 41.7341 45.0025 40.6442 45 39.4855C45.0025 38.3224 44.5684 37.2331 43.7782 36.4174Z" fill="#C69717"/>
</svg>
