<svg width="45" height="79" viewBox="0 0 45 79" fill="none" xmlns="http://www.w3.org/2000/svg">
<path d="M1.22181 36.4174L35.3084 1.26206C36.0968 0.448305 37.1492 0 38.2714 0C39.3935 0 40.4459 0.448305 41.2343 1.26206L43.7446 3.85042C45.378 5.53702 45.378 8.27823 43.7446 9.96227L15.1212 39.4836L43.7763 69.0377C44.5647 69.8515 45 70.9363 45 72.093C45 73.251 44.5647 74.3358 43.7763 75.1502L41.2661 77.7379C40.4771 78.5517 39.4253 79 38.3031 79C37.181 79 36.1285 78.5517 35.3402 77.7379L1.22181 42.5505C0.431564 41.7341 -0.00247955 40.6442 1.14441e-05 39.4855C-0.00247955 38.3224 0.431564 37.2331 1.22181 36.4174Z" fill="#C69717"/>
</svg>
